<svg width="16" height="16" viewBox="0 0 16 16" fill="none" xmlns="http://www.w3.org/2000/svg">
<path fill-rule="evenodd" clip-rule="evenodd" d="M0.124366 1.17313C0.223258 1.0615 0.367814 0.998141 0.519258 1.00004L15.4807 1.00254C15.6322 1.00064 15.7767 1.064 15.8756 1.17562C15.9745 1.28725 16.0176 1.43571 15.9934 1.58119L13.8172 14.5809C13.7766 14.8248 13.5585 15.0031 13.3046 14.9999H2.8646C2.52625 14.9972 2.23875 14.7584 2.18278 14.4337L0.00661524 1.57869C-0.0176304 1.43321 0.0254741 1.28475 0.124366 1.17313ZM6.35057 10.2909H9.68275L10.4902 5.70407H5.44832L6.35057 10.2909Z" fill="#C1C1C1"/>
<path d="M15.2998 5.90039H10.4458L9.63122 10.3412H6.26937L2.2998 14.741C2.42562 14.8426 2.58603 14.8991 2.75236 14.9003H13.2879C13.5441 14.9034 13.7641 14.7309 13.8051 14.4947L15.2998 5.90039Z" fill="url(#paint0_linear_1483_60281)"/>
<defs>
<linearGradient id="paint0_linear_1483_60281" x1="12.1999" y1="4.36721" x2="7.0939" y2="12.1311" gradientUnits="userSpaceOnUse">
<stop offset="0.18" stop-color="#C8C8C8"/>
<stop offset="1" stop-color="white"/>
</linearGradient>
</defs>
</svg>
