<svg xmlns="http://www.w3.org/2000/svg" data-name="logo art" width="342.955" height="318.789"><rect id="backgroundrect" width="100%" height="100%" x="0" y="0" fill="none" stroke="none"/><defs><style>.cls-1{fill:#fc6d26}.cls-2{fill:#e24329}.cls-3{fill:#fca326}</style></defs><g class="currentLayer"><g id="g44"><path id="path46" class="cls-1" d="M339.562 180.724l-18.91-58.12-37.42-115.28a6.47 6.47 0 00-12.27 0l-37.42 115.21h-124.33L71.792 7.324a6.46 6.46 0 00-12.26 0l-37.36 115.21-18.91 58.19a12.88 12.88 0 004.66 14.39l163.47 118.78 163.44-118.78a12.9 12.9 0 004.73-14.39"/></g><g id="g48"><path id="path50" class="cls-2" d="M171.392 313.804l62.16-191.28h-124.29l62.13 191.28z"/></g><g id="g56"><path id="path58" class="cls-1" d="M171.392 313.804l-62.18-191.28h-87l149.18 191.28z"/></g><g id="g64"><path id="path66" class="cls-3" d="M22.142 122.584l-18.91 58.12a12.88 12.88 0 004.66 14.39l163.5 118.8-149.25-191.31z"/></g><g id="g72"><path id="path74" class="cls-2" d="M22.172 122.584h87.11l-37.49-115.2a6.47 6.47 0 00-12.27 0l-37.35 115.2z"/></g><g id="g76"><path id="path78" class="cls-1" d="M171.392 313.804l62.16-191.28h87.14l-149.3 191.28z"/></g><g id="g80"><path id="path82" class="cls-3" d="M320.632 122.584l18.91 58.12a12.85 12.85 0 01-4.66 14.39l-163.49 118.71 149.2-191.22z"/></g><g id="g84"><path id="path86" class="cls-2" d="M320.672 122.584h-87.1l37.42-115.2a6.46 6.46 0 0112.26 0l37.42 115.2z"/></g></g></svg>