<svg width="16" height="16" viewBox="0 0 16 16" fill="none" xmlns="http://www.w3.org/2000/svg">
<g clip-path="url(#clip0_1483_60264)">
<path d="M15.7337 6.09936L15.7112 6.04188L13.5335 0.358462C13.4892 0.24707 13.4107 0.152576 13.3094 0.0885373C13.2079 0.0255869 13.0897 -0.00473207 12.9705 0.00167412C12.8513 0.00808031 12.7369 0.0509032 12.6429 0.124361C12.5498 0.199927 12.4824 0.302323 12.4496 0.417612L10.9792 4.91636H5.025L3.55457 0.417612C3.52268 0.301695 3.45505 0.198786 3.36129 0.123527C3.26722 0.0500699 3.15287 0.00724703 3.03368 0.000840838C2.9145 -0.00556535 2.79622 0.0247536 2.69481 0.087704C2.5937 0.152001 2.51531 0.246413 2.47071 0.357629L0.288816 6.03855L0.267156 6.09603C-0.046338 6.91514 -0.0850337 7.81397 0.156903 8.65699C0.398839 9.50001 0.908292 10.2415 1.60845 10.7697L1.61595 10.7756L1.63594 10.7897L4.95335 13.274L6.59456 14.5162L7.59428 15.271C7.71122 15.3598 7.85401 15.4078 8.00083 15.4078C8.14766 15.4078 8.29045 15.3598 8.40739 15.271L9.40711 14.5162L11.0483 13.274L14.3857 10.7747L14.3941 10.7681C15.0926 10.2398 15.6009 9.49901 15.8425 8.65713C16.084 7.81524 16.0459 6.9177 15.7337 6.09936V6.09936Z" fill="#747474"/>
<path d="M15.7337 6.09948L15.7112 6.04199C14.6501 6.2598 13.6501 6.70927 12.7828 7.35829L8 10.9748C9.62871 12.2069 11.0467 13.2775 11.0467 13.2775L14.3841 10.7782L14.3924 10.7715C15.092 10.2432 15.601 9.502 15.8429 8.65939C16.0848 7.81679 16.0465 6.91841 15.7337 6.09948Z" fill="#A6A6A6"/>
<path d="M4.95312 13.2773L6.59434 14.5195L7.59406 15.2742C7.711 15.363 7.85378 15.4111 8.00061 15.4111C8.14743 15.4111 8.29022 15.363 8.40716 15.2742L9.40688 14.5195L11.0481 13.2773C11.0481 13.2773 9.62849 12.2034 7.99978 10.9746C6.37106 12.2034 4.95312 13.2773 4.95312 13.2773Z" fill="#CCCCCC"/>
<path d="M3.21633 7.35772C2.34974 6.70736 1.35002 6.25672 0.288816 6.03809L0.267156 6.09557C-0.046338 6.91468 -0.0850337 7.81351 0.156903 8.65653C0.398839 9.49955 0.908292 10.2411 1.60845 10.7693L1.61595 10.7751L1.63594 10.7893L4.95335 13.2736C4.95335 13.2736 6.36962 12.203 8 10.9709L3.21633 7.35772Z" fill="#A6A6A6"/>
</g>
<defs>
<clipPath id="clip0_1483_60264">
<rect width="16" height="16" fill="white"/>
</clipPath>
</defs>
</svg>
