<svg xmlns="http://www.w3.org/2000/svg" width="24" height="24" viewBox="0 0 24 24" focusable="false" role="presentation">
  <defs>
    <linearGradient id="a-acb7415e-40c7-472a-ade9-3b99b6a8fba4" x1="97.526%" x2="46.927%" y1="25.488%" y2="78.776%">
      <stop offset="0%" stop-color="#FFF" stop-opacity=".4"/>
      <stop offset="100%" stop-color="#FFF"/>
    </linearGradient>
  </defs>
  <path fill="url(#a-acb7415e-40c7-472a-ade9-3b99b6a8fba4)" d="M20.063 9.297h-5.279l-.886 5.16h-3.656l-4.317 5.116a.763.763 0 0 0 .492.186h11.458a.562.562 0 0 0 .563-.472l1.625-9.99z" transform="matrix(1.33 0 0 1.33 -4 -3.8)"/>
  <path fill="#FFF" d="M1.11252 1.52a.74879.74879 0 0 0-.74879.86583L3.5411 21.6296a1.01479 1.01479 0 0 0 .99484.84721l5.89589-7.049h-.82726l-1.29808-6.8628h14.37863l1.0108-6.1712a.7448.7448 0 0 0-.73815-.87381H1.11252z"/>
</svg>