<svg xmlns="http://www.w3.org/2000/svg" viewBox="0 0 23.36 20.088"><defs><style>.cls-1{fill:#cda251}</style></defs><g id="danger" transform="translate(0 -35.857)"><g id="Groupe_5722" data-name="Groupe 5722" transform="translate(0 35.857)"><g id="Groupe_5721" data-name="Groupe 5721"><path id="Tracé_9564" data-name="Tracé 9564" class="cls-1" d="M23.059 52.763l-9.582-15.891a2.1 2.1 0 0 0-3.594 0L.3 52.763a2.1 2.1 0 0 0 1.8 3.182h19.162a2.1 2.1 0 0 0 1.8-3.182zm-1.294 1.368a.579.579 0 0 1-.5.294H2.1a.578.578 0 0 1-.495-.876l9.582-15.891a.578.578 0 0 1 .989 0l9.582 15.891a.578.578 0 0 1 .007.582z" transform="translate(0 -35.857)"/></g></g><g id="Groupe_5724" data-name="Groupe 5724" transform="translate(10.657 42.114)"><g id="Groupe_5723" data-name="Groupe 5723"><path id="Tracé_9565" data-name="Tracé 9565" class="cls-1" d="M234.608 173.005c-.579 0-1.03.31-1.03.861 0 1.679.2 4.092.2 5.771 0 .437.381.621.833.621.339 0 .818-.183.818-.621 0-1.679.2-4.092.2-5.771a.907.907 0 0 0-1.021-.861z" transform="translate(-233.578 -173.005)"/></g></g><g id="Groupe_5726" data-name="Groupe 5726" transform="translate(10.614 50.341)"><g id="Groupe_5725" data-name="Groupe 5725"><path id="Tracé_9566" data-name="Tracé 9566" class="cls-1" d="M233.738 353.306a1.087 1.087 0 1 0 0 2.173 1.087 1.087 0 0 0 0-2.173z" transform="translate(-232.651 -353.306)"/></g></g></g></svg>