<svg width="16" height="16" viewBox="0 0 16 16" xmlns="http://www.w3.org/2000/svg" fill-rule="evenodd" clip-rule="evenodd" stroke-linejoin="round" stroke-miterlimit="1.414"><path d="M12.703 6.523a.593.593 0 0 0-.164-.419l-.83-.82a.58.58 0 0 0-.41-.173.58.58 0 0 0-.41.173l-3.718 3.71-2.06-2.06a.58.58 0 0 0-.41-.174.58.58 0 0 0-.41.174l-.83.82a.593.593 0 0 0-.164.42c0 .154.055.3.164.41l3.3 3.299c.109.11.264.173.41.173.155 0 .31-.064.419-.173l4.95-4.95a.571.571 0 0 0 .163-.41zM15 8c0 3.865-3.135 7-7 7s-7-3.135-7-7 3.135-7 7-7 7 3.135 7 7z" fill="#0a0" fill-rule="nonzero"/></svg>
