<svg width="16" height="16"  viewBox="0 0 16 16" xmlns="http://www.w3.org/2000/svg" fill-rule="evenodd" clip-rule="evenodd" stroke-linejoin="round" stroke-miterlimit="1.414"><path d="M11.596 8.28l-4.604 4.602a.382.382 0 0 1-.279.118.382.382 0 0 1-.279-.118l-1.03-1.03a.382.382 0 0 1-.117-.278c0-.108.04-.201.117-.28L8.7 8 5.404 4.706a.382.382 0 0 1-.117-.28c0-.108.04-.2.117-.279l1.03-1.03A.382.382 0 0 1 6.714 3c.107 0 .2.04.278.118l4.604 4.603a.382.382 0 0 1 .117.279c0 .108-.04.201-.117.28z" fill="#236a97" /></svg>