<svg xmlns="http://www.w3.org/2000/svg" viewBox="0 0 14.67 15.199"><defs><style>.cls-1{fill:#8a8c8f}</style></defs><g id="Groupe_5754" data-name="Groupe 5754" transform="translate(-152.652 -749)"><g id="user_5_" data-name="user (5)" transform="translate(152.652 753.42)"><g id="User"><g id="Groupe_5718" data-name="Groupe 5718"><path id="Tracé_9562" data-name="Tracé 9562" class="cls-1" d="M5.39 7.411c1.672 0 3.032-1.663 3.032-3.706S7.061 0 5.39 0a2.77 2.77 0 0 0-2.169 1.113 4.148 4.148 0 0 0-.863 2.593c0 2.042 1.36 3.705 3.032 3.705zm0-6.737c1.3 0 2.358 1.36 2.358 3.032S6.69 6.738 5.39 6.738 3.032 5.377 3.031 3.706 4.09.674 5.39.674zm2.358 6.063a.337.337 0 1 0 0 .674 2.361 2.361 0 0 1 2.358 2.358.337.337 0 0 1-.337.337H1.011a.337.337 0 0 1-.337-.337 2.361 2.361 0 0 1 2.358-2.358.337.337 0 1 0 0-.674A3.035 3.035 0 0 0 0 9.769a1.012 1.012 0 0 0 1.011 1.011h8.758a1.012 1.012 0 0 0 1.011-1.011 3.035 3.035 0 0 0-3.032-3.032z"/></g></g></g><g id="Groupe_5753" data-name="Groupe 5753" transform="translate(158.078 749)"><path id="Tracé_8533" data-name="Tracé 8533" class="cls-1" d="M299.414 15.715h-.506a7.469 7.469 0 0 0-7.508-7.409V7.8a7.974 7.974 0 0 1 8.014 7.915" transform="translate(-291.4 -6.943)"/><path id="Tracé_8534" data-name="Tracé 8534" class="cls-1" d="M324.687 7.659a7.63 7.63 0 0 0-5.287-5.452l.121-.407a8.071 8.071 0 0 1 5.584 5.76z" transform="translate(-316.322 -1.602)"/><path id="Tracé_8535" data-name="Tracé 8535" class="cls-1" d="M348.312 3.65A7.81 7.81 0 0 0 345.3.286l.176-.286a8.139 8.139 0 0 1 3.144 3.507z" transform="translate(-339.375)"/></g></g></svg>