
<svg id="Calque_1" data-name="Calque 1" xmlns="http://www.w3.org/2000/svg" viewBox="0 0 48 48"><defs><style>.cls-1{fill:#c9232c}</style></defs><g id="Groupe_5744" data-name="Groupe 5744"><g id="user"><g id="User-2" data-name="User"><g id="Groupe_5718" data-name="Groupe 5718"><path id="Tracé_9562" data-name="Tracé 9562" d="M18.27 37.36c5.28 0 9.57-5.25 9.57-11.7S23.54 14 18.27 14a8.72 8.72 0 0 0-6.85 3.51 13.1 13.1 0 0 0-2.73 8.19c0 6.41 4.31 11.66 9.58 11.66zm0-21.28c4.1 0 7.44 4.3 7.44 9.58s-3.34 9.57-7.44 9.57-7.45-4.29-7.45-9.57 3.34-9.57 7.45-9.57zm7.44 19.15a1.07 1.07 0 0 0 0 2.13 7.45 7.45 0 0 1 7.45 7.44 1.07 1.07 0 0 1-1.07 1.07H4.44a1.07 1.07 0 0 1-1.07-1.07 7.45 7.45 0 0 1 7.45-7.44 1.07 1.07 0 0 0 0-2.13 9.61 9.61 0 0 0-9.58 9.58A3.2 3.2 0 0 0 4.44 48H32.1a3.19 3.19 0 0 0 3.19-3.19 9.6 9.6 0 0 0-9.58-9.58z"/></g></g></g><g id="Groupe_5727" data-name="Groupe 5727"><path id="Tracé_8533" data-name="Tracé 8533" class="cls-1" d="M43.69 27.71h-1.61a23.58 23.58 0 0 0-23.7-23.4v-1.6a25.19 25.19 0 0 1 25.31 25"/><path id="Tracé_8534" data-name="Tracé 8534" class="cls-1" d="M44.8 19.13A24.11 24.11 0 0 0 28.1 1.91l.38-1.29a25.51 25.51 0 0 1 17.64 18.2z"/><path id="Tracé_8535" data-name="Tracé 8535" class="cls-1" d="M46.61 11.53A24.67 24.67 0 0 0 37.09.9l.56-.9a25.7 25.7 0 0 1 9.93 11.07z"/></g></g></svg>