<svg width="16" height="16"  viewBox="0 0 16 16" xmlns="http://www.w3.org/2000/svg" fill-rule="evenodd" clip-rule="evenodd" stroke-linejoin="round" stroke-miterlimit="1.414"><path d="M11.473 10.06a.58.58 0 0 0-.174-.41L9.65 8l1.65-1.65a.58.58 0 0 0 0-.83l-.82-.82a.58.58 0 0 0-.83 0L8 6.35 6.35 4.7a.58.58 0 0 0-.83 0l-.82.82a.58.58 0 0 0 0 .83L6.35 8 4.7 9.65a.58.58 0 0 0 0 .83l.82.82c.11.109.265.173.42.173a.58.58 0 0 0 .41-.174L8 9.65l1.65 1.65a.58.58 0 0 0 .83 0l.82-.82a.601.601 0 0 0 .173-.42zM15 8c0 3.865-3.135 7-7 7s-7-3.135-7-7 3.135-7 7-7 7 3.135 7 7z" fill="#d4333f" fill-rule="nonzero"/></svg>
