<svg width="16" height="16"  viewBox="0 0 16 16" xmlns="http://www.w3.org/2000/svg" fill-rule="evenodd" clip-rule="evenodd" stroke-linejoin="round" stroke-miterlimit="1.414"><path d="M9.006 11.114V9.651a.25.25 0 0 0-.247-.254H7.281a.25.25 0 0 0-.247.254v1.463a.25.25 0 0 0 .247.254h1.478a.25.25 0 0 0 .247-.254zm-.016-2.88l.14-3.535a.186.186 0 0 0-.078-.147c-.046-.038-.115-.084-.185-.084H7.173c-.07 0-.139.046-.185.084-.054.039-.077.116-.077.162l.13 3.52c0 .1.116.177.263.177h1.425c.138 0 .254-.077.261-.177zM8.883 1.04l5.915 10.844a.986.986 0 0 1-.863 1.456H2.105a.986.986 0 0 1-.863-1.456L7.157 1.04a.98.98 0 0 1 1.726 0z" fill="#ff9900" fill-rule="nonzero"/></svg>
