<svg id="newspaper" xmlns="http://www.w3.org/2000/svg" viewBox="0 0 13.45 12.543"><defs><style>.cls-1{fill:#8a8c8f}</style></defs><g id="Groupe_5746" data-name="Groupe 5746" transform="translate(5.348 3.34)"><g id="Groupe_5745" data-name="Groupe 5745"><path id="Tracé_9572" data-name="Tracé 9572" class="cls-1" d="M207.455 144.4h-3.34a.533.533 0 1 0 0 1.066h3.34a.533.533 0 1 0 0-1.066z" transform="translate(-203.582 -144.402)"/></g></g><g id="Groupe_5748" data-name="Groupe 5748" transform="translate(5.348 5.917)"><g id="Groupe_5747" data-name="Groupe 5747"><path id="Tracé_9573" data-name="Tracé 9573" class="cls-1" d="M208.735 242.473h-4.619a.533.533 0 0 0 0 1.066h4.619a.533.533 0 0 0 0-1.066z" transform="translate(-203.582 -242.473)"/></g></g><g id="Groupe_5750" data-name="Groupe 5750"><g id="Groupe_5749" data-name="Groupe 5749"><path id="Tracé_9574" data-name="Tracé 9574" class="cls-1" d="M12.917 17.247H3.482a.533.533 0 0 0-.533.533v5.028h-.941A2.01 2.01 0 0 0 0 24.816v2.967a2.008 2.008 0 0 0 2.275 1.99h8.794a2.384 2.384 0 0 0 2.381-2.381V17.78a.533.533 0 0 0-.533-.533zM2.949 27.783a.943.943 0 0 1-.759.924h-.182v.018a.943.943 0 0 1-.942-.942v-2.967a.943.943 0 0 1 .942-.942h.942v3.909zm9.434-.391a1.332 1.332 0 0 1-1.315 1.315H3.79a1.994 1.994 0 0 0 .225-.924v-9.47h8.368v9.079z" transform="translate(0 -17.247)"/></g></g><g id="Groupe_5752" data-name="Groupe 5752" transform="translate(5.348 8.333)"><g id="Groupe_5751" data-name="Groupe 5751"><path id="Tracé_9575" data-name="Tracé 9575" class="cls-1" d="M207.455 334.464h-3.34a.533.533 0 1 0 0 1.066h3.34a.533.533 0 1 0 0-1.066z" transform="translate(-203.582 -334.464)"/></g></g></svg>