<svg width="16" height="16"  viewBox="0 0 16 16" xmlns="http://www.w3.org/2000/svg" fill-rule="evenodd" clip-rule="evenodd" stroke-linejoin="round" stroke-miterlimit="1.414"><path d="M7.72 11.596L3.119 6.992A.382.382 0 0 1 3 6.713c0-.108.04-.2.118-.279l1.03-1.03a.382.382 0 0 1 .278-.117c.108 0 .201.04.28.117L8 8.7l3.294-3.295a.382.382 0 0 1 .28-.117c.108 0 .2.04.279.117l1.03 1.03a.382.382 0 0 1 .117.28c0 .107-.04.2-.118.278L8.28 11.596a.382.382 0 0 1-.279.117.382.382 0 0 1-.28-.117z" fill="#236a97" /></svg>