<svg id="Calque_1" data-name="Calque 1" xmlns="http://www.w3.org/2000/svg" viewBox="0 0 540.33 156.33"><defs><style>.cls-1{fill:#1b171b}.cls-3{fill:#4e9bcd}</style></defs><path class="cls-1" d="M11.89 101.92a29.92 29.92 0 0 0 13.23 3.74c4.65 0 6.57-1.62 6.57-4.14s-1.51-3.74-7.27-5.66c-10.21-3.44-14.15-9-14-14.85 0-9.2 7.89-16.17 20.11-16.17a33.07 33.07 0 0 1 13.95 2.83l-2.78 10.6A24.24 24.24 0 0 0 31 75.44c-3.74 0-5.87 1.51-5.87 4 0 2.33 1.93 3.54 8 5.66 9.4 3.23 13.34 8 13.44 15.26 0 9.19-7.27 16-21.42 16-6.47 0-12.22-1.42-16-3.44zM100.63 90.09c0 18.09-12.83 26.38-26.08 26.38C60.11 116.48 49 107 49 91s10.5-26.17 26.37-26.17c15.16 0 25.26 10.41 25.26 25.26zm-35.78.51c0 8.49 3.54 14.85 10.11 14.85 6 0 9.8-6 9.8-14.85 0-7.38-2.83-14.87-9.8-14.87-7.37.01-10.11 7.59-10.11 14.87zM106.11 81.71c0-6.16-.2-11.42-.41-15.76H119l.7 6.76h.31a18.08 18.08 0 0 1 15.25-7.88c10.11 0 17.69 6.66 17.69 21.22v29.31h-15.31V88c0-6.37-2.22-10.71-7.78-10.71a8.18 8.18 0 0 0-7.78 5.71 10.41 10.41 0 0 0-.61 3.84v28.51h-15.36zM189.39 115.36l-.91-5h-.3c-3.23 3.95-8.3 6.07-14.15 6.07-10 0-16-7.29-16-15.16 0-12.83 11.52-19 29-18.91v-.7c0-2.63-1.42-6.37-9-6.37a27.8 27.8 0 0 0-13.64 3.73l-2.84-9.9c3.44-1.93 10.21-4.35 19.2-4.35 16.48 0 21.73 9.7 21.73 21.32v17.18a75.92 75.92 0 0 0 .71 12zM187.58 92c-8.08-.1-14.35 1.83-14.35 7.78 0 3.95 2.63 5.87 6.07 5.87a8.39 8.39 0 0 0 8-5.66 10.87 10.87 0 0 0 .31-2.63zM210.63 82.21c0-7.27-.2-12-.41-16.26h13.24L224 75h.4c2.53-7.17 8.59-10.2 13.34-10.2a16.56 16.56 0 0 1 3.26.2v14.48a21.82 21.82 0 0 0-4.14-.41c-5.66 0-9.5 3-10.52 7.78a18.94 18.94 0 0 0-.3 3.44v25.07h-15.41zM342.35 102c0 5 .1 9.5.41 13.34h-7.89l-.51-8h-.19a18.43 18.43 0 0 1-16.17 9.1c-7.68 0-16.89-4.24-16.89-21.42V66.44H310v27.09c0 9.29 2.83 15.57 10.92 15.57a12.88 12.88 0 0 0 11.72-8.1 13.15 13.15 0 0 0 .81-4.55v-30h8.9zM352.67 115.36c.2-3.34.4-8.3.4-12.64V43.6h8.79v30.73h.2c3.13-5.46 8.79-9 16.68-9 12.12 0 20.71 10.11 20.61 25 0 17.49-11 26.18-21.92 26.18-7.08 0-12.73-2.73-16.37-9.2h-.31l-.4 8.09zm9.19-19.61a16.48 16.48 0 0 0 .41 3.23 13.71 13.71 0 0 0 13.33 10.41c9.31 0 14.85-7.58 14.85-18.79 0-9.8-5-18.19-14.55-18.19a14.17 14.17 0 0 0-13.54 10.91 17.47 17.47 0 0 0-.51 3.64zM411.5 92.52c.19 12 7.88 17 16.77 17a32.24 32.24 0 0 0 13.54-2.52l1.52 6.37c-3.13 1.41-8.49 3-16.27 3-15.06 0-24.06-9.9-24.06-24.65s8.69-26.38 22.94-26.38c16 0 20.21 14 20.21 23a33.67 33.67 0 0 1-.3 4.14zm26.07-6.37c.1-5.66-2.31-14.46-12.32-14.46-9 0-12.94 8.3-13.65 14.46z"/><path d="M290.55 75.25a26.41 26.41 0 1 0-11.31 39.07l10.22 16.6 8.11-5.51-10.22-16.6a26.42 26.42 0 0 0 3.2-33.56M279.1 105.4a18.5 18.5 0 1 1 4.9-25.7 18.52 18.52 0 0 1-4.9 25.7" fill-rule="evenodd" fill="#1b171b"/><path class="cls-3" d="M506.94 115.57h-6.27c0-50.44-41.62-91.48-92.78-91.48v-6.26c54.62 0 99.05 43.84 99.05 97.74z"/><path class="cls-3" d="M511.27 81.93c-7.52-31.65-33.16-58.06-65.27-67.29l1.44-5c33.93 9.74 61 37.65 68.95 71.1zM516.09 52.23a96 96 0 0 0-37.17-41.49l2.17-3.57a100.24 100.24 0 0 1 38.8 43.31z"/></svg>