<svg xmlns="http://www.w3.org/2000/svg" viewBox="0 0 14.751 11.981"><path d="M14.751 1.423a6.335 6.335 0 0 1-1.516 1.563q.009.131.009.393a8.589 8.589 0 0 1-.356 2.429 8.779 8.779 0 0 1-1.081 2.326 9.144 9.144 0 0 1-1.727 1.97 7.689 7.689 0 0 1-2.415 1.367 8.838 8.838 0 0 1-3.023.51A8.4 8.4 0 0 1 0 10.624a6.468 6.468 0 0 0 .73.037 5.919 5.919 0 0 0 3.753-1.292 3.03 3.03 0 0 1-2.827-2.1 3.831 3.831 0 0 0 .571.047 3.128 3.128 0 0 0 .8-.1 2.974 2.974 0 0 1-1.736-1.044A2.921 2.921 0 0 1 .6 4.25v-.037a3 3 0 0 0 1.367.384 3.02 3.02 0 0 1-.983-1.076A3.03 3.03 0 0 1 1.031.554a8.57 8.57 0 0 0 2.757 2.232 8.424 8.424 0 0 0 3.477.931 3.358 3.358 0 0 1-.075-.693A3.026 3.026 0 0 1 12.422.955a5.928 5.928 0 0 0 1.919-.73 2.935 2.935 0 0 1-1.329 1.666 6.024 6.024 0 0 0 1.739-.468z" fill="#8a8c8f"/></svg>