<svg viewBox="0 0 14 14" xmlns="http://www.w3.org/2000/svg" fill-rule="evenodd" clip-rule="evenodd" stroke-linejoin="round" stroke-miterlimit="1.414"><path d="M.563 0L.562 10.125H9l3.937 3.375V0H.562zm6.188 2.25a1.13 1.13 0 0 1 1.125 1.125A1.13 1.13 0 0 1 6.751 4.5a1.13 1.13 0 0 1-1.125-1.125A1.13 1.13 0 0 1 6.751 2.25zM3.938 6.917v.396H2.251v-.247c0-.208.395-.808 1.406-.808.18 0 .337.024.477.057-.127.22-.196.433-.196.602zm-.281-1.292a.848.848 0 0 1-.844-.844c0-.463.381-.844.844-.844.463 0 .844.381.844.844a.848.848 0 0 1-.844.844zm5.344 1.687h-4.5v-.395c0-.325.633-1.292 2.25-1.292s2.25.958 2.25 1.292v.395zm0-2.531c0-.463.381-.844.844-.844.463 0 .843.381.843.844 0 .463-.38.844-.843.844a.848.848 0 0 1-.844-.844zm2.25 2.531H9.563v-.395c0-.169-.068-.382-.195-.602.14-.033.297-.057.477-.057 1.011 0 1.406.598 1.406.809v.245z" fill="#4169e1" fill-rule="nonzero"/></svg>