<svg viewBox="0 0 14 14" xmlns="http://www.w3.org/2000/svg" fill-rule="evenodd" clip-rule="evenodd" stroke-linejoin="round" stroke-miterlimit="1.414"><path d="M13.5 2.57a5.52 5.52 0 0 1-1.593.428 2.685 2.685 0 0 0 1.216-1.524 5.431 5.431 0 0 1-1.756.668 2.666 2.666 0 0 0-2.022-.874c-.765 0-1.417.27-1.957.809a2.67 2.67 0 0 0-.809 1.958c0 .205.023.417.068.634a7.724 7.724 0 0 1-3.182-.853A7.84 7.84 0 0 1 .942 1.773a2.713 2.713 0 0 0-.377 1.396c0 .474.112.914.334 1.32.223.405.523.733.9.985a2.746 2.746 0 0 1-1.251-.352v.035c0 .668.21 1.254.63 1.76.42.506.949.824 1.589.955a2.846 2.846 0 0 1-.728.094c-.16 0-.334-.014-.523-.042a2.71 2.71 0 0 0 .977 1.366c.474.357 1.01.541 1.61.552a5.417 5.417 0 0 1-3.435 1.182c-.245 0-.468-.011-.668-.034a7.684 7.684 0 0 0 4.249 1.242c.982 0 1.904-.155 2.766-.467.863-.311 1.599-.728 2.21-1.25a8.407 8.407 0 0 0 1.581-1.803c.442-.68.772-1.39.989-2.129A7.86 7.86 0 0 0 12.112 4 5.805 5.805 0 0 0 13.5 2.57z" fill="#4d9bce" fill-rule="nonzero"/></svg>