<svg viewBox="0 0 130 80" xmlns="http://www.w3.org/2000/svg" fill-rule="evenodd" clip-rule="evenodd" stroke-linejoin="round" stroke-miterlimit="1.41">
  <path d="M128.44 47.8s-1.66-1.68-3.1-2.33c-1.45-.65-1.38-1.3-2.24-1.37-.87-.07-2.45-.36-3.75-.94-1.3-.58-4.98-2.1-6.56-2.95-1.6-.86-2.6-1.5-3.04-1.87-.44-.36-1.16-.3-2.53-.1 0 0-3.9.9-5.26 1.54-1.37.65-4.47 2.38-4.98 2.8 0 0-.58 0-.8.3l-.07-.07c-.36-.22-2.67-2.45-2.67-2.45-1.16-1-3.1-3.1-4.33-4.1-1.23-1.02-6.17-2.6-8.22-2.4-1.9.2-2.82 1.45-3.32 2.68-.4-.72-.85-1.44-1.3-1.95l-1.57-1.88s-1.3 0-2.6.87c-.77.52-1.88 1.7-2.63 2.56-.62.02-1.12.17-1.4.4-.93.8-6.27 4.54-6.5 5.48-.12.6-.34.98-.63 1.2-.42-.44-1.28-.82-2.24-.4l-.2.08c-.13-2.6-.5-9.4-.67-10.1-.2-.87-.65-1.52-1.37-1.16-.72.36-1.37 1.37-1.37 2.46 0 1.08.43 1.65.57 2.1.12.35.24 5.7.5 7.8-.96.5-1.83 1.16-2.1 1.92-.5 1.52-.42 2.1-.85 2.53l-.24.18c-.3-.3-.67-.58-.96-.87-.15-.66-.2-1.4.4-1.76.73-.43.73-3.24 0-3.53l-.72-.3s1.3-4.82 1-7.56c-.28-2.74-.56-5.63-1.14-6.06-.58-.43-1.8-.2-1.8-.2s-1.66.92-3.75 2.15c-2.08 1.22-5.84 3.82-6.4 4.7-.6.85-2.97 3.38-2.97 3.38l-.16.2c-1.85-.24-3.8-.3-4.96.08-2.3.8-7.27 3.75-8.07 5.56-.65 1.47-1.35 2.76-1.42 4.37-.9 1.93-1.38 5.25.78 9.9 0 0 1.3.8 3.32.57.45-.04 1.1-.06 1.8-.14-1.76 2.3-3.93 5.16-4.75 5.98-1.23 1.23-9.1 8.15-10.4 8.5-1.3.38-1.72.23-.64.8 1.1.58 3.02.15 3.7-.86.7-1 1.65-2.67 2.44-3.46.8-.8 4.98-3.4 5.34-3.9.35-.5 6.38-6.52 7.04-7.73.43-.2.83-.5 1.15-.85.35-.02.67-.1.97-.2 1.94-.8 5.05-3.26 6.56-5.42.87-1.25 1.65-2.6 2.07-3.7.8-.63 1.45-1.1 1.68-1.13.72-.15 1.87-.5 1.87.72s1.23 3.9 2.3 5.48c1.1 1.6 2.54 2.88 2.54 2.88s-.08.66.65.74c.73.07 1.37-.15 1.52.2.35.88 1.87.23 2.6-.42.72-.65 1 .43 2-.22C57.56 55.86 58 55 58 53.83c0-.5-.24-.9-.6-1.2l.1-.1s.85.07 1.7-.2c-.05.37-.05.86.02 1.5.22 1.8 1.45 2.96 2.17 2.96s1.22.78 1.22.78-.08 1.37.93 1.66c1 .3 3.75-1 4.4-1.58.65-.58 1.95.86 2.52 2.1.58 1.2 3.6 6.33 4.7 7.56 1.07 1.23 2.5 3.25 3.88 4.98 1.38 1.73.6 1.9 1.02 1.9.44 0 .15.3.5.65.37.36 2.32 1.5 2.82 1.88.5.36 2.6 1.08 2.9.86.27-.22.42-.94.42-.94s-.37.14-1.8-.37c-1.46-.5-3.33-1.74-3.55-2.1-.22-.36-.86-.65-.86-.65s-1.95-2.26-3.1-4.5c0 0-.96-2.3-1.97-4.54-1-2.23-4.33-8.8-5.77-9.15-1.44-.36-3.25.07-4.26.94-1 .85-1.44.56-1.94.2-.5-.36.07-1.22-.22-2.45-.1-.43-.3-1.1-.62-1.75.34-.05.63-.25.77-.63.28-.8.2-1.15 1.2-1 .16 0 .38.03.66.03-.14.26-.23.48-.24.62-.02.8.62 2.27 1.57 2.63.95.35 5 2.12 5.84 1.27.85-.85 4.62-2.9 5.3-3.28.66-.37 1.9-.62 2.32-.53.42.1 1.3 3.25 2.77 5.93 1.5 2.68 1.24 3.8 2.2 3.43.98-.38.96.72 1.85.7.9-.03 1.05.6 1.57 1.6.53 1 1.07 2.22 2.35 2.42 1.3.2 6.4 1.53 6.97 1.22.6-.32.6-1.12-.87-1.44-1.48-.33-4.94-.34-5.7-.88-.78-.53-.97-3.38-1.8-3.7-.8-.33-2.04-.75-2.2-1.07-.12-.27-3.02-5.42-4.14-8.16 1.47.63 3.75 1.52 5.13 1.96 2 .65 5.47 1.73 6.92 1.73.9 0 1.27-.32 1.42-.55.1.25.18.45.24.55.28.5.72.87.72.87s-.15.3.28.5c.44.22 3.4.65 4.48 1.66 1.08 1 2.6 2.96 2.74 4.76.14 1.8 1.3 3.75 1.87 3.82.58.08 1.23 0 .65-2.45-.58-2.46-1.44-4.4-2.8-5.5-1.38-1.07-4.92-2.8-5.35-3.02-.43-.22-1-.8-1.22-.8-.22 0-.15-.2-.5-1.43-.07-.22-.14-.46-.2-.72.1-.24.43-1.15.55-2.4.15-1.43-.5-4.6-1.08-5.4 0 0-.06-.5-.07-.92.18.1.36.12.5 0 .43-.36 1.6-1.88 3.4-2.67 1.8-.8 3.52-1.5 5.54-1.66 2-.14 2.3-.3 2.3-.3s.94-.13 2.02.45c1.08.57 7.5 3.82 8.44 4.18.94.36 2.38 1 3.4 1.8 1 .8 1.8.72 1.8.72s.7.8 1.8 1.52c1.08.72 1.44 1.08 2.1 1.22.63.15 1.93.82.28-1.56zm-86.76-.76c.03-.28 0-.52-.07-.7-.13-.32-.15-.8-.12-1.35.36.2 1.08.66 1.73 1-.5.25-.98.64-1.52 1.04zm5.98-6.9c-1.08-.73-3.1.07-3.82.43-.58.3-1.7.48-2.08.55-.15-.52-.44-1.06-1.02-1.35-.53-.26-1.78-.6-3.23-.85l2.3-2.47s1.73-.14 2.96-1c1.23-.87 5.92-5.56 6.56-5.92.65-.36 1.23-.2 1.1.87-.16 1.08-.88 5.48-.95 7.14-.07 1.65.07 5.04.07 5.04s-.9.63-.8 1.33c-.26-.04-.47-.07-.57-.1-.3-.06.58-2.95-.5-3.67zm4.12 14.56c-.44.58-.94.3-.94.3s-1.73-2.9-2.45-5.57l-.3-.9c.57.13 1.1.13 1.5.54.5.5.9 1.7 1.3 2.28-.3.95-.38 1.4.52 1.7 1.08.35 2-.15 2-.15s.14.15.36.34c-.9.52-1.74 1.1-2 1.46zm21.5-19.76c.7-1 1.43-1 1.64-.22.14.48.53 2.23.82 3.56-.7.13-1.2.24-1.5.4-.6-.8-1.3-1.4-2-1.8.27-.57.56-1.28 1.03-1.94zM77.5 49.2s-5.86 1.2-6.94 1.77c-1.08.58-2 1.34-2.68 1.12-.7-.24 1.15-.87 2.74-2.07.62-.48 1.1-1.2 1.18-1.83l.3-.42c1.08-1.6 2.3-2.86 2.92-4.2.23.06.46.1.7.1.05 1.37.68 2.44 1.15 3.3.33.6 1.13 1.3 1.98 1.95-.5.07-.97.18-1.34.28zm10.84.14c-.54.54-1.17.72-2.7-1.35-1.53-2.1-.03-3.2.9-3.08.72.1.72.27 1.44 1.36.73 1.08.9 2.52.36 3.06" fill="#A81C7D" fill-rule="nonzero"/>
  <path d="M5.33 79.42l-4.9-2.04V76.1l4.9-2.03v1.53l-2.97 1.14 2.97 1.16v1.52M13.4 78.85h-2.2l-.32 1.04h-2l2.38-6.32h2.13l2.36 6.3h-2.04l-.32-1.03zM13 77.5l-.7-2.3-.7 2.3H13M19.46 73.58h3.24c.7 0 1.24.16 1.6.5.34.34.52.82.52 1.44 0 .63-.2 1.13-.58 1.5-.38.35-.96.53-1.75.53H21.4v2.34h-1.96v-6.32zm1.96 2.7h.48c.38 0 .64-.07.8-.2.15-.13.22-.3.22-.5s-.06-.37-.2-.5c-.13-.15-.38-.22-.74-.22h-.56v1.4M32.05 78.85h-2.2l-.32 1.04h-2l2.37-6.32h2.14l2.37 6.3h-2.04l-.3-1.03zm-.4-1.36l-.7-2.3-.7 2.3h1.4M42.16 77.3l1.7.53c-.1.48-.28.88-.53 1.2-.25.32-.55.56-.92.72-.36.17-.82.25-1.4.25-.67 0-1.23-.1-1.67-.3-.43-.2-.8-.55-1.13-1.05-.3-.5-.47-1.15-.47-1.93 0-1.05.28-1.85.83-2.4.56-.57 1.34-.85 2.36-.85.8 0 1.42.16 1.87.48.45.32.8.82 1 1.48l-1.7.4c-.07-.2-.14-.35-.2-.44-.1-.16-.25-.27-.4-.35-.16-.08-.34-.12-.53-.12-.44 0-.78.17-1 .53-.2.26-.28.68-.28 1.24 0 .7.1 1.18.3 1.44.22.26.52.4.9.4.37 0 .65-.1.84-.32.2-.2.33-.5.42-.9M47.9 73.58h1.96v2.2H52v-2.2h1.95v6.3H52v-2.54h-2.14v2.55H47.9v-6.32M58.32 73.58h5.24v1.35h-3.28v1h3.04v1.28h-3.04v1.26h3.37v1.43h-5.33v-6.32M77.68 78.85h-2.2l-.32 1.04h-2l2.38-6.32h2.13l2.37 6.3H78l-.32-1.03zm-.4-1.36l-.7-2.3-.7 2.3h1.4M83.76 73.58h1.82l2.38 3.5v-3.5h1.84v6.3h-1.84l-2.37-3.47v3.5h-1.84v-6.32M93.75 73.58h5.92v1.55h-2v4.76h-1.94v-4.77h-1.98v-1.55M103.45 77.9l2.98-1.16-2.98-1.14v-1.53l4.9 2.03v1.28l-4.9 2.04V77.9" fill="#231F20" fill-rule="nonzero"/>
  <path d="M0 67.66L80.7 0h.46l28.9 67.66H0" fill="#fff" fill-rule="nonzero"/>
  <path d="M71.8 48.2c-.1.63-.56 1.35-1.18 1.83-1.6 1.2-3.43 1.83-2.74 2.06.7.2 1.6-.55 2.68-1.13 1.08-.57 6.95-1.76 6.95-1.76.38-.1.84-.2 1.35-.27-.85-.64-1.65-1.34-1.98-1.95-.47-.86-1.1-1.93-1.16-3.3-.22 0-.45-.04-.68-.1-.62 1.34-1.84 2.6-2.9 4.2-.1.14-.2.28-.32.42M75.74 38.28c-.3-1.33-.68-3.08-.82-3.56-.2-.8-.93-.8-1.65.22-.47.66-.76 1.37-1.02 1.95.7.4 1.4.97 1.98 1.78.3-.16.82-.27 1.5-.4M86.54 44.92c-.93-.1-2.43 1-.9 3.07 1.53 2.06 2.16 1.88 2.7 1.34.54-.54.37-1.98-.36-3.06-.72-1.1-.72-1.26-1.44-1.36" fill="#A81C7D" fill-rule="nonzero"/>
  <path d="M46 30.47c2.1-1.23 3.76-2.16 3.76-2.16s1.22-.2 1.8.22c.58.43.86 3.32 1.15 6.06.3 2.74-1 7.57-1 7.57l.72.3c.73.28.73 3.1 0 3.52-.6.36-.55 1.1-.4 1.76.3.3.65.58.96.88l.24-.17c.43-.44.36-1 .86-2.53.26-.76 1.13-1.4 2.08-1.93-.25-2.1-.37-7.44-.5-7.8-.13-.44-.57-1-.57-2.1 0-1.08.64-2.1 1.36-2.45.72-.36 1.16.3 1.37 1.16.18.7.54 7.5.67 10.1l.2-.08c.96-.42 1.82-.04 2.24.4.3-.22.5-.6.64-1.2.22-.93 5.56-4.68 6.5-5.47.27-.23.77-.38 1.4-.4.74-.85 1.85-2.04 2.63-2.56 1.3-.87 2.6-.87 2.6-.87l1.6 1.88c.43.5.88 1.23 1.28 1.95.5-1.23 1.4-2.5 3.33-2.67 2.06-.2 7 1.37 8.23 2.38 1.23 1 3.17 3.1 4.33 4.1 0 0 2.3 2.24 2.67 2.46l.08.06c.22-.28.8-.28.8-.28.2-.17.84-.56 1.6-1L81.17.7h-.46L42.3 32.9c1.25-.9 2.68-1.83 3.7-2.43M61.37 56.8c-.72 0-1.95-1.16-2.17-2.97-.07-.64-.07-1.13 0-1.5-.87.27-1.73.2-1.73.2l-.1.1c.37.3.6.7.6 1.2 0 1.16-.42 2.03-1.44 2.67-1 .65-1.3-.43-2.02.22-.7.65-2.23 1.3-2.58.43-.15-.36-.8-.14-1.5-.2-.74-.1-.66-.74-.66-.74s-1.45-1.28-2.53-2.87c-1.08-1.6-2.3-4.26-2.3-5.48 0-1.23-1.16-.87-1.88-.72-.23.04-.87.5-1.68 1.13-.42 1.1-1.2 2.45-2.07 3.7-1.5 2.16-4.62 4.6-6.56 5.4-.3.13-.62.2-.97.22-.32.36-.72.64-1.15.85-.66 1.2-6.7 7.24-7.04 7.74-.2.3-1.67 1.26-3.03 2.2H76c-.3-.4-.6-.75-.86-1.05-1.08-1.23-4.1-6.35-4.7-7.57-.56-1.23-1.86-2.67-2.5-2.1-.66.58-3.4 1.88-4.4 1.6-1.02-.3-.95-1.67-.95-1.67s-.5-.8-1.23-.8M23.15 65.08c.82-.82 3-3.67 4.75-5.98-.7.08-1.35.1-1.8.14-2.02.22-3.32-.57-3.32-.57-1.66-3.57-1.75-6.34-1.3-8.32L0 68.35h19.5c1.7-1.46 3.17-2.8 3.65-3.27" fill="#A81C7D" fill-rule="nonzero"/>
  <path d="M97.35 44.1c-.14.12-.32.1-.5 0 0 .43.07.94.07.94.58.8 1.23 3.96 1.08 5.4-.12 1.24-.46 2.15-.55 2.4.06.25.13.5.2.7.35 1.23.28 1.45.5 1.45.2 0 .8.56 1.22.78.43.22 3.97 1.95 5.34 3.03 1.38 1.1 2.24 3.04 2.82 5.5.58 2.44-.07 2.52-.65 2.44-.58-.07-1.73-2.02-1.87-3.82-.15-1.8-1.66-3.75-2.74-4.76-1.08-1-4.04-1.44-4.48-1.66-.43-.2-.28-.5-.28-.5s-.44-.36-.72-.87c-.06-.1-.15-.3-.24-.55-.15.23-.5.55-1.42.55-1.45 0-4.9-1.08-6.93-1.73-1.4-.44-3.67-1.33-5.14-1.96 1.12 2.74 4.02 7.9 4.15 8.17.16.33 1.4.75 2.2 1.08.83.32 1.02 3.17 1.8 3.7.76.54 4.22.55 5.7.88 1.48.32 1.46 1.12.87 1.44-.58.3-5.68-1-6.97-1.22-1.28-.2-1.82-1.43-2.35-2.43-.52-1-.68-1.62-1.57-1.6-.9.03-.87-1.07-1.84-.7-.97.4-.72-.74-2.2-3.42-1.5-2.68-2.36-5.83-2.78-5.92-.43-.08-1.66.17-2.33.54-.67.37-4.44 2.43-5.3 3.28-.84.85-4.88-.92-5.84-1.27-.96-.36-1.6-1.82-1.58-2.63 0-.14.1-.36.24-.62-.28 0-.5-.02-.65-.04-1-.14-.92.22-1.2 1-.15.4-.44.6-.78.64.3.64.52 1.32.62 1.75.3 1.23-.3 2.1.22 2.45.5.36.94.65 1.94-.2 1-.88 2.82-1.3 4.26-.95 1.44.36 4.76 6.92 5.77 9.16.67 1.5 1.32 3 1.68 3.86h32.95L99 42.5c-.8.68-1.37 1.37-1.65 1.6M36.47 38.76l.16-.2s2.32-2.47 2.93-3.37l-4.1 3.44c.33.03.67.07 1 .12M49.6 49.07c-.4-.4-.93-.4-1.5-.53l.3.9c.7 2.66 2.44 5.55 2.44 5.55s.5.28.94-.3c.26-.35 1.1-.94 2-1.46l-.35-.34s-.93.5-2 .14c-.9-.3-.82-.74-.52-1.7-.4-.58-.8-1.78-1.3-2.27M49.32 29.53c-.64.36-5.33 5.05-6.56 5.92-1.23.86-2.96 1-2.96 1l-2.3 2.47c1.46.25 2.7.6 3.24.85.58.3.87.83 1.02 1.35.4-.07 1.5-.26 2.08-.55.72-.36 2.74-1.16 3.82-.44 1.1.72.22 3.6.5 3.68.1.03.32.06.58.1-.1-.7.8-1.32.8-1.32s-.14-3.4-.07-5.04c.07-1.66.8-6.06.94-7.14.15-1.08-.43-1.23-1.08-.87M43.2 46c-.64-.34-1.36-.8-1.72-1-.03.53 0 1.02.13 1.34.1.18.1.42.08.7.54-.4 1.02-.8 1.53-1.04" fill="#A81C7D" fill-rule="nonzero"/>
</svg>
