<svg viewBox="0 0 169 60" xmlns="http://www.w3.org/2000/svg" fill-rule="evenodd" clip-rule="evenodd" stroke-linejoin="round" stroke-miterlimit="1.41421">
  <g fill-rule="nonzero">
    <path d="M5.6405 33.56208c0-.39166-.13802-.6925-.41525-.9013-.27605-.21-.7739-.43178-1.49235-.66418-.71962-.2324-1.28825-.46245-1.70823-.68778-1.14197-.617-1.71413-1.44988-1.71413-2.4951 0-.54386.15336-1.02872.4601-1.45578.3067-.42588.74675-.75856 1.3201-.99805.57334-.2395 1.21747-.35982 1.93238-.35982.71844 0 1.35903.12977 1.92176.3905.56155.2607.99804.6276 1.3095 1.10302.31143.47425.46716 1.01338.46716 1.6174H5.6476c0-.46127-.14512-.8199-.43533-1.07472-.2902-.256-.6984-.3846-1.22337-.3846-.50728 0-.9013.10736-1.18208.32207-.28195.2147-.42234.49666-.42234.84704 0 .32677.16517.60047.4943.82225.32915.2206.8152.42824 1.45578.62172 1.17972.3551 2.03856.79513 2.5777 1.3201.53912.52616.80928 1.17972.80928 1.96306 0 .8718-.33032 1.55487-.9886 2.05035-.65947.49548-1.54662.74322-2.66146.74322-.7739 0-1.47937-.14156-2.11523-.42587-.63587-.28314-1.12074-.67126-1.45578-1.1644-.33386-.4931-.5002-1.0641-.5002-1.71412h2.07985c0 1.11013.66418 1.66577 1.99136 1.66577.49313 0 .87772-.10027 1.15377-.30082.27723-.20056.41526-.48015.41526-.83997zM16.47152 31.39848c0 .99096-.17578 1.85924-.52497 2.606-.35038.74676-.85176 1.32247-1.50415 1.7283-.65238.4058-1.39915.60872-2.24265.60872-.83406 0-1.57846-.20055-2.2332-.60165-.65357-.4011-1.16085-.97327-1.52066-1.71767-.35983-.7444-.5415-1.60088-.54622-2.56826v-.49784c0-.99096.1793-1.86277.5356-2.61662.35744-.75266.86236-1.33072 1.51475-1.73418.6512-.40347 1.3968-.6052 2.23557-.6052.83878 0 1.58436.20173 2.23675.6052.6512.40346 1.15612.98152 1.51358 1.73418.35745.75385.5356 1.6233.5356 2.60954v.44948zm-2.10108-.45655c0-1.05467-.18994-1.85688-.56745-2.40545-.37752-.5474-.91665-.82227-1.6174-.82227-.69604 0-1.2328.27135-1.61032.81284-.3775.5415-.5698 1.33426-.57452 2.38067v.49078c0 1.02753.18993 1.82502.56744 2.39247.3775.56627.92136.8494 1.63155.8494.69604 0 1.23045-.27252 1.60324-.81873.37397-.5462.56272-1.34252.56744-2.38893v-.49077zM25.24274 36.2023H23.1688l-4.037-6.62177v6.62177h-2.07396V26.1381h2.07395l4.04407 6.63593V26.1381h2.06687v10.0642zM31.94 34.12953h-3.6359l-.6913 2.07277h-2.2049l3.7456-10.0642h1.92177l3.76803 10.0642h-2.2049l-.6984-2.07277zm-3.0767-1.67992h2.51634l-1.26466-3.76802-1.25168 3.76803zM38.5889 32.51803h-1.65278v3.68427h-2.07276V26.1381h3.73853c1.18915 0 2.10697.26544 2.75228.79514.64412.5297.96737 1.2788.96737 2.24618 0 .6866-.14865 1.25995-.44594 1.71768-.29728.4589-.74793.82462-1.35195 1.09596l2.17777 4.1125v.09674h-2.22614l-1.88637-3.68427zm-1.65278-1.67874h1.67285c.52143 0 .9249-.13332 1.2104-.39757.28548-.26544.42823-.63115.42823-1.09596 0-.47425-.1345-.84822-.40465-1.11956-.26897-.2725-.68305-.40817-1.24106-.40817H36.9361v3.02126zM51.2308 31.39848c0 .94023-.1522 1.7566-.45656 2.45028-.30437.69367-.72553 1.2505-1.26466 1.6693l1.67284 1.3142-1.3201 1.16793-2.14356-1.72122c-.2442.0413-.49784.06252-.75974.06252-.83406 0-1.57846-.20055-2.2332-.60165-.65475-.4011-1.16085-.97327-1.52066-1.71767-.35982-.7444-.5415-1.60088-.5462-2.56826v-.49784c0-.99096.1793-1.86277.53558-2.61662.35745-.75266.86237-1.33072 1.51476-1.73418.6512-.40347 1.3968-.6052 2.23557-.6052.83878 0 1.58436.20173 2.23675.6052.6512.40346 1.15612.98152 1.51358 1.73418.35627.75385.5356 1.6233.5356 2.60954v.44948zm-2.1011-.45655c0-1.05467-.18993-1.85688-.56744-2.40545-.3775-.5474-.91664-.82227-1.6174-.82227-.69603 0-1.2328.27135-1.6103.81284-.3787.5415-.5698 1.33426-.57453 2.38067v.49078c0 1.02753.18993 1.82502.56744 2.39247.3775.56627.92136.8494 1.63155.8494.69604 0 1.23045-.27252 1.60324-.81873.37398-.5462.56273-1.34252.56745-2.38893v-.49077zM59.44872 26.1381v6.62885c0 1.10186-.34448 1.9725-1.03343 2.61308-.68897.6406-1.6304.96147-2.82426.96147-1.175 0-2.10816-.31144-2.79948-.93315-.69132-.6229-1.04287-1.477-1.05703-2.5647V26.1381h2.07395v6.643c0 .65947.1569 1.13962.47307 1.44163.31616.302.75266.453 1.3095.453 1.16673 0 1.75895-.61344 1.77664-1.83917V26.1381h2.08102zM60.22852 36.2023V26.1381h3.52618c1.221 0 2.1471.2336 2.77824.70194.63115.46717.9473 1.1526.9473 2.05625 0 .4931-.1274.92725-.37986 1.30358-.25364.37515-.60637.65003-1.0582.8258.5167.1286.92254.3893 1.21983.78098.2973.39167.44594.87063.44594 1.43808 0 .96737-.3091 1.69998-.92608 2.19782-.617.49784-1.49706.75148-2.6402.75974H60.2285zm2.07394-4.38148v2.7157h1.77666c.4884 0 .86946-.1156 1.14433-.34918.2737-.2324.41054-.5533.41054-.96384 0-.92136-.4766-1.3897-1.431-1.40268h-1.90054zm0-1.4664h1.53482c1.0464-.0177 1.56903-.4353 1.56903-1.2505 0-.45655-.13212-.7845-.39756-.98506-.26426-.20056-.68306-.30083-1.25404-.30083h-1.45224v2.5364zM74.39813 31.84087h-3.98155v2.69566h4.67287v1.66577H68.3438V26.1381h6.73267v1.67993h-4.6599v2.39837h3.98156v1.62447z" fill="#4A9ACD"/>
    <path d="M83.21064 33.56208c0-.39166-.1392-.6925-.41526-.9013-.27606-.21-.7739-.43178-1.49353-.66418-.71845-.2324-1.28707-.46245-1.70705-.68778-1.14315-.617-1.71413-1.44988-1.71413-2.4951 0-.54386.15336-1.02872.4601-1.45578.3067-.42588.74675-.75856 1.3201-.99805.57334-.2395 1.21746-.35982 1.93237-.35982.71845 0 1.35904.12977 1.9206.3905.56272.2607.9992.6276 1.31066 1.10302.31144.47425.466 1.01338.466 1.6174H83.2177c0-.46127-.1463-.8199-.4365-1.07472-.2902-.256-.6972-.3846-1.22337-.3846-.5061 0-.90012.10736-1.18208.32207-.28077.2147-.42116.49666-.42116.84704 0 .32677.16517.60047.49432.82225.32914.2206.814.42824 1.4546.62172 1.1797.3551 2.03973.79513 2.57886 1.3201.53913.52616.8081 1.17972.8081 1.96306 0 .8718-.32913 1.55487-.9886 2.05035-.65828.49548-1.54543.74322-2.66027.74322-.77506 0-1.47936-.14156-2.11522-.42587-.63587-.28314-1.12192-.67126-1.45578-1.1644-.33386-.4931-.50138-1.0641-.50138-1.71412h2.08103c0 1.11013.66418 1.66577 1.99136 1.66577.49314 0 .87772-.10027 1.15378-.30082.27605-.20056.41526-.48015.41526-.83997zM93.67476 32.8507c-.07786 1.083-.4778 1.93475-1.19978 2.55765-.7208.6217-1.67166.93315-2.85138.93315-1.28944 0-2.30517-.4353-3.04486-1.3036-.73968-.86826-1.10894-2.06096-1.10894-3.5769v-.6158c0-.96738.17106-1.82032.512-2.55764.34094-.73733.82817-1.3024 1.46168-1.69644.6335-.39403 1.36965-.59104 2.20843-.59104 1.16086 0 2.09637.31145 2.80657.93316.709.6217 1.11955 1.49588 1.23044 2.62016h-2.07393c-.05073-.65003-.23123-1.12074-.54268-1.4145-.31145-.29256-.78452-.43884-1.4204-.43884-.6913 0-1.2092.24774-1.5525.74322-.3433.49548-.51908 1.26466-.5285 2.30517v.76092c0 1.0877.16515 1.88283.4943 2.38422.32913.50255.8494.75383 1.5584.75383.6406 0 1.11955-.1463 1.43454-.43886.31616-.29257.49666-.74558.54267-1.35786h2.07396zM99.79868 34.12953h-3.6359l-.6913 2.07277h-2.2049l3.7456-10.0642h1.92177l3.76802 10.0642h-2.2049l-.6984-2.07277zm-3.0767-1.67992h2.51634l-1.26466-3.76802-1.2517 3.76803zM110.90575 36.2023h-2.07395l-4.037-6.62177v6.62177h-2.07277V26.1381h2.07277l4.04408 6.63593V26.1381h2.06687v10.0642zM119.98133 36.2023h-2.07394l-4.03702-6.62177v6.62177h-2.07394V26.1381h2.07394l4.04408 6.63593V26.1381h2.06687v10.0642zM126.92752 31.84087h-3.98155v2.69566h4.67287v1.66577h-6.74682V26.1381h6.73266v1.67993h-4.6587v2.39837h3.98154v1.62447zM131.6405 32.51803h-1.6516v3.68427h-2.07395V26.1381h3.7397c1.18917 0 2.1058.26544 2.75112.79514.6453.5297.96737 1.2788.96737 2.24618 0 .6866-.14864 1.25995-.44593 1.71768-.29728.4589-.74794.82462-1.35077 1.09596l2.17658 4.1125v.09674h-2.22494l-1.88755-3.68427zm-1.6516-1.67874h1.67284c.52026 0 .92372-.13332 1.2092-.39757.2855-.26544.42825-.63115.42825-1.09596 0-.47425-.1345-.84822-.40347-1.11956-.27016-.2725-.68424-.40817-1.24107-.40817h-1.66576v3.02126zM146.53565 32.8507c-.07904 1.083-.47897 1.93475-1.19977 2.55765-.7208.6217-1.67167.93315-2.8514.93315-1.2906 0-2.30516-.4353-3.04485-1.3036-.73968-.86826-1.10893-2.06096-1.10893-3.5769v-.6158c0-.96738.16988-1.82032.51082-2.55764.34094-.73733.82816-1.3024 1.46167-1.69644.63468-.39403 1.37082-.59104 2.20843-.59104 1.16202 0 2.09754.31145 2.80655.93316.7102.6217 1.12073 1.49588 1.23045 2.62016h-2.07277c-.05073-.65003-.2324-1.12074-.54267-1.4145-.31146-.29256-.78453-.43884-1.42157-.43884-.69014 0-1.20804.24774-1.55134.74322-.3433.49548-.51908 1.26466-.52852 2.30517v.76092c0 1.0877.16398 1.88283.4943 2.38422.32914.50255.84822.75383 1.5584.75383.6406 0 1.1184-.1463 1.43455-.43886.315-.29257.49666-.74558.54267-1.35786h2.07395zM149.0508 34.53653h4.40273v1.66577h-6.47666V26.1381h2.07394v8.39843zM153.85345 26.1381h2.07395v10.0642h-2.07395z" fill="#616161"/>
  </g>
</svg>
