<svg xmlns="http://www.w3.org/2000/svg" viewBox="-738.601 -3545.014 54.017 52.551"><path fill="#191717" fill-rule="evenodd" d="M-711.675-3545.014a26.975 26.975 0 0 0-8.59 52.53c1.322.165 1.817-.661 1.817-1.322v-4.625c-7.433 1.652-9.085-3.634-9.085-3.634-1.156-3.139-2.973-3.965-2.973-3.965-2.478-1.652.165-1.652.165-1.652 2.643.165 4.13 2.808 4.13 2.808 2.478 4.13 6.277 2.973 7.764 2.313a5.752 5.752 0 0 1 1.646-3.634c-5.947-.661-12.224-2.973-12.224-13.38a10.24 10.24 0 0 1 2.808-7.268 9.781 9.781 0 0 1 .33-6.938s2.313-.661 7.433 2.808a23.083 23.083 0 0 1 6.773-.826 30.4 30.4 0 0 1 6.773.826c5.121-3.469 7.433-2.808 7.433-2.808a10.343 10.343 0 0 1 .33 7.1 10.684 10.684 0 0 1 2.815 7.267c0 10.407-6.277 12.554-12.224 13.215.991.826 1.817 2.478 1.817 4.956v7.433c0 .661.5 1.487 1.817 1.322a26.976 26.976 0 0 0-8.755-52.526z"/></svg>

