<svg width="30" height="30" xmlns="http://www.w3.org/2000/svg" xmlns:svg="http://www.w3.org/2000/svg">
  <g>
    <path d="m20.68145,15.87129l0,4.75537q0,0.25759 -0.18824,0.44582t-0.44582,0.18823l-3.8043,0l0,-3.8043l-2.5362,0l0,3.8043l-3.8043,0q-0.25759,0 -0.44582,-0.18823t-0.18823,-0.44582l0,-4.75537q0,-0.00991 0.00495,-0.02972t0.00495,-0.02972l5.69654,-4.69593l5.69654,4.69593q0.00991,0.01981 0.00991,0.05944l0.00001,0zm2.20927,-0.68359l-0.61424,0.73312q-0.07926,0.08916 -0.20805,0.10897l-0.02972,0q-0.12879,0 -0.20805,-0.06935l-6.85566,-5.71635l-6.85567,5.71635q-0.11888,0.07925 -0.23777,0.06935q-0.12879,-0.01982 -0.20805,-0.10897l-0.61424,-0.73312q-0.07926,-0.09907 -0.06935,-0.23282t0.10898,-0.213l7.12315,-5.93431q0.31702,-0.25759 0.75293,-0.25759t0.75293,0.25759l2.41732,2.02104l0,-1.93187q0,-0.1387 0.08916,-0.22786t0.22786,-0.08916l1.90215,0q0.13869,0 0.22786,0.08916t0.08916,0.22786l0,4.04207l2.16964,1.80308q0.09907,0.07926 0.10898,0.213t-0.06935,0.23282l0.00001,0z" fill="#fff"/>
  </g>
</svg>
