<svg viewBox="0 0 500 240" xmlns="http://www.w3.org/2000/svg" fill-rule="evenodd" clip-rule="evenodd" stroke-linejoin="round" stroke-miterlimit="1.41">
  <path d="M41 175.5L144 273h183s1-143 0-143-72-82-72-82L39 89l47 45-45 41.5z" fill="url(#a)" fill-rule="nonzero" transform="translate(102.336 -34.6)"/>
  <path d="M332.74 69.6h-163.7c-18.6 0-33.8-15.2-33.8-33.8 0-18.6 15.2-33.8 33.8-33.8h163.7c18.6 0 33.8 15.2 33.8 33.8 0 18.6-15.2 33.8-33.8 33.8z" fill="#C54045" fill-rule="nonzero"/>
  <path d="M332.74 151.6h-163.7c-18.6 0-33.8-15.2-33.8-33.8 0-18.6 15.2-33.8 33.8-33.8h163.7c18.6 0 33.8 15.2 33.8 33.8 0 18.6-15.2 33.8-33.8 33.8z" fill="#8FB963" fill-rule="nonzero"/>
  <g fill="#fff" fill-rule="nonzero">
    <path d="M213.74 107.9c1.6 1.2 2.4 2.9 2.4 5.3 0 2.5-.8 4.3-2.4 5.5-1.6 1.2-3.7 1.8-6.3 1.8h-2.6v7.7h-4.2V106h6.6c2.7.1 4.9.7 6.5 1.9zm-3.2 8.5c.8-.6 1.2-1.7 1.2-3.3 0-2.6-1.5-4-4.6-4h-2.3v8.2h2.3c1.4.1 2.6-.2 3.4-.9zM231.34 125.3c.2.3.5.6 1 .7l-.9 2.7c-1-.1-1.8-.3-2.4-.7-.6-.4-1.1-1-1.4-1.8-.6.9-1.3 1.5-2.2 1.9-.9.4-1.8.6-2.9.6-1.7 0-3-.5-4-1.4-1-1-1.5-2.2-1.5-3.8 0-1.8.7-3.2 2-4.2s3.2-1.5 5.7-1.5h2.1v-1c0-1.1-.3-1.9-.8-2.3-.5-.4-1.3-.7-2.4-.7-1.2 0-2.7.3-4.5.9l-1-2.8c2.1-.8 4.2-1.2 6.2-1.2 4.3 0 6.5 1.9 6.5 5.8v7.1c.1.9.3 1.3.5 1.7zm-4.4-1.6v-3.4h-1.7c-2.7 0-4 1-4 3 0 .8.2 1.4.6 1.9.4.5 1 .7 1.8.7 1.4-.1 2.5-.8 3.3-2.2zM247.34 112.8l-1.6 2.5c-1.4-1-2.8-1.4-4.2-1.4-.9 0-1.5.2-2 .5s-.7.7-.7 1.2c0 .4.1.7.3 1 .2.3.5.5 1 .7.5.2 1.2.5 2.2.8 1.8.5 3.2 1.1 4.1 2 .9.8 1.3 1.9 1.3 3.4 0 1.7-.7 3-2.1 4-1.4 1-3.1 1.4-5.1 1.4-1.4 0-2.7-.2-3.8-.6-1.1-.4-2.1-1-3-1.8l2.1-2.3c1.4 1.1 2.9 1.7 4.6 1.7.9 0 1.7-.2 2.2-.5.6-.4.8-.8.8-1.4 0-.5-.1-.9-.3-1.2-.2-.3-.6-.6-1.1-.8-.5-.2-1.3-.5-2.5-.8-1.7-.5-3-1.1-3.8-2-.8-.9-1.2-1.9-1.2-3.2 0-.9.3-1.8.8-2.5s1.3-1.3 2.3-1.8c1-.4 2.1-.6 3.4-.6 2.6-.3 4.6.4 6.3 1.7zM262.64 112.8l-1.6 2.5c-1.4-1-2.8-1.4-4.2-1.4-.9 0-1.5.2-2 .5s-.7.7-.7 1.2c0 .4.1.7.3 1 .2.3.5.5 1 .7.5.2 1.2.5 2.2.8 1.8.5 3.2 1.1 4.1 2 .9.8 1.3 1.9 1.3 3.4 0 1.7-.7 3-2.1 4-1.4 1-3.1 1.4-5.1 1.4-1.4 0-2.7-.2-3.8-.6-1.1-.4-2.1-1-3-1.8l2.1-2.3c1.4 1.1 2.9 1.7 4.6 1.7.9 0 1.7-.2 2.2-.5.6-.4.8-.8.8-1.4 0-.5-.1-.9-.3-1.2-.2-.3-.6-.6-1.1-.8-.5-.2-1.3-.5-2.5-.8-1.7-.5-3-1.1-3.8-2-.8-.9-1.2-1.9-1.2-3.2 0-.9.3-1.8.8-2.5s1.3-1.3 2.3-1.8c1-.4 2.1-.6 3.4-.6 2.6-.3 4.6.4 6.3 1.7zM280.34 121.1h-10.7c.1 1.6.6 2.8 1.3 3.5.7.7 1.7 1.1 2.9 1.1.7 0 1.5-.1 2.1-.4.7-.2 1.4-.6 2.1-1.1l1.7 2.3c-1.9 1.5-4 2.3-6.3 2.3-2.6 0-4.6-.8-6-2.4-1.4-1.6-2.1-3.7-2.1-6.5 0-1.7.3-3.3.9-4.7.6-1.4 1.5-2.5 2.6-3.2 1.1-.8 2.5-1.2 4-1.2 2.4 0 4.2.8 5.5 2.3 1.3 1.5 2 3.6 2 6.3.1.2.1.8 0 1.7zm-3.9-2.9c0-3-1.1-4.5-3.3-4.5-1 0-1.8.4-2.4 1.1-.6.7-.9 1.9-1 3.5h6.7v-.1zM298.54 128.3h-3.6l-.3-2.2c-.5.8-1.2 1.5-2 1.9-.8.4-1.8.7-2.8.7-2.1 0-3.7-.8-4.8-2.4-1.1-1.6-1.7-3.8-1.7-6.6 0-1.8.3-3.3.8-4.7.5-1.4 1.4-2.4 2.4-3.2 1-.8 2.3-1.1 3.7-1.1 1.6 0 3 .6 4.2 1.8v-8.6l4.1.4v24zm-5.7-3.2c.6-.4 1.1-.9 1.6-1.7v-7.8c-.5-.6-1-1-1.5-1.3-.5-.3-1.1-.4-1.7-.4-1.1 0-2 .5-2.6 1.5-.6 1-.9 2.4-.9 4.4 0 2.1.3 3.6.8 4.5.5.9 1.4 1.4 2.4 1.4.7 0 1.4-.2 1.9-.6z"/>
  </g>
  <g fill="#fff" fill-rule="nonzero">
    <path d="M208.14 26.2v6.6h6.8v3.1h-6.8v9.2h-4.2v-22h12.6l-.5 3.1h-7.9zM231.24 42.3c.2.3.5.6 1 .7l-.9 2.7c-1-.1-1.8-.3-2.4-.7-.6-.4-1.1-1-1.4-1.8-.6.9-1.3 1.5-2.2 1.9-.9.4-1.8.6-2.9.6-1.7 0-3-.5-4-1.4-1-1-1.5-2.2-1.5-3.8 0-1.8.7-3.2 2-4.2s3.2-1.5 5.7-1.5h2.1v-1c0-1.1-.3-1.9-.8-2.3-.5-.4-1.3-.7-2.4-.7-1.2 0-2.7.3-4.5.9l-1-2.8c2.1-.8 4.2-1.2 6.2-1.2 4.3 0 6.5 1.9 6.5 5.8v7.1c.1.9.2 1.3.5 1.7zm-4.4-1.6v-3.4h-1.7c-2.7 0-4 1-4 3 0 .8.2 1.4.6 1.9.4.5 1 .7 1.8.7 1.4-.1 2.5-.8 3.3-2.2zM239.74 20.4c.5.5.7 1.1.7 1.8s-.2 1.3-.7 1.8c-.5.5-1.1.7-1.9.7-.8 0-1.4-.2-1.8-.7-.5-.5-.7-1.1-.7-1.8s.2-1.3.7-1.8c.5-.5 1.1-.7 1.8-.7.8 0 1.4.2 1.9.7zm-3.9 24.9v-17h4.1v17h-4.1zM249.14 42.2c.1.2.4.3.7.3.3 0 .6-.1 1-.2l.9 2.9c-.9.4-1.9.6-2.9.6-1.3 0-2.3-.4-3-1.1-.7-.7-1-1.8-1-3.2v-20l4.1-.4v20.1c-.1.4 0 .8.2 1zM267.94 38.1h-10.7c.1 1.6.6 2.8 1.3 3.5.7.7 1.7 1.1 2.9 1.1.7 0 1.5-.1 2.1-.4.7-.2 1.4-.6 2.1-1.1l1.7 2.3c-1.9 1.5-4 2.3-6.3 2.3-2.6 0-4.6-.8-6-2.4-1.4-1.6-2.1-3.7-2.1-6.5 0-1.7.3-3.3.9-4.7.6-1.4 1.5-2.5 2.6-3.2 1.1-.8 2.5-1.2 4-1.2 2.4 0 4.2.8 5.5 2.3 1.3 1.5 2 3.6 2 6.3.1.2 0 .8 0 1.7zm-4-2.9c0-3-1.1-4.5-3.3-4.5-1 0-1.8.4-2.4 1.1-.6.7-.9 1.9-1 3.5h6.7v-.1zM286.14 45.3h-3.6l-.3-2.2c-.5.8-1.2 1.5-2 1.9-.8.4-1.8.7-2.8.7-2.1 0-3.7-.8-4.8-2.4-1.1-1.6-1.7-3.8-1.7-6.6 0-1.8.3-3.3.8-4.7.5-1.4 1.4-2.4 2.4-3.2 1-.8 2.3-1.1 3.7-1.1 1.6 0 3 .6 4.2 1.8v-8.6l4.1.4v24zm-5.7-3.2c.6-.4 1.1-.9 1.6-1.7v-7.8c-.5-.6-1-1-1.5-1.3-.5-.3-1.1-.4-1.7-.4-1.1 0-2 .5-2.6 1.5-.6 1-.9 2.4-.9 4.4 0 2.1.3 3.6.8 4.5.5.9 1.4 1.4 2.4 1.4.7 0 1.3-.2 1.9-.6z"/>
  </g>
  <defs>
    <linearGradient id="a" x2="1" gradientUnits="userSpaceOnUse" gradientTransform="scale(175.3) rotate(-128 .864 .24)">
      <stop offset="0%" stop-color="#fff"/>
      <stop offset="100%" stop-color="#ABABAB"/>
    </linearGradient>
  </defs>
</svg>
