<svg viewBox="0 0 500 240" xmlns="http://www.w3.org/2000/svg" fill-rule="evenodd" clip-rule="evenodd" stroke-miterlimit="10">
  <path d="M284.45 8v42.5H69.35v113h389.3V8h-174.2z" fill="#F7F7F7" fill-rule="nonzero"/>
  <path fill="#F6F9FD" d="M55.35 38.5h196v113h-196z"/>
  <path fill="#FAF3DB" d="M250.65 0h196v151.5h-196z"/>
  <path fill="none" stroke="#E5E5E5" d="M250.65 0h196v38.8h-196zM55.65 38.9h391v112.8h-391z"/>
  <path d="M302.25 14.6h1.9v8.7h4.2v1.6h-6.1V14.6zM316.35 20.4h-3.9v3h4.4v1.5h-6.2V14.6h6v1.5h-4.1v2.7h3.9v1.6h-.1zM321.25 22l-.9 2.9h-1.9l3.3-10.3h2.4l3.4 10.3h-2l-.9-2.9h-3.4zm3-1.4l-.8-2.5c-.2-.6-.4-1.3-.5-1.9-.2.6-.3 1.3-.5 1.9l-.8 2.5h2.6zM329.75 14.6h1.9v4.7c.2-.4.5-.8.8-1.1l2.7-3.6h2.3l-3.6 4.4 3.8 5.9h-2.2l-2.9-4.7-.9 1.1v3.6h-1.9V14.6zM343.35 14.8c.7-.1 1.6-.2 2.9-.2 1.4 0 2.4.3 3 .8.6.5 1 1.3 1 2.3 0 1-.3 1.8-.9 2.3-.8.8-1.9 1.1-3.3 1.1-.4 0-.7 0-.9-.1v3.9h-1.9V14.8h.1zm1.9 4.8c.2.1.5.1.9.1 1.4 0 2.3-.7 2.3-1.9 0-1.1-.8-1.8-2.1-1.8-.5 0-.9 0-1.1.1v3.5zM358.45 20.4h-3.9v3h4.4v1.5h-6.3V14.6h6v1.5h-4.1v2.7h3.9v1.6zM361.35 14.8c.7-.1 1.8-.2 2.8-.2 1.5 0 2.5.2 3.2.8.6.5.9 1.2.9 2.1 0 1.3-.9 2.2-1.9 2.6.7.3 1.2 1 1.4 2 .3 1.3.6 2.5.8 2.9h-1.9c-.2-.3-.4-1.1-.7-2.4-.3-1.3-.8-1.8-1.9-1.8h-.9V25h-1.9V14.8h.1zm1.8 4.6h1.1c1.3 0 2.1-.7 2.1-1.7 0-1.1-.8-1.7-2-1.7-.6 0-1 0-1.2.1v3.3zM370.75 14.6h1.9v10.3h-1.9zM384.75 19.7c0 3.5-2.1 5.4-4.9 5.4-2.9 0-4.7-2.2-4.7-5.3 0-3.2 2-5.4 4.9-5.4 2.9.1 4.7 2.4 4.7 5.3zm-7.7.2c0 2.1 1.1 3.8 2.9 3.8 1.8 0 2.8-1.7 2.8-3.8 0-1.9-1-3.8-2.8-3.8-1.9-.1-2.9 1.6-2.9 3.8zM387.15 14.8c.8-.1 1.9-.2 3-.2 1.9 0 3.3.4 4.2 1.2 1 .8 1.6 2 1.6 3.8 0 1.8-.6 3.2-1.6 4.1-1 .9-2.7 1.4-4.7 1.4-1.1 0-1.9-.1-2.5-.1V14.8zm1.9 8.7h1c2.5 0 3.9-1.3 3.9-4 0-2.3-1.3-3.6-3.7-3.6-.6 0-1 0-1.3.1v7.5h.1z" fill-rule="nonzero"/>
  <path d="M322.85 121.1v-10.3h1.5l3.3 5.2c.8 1.2 1.4 2.3 1.9 3.4-.1-1.4-.2-2.6-.2-4.2v-4.3h1.3v10.3h-1.3l-3.3-5.2c-.7-1.1-1.4-2.3-1.9-3.4.1 1.3.1 2.5.1 4.3v4.4h-1.4v-.2zM333.65 117.6c0 1.8 1.2 2.6 2.5 2.6 1 0 1.5-.2 2.1-.4l.2 1c-.5.2-1.3.5-2.5.5-2.3 0-3.6-1.5-3.6-3.7s1.3-4 3.5-4c2.4 0 3.1 2.1 3.1 3.5v.6h-5.3v-.1zm4-1c0-.9-.4-2.2-1.9-2.2-1.4 0-2 1.3-2.1 2.2h4zM341.15 113.6l1 3.8.6 2.4c.2-.8.4-1.5.7-2.3l1.2-3.8h1.1l1.1 3.7c.3.9.5 1.7.7 2.4.1-.8.3-1.5.6-2.4l1.1-3.7h1.3l-2.4 7.4h-1.2l-1.1-3.5c-.3-.8-.5-1.6-.7-2.4-.2.9-.4 1.7-.7 2.5l-1.2 3.5h-1.2l-2.2-7.4h1.3v-.2zM358.55 119.7c.4.3 1.1.5 1.8.5 1 0 1.4-.5 1.4-1.1 0-.6-.4-1-1.4-1.4-1.3-.5-2-1.2-2-2.1 0-1.2 1-2.2 2.6-2.2.8 0 1.4.2 1.8.5l-.3 1c-.3-.2-.8-.4-1.5-.4-.8 0-1.2.5-1.2 1 0 .6.4.9 1.4 1.3 1.3.5 1.9 1.1 1.9 2.2 0 1.3-1 2.2-2.8 2.2-.8 0-1.6-.2-2.1-.5l.4-1zM364.55 119.7c.4.3 1.1.5 1.8.5 1 0 1.4-.5 1.4-1.1 0-.6-.4-1-1.4-1.4-1.3-.5-2-1.2-2-2.1 0-1.2 1-2.2 2.6-2.2.8 0 1.4.2 1.8.5l-.3 1c-.3-.2-.8-.4-1.5-.4-.8 0-1.2.5-1.2 1 0 .6.4.9 1.4 1.3 1.3.5 1.9 1.1 1.9 2.2 0 1.3-1 2.2-2.8 2.2-.8 0-1.6-.2-2.1-.5l.4-1zM377.05 119c0 .8 0 1.4.1 2h-1.2l-.1-1.2c-.4.6-1.1 1.4-2.5 1.4-1.2 0-2.6-.6-2.6-3.2v-4.3h1.3v4.1c0 1.4.4 2.4 1.7 2.4.9 0 1.5-.6 1.8-1.2.1-.2.1-.4.1-.7v-4.5h1.3v5.2h.1zM380.05 117.6c0 1.8 1.2 2.6 2.5 2.6 1 0 1.5-.2 2.1-.4l.2 1c-.5.2-1.3.5-2.5.5-2.3 0-3.6-1.5-3.6-3.7s1.3-4 3.5-4c2.4 0 3.1 2.1 3.1 3.5v.6h-5.3v-.1zm3.9-1c0-.9-.4-2.2-1.9-2.2-1.4 0-2 1.3-2.1 2.2h4zM386.75 119.7c.4.3 1.1.5 1.8.5 1 0 1.4-.5 1.4-1.1 0-.6-.4-1-1.4-1.4-1.3-.5-2-1.2-2-2.1 0-1.2 1-2.2 2.6-2.2.8 0 1.4.2 1.8.5l-.3 1c-.3-.2-.8-.4-1.5-.4-.8 0-1.2.5-1.2 1 0 .6.4.9 1.4 1.3 1.3.5 1.9 1.1 1.9 2.2 0 1.3-1 2.2-2.8 2.2-.8 0-1.6-.2-2.1-.5l.4-1z" fill="#565656" fill-rule="nonzero"/>
  <path d="M342.35 73l-4.9 2.6-.7-2.9 6.1-3.2h3.2v27.8h-3.6V73h-.1zM374.45 83c0 9.4-3.5 14.6-9.6 14.6-5.4 0-9.1-5.1-9.2-14.3 0-9.3 4-14.4 9.6-14.4 5.9.1 9.2 5.3 9.2 14.1zm-15 .5c0 7.2 2.2 11.3 5.6 11.3 3.8 0 5.7-4.5 5.7-11.6 0-6.8-1.8-11.3-5.6-11.3-3.3 0-5.7 4-5.7 11.6z" fill="#226B94" fill-rule="nonzero"/>
  <path d="M56.15 109.6s12.2-.3 17.2-2.3c5-2 18.7-4.3 21-4.7 2.3-.3 12.7-.7 14.7 1s9 5 10.3 6.3c1.3 1.3 4.3 4 9.3 3.3 5-.7 12.7-3 15.3-3.7 2.7-.7 4.7-.7 11.3 1.7 6.7 2.3 16 5.7 16 5.7l17.3-3s8 1 12.7 4c4.7 3 14.7 1.7 14.7 1.7l10 2.7 9 3 15.7-1v27H56.15v-41.7z" fill="#E9F1FC" fill-rule="nonzero"/>
  <path d="M446.15 123.6s-13.1-1-13.6-1 3.2-.3-8.8.5-16.8 1.5-22.7 2.5c-5.8 1-11.7 2.8-19.3 2.2-7.7-.7-15.8-2.2-15.8-2.2l-12.2-1.5-14.2-1.5s-16.2-2-24.7-1-12 5.2-20 4.5c-8-.7-14.8-1.8-14.8-1.8l-15.5-.7-13.8.7v27h195.5v-27.7h-.1z" fill="#EDE7D0" fill-rule="nonzero"/>
  <path fill="#565656" fill-rule="nonzero" d="M138.75 110.7h1.3V121h-1.3zM354.75 110.7h1.3V121h-1.3zM142.15 119.7c.4.3 1.1.5 1.8.5 1 0 1.4-.5 1.4-1.1 0-.6-.4-1-1.4-1.4-1.3-.5-2-1.2-2-2.1 0-1.2 1-2.2 2.6-2.2.8 0 1.4.2 1.8.5l-.3 1c-.3-.2-.8-.4-1.5-.4-.8 0-1.2.5-1.2 1 0 .6.4.9 1.4 1.3 1.3.5 1.9 1.1 1.9 2.2 0 1.3-1 2.2-2.8 2.2-.8 0-1.6-.2-2.1-.5l.4-1zM148.25 119.7c.4.3 1.1.5 1.8.5 1 0 1.4-.5 1.4-1.1 0-.6-.4-1-1.4-1.4-1.3-.5-2-1.2-2-2.1 0-1.2 1-2.2 2.6-2.2.8 0 1.4.2 1.8.5l-.3 1c-.3-.2-.8-.4-1.5-.4-.8 0-1.2.5-1.2 1 0 .6.4.9 1.4 1.3 1.3.5 1.9 1.1 1.9 2.2 0 1.3-1 2.2-2.8 2.2-.8 0-1.6-.2-2.1-.5l.4-1zM160.65 119c0 .8 0 1.4.1 2h-1.2l-.1-1.2c-.4.6-1.1 1.4-2.5 1.4-1.2 0-2.6-.6-2.6-3.2v-4.3h1.3v4.1c0 1.4.4 2.4 1.7 2.4.9 0 1.5-.6 1.8-1.2.1-.2.1-.4.1-.7v-4.5h1.3v5.2h.1zM163.65 117.6c0 1.8 1.2 2.6 2.5 2.6 1 0 1.5-.2 2.1-.4l.2 1c-.5.2-1.3.5-2.5.5-2.3 0-3.6-1.5-3.6-3.7s1.3-4 3.5-4c2.4 0 3.1 2.1 3.1 3.5v.6h-5.3v-.1zm4-1c0-.9-.4-2.2-1.9-2.2-1.4 0-2 1.3-2.1 2.2h4zM170.45 119.7c.4.3 1.1.5 1.8.5 1 0 1.4-.5 1.4-1.1 0-.6-.4-1-1.4-1.4-1.3-.5-2-1.2-2-2.1 0-1.2 1-2.2 2.6-2.2.8 0 1.4.2 1.8.5l-.3 1c-.3-.2-.8-.4-1.5-.4-.8 0-1.2.5-1.2 1 0 .6.4.9 1.4 1.3 1.3.5 1.9 1.1 1.9 2.2 0 1.3-1 2.2-2.8 2.2-.8 0-1.6-.2-2.1-.5l.4-1z"/>
  <path d="M125.65 97.2v-2.3l2.9-2.9c7.1-6.7 10.3-10.3 10.3-14.5 0-2.8-1.4-5.4-5.5-5.4-2.5 0-4.6 1.3-5.9 2.3l-1.2-2.6c1.9-1.6 4.7-2.8 7.9-2.8 6 0 8.5 4.1 8.5 8.1 0 5.1-3.7 9.3-9.6 14.9l-2.2 2v.1h12.5v3.1h-17.7zM164.15 72.6h-10.6l-1.1 7.1c.6-.1 1.2-.2 2.3-.2 2.1 0 4.3.5 6 1.5 2.2 1.2 4 3.6 4 7.1 0 5.4-4.3 9.5-10.3 9.5-3 0-5.6-.9-6.9-1.7l.9-2.9c1.2.7 3.4 1.5 5.9 1.5 3.5 0 6.6-2.3 6.6-6 0-3.6-2.4-6.1-8-6.1-1.6 0-2.8.2-3.8.3l1.8-13.3h13.3v3.2h-.1zM169.05 90.2c0-3.5 2.1-6 5.5-7.4v-.1c-3.1-1.5-4.4-3.8-4.4-6.2 0-4.4 3.7-7.4 8.6-7.4 5.4 0 8.1 3.4 8.1 6.8 0 2.3-1.2 4.9-4.6 6.5v.1c3.5 1.4 5.6 3.8 5.6 7.2 0 4.8-4.1 8.1-9.4 8.1-5.9-.1-9.4-3.6-9.4-7.6zm15-.2c0-3.4-2.3-5-6.1-6.1-3.2.9-5 3.1-5 5.7-.1 2.8 2 5.3 5.6 5.3 3.3.1 5.5-2 5.5-4.9zm-10.3-13.9c0 2.8 2.1 4.3 5.3 5.1 2.4-.8 4.2-2.5 4.2-5 0-2.2-1.3-4.5-4.7-4.5-3.1 0-4.8 2-4.8 4.4z" fill="#226B94" fill-rule="nonzero"/>
</svg>
