<svg viewBox="0 0 121 80" xmlns="http://www.w3.org/2000/svg" fill-rule="evenodd" clip-rule="evenodd" stroke-linejoin="round" stroke-miterlimit="1.414">
  <path d="M40.12 36.842c.926-2.127.903-4.232.348-5.897-.694-2.036-3.54-4.72-4.44-3.655-.116.14-1.758-.046-2.013.3-.393.51-.162.672.023.857.58.51 2.036 1.064 2.706 2.798.278.74.926 2.452-.208 3.493-1.272 1.156-2.706 1.434-8.58-4.025-6.245-5.805-14.618-3.446-17.393-2.52-2.776.925-4.048 1.85-2.96 3.977 1.48 2.915.994 2.013 2.45 4.418 2.29 3.816 7.333-1.758 7.333-1.758-3.747 5.644-6.962 4.28-8.188 2.313-1.11-1.78-1.966-3.816-1.966-3.816C-2.25 36.75.317 51.83.317 51.83h4.718c1.203-5.55 5.505-5.343 6.222 0h3.585c3.168-10.847 9.968 0 9.968 0h4.024c0-5.782-.6-7.956 2.36-8.373 5.042-.67 7.4-3.03 8.927-6.615z" fill="#02303A"/>
  <g fill="#22DA27" fill-rule="nonzero">
    <path d="M57.528 35.495v2.325c.493-.845 1.62-2.77 5.284-2.653l-.024 4.015c-.845.024-2.324.047-3.522.963-1.667 1.268-1.738 2.935-1.738 5.636v6.177h-3.78V35.472l3.78.023zM64.385 40.427c.07-.822.14-1.62.658-2.56 1.573-2.84 5.448-2.818 6.504-2.818 1.574 0 3.452.21 4.885 1.056 1.925 1.174 1.95 2.724 1.95 4.485l-.025 8.643c0 1.244 0 1.737.705 2.724h-4.626c-.024-.4-.094-1.15-.094-1.362-.846.704-2.583 1.644-4.838 1.644-3.686-.025-5.894-2.303-5.894-5.12 0-.823.212-1.574.54-2.208 1.174-2.348 3.687-2.865 5.26-3.147 5.33-.892 5.026-1.41 4.932-2.207-.07-.752-.846-1.456-2.654-1.456-1.62 0-2.512.517-2.912 1.033-.422.517-.4.846-.4 1.315h-3.99v-.023zm10.05 3.31c-.774.4-1.667.682-3.428.964-1.41.188-3.264.517-3.264 2.23 0 1.27 1.08 1.927 2.63 1.927 1.996 0 3.405-.892 3.828-1.88.236-.492.236-.985.236-1.454v-1.785zM95.9 28.897l-.072 23.06h-3.874V50.36c-1.22 1.456-2.842 2.043-4.533 2.043-3.873-.024-7.23-2.935-7.208-8.313.024-4.86 2.77-8.994 7.444-8.97 1.597 0 3.077.47 4.32 1.83v-8.053H95.9zM91.06 40.24c-.586-.893-1.55-1.504-2.864-1.504-2.653 0-3.92 2.372-3.92 4.955 0 .306.022 5.19 3.826 5.19 2.02 0 3.852-1.48 3.828-5-.047-1.058-.164-2.56-.87-3.64zM102.71 28.897l-.072 23.06h-3.945v-23.06h4.016zM120.203 48.13c-1.808 3.193-4.11 4.367-7.444 4.367-4.275-.024-8.384-2.724-8.36-8.736.023-5.47 3.545-8.57 8.148-8.546 4.297.023 6.082 2.606 6.41 3.076 1.34 1.902 1.62 4.743 1.644 6.364l-12.07-.047c.446 2.583 2.043 4.062 4.626 4.062 2.677 0 3.382-1.574 3.875-2.255l3.17 1.714zm-3.874-6.365c-.354-2.536-1.904-3.428-3.64-3.428-2.09 0-3.524 1.197-3.993 3.405l7.632.023zM41.7 39.91v3.382h5.778v3.968c-1.48.94-3.17 1.48-5.59 1.48-3.897 0-7.114-3.264-7.114-8.36 0-5.002 2.958-8.336 7.467-8.336 3.617 0 4.98 2.982 5.19 4.11h3.946c0-2.302-2.724-7.962-9.487-7.962-7.163 0-11.39 5.073-11.39 12.21 0 7.422 5.072 12.07 11.13 12.07 8.97 0 9.746-4.484 9.746-4.484V39.91H41.7z"/>
  </g>
  <path d="M40.838 32.934c-.856.07-1.71.208-2.52.44-.024.022-.047.07-.07.092-.37.416-.833.81-1.342 1.04-.07.047-.138.07-.208.093l-.14.138c-1.27 1.156-2.82 1.434-8.58-4.025-6.175-5.85-14.617-3.446-17.392-2.52-2.776.925-4.048 1.85-2.96 3.977 1.48 2.915.994 2.013 2.45 4.418 2.29 3.816 7.333-1.758 7.333-1.758-3.748 5.644-6.963 4.28-8.19 2.313-1.11-1.78-1.965-3.816-1.965-3.816C-2.227 36.75.34 51.83.34 51.83h4.718c1.203-5.55 5.505-5.343 6.222 0h3.585c3.168-10.847 9.968 0 9.968 0h4.025c0-5.782-.602-7.956 2.36-8.373 5.064-.694 7.4-3.053 8.926-6.615.555-1.34.764-2.682.694-3.908z" fill="#02303A"/>
  <path d="M23.746 34.437s2.174.717 5.088 1.688c-.16.787-1.62 2.29-3.492 1.643-2.498-.81-1.596-3.33-1.596-3.33z" fill="#fff"/>
  <ellipse cx="124.8" cy="98.1" rx="5.7" ry="5.5" fill="#02303A" transform="matrix(.23 -.02442 .02442 .23 -4.88 16.496)"/>
  <path d="M34.038 28.47c.162.14.37.277.58.416.97-.81 2.242-.786 3.33-1.226-.95-.878-2.476-1.55-2.938-.994-.116.14-.717.6-.972.948-.416.51-.208.67 0 .856z" fill="#02303A"/>
</svg>
