<svg viewBox="0 0 188 80" xmlns="http://www.w3.org/2000/svg" fill-rule="evenodd" clip-rule="evenodd">
  <path d="M41.107 38.595c0 11.404-9.038 20.65-20.188 20.65C9.77 59.244.73 49.998.73 38.594c0-11.404 9.038-20.65 20.187-20.65 11.15 0 20.187 9.246 20.187 20.65" fill="#D33833"/>
  <path d="M1.554 43.71s-1.46-21.535 18.38-22.15l-1.383-2.307-10.766 3.615-3.076 3.537-2.692 5.153-1.538 6 .46 3.998" fill="#EF3D3A" fill-rule="nonzero"/>
  <path d="M7.092 24.508C3.55 28.133 1.36 33.136 1.36 38.672c0 5.534 2.19 10.54 5.732 14.162 3.544 3.624 8.428 5.86 13.827 5.86 5.398 0 10.282-2.236 13.826-5.86 3.54-3.623 5.734-8.628 5.734-14.162 0-5.536-2.193-10.54-5.734-14.164-3.544-3.622-8.428-5.858-13.827-5.86-5.4.002-10.284 2.238-13.828 5.86zM6.196 53.71C2.432 49.86.104 44.54.104 38.673c0-5.87 2.328-11.19 6.092-15.04 3.763-3.85 8.973-6.237 14.723-6.236 5.75 0 10.96 2.386 14.722 6.236 3.765 3.85 6.092 9.17 6.092 15.04 0 5.87-2.327 11.19-6.092 15.04-3.763 3.85-8.973 6.236-14.723 6.236S9.96 57.56 6.195 53.71" fill="#231F20" fill-rule="nonzero"/>
  <path d="M29.417 38.71l-3.076.46-4.152.462-2.692.077-2.614-.078-2-.615-1.77-1.923-1.383-3.922-.31-.846-1.845-.615L8.5 29.943l-.77-2.538.846-2.23 2-.692 1.614.77.77 1.69.922-.153.308-.385-.308-1.77-.077-2.23.462-3.076-.018-1.758 1.4-2.242 2.462-1.77 4.307-1.845 4.767.693 4.153 3 1.922 3.075 1.23 2.23.308 5.538-.922 4.77-1.692 4.23-1.615 2.23" fill="#F0D6B7"/>
  <path d="M26.802 52.014l-10.997.46v1.847l.923 6.46-.462.54-7.69-2.615-.54-.923-.768-8.69-1.768-5.23-.385-1.23 6.152-4.23 1.923-.77 1.692 2.077 1.46 1.307 1.693.538.77.23.922 4 .692.846 1.768-.615-1.23 2.384 6.69 3.152-.846.462" fill="#335061"/>
  <path d="M8.576 25.174l2-.692 1.614.77.77 1.69.922-.153.23-.924-.46-1.77.46-4.23-.384-2.306 1.385-1.615 3-2.384-.847-1.152-4.23 2.076-1.77 1.384-.998 2.154-1.54 2.076-.46 2.46.308 2.616" fill="#6D6B6D"/>
  <path d="M11.73 17.945s1.152-2.846 5.767-4.23c4.614-1.384.23-1 .23-1l-4.998 1.923-1.924 1.923-.846 1.54 1.77-.155M9.422 24.636s-1.615-5.384 4.537-6.153l-.232-.923-4.23 1-1.23 4 .308 2.614.846-.538" fill="#DCD9D8"/>
  <path d="M11.883 31.788l1.006-.976s.454.053.53.59c.078.54.308 5.385 3.615 8 .302.238-2.46-.385-2.46-.385l-2.462-3.845M26.034 30.327s.18-2.33.807-2.152c.628.18.628.807.628.807s-1.524.986-1.434 1.345" fill="#F7E4CD"/>
  <path d="M32.416 21.79s-1.267.268-1.384 1.384c-.117 1.117 1.384.23 1.615.154M23.11 21.867s-1.69.23-1.69 1.307 1.922 1 2.46.54" fill="#F7E4CD" fill-rule="nonzero"/>
  <path d="M12.652 26.866s-2.923-1.77-3.23-.077c-.308 1.69-1 2.922.46 4.69l-1-.307-.922-2.384-.307-2.308 1.77-1.846 1.998.153 1.155.922.077 1.154M14.036 22.02s1.307-6.767 7.92-8.074c5.446-1.077 8.307.23 9.384 1.46 0 0-4.845-5.767-9.46-3.998-4.614 1.77-7.998 5-7.92 7.075.13 3.536.076 3.538.076 3.538M31.878 16.176s-2.23-.077-2.307 1.923c0 0 0 .306.155.614 0 0 1.77-2 2.845-.923" fill="#F7E4CD"/>
  <path d="M22.112 18.922s-.384-3.07-3-1.285c-1.692 1.154-1.538 2.77-1.23 3.076.307.308.223.928.457.502.233-.425.156-1.81 1.002-2.193.846-.385 2.233-.815 2.77-.1" fill="#F7E4CD"/>
  <path d="M14.882 39.71l-7.23 3.23s3 11.92 1.462 15.61l-1.077-.383-.077-4.538-2-8.614-.845-2.384 7.537-5.076 2.23 2.153M15.625 46.302l1.026 1.252v4.614h-1.23s-.153-3.23-.153-3.615c0-.384.153-1.77.153-1.77M15.65 52.86l-3.46.154 1 .692 2.46.385" fill="#49728B"/>
  <path d="M27.495 52.09l2.845-.076.692 7.075-2.922.384-.615-7.383" fill="#335061"/>
  <path d="M28.264 52.09l4.306-.23s1.77-4.46 1.77-4.69c0-.232 1.537-6.46 1.537-6.46l-3.46-3.615-.693-.616-1.845 1.845v7.152l-1.616 6.614" fill="#335061"/>
  <path d="M30.186 51.553l-2.69.538.383 2.154c1 .462 2.69-.77 2.69-.77M30.263 38.094l5.383 4 .154-1.846-4.076-3.77-1.46 1.616" fill="#49728B"/>
  <path d="M18.32 67.242l-1.592-6.46-.792-4.768-.13-3.54 7.205-.382h4.485l-.408 8.075.692 6.23-.078 1.153-5.845.46-3.537-.768" fill="#fff"/>
  <path d="M26.495 52.014s-.385 7.998.77 13.69c0 0-2.308 1.46-5.692 1.845l6.46-.232.77-.46-.924-12.614-.232-2.692" fill="#DCD9D8"/>
  <path d="M31.163 58.475l3-.846 5.69-.31.846-2.613-1.54-4.538-1.767-.232-2.462.77-2.36 1.152-1.253-.23-.977.384" fill="#fff"/>
  <path d="M31.11 56.936s1.998-.923 2.306-.846l-.846-4.23 1-.384s.692 4 .692 4.46c0 0 4.307.23 4.69.23 0 0 .924-1.768.693-3.614l.847 2.46.076 1.386-1.23 1.845-1.384.308-2.308-.076-.77-1-2.69.385-.846.307" fill="#DCD9D8"/>
  <path d="M28.087 51.477l-1.692-4.307-1.77-2.538s.385-1.077.924-1.077h1.768l1.692.615-.154 2.846-.77 4.46" fill="#fff" fill-rule="nonzero"/>
  <path d="M28.417 50.014s-2.153-4.152-2.153-4.768c0 0 .384-.922.923-.692.538.23 1.692.846 1.692.846v-1.46l-2.616-.54-1.77.23 3 7.077.616.077" fill="#DCD9D8"/>
  <path d="M19.012 39.864l-2.13-.232-2-.615v.692l.977 1.076 3.075 1.385" fill="#fff" fill-rule="nonzero"/>
  <path d="M15.574 40.094s2.385 1 3.154.77l.076.92-2.153-.46-1.306-.922.23-.308" fill="#DCD9D8"/>
  <path d="M31.155 43.817c-1.305-.038-2.484-.193-3.516-.485.07-.423-.062-.838.043-1.143.288-.208.77-.205 1.205-.253-.376-.185-.905-.258-1.34-.152-.01-.293-.14-.475-.22-.705.733-.262 2.465-1.98 3.44-1.41.464.27.66 1.815.697 2.566.03.623-.056 1.25-.31 1.58" fill="#D33833"/>
  <path d="M31.155 43.817c-1.305-.038-2.484-.193-3.516-.485.07-.423-.062-.838.043-1.143.288-.208.77-.205 1.205-.253-.376-.185-.905-.258-1.34-.152-.01-.293-.14-.475-.22-.705.733-.262 2.465-1.98 3.44-1.41.464.27.66 1.815.697 2.566.03.623-.056 1.25-.31 1.58z" fill="none" stroke="#D33833" stroke-width=".46144"/>
  <path d="M24.915 41.684l-.012.298c-.407.267-1.065.264-1.512.49.66.028 1.18.187 1.628.41l-.03.746c-.746.51-1.428 1.273-2.308 1.752-.415.227-1.874.81-2.317.707-.25-.058-.273-.368-.373-.66-.213-.628-.703-1.626-.746-2.57-.055-1.19-.175-3.19 1.11-2.943 1.036.197 2.24.675 3.043 1.113.49.268.774.6 1.518.657" fill="#D33833"/>
  <path d="M24.915 41.684l-.012.298c-.407.267-1.065.264-1.512.49.66.028 1.18.187 1.628.41l-.03.746c-.746.51-1.428 1.273-2.308 1.752-.415.227-1.874.81-2.317.707-.25-.058-.273-.368-.373-.66-.213-.628-.703-1.626-.746-2.57-.055-1.19-.175-3.19 1.11-2.943 1.036.197 2.24.675 3.043 1.113.49.268.774.6 1.518.657z" fill="none" stroke="#D33833" stroke-width=".46144"/>
  <path d="M25.656 43.106c-.114-.65-.245-.835-.194-1.4 1.73-1.156 2.056 1.982.194 1.4" fill="#D33833"/>
  <path d="M25.656 43.106c-.114-.65-.245-.835-.194-1.4 1.73-1.156 2.056 1.982.194 1.4z" fill="none" stroke="#D33833" stroke-width=".46144"/>
  <path d="M28.164 43.632s-.54-.77-.154-1c.384-.23.77 0 1-.384.23-.385 0-.615.076-1.077.077-.46.462-.537.847-.614.384-.077 1.46-.23 1.615.154l-.462-1.385-.923-.307-2.922 1.692-.153.846v1.692M20.09 46.17c-.094-1.2-.192-2.4-.3-3.598-.163-1.79.43-1.478 1.982-1.478.237 0 1.46.283 1.547.462.418.856-.703.666.482 1.312 1 .545 2.766-.33 2.362-1.543-.226-.27-1.178-.084-1.52-.26-.6-.312-1.2-.624-1.802-.935-.764-.397-2.53-.975-3.346-.42-2.065 1.403.13 4.912.867 6.377" fill="#EF3D3A"/>
  <path d="M22.112 18.922c-2.096-.488-3.137.877-3.773 2.293-.568-.137-.342-.91-.2-1.302.376-1.03 1.888-2.405 3.124-2.22.53.08 1.25.567.848 1.23M32.325 21.31l.1.003c.473.984.883 2.026 1.48 2.895-.4.932-3.03 1.757-2.99.083.57-.247 1.55-.05 2.056-.367-.29-.8-.712-1.482-.645-2.614M23.185 21.335c.45.824.596 1.69 1.235 2.312.288.28.847.622.57 1.402-.065.182-.54.592-.812.673-1 .295-3.326.06-2.538-1.184.826.037 1.936.535 2.554-.065-.474-.757-1.32-2.257-1.01-3.14M31.95 29.708c-1.503.966-3.18 2.017-5.644 1.773-.527-.457-.728-1.475-.216-2.148.266.458.1 1.3.84 1.426 1.4.24 3.026-.855 4.032-1.237.624-1.05-.054-1.437-.616-2.114-1.15-1.387-2.693-3.105-2.636-5.18.464-.338.505.514.57.67.602 1.405 2.113 3.202 3.216 4.405.27.297.717.582.767.777.143.57-.372 1.253-.313 1.63M12.125 28.69c-.47-.268-.583-1.453-1.137-1.486-.79-.048-.646 1.537-.643 2.464-.545-.494-.64-2.016-.24-2.797-.456-.223-.66.248-.912.414.325-2.36 3.452-1.095 2.932 1.407M32.908 30.69c-.7 1.334-1.69 2.8-3.744 2.844-.042-.43-.074-1.085.002-1.344 1.57-.15 2.54-.95 3.742-1.5M23.067 31.555c1.31.69 3.718.763 5.5.71.094.39.092.873.095 1.35-2.29.113-4.995-.453-5.595-2.06M22.818 32.84c.906 2.274 4.02 2.012 6.645 1.95-.115.295-.366.644-.677.77-.842.342-3.162.602-4.33-.018-.74-.394-1.217-1.284-1.623-1.806-.196-.25-1.172-.895-.015-.896" fill="#231F20"/>
  <path d="M31.84 45.387c-1.062 1.82-2.08 3.69-3.34 5.297.528-1.555.754-4.157.834-6.14 1.107-.52 2.054.115 2.507.843" fill="#81B0C4"/>
  <path d="M37.562 51.93c-1.19.24-2.027 1.396-3.188 1.322.638-.9 1.756-1.28 3.188-1.32M38.087 53.794c-.97.102-2.11.26-3.094.178.466-.71 2.26-.466 3.094-.178M38.423 55.4c-1.09.023-2.445.002-3.482-.085.614-.66 2.776-.245 3.483.085" fill="#231F20"/>
  <path d="M29.79 59.795c.156 1.37.7 2.757.63 4.256-.602.205-.948.382-1.756.38-.057-1.273-.228-3.222-.177-4.437.398.027.983-.283 1.302-.198" fill="#DCD9D8"/>
  <path d="M28.032 39.614c-.548.357-1.014.803-1.54 1.185-1.166.056-1.802-.082-2.66-.752.015-.053.1-.03.104-.095 1.25.556 2.835-.227 4.096-.34" fill="#F0D6B7"/>
  <path d="M21.48 48.122c.342-1.486 1.686-2.256 2.906-3.074 1.26 1.598 2.026 3.654 2.87 5.638-1.994-.6-4.03-1.576-5.777-2.564" fill="#81B0C4"/>
  <path d="M28.487 59.993c-.05 1.215.12 3.164.177 4.438.808.002 1.154-.175 1.757-.38.07-1.498-.474-2.886-.63-4.255-.32-.085-.905.225-1.303.198zm-12.577-6.91c.533 4.897 1.304 9.013 2.72 13.35 3.14.953 6.925 1.036 9.7.176-.51-2.45-.286-5.428-.584-8.04-.224-1.963-.11-3.938-.418-5.94-3.363-.7-8.117-.164-11.418.454zm12.213-.422c-.028 2.104.095 4.178.255 6.283.808-.12 1.356-.202 2.106-.366-.244-2.027-.214-4.308-.71-6.1-.574.004-1.08-.008-1.65.184zm4.097-.338c-.383-.088-.83-.004-1.196.003.172 1.715.59 3.606.737 5.406.577.02.885-.253 1.36-.345.024-1.58-.14-3.755-.9-5.063zm6.202 5.667c1.2-.293 1.956-1.764 1.62-3.274-.225-1.015-.626-2.927-1.056-3.576-.317-.48-1.178-1.11-1.866-.67-1.118.717-3.087.924-3.903 1.79.41 1.362.536 3.232.705 4.957 1.397.087 3.115-.385 4.277.116-.812.262-1.864.264-2.565.647.573.277 1.913.22 2.787.01zm-11.167-7.304c-.843-1.984-1.61-4.04-2.87-5.638-1.22.818-2.563 1.588-2.906 3.074 1.746.988 3.782 1.963 5.775 2.564zm2.08-6.143c-.08 1.984-.307 4.586-.836 6.14 1.26-1.605 2.278-3.475 3.34-5.296-.452-.728-1.4-1.362-2.506-.844zm-2.358-.838c-.478-.05-.883.55-1.504.29-.143.157-.272.328-.417.48 1.372 1.655 1.996 4.002 3.055 5.945.57-1.867.505-3.912.63-5.95-.782.05-1.215-.707-1.763-.765zm-1.515-2c-.05.566.08.752.194 1.4 1.862.583 1.537-2.555-.194-1.4zm-2.065-.678c-.802-.438-2.007-.916-3.044-1.113-1.284-.246-1.164 1.752-1.11 2.944.044.943.534 1.94.747 2.568.1.293.123.603.373.66.443.105 1.902-.48 2.317-.706.88-.48 1.562-1.24 2.31-1.752.008-.248.018-.497.028-.746-.45-.223-.968-.382-1.627-.41.448-.226 1.106-.223 1.513-.49l.012-.298c-.744-.057-1.028-.39-1.518-.657zm-7.663-1.392c-.666.676 1.868 1.598 2.674 1.647-.004-.427.244-.83.194-1.138-.958-.168-2.217-.057-2.868-.51zm8.202.318c-.003.066-.09.042-.103.095.857.67 1.493.808 2.66.75.525-.38.99-.827 1.54-1.184-1.262.112-2.848.895-4.097.34zm7.53 2.283c-.037-.75-.234-2.296-.698-2.566-.975-.57-2.707 1.148-3.44 1.41.08.23.21.412.22.705.435-.106.964-.033 1.34.152-.435.048-.917.045-1.205.252-.105.304.026.72-.044 1.142 1.03.292 2.21.447 3.515.485.254-.33.34-.958.31-1.58zM14.612 40.29c-.21-.15-1.623-1.99-1.817-1.914-2.56 1.01-4.953 2.755-7.092 4.405 2.04 4.377 2.862 9.737 3.008 14.904 2.336 1.092 4.387 2.667 7.557 2.832-.368-2.595-.702-4.91-.91-7.354-.797-.336-1.94.015-2.685-.104-.006-.898 1.138-.393 1.234-.997.07-.456-.63-.49-.403-1.21.583.212.89.68 1.51.855.568-1.242-.008-3.44.074-4.478.017-.195.1-1.08.535-.925.387.138-.022 2.354.02 3.337.04.904-.11 1.78.258 2.348 3.063-.417 6.175-.686 9.49-.777-.73-.312-1.596-.608-2.546-1.143-.515-.29-2.137-.894-2.286-1.383-.236-.78.623-1.194.77-1.862-1.546.843-1.848-.808-2.214-1.978-.33-1.06-.52-1.852-.6-2.463-1.333-.634-2.756-1.277-3.903-2.09zm15.5-1.69c2.132-1.035 2.516 3.863 1.68 5.44.13.472.574.652.755 1.075-1.19 2.132-2.51 4.122-3.726 6.23.904-.563 2.194-.102 3.257-.523.387-.153.668-1.043.963-1.754.81-1.958 1.658-4.426 2.036-6.294.084-.426.317-1.353.265-1.732-.093-.678-1.013-1.18-1.482-1.6-.862-.775-1.405-1.457-2.305-2.182-.364.54-1.147.9-1.446 1.34zM9.735 19.686c-1.016 1.118-.803 3.213-.68 4.704 1.836-1.155 4.274.092 4.25 2.057.878-.023.33-1.095.17-1.786-.518-2.254.873-4.704.063-6.767-1.574.12-2.866.762-3.804 1.794zm7.27-6.49c-2.3.653-5.248 2.325-6.193 4.39.732-.105 1.24-.474 1.962-.52.273-.018.63.114.944.036.624-.155 1.152-1.556 1.623-2.077.46-.51 1.012-.727 1.39-1.19.243-.12.602-.11.616-.475-.106-.112-.217-.198-.343-.162zm11.976.614c-2.388-1.346-6.43-2.36-8.97-1.093-2.05 1.022-4.82 2.713-5.763 4.855.88 2.067-.263 3.962-.336 6.06-.038 1.118.526 2.093.57 3.31-.303.497-1.225.558-1.864.524-.215-1.076-.59-2.285-1.698-2.406-1.568-.17-2.714 1.126-2.785 2.48-.084 1.595 1.225 4.237 3.08 4.054.716-.07.892-.79 1.672-.782.423.844-.653 1.11-.764 1.713-.03.156.09.766.158 1.052.337 1.39 1.088 3.193 1.827 4.253.94 1.344 2.783 1.546 4.765 1.678.355-.763 1.66-.7 2.51-.5-1.02-.404-1.966-1.382-2.75-2.248-.903-.994-1.817-2.06-1.863-3.358 1.704 2.364 3.112 4.43 6.21 5.468 2.345.787 5.083-.36 6.885-1.625.747-.526 1.193-1.36 1.725-2.124 1.988-2.86 2.915-6.94 2.71-10.897-.083-1.63-.08-3.257-.626-4.355-.573-1.148-2.508-2.175-3.64-1.137-.21-1.115.94-1.805 2.295-1.404-.964-1.245-1.977-2.74-3.348-3.515zm4.448 36.816c1.866-.927 5.352-2.496 6.522.004.432.92.938 2.48 1.162 3.43.315 1.342-.343 4.163-1.722 4.613-1.22.398-2.64.374-4.108.08-.173-.145-.365-.395-.5-.657-1.048-.04-2.03.057-2.857.488.08.775-.445.9-.937 1.06-.364 1.443.73 3.33.467 4.647-.186.94-1.34 1.084-2.19 1.26-.027.52.038.956.096 1.397-.194.715-1.065 1.122-1.89 1.222-2.712.325-6.83.472-9.44-.466-.73-1.787-1.303-3.96-1.91-6-2.545.273-4.603-1.097-6.543-1.994-.673-.312-1.602-.483-1.853-1.018-.243-.518-.144-1.51-.204-2.448-.154-2.394-.285-4.703-.917-7.154-.284-1.1-.78-2.07-1.124-3.13-.32-.983-.877-2.198-1.022-3.177-.216-1.452 1.15-1.533 2.026-2.162 1.35-.972 2.412-1.51 3.875-2.388.435-.26 1.742-.918 1.89-1.22.297-.602-.507-1.45-.72-1.92-.34-.746-.518-1.38-.567-2.114-1.227-.194-2.158-.925-2.72-1.75-.93-1.362-1.575-3.885-.77-5.804.063-.15.377-.448.424-.68.09-.457-.173-1.065-.19-1.55-.083-2.495.423-4.644 2.102-5.396.68-2.715 3.12-3.618 5.42-4.968.858-.504 1.805-.826 2.783-1.186 3.51-1.29 8.892-1.048 11.804 1.154 1.235.934 3.21 2.906 3.915 4.334 1.865 3.77 1.732 10.068.428 14.653-.175.616-.43 1.52-.785 2.26-.247.517-1.017 1.55-.923 2.006.096.472 1.754 1.73 2.11 2.074.64.617 1.856 1.437 1.955 2.217.106.83-.366 1.965-.605 2.765-.798 2.67-1.577 5.14-2.482 7.52" fill="#231F20"/>
  <path d="M20.982 32.137c.102-.135.658-.34 1.437.035 0 0-.924.154-.847 1.693l-.385-.077s-.397-1.395-.206-1.65" fill="#F7E4CD"/>
  <path d="M27.725 45.362c0 .233-.19.423-.423.423-.233 0-.423-.19-.423-.423 0-.234.19-.423.422-.423.234 0 .423.188.423.422M28.148 47.323c0 .233-.19.423-.423.423-.233 0-.423-.19-.423-.423 0-.234.19-.423.423-.423.234 0 .423.19.423.423" fill="#1D1919"/>
  <g>
    <text font-family="'Georgia-Bold', 'Georgia', serif" font-weight="700" font-size="144" transform="matrix(.23072 0 0 .23072 53.563 51.873)">
      Jenkins
    </text>
  </g>
</svg>
