<svg viewBox="0 0 115 80" xmlns="http://www.w3.org/2000/svg" fill-rule="evenodd" clip-rule="evenodd" stroke-linejoin="round" stroke-miterlimit="1.41">
  <path d="M20.4 37.5v14.54h-5.87V41.8c0-1-.02-1.85-.06-2.55-.05-.7-.16-1.26-.36-1.7-.18-.44-.48-.76-.87-.96-.4-.2-.95-.3-1.67-.3-.57 0-1.13.12-1.67.38-.55.26-1.04.54-1.47.83v14.54H2.58v-20.5h5.85v2.27c1-.88 1.97-1.58 2.9-2.07.9-.5 1.93-.75 3.04-.75 1.2 0 2.26.3 3.18.9.92.6 1.64 1.5 2.16 2.66 1.18-1.1 2.32-1.98 3.42-2.6 1.1-.65 2.2-.96 3.25-.96 1.97 0 3.47.66 4.5 2 1 1.3 1.52 3.22 1.52 5.72v13.34H26.5V41.8c0-1-.02-1.86-.06-2.55-.04-.7-.16-1.26-.35-1.7-.17-.44-.47-.76-.87-.96-.4-.2-.96-.3-1.7-.3-.47 0-.95.08-1.4.27-.48.2-1.05.5-1.72.94z" fill-rule="nonzero"/>
  <g fill-rule="nonzero">
    <path d="M47.16 47.63v-3.36c-.7.06-1.45.14-2.27.24-.82.1-1.44.23-1.86.36-.5.16-.9.4-1.18.7-.27.32-.4.73-.4 1.24 0 .33.02.6.08.82.05.2.2.4.43.6.22.2.48.33.8.42.3.1.77.14 1.42.14.5 0 1.03-.1 1.56-.32.53-.2 1-.5 1.4-.83zm0 2.5l-1.03.76c-.4.28-.8.52-1.16.7-.5.22-1.04.4-1.58.5-.56.1-1.16.16-1.8.16-1.54 0-2.82-.47-3.85-1.42-1.03-.94-1.55-2.15-1.55-3.63 0-1.16.26-2.12.8-2.87.5-.75 1.26-1.34 2.23-1.77.95-.43 2.14-.73 3.56-.9 1.4-.2 2.87-.33 4.4-.42v-.08c0-.9-.37-1.5-1.1-1.85-.73-.33-1.8-.5-3.2-.5-.87 0-1.77.16-2.74.46-.97.3-1.66.53-2.08.7h-.47v-3.9c.55-.14 1.44-.3 2.67-.5s2.46-.3 3.7-.3c2.93 0 5.05.45 6.36 1.36 1.3.9 1.95 2.32 1.95 4.25v10.96h-5.12v-1.7z" fill="#FF6804"/>
    <path d="M73.26 35.72l-6.2 16.1h-5.87L55 35.73h5.47L64.2 46.8l3.7-11.08h5.34zM92 44.73H80.18c.07 1.26.55 2.23 1.44 2.9.88.67 2.2 1 3.9 1 1.1 0 2.16-.2 3.18-.58 1.02-.4 1.83-.82 2.43-1.27h.57v4.15c-1.17.47-2.27.8-3.3 1.02-1.03.2-2.18.3-3.43.3-3.23 0-5.7-.7-7.43-2.17-1.72-1.45-2.6-3.52-2.6-6.2 0-2.67.83-4.78 2.46-6.33 1.63-1.55 3.87-2.33 6.7-2.33 2.63 0 4.6.66 5.92 2 1.32 1.3 1.98 3.22 1.98 5.7v1.8zm-5.14-3.03c-.02-1.08-.3-1.9-.8-2.44s-1.3-.8-2.37-.8c-1 0-1.82.24-2.46.76-.64.52-1 1.35-1.08 2.48h6.7zM111.83 51.83h-5.2v-8c0-.64-.03-1.3-.1-1.93-.06-.65-.18-1.12-.34-1.43-.2-.35-.48-.6-.85-.78-.37-.17-.88-.25-1.54-.25-.46 0-.94.08-1.42.23-.48.15-1 .4-1.57.73v11.43h-5.16v-16.1h5.17v1.77c.93-.72 1.8-1.27 2.66-1.65.84-.38 1.78-.57 2.82-.57 1.74 0 3.1.5 4.08 1.52.98 1 1.47 2.53 1.47 4.54v10.5z"/>
  </g>
</svg>
