<svg viewBox="0 0 100 80" xmlns="http://www.w3.org/2000/svg" fill-rule="evenodd" clip-rule="evenodd" stroke-linejoin="round" stroke-miterlimit="1.414">
  <path d="M56.88 27.326h.55c.648.083 1.267.424 1.63.972.567.805.472 2.01-.242 2.695-.9.913-2.558.877-3.41-.082-.648-.7-.7-1.84-.163-2.617.36-.55.99-.886 1.634-.967zM20.91 27.415c.44-.003.88 0 1.32 0v5.956c.008 1.436-.017 2.873.013 4.31.342-.492.695-.98 1.13-1.393 1.006-1.022 2.4-1.62 3.822-1.732 1.194-.083 2.43.025 3.53.522 1.016.456 1.903 1.195 2.525 2.12.604.874.995 1.882 1.224 2.917.28 1.217.34 2.474.275 3.718-.07 1.172-.285 2.338-.69 3.44-.564 1.553-1.578 2.976-2.992 3.858-1.042.674-2.274 1.006-3.506 1.07h-.917c-1.138-.06-2.268-.447-3.154-1.172-.492-.39-.883-.886-1.248-1.39-.028.717-.005 1.436-.013 2.154-1.27.002-2.538 0-3.807 0V33.54c0-.08.014-.16.045-.234.817-1.963 1.627-3.928 2.443-5.89m5.136 10.27c-1.147.124-2.225.756-2.89 1.7-.653.914-.953 2.048-.956 3.164.003.834-.004 1.668.003 2.5.043 1.418.81 2.826 2.064 3.522.985.57 2.2.637 3.285.342.867-.24 1.64-.793 2.144-1.537.666-.973.956-2.15 1.07-3.31.104-1.246.09-2.54-.344-3.728-.31-.863-.868-1.662-1.666-2.135-.803-.496-1.785-.62-2.71-.518zM81.13 27.414c1.245 0 2.49-.002 3.734 0v24.393H81.13c-.005-.866.008-1.733-.006-2.6-.453.68-.95 1.348-1.617 1.834-.963.73-2.163 1.093-3.36 1.16h-.904c-.905-.06-1.807-.27-2.617-.685-.778-.388-1.46-.96-2-1.64-.543-.68-.936-1.47-1.22-2.29-.375-1.093-.513-2.253-.534-3.404-.014-1.356.133-2.727.562-4.02.494-1.545 1.408-2.992 2.74-3.945.93-.673 2.034-1.09 3.172-1.23 1.21-.145 2.482-.07 3.602.45.91.412 1.65 1.128 2.177 1.967.013-3.33 0-6.66.006-9.988m-4.284 10.568c-.687.034-1.374.223-1.955.6-.767.477-1.314 1.25-1.634 2.086-.46 1.208-.555 2.52-.498 3.802.046.78.2 1.56.517 2.278.316.727.822 1.386 1.498 1.813.844.528 1.887.698 2.862.53 1.157-.206 2.176-.973 2.76-1.983.518-.883.756-1.91.774-2.928.008-.697.005-1.395 0-2.092-.027-1.292-.646-2.58-1.693-3.35-.75-.56-1.7-.82-2.63-.756zM10.017 27.414c.73-.002 1.46 0 2.19-.002-3.34 8.142-6.688 16.282-10.03 24.424-.726.003-1.45 0-2.177 0V51.8c3.34-8.128 6.68-16.257 10.017-24.386zM5.227 51.837c3.345-8.14 6.686-16.283 10.03-24.425.73.003 1.46 0 2.19.002-3.343 8.14-6.69 16.28-10.03 24.422h-2.19zM62.518 27.414c1.24-.002 2.48 0 3.72 0 0 8.116 0 16.234-.002 24.35h-3.718v-24.35zM86.706 51.837c3.344-8.142 6.687-16.283 10.033-24.423h2.174v.033c-3.342 8.128-6.68 16.26-10.02 24.39h-2.188zM55.254 35.318c1.235-.002 2.47 0 3.705 0v16.446h-3.706V35.318zM36.787 35.317h3.763v9.272c-.016 1.005.07 2.05.54 2.958.355.7 1.017 1.234 1.778 1.426 1.084.29 2.316.143 3.228-.538.687-.495 1.13-1.26 1.374-2.06.19-.636.22-1.306.214-1.966v-9.093h3.734c0 5.484.002 10.966 0 16.448h-3.734c-.003-.83.006-1.66-.004-2.49-.106.07-.152.19-.22.292-.564.873-1.364 1.602-2.308 2.047-.845.405-1.79.59-2.726.546-1.168-.023-2.366-.305-3.325-.996-.87-.614-1.486-1.54-1.83-2.542-.388-1.126-.498-2.33-.483-3.514v-9.79z" fill="#00B0F5" fill-rule="nonzero"/>
</svg>
