<svg viewBox="0 0 165 80" xmlns="http://www.w3.org/2000/svg" fill-rule="evenodd" clip-rule="evenodd" stroke-linejoin="round" stroke-miterlimit="1.414">
  <g fill-rule="nonzero">
    <path d="M159.602 51.9h-2.013c0-16.19-13.378-29.423-29.903-29.423V20.4c17.603 0 31.956 14.217 31.956 31.5h-.04z" fill="#4B9FD5"/>
    <path d="M161 41.066c-2.424-10.167-10.658-18.708-21.053-21.653l.467-1.652c10.94 3.184 19.655 12.153 22.174 22.987l-1.587.32zM163.28 31.55c-2.505-5.474-6.703-10.18-11.954-13.35l.668-1.2c5.45 3.278 9.94 8.316 12.46 14.005l-1.174.546z" fill="#4B9FD5"/>
    <path d="M0 51.14c1.2.654 3.064 1.2 5.144 1.2 4.49 0 6.782-2.186 6.782-5.145-.04-2.29-1.318-3.93-4.263-4.917-1.947-.666-2.52-1.09-2.52-1.865-.04-.76.653-1.2 1.854-1.2 1.304 0 2.744.44 3.398.868l.853-3.385c-.974-.44-2.6-.986-4.466-.986C2.905 35.71.44 38 .44 40.96c-.08 1.865 1.198 3.61 4.477 4.704 1.8.653 2.305.987 2.305 1.866-.012.878-.653 1.306-2.078 1.306-1.493 0-3.398-.654-4.265-1.2L0 51.14zM21.575 39.32c2.225 0 3.158 2.292 3.158 4.704-.026 2.853-1.213 4.704-3.172 4.704-2.09 0-3.184-1.972-3.184-4.704-.026-2.29.88-4.704 3.185-4.704m.174-3.61c-5.104 0-8.488 3.278-8.488 8.42.026 5.145 3.597 8.21 8.196 8.21 4.237 0 8.315-2.733 8.315-8.53.026-4.703-3.17-8.1-7.983-8.1h-.04M31.316 51.9h4.917v-9.075c0-.44-.014-.88.2-1.213.307-.865 1.092-1.85 2.518-1.85 1.733 0 2.413 1.425 2.413 3.383l.04 8.755h4.905v-9.3c0-4.706-2.426-6.784-5.61-6.784-2.693 0-4.266 1.533-4.918 2.52h-.108l-.226-2.188h-4.263c.065 1.428.105 3.066.105 5.04l.028 10.712zM57.154 46.21c0 .226-.04.546-.147.773-.28 1.093-1.318 1.853-2.517 1.853-1.08 0-1.973-.654-1.973-1.853.04-1.865 2.078-2.52 4.597-2.52l.04 1.746m4.744-3.61c0-3.72-1.612-6.89-6.864-6.89-2.93 0-5.143.88-6.235 1.425l.946 3.17c1.037-.65 2.77-1.198 4.41-1.198 2.386 0 2.85 1.2 2.85 2.08l-.01.213c-5.598 0-9.29 1.972-9.29 6.022.013 2.505 1.972 4.917 5.143 4.917 1.838 0 3.505-.76 4.477-1.973h.107l.293 1.533h4.438c-.2-.865-.24-2.293-.24-3.824l-.027-5.477zM64.31 51.9h4.903v-7.98c0-.335.042-.775.042-1.095.386-1.533 1.652-2.52 3.398-2.52.573 0 .986.108 1.304.108l.04-4.597c-.346 0-.585-.107-1.012-.107-1.573 0-3.505.985-4.277 3.278h-.133l-.2-2.84h-4.198c.093 1.307.16 2.84.16 5.144L64.31 51.9zM106.82 47.53c0 1.638.08 3.17.08 4.37h-2.534l-.16-2.625h-.064c-.762 1.318-2.494 3.064-5.345 3.064-2.45 0-5.464-1.426-5.464-6.996v-9.422h2.92v8.876c0 3.052.906 5.13 3.53 5.13 1.987 0 3.29-1.412 3.838-2.733.188-.44.32-.878.32-1.425l-.025-9.848h2.905V47.53zM111.95 45.664c0 .333.093.653.093.987.613 2.078 2.293 3.504 4.37 3.504 3.078 0 4.932-2.517 4.932-6.235-.04-3.173-1.64-5.918-4.824-5.918-1.958 0-3.825 1.318-4.37 3.61-.093.334-.214.666-.214 1.213l.014 2.84m-3 6.342c.067-1.093.135-2.624.135-4.038V28.592h2.865v10.075h.065c1.026-1.76 2.866-2.96 5.492-2.96 3.93 0 6.782 3.28 6.675 8.21.028 5.69-3.61 8.53-7.102 8.53-2.345 0-4.158-.868-5.37-3.065h-.12l-.133 2.624h-2.506zM137.096 42.386c.026-1.865-.76-4.705-4.052-4.705-2.917 0-4.263 2.733-4.478 4.706h8.53m-8.53 2.078c.068 3.944 2.627 5.585 5.464 5.585 2.106 0 3.398-.443 4.492-.882l.453 2.08c-1.026.44-2.76.986-5.265.986-4.983 0-7.888-3.172-7.888-7.995-.028-4.813 2.852-8.636 7.448-8.636 5.238 0 6.677 4.597 6.677 7.54-.053.548-.12.987-.12 1.32h-11.26zM86.577 48.836c-2.704 1.865-6.37 1.213-8.236-1.533-1.81-2.732-1.09-6.343 1.534-8.196 2.746-1.865 6.45-1.105 8.316 1.533 1.785 2.732 1.093 6.45-1.64 8.196m3.68-9.622c-2.613-3.837-7.836-4.81-11.78-2.185-3.8 2.624-4.81 7.875-2.186 11.698 2.318 3.398 6.676 4.597 10.393 3.066l3.225 5.25 2.598-1.746-3.265-5.37c2.826-2.733 3.345-7.21 1.054-10.714h-.04"/>
  </g>
</svg>
