<svg width="180" height="30" viewBox="0 0 180 30" fill="none" xmlns="http://www.w3.org/2000/svg">
<path d="M32.7446 12.1818C32.5344 11.054 31.98 10.0217 31.158 9.21887C30.2787 8.45424 29.1127 8.07193 27.9466 8.12928C27.0482 8.09105 26.1498 8.32044 25.3852 8.77921C24.6588 9.18064 24.0279 9.73499 23.5501 10.404C23.0531 11.0922 22.6899 11.8568 22.4605 12.6788C21.9252 14.3801 21.9252 16.196 22.4605 17.9164C22.709 18.7193 23.0722 19.503 23.5501 20.1912C24.0279 20.8602 24.6588 21.4337 25.3852 21.816C26.1689 22.2366 27.0482 22.4659 27.9466 22.4659C28.5583 22.4659 29.17 22.3704 29.7244 22.1219C30.2596 21.8734 30.7757 21.5484 31.1963 21.1278C31.6359 20.6882 31.9991 20.153 32.2859 19.5986C32.5726 18.9869 32.7446 18.3561 32.8211 17.6679H34.8856C34.6944 19.4648 33.9107 21.147 32.6682 22.4468C31.483 23.632 29.8964 24.1672 27.9849 24.1672C26.8188 24.1672 25.6528 23.957 24.5823 23.4791C23.6074 23.0585 22.7663 22.3895 22.1164 21.5484C21.4091 20.7264 20.893 19.7706 20.5872 18.7384C19.8608 16.5019 19.8608 14.0933 20.5872 11.8377C20.893 10.8055 21.4091 9.84968 22.1164 9.02771C22.8046 8.22486 23.6456 7.57493 24.5823 7.09704C25.6528 6.60004 26.8188 6.37065 27.9849 6.40888C29.6288 6.37065 31.2345 6.86765 32.5726 7.84255C33.8151 8.77921 34.5415 10.2511 34.79 12.1818H32.7255H32.7446Z" fill="#111D3B"/>
<path d="M44.8837 6.40886C46.0497 6.40886 47.2158 6.61913 48.2862 7.09702C49.242 7.5558 50.0831 8.22484 50.7521 9.02769C51.4594 9.84966 51.9755 10.8054 52.2814 11.8377C53.0078 14.0742 53.0078 16.4828 52.2814 18.7384C51.9755 19.7706 51.4594 20.7264 50.7521 21.5484C50.064 22.3512 49.2229 23.0012 48.2862 23.479C46.1071 24.3966 43.6603 24.3966 41.4811 23.479C40.5062 23.0585 39.6651 22.3895 39.0152 21.5484C38.3079 20.7264 37.7918 19.7706 37.486 18.7384C36.7596 16.5019 36.7596 14.0933 37.486 11.8377C37.7918 10.8054 38.3079 9.84966 39.0152 9.02769C39.7034 8.22484 40.5444 7.57491 41.4811 7.09702C42.5516 6.63825 43.7176 6.38975 44.8837 6.40886V6.40886ZM44.8837 8.12926C43.9852 8.09103 43.0868 8.32042 42.3222 8.77919C41.5958 9.18062 40.965 9.73497 40.4871 10.404C39.9901 11.0922 39.6269 11.8568 39.3975 12.6788C38.8623 14.38 38.8623 16.196 39.3975 17.9164C39.646 18.7193 40.0092 19.503 40.4871 20.1912C40.965 20.8602 41.5958 21.4337 42.3222 21.816C43.1059 22.2365 43.9852 22.4659 44.8837 22.4659C45.7821 22.5042 46.6805 22.2748 47.4452 21.816C48.1715 21.4146 48.8024 20.8602 49.2802 20.1912C49.7773 19.503 50.1404 18.7384 50.3698 17.9164C50.9051 16.2151 50.9051 14.3992 50.3698 12.6788C50.1213 11.8759 49.7581 11.0922 49.2802 10.404C48.8024 9.73497 48.1715 9.1615 47.4452 8.77919C46.6614 8.33953 45.763 8.11015 44.8837 8.12926V8.12926Z" fill="#111D3B"/>
<path d="M70.6323 23.6702H68.759V20.4588H68.7016C68.4914 20.9941 68.1664 21.5102 67.765 21.9307C67.3444 22.3704 66.8665 22.7527 66.3313 23.0585C65.777 23.3453 65.2035 23.5938 64.6109 23.804C64.0183 23.9761 63.4066 24.0717 62.7758 24.0525C61.6289 24.0525 60.482 23.8423 59.4115 23.3644C58.4748 22.9247 57.672 22.2557 57.0412 21.4337C56.3912 20.5926 55.9325 19.6369 55.6648 18.6237C55.0723 16.3872 55.0723 14.0551 55.6648 11.8186C55.9516 10.8055 56.4103 9.8497 57.0412 9.00861C57.6911 8.20576 58.4939 7.53672 59.4115 7.07794C60.4628 6.60006 61.6098 6.37067 62.7758 6.38979C63.3875 6.38979 64.0183 6.46625 64.6109 6.63829C65.2035 6.81033 65.7578 7.03971 66.2931 7.32645C66.8283 7.61318 67.2871 7.99549 67.6694 8.45426C68.0708 8.93215 68.3767 9.44827 68.6061 10.0409H68.6634V0.502197H70.7279V23.6702H70.6323V23.6702ZM57.2132 15.2976C57.2132 16.1578 57.3088 17.018 57.4999 17.8591C57.672 18.662 58.0352 19.4457 58.4939 20.1339C58.9145 20.8029 59.5071 21.3764 60.2143 21.7587C60.979 22.2175 61.8392 22.4277 62.7376 22.4086C63.6934 22.4468 64.6491 22.2366 65.5093 21.7587C66.2166 21.3381 66.8474 20.7838 67.3444 20.1339C67.8032 19.4457 68.1282 18.662 68.3384 17.8591C68.7399 16.1578 68.7399 14.4183 68.3384 12.7361C68.1664 11.9333 67.8032 11.1496 67.3444 10.4614C66.8857 9.77324 66.2548 9.21889 65.5093 8.83657C64.6683 8.3778 63.7125 8.16753 62.7376 8.18665C61.8583 8.14841 60.979 8.35869 60.2143 8.83657C59.5453 9.25712 58.9527 9.81147 58.4939 10.4614C58.0352 11.1496 57.7102 11.9333 57.4999 12.7361C57.3088 13.5772 57.2132 14.4374 57.2132 15.2976Z" fill="#111D3B"/>
<path d="M75.6972 15.8329C75.6972 16.5975 75.7927 17.3621 75.9839 18.1076C76.175 18.8722 76.5191 19.5795 76.9779 20.2294C77.4367 20.8794 78.0293 21.3955 78.6983 21.816C79.4629 22.2366 80.3231 22.4659 81.2216 22.4659C82.5023 22.5424 83.7448 22.1219 84.7197 21.2808C85.599 20.4206 86.1916 19.3501 86.4974 18.165H88.5619C88.2561 19.8662 87.4341 21.3955 86.1916 22.5998C85.0638 23.632 83.3816 24.1863 81.2598 24.1863C80.0746 24.1863 78.8895 23.9761 77.7999 23.4982C76.8632 23.0776 76.0412 22.4086 75.4295 21.5675C74.8178 20.7073 74.3782 19.7515 74.0915 18.7575C73.8047 17.6488 73.6518 16.5019 73.6518 15.355C73.6518 14.208 73.8047 13.1758 74.0915 12.1053C74.3782 11.0922 74.8178 10.1173 75.4295 9.23799C76.0412 8.37779 76.8441 7.67052 77.7999 7.21174C78.8703 6.69563 80.0555 6.44712 81.2598 6.46624C83.5536 6.35154 85.7519 7.46025 87.0327 9.3718C87.6444 10.2702 88.084 11.3216 88.3134 12.3729C88.5619 13.5008 88.6766 14.6668 88.6575 15.8329H75.678H75.6972ZM86.5548 14.1507C86.5548 13.3861 86.421 12.6406 86.1534 11.9333C85.9049 11.2451 85.5608 10.5952 85.1211 10.0026C84.6623 9.44826 84.0889 8.98949 83.439 8.66453C82.0435 8.0146 80.4187 8.0146 79.0042 8.66453C78.3733 9.0086 77.7999 9.44826 77.322 10.0026C76.8441 10.5761 76.4809 11.226 76.2324 11.9333C75.9839 12.6597 75.8119 13.4052 75.6972 14.1507H86.5548V14.1507Z" fill="#111D3B"/>
<path d="M92.5573 23.6702V20.2103H95.2717V23.6702H92.5573Z" fill="#111D3B"/>
<path d="M110.45 11.8377C110.45 11.2834 110.316 10.7099 110.048 10.2129C109.819 9.77322 109.513 9.39091 109.112 9.08506C108.691 8.77921 108.232 8.53071 107.735 8.3969C107.2 8.24398 106.607 8.18663 106.053 8.20575C105.594 8.20575 105.135 8.26309 104.677 8.35867C104.237 8.45425 103.797 8.62629 103.396 8.85568C103.033 9.08506 102.708 9.39091 102.459 9.73499C102.211 10.1555 102.077 10.6143 102.115 11.1113C102.115 11.5319 102.211 11.9142 102.459 12.2391C102.689 12.545 102.975 12.8126 103.3 13.0229C103.664 13.2331 104.046 13.4243 104.428 13.5581C104.811 13.6919 105.212 13.8066 105.556 13.9022L108.27 14.5521C108.863 14.6286 109.436 14.8006 109.991 15.0491C110.526 15.2785 111.042 15.5843 111.52 15.9284C111.96 16.3107 112.342 16.7886 112.61 17.3047C112.916 17.8973 113.068 18.5473 113.049 19.2354C113.088 20.0574 112.858 20.8602 112.399 21.5484C111.998 22.1983 111.463 22.7336 110.813 23.135C110.163 23.5555 109.417 23.8231 108.634 23.9761C107.869 24.129 107.047 24.2055 106.263 24.2246C104.294 24.2246 102.708 23.7849 101.484 22.8483C100.261 21.9116 99.5537 20.4397 99.3626 18.3561H101.427C101.427 19.5986 102.001 20.7455 102.956 21.5102C103.95 22.2174 105.174 22.5998 106.416 22.5424C106.932 22.5424 107.429 22.4851 107.945 22.3895C108.481 22.2939 108.959 22.1027 109.417 21.8542C109.857 21.6057 110.239 21.2808 110.545 20.8602C110.851 20.4397 111.004 19.9045 110.985 19.3883C111.042 18.5281 110.583 17.7444 109.857 17.3239C109.475 17.1136 109.092 16.9033 108.672 16.7313C108.232 16.5784 107.793 16.4445 107.334 16.3299L104.715 15.7373C104.027 15.5461 103.434 15.3358 102.842 15.1447C102.306 14.9535 101.809 14.6668 101.37 14.3036C100.949 13.9786 100.605 13.539 100.376 13.0611C100.108 12.4876 99.9934 11.8568 100.032 11.226C100.032 10.4614 100.204 9.71588 100.624 9.04683C101.026 8.45425 101.504 7.95725 102.096 7.57493C102.727 7.19262 103.415 6.92501 104.122 6.7912C104.849 6.61916 105.594 6.52358 106.34 6.5427C107.143 6.5427 107.926 6.63827 108.71 6.88678C109.417 7.05882 110.067 7.42201 110.641 7.88078C111.176 8.33956 111.635 8.91302 111.979 9.56295C112.323 10.3085 112.514 11.1113 112.514 11.9333H110.392V11.8377H110.45Z" fill="#111D3B"/>
<path d="M127.864 12.1818C127.654 11.054 127.099 10.0217 126.278 9.21887C125.398 8.45424 124.232 8.07193 123.066 8.12928C122.168 8.09105 121.269 8.32044 120.505 8.77921C119.778 9.18064 119.147 9.73499 118.67 10.404C118.173 11.0922 117.809 11.8568 117.58 12.6788C117.045 14.3801 117.045 16.196 117.58 17.9164C117.828 18.7193 118.192 19.503 118.67 20.1912C119.147 20.8602 119.778 21.4337 120.505 21.816C121.288 22.2366 122.168 22.4659 123.066 22.4659C123.678 22.4659 124.29 22.3704 124.844 22.1219C125.379 21.8734 125.895 21.5484 126.316 21.1278C126.755 20.6882 127.119 20.153 127.405 19.5986C127.692 18.9869 127.864 18.3561 127.941 17.6679H130.005C129.814 19.4648 129.03 21.147 127.788 22.4468C126.602 23.632 125.016 24.1672 123.104 24.1672C121.938 24.1672 120.772 23.957 119.702 23.4791C118.727 23.0585 117.886 22.3895 117.236 21.5484C116.529 20.7264 116.012 19.7706 115.707 18.7384C114.98 16.5019 114.98 14.0933 115.707 11.8377C116.012 10.8055 116.529 9.84968 117.236 9.02771C117.924 8.22486 118.765 7.57493 119.702 7.09704C120.772 6.60004 121.938 6.37065 123.104 6.40888C124.748 6.37065 126.354 6.86765 127.692 7.84255C128.935 8.77921 129.661 10.2511 129.909 12.1818H127.845H127.864Z" fill="#111D3B"/>
<path d="M132.7 12.048C132.7 11.1687 132.93 10.3085 133.35 9.52476C133.675 8.8366 134.172 8.2249 134.784 7.74701C135.415 7.26912 136.141 6.94416 136.906 6.753C138.492 6.33246 140.155 6.29423 141.799 6.60008C142.507 6.73388 143.176 7.0015 143.768 7.38381C144.38 7.80436 144.877 8.35871 145.202 9.00863C145.603 9.88795 145.775 10.8246 145.737 11.7804V20.7073C145.737 21.5484 146.139 21.9499 146.922 21.9499C147.152 21.9499 147.362 21.8925 147.572 21.7969V23.5173C147.362 23.5747 147.152 23.5938 146.922 23.6129C146.731 23.6129 146.521 23.6703 146.234 23.6703C145.814 23.7085 145.393 23.632 144.992 23.4791C144.705 23.3262 144.456 23.135 144.246 22.8865C144.055 22.5998 143.94 22.2939 143.902 21.9499C143.845 21.5484 143.807 21.1661 143.807 20.7647H143.749C143.424 21.2808 143.042 21.7587 142.621 22.1984C142.258 22.6189 141.838 22.963 141.341 23.2306C140.844 23.5173 140.328 23.7658 139.754 23.8805C139.066 24.0526 138.359 24.129 137.632 24.129C136.887 24.129 136.16 24.0335 135.453 23.8423C134.803 23.6703 134.211 23.3644 133.675 22.963C133.159 22.5424 132.758 22.0263 132.49 21.4337C132.184 20.7647 132.031 20.0192 132.05 19.2546C131.993 18.2606 132.261 17.3048 132.834 16.4828C133.369 15.7947 134.077 15.2594 134.899 14.9536C135.835 14.5904 136.81 14.3419 137.804 14.2081C138.894 14.0551 139.983 13.9213 141.054 13.8066C141.494 13.7493 141.838 13.7111 142.182 13.6537C142.468 13.5964 142.736 13.4817 142.965 13.3096C143.195 13.1376 143.367 12.8891 143.462 12.6215C143.596 12.2774 143.654 11.9142 143.654 11.5319C143.692 10.9393 143.577 10.3467 143.31 9.81149C143.099 9.39095 142.774 9.04687 142.373 8.77925C141.952 8.51163 141.494 8.33959 140.997 8.24401C140.423 8.14844 139.85 8.09109 139.276 8.09109C138.148 8.03374 137.001 8.37782 136.065 9.02775C135.224 9.67768 134.822 10.6526 134.784 11.9907H132.662V12.048H132.7ZM143.635 14.5139H143.577C143.405 14.7624 143.137 14.9536 142.832 15.0491C142.507 15.1447 142.182 15.2212 141.838 15.2976C140.958 15.4506 140.06 15.5844 139.181 15.6991C138.32 15.7947 137.479 15.9858 136.657 16.2343C135.969 16.4446 135.319 16.7887 134.784 17.2666C134.268 17.7827 134 18.4708 134.038 19.1972C134.038 19.6751 134.115 20.153 134.325 20.5735C134.536 20.975 134.822 21.3382 135.166 21.6058C135.53 21.8925 135.931 22.141 136.351 22.2939C136.791 22.4469 137.25 22.5233 137.728 22.5424C138.492 22.5424 139.219 22.4469 139.945 22.1984C140.633 21.969 141.264 21.6249 141.819 21.1661C142.354 20.7073 142.813 20.1339 143.099 19.484C143.424 18.7958 143.596 18.0312 143.596 17.2666V14.4948L143.635 14.5139Z" fill="#111D3B"/>
<path d="M149.694 6.90583H151.758V9.8114H151.816C152.217 8.79827 152.944 7.91896 153.88 7.34549C154.874 6.69556 156.021 6.38971 157.187 6.40883C158.181 6.3706 159.194 6.52352 160.15 6.84849C160.896 7.1161 161.546 7.55576 162.081 8.12923C162.578 8.70269 162.922 9.40997 163.075 10.1555C163.285 11.0348 163.381 11.9523 163.362 12.8699V23.6511H161.297V13.214C161.297 12.5449 161.24 11.8568 161.106 11.1877C160.991 10.6143 160.762 10.0599 160.418 9.56289C160.074 9.10412 159.615 8.72181 159.08 8.47331C158.43 8.18658 157.723 8.05277 157.015 8.07188C156.27 8.07188 155.524 8.20569 154.836 8.51154C154.205 8.79827 153.67 9.18058 153.211 9.6967C152.752 10.2319 152.408 10.8436 152.179 11.5318C151.911 12.2582 151.778 13.0228 151.778 13.8065V23.5746H149.713V6.90583H149.694Z" fill="#111D3B"/>
<path d="M2.73352 14.4374C3.03937 14.1698 3.28787 13.864 3.47903 13.5008C3.76576 13.0038 4.01426 12.4877 4.16719 11.9142C4.37746 11.1687 4.47304 10.4232 4.45392 9.63944V5.07082C4.45392 4.65028 4.51127 4.24885 4.5495 3.82831C4.58773 3.446 4.68331 3.0828 4.83623 2.73872C4.95093 2.45199 5.14208 2.20349 5.37147 1.99322C5.60085 1.80206 5.9067 1.70648 6.21255 1.70648H6.86248V0.00519897H5.23766C4.37746 -0.0521477 3.57461 0.368395 3.11583 1.09479C2.5806 1.9741 2.3321 3.02546 2.37033 4.05769V8.89393C2.37033 9.54386 2.31298 10.1747 2.27475 10.8246C2.23652 11.3981 2.12183 11.9524 1.93067 12.5068C1.75863 12.9464 1.51013 13.3479 1.18516 13.6919C0.879315 13.9787 0.439658 14.1507 0 14.1316V15.852C0.439658 15.852 0.879315 15.9858 1.18516 16.2916C1.52924 16.6166 1.77775 17.0372 1.93067 17.4768C2.10271 18.012 2.2174 18.5855 2.27475 19.159C2.3321 19.8089 2.37033 20.4397 2.37033 21.0897V25.8685C2.31298 26.9008 2.5806 27.933 3.11583 28.8314C3.57461 29.5387 4.37746 29.9593 5.23766 29.921L6.86248 29.8828V28.1051H6.21255C5.9067 28.1051 5.60085 28.0286 5.37147 27.8183C5.1612 27.608 4.97004 27.3595 4.83623 27.0728C4.66419 26.7287 4.56862 26.3655 4.5495 25.9832C4.49215 25.5627 4.47304 25.123 4.45392 24.7025V20.1721C4.45392 19.4075 4.37746 18.6429 4.16719 17.8974C3.99515 17.343 3.76576 16.8078 3.47903 16.3108C3.28787 15.9667 3.03937 15.6608 2.73352 15.3741C2.56148 15.2021 2.38944 15.0491 2.19829 14.9344V14.8771C2.29387 14.7815 2.48502 14.6286 2.73352 14.4374V14.4374Z" fill="#3665EC"/>
<path d="M168.178 0.0243747C169.039 -0.0138564 169.841 0.406685 170.3 1.11396C170.835 1.99328 171.084 3.04463 171.046 4.07687V8.9131C171.046 9.56303 171.103 10.1938 171.141 10.8438C171.199 11.4172 171.313 11.9716 171.485 12.5259C171.638 12.9656 171.887 13.3861 172.231 13.7111C172.537 13.9978 172.976 14.1699 173.416 14.1508V15.8712C172.976 15.8712 172.537 16.005 172.231 16.3108C171.906 16.6549 171.657 17.0563 171.485 17.496C171.294 18.0312 171.179 18.6047 171.141 19.1782C171.084 19.8281 171.046 20.4589 171.046 21.1088V25.9451C171.103 26.9773 170.835 28.0095 170.3 28.908C169.841 29.6344 169.039 30.0358 168.178 29.9975H166.554V28.2772H167.203C167.509 28.2772 167.815 28.1816 168.045 27.9904C168.274 27.7993 168.465 27.5316 168.58 27.2449C168.752 26.9008 168.847 26.5376 168.867 26.1553C168.924 25.7348 168.962 25.2951 168.962 24.8746V20.3442C168.962 19.5796 169.039 18.815 169.249 18.0695C169.421 17.5151 169.65 16.9799 169.937 16.4829C170.109 16.1197 170.358 15.8138 170.682 15.5462C170.931 15.355 171.122 15.2021 171.218 15.1065V15.0492C171.027 14.9345 170.835 14.7625 170.682 14.6095C170.396 14.3228 170.147 14.017 169.937 13.6729C169.65 13.1759 169.421 12.6406 169.249 12.0863C169.039 11.3408 168.943 10.5953 168.962 9.81153V5.20469C168.962 4.78415 168.924 4.38272 168.867 3.96218C168.809 3.57987 168.714 3.21667 168.58 2.87259C168.427 2.58586 168.255 2.33736 168.045 2.12709C167.815 1.93593 167.509 1.84035 167.203 1.84035H166.554V0.139068H168.178V0.0434898V0.0243747Z" fill="#3665EC"/>
<path d="M168.178 0.024292H166.554V0.215447H168.178V0.024292Z" fill="#3665EC"/>
<path d="M177.392 0.674261C177.717 0.808069 178.023 0.999224 178.272 1.24773C178.52 1.49623 178.711 1.78296 178.845 2.12704C178.998 2.45201 179.055 2.8152 179.055 3.19751C179.055 3.57982 178.998 3.94302 178.845 4.26798C178.711 4.59295 178.52 4.8988 178.272 5.12818C178.023 5.37668 177.736 5.56784 177.392 5.70165C177.067 5.83546 176.704 5.91192 176.303 5.91192C175.901 5.91192 175.557 5.85457 175.213 5.70165C174.869 5.54872 174.582 5.37668 174.334 5.12818C174.085 4.87968 173.894 4.59295 173.76 4.26798C173.607 3.94302 173.55 3.57982 173.55 3.19751C173.55 2.8152 173.607 2.45201 173.76 2.12704C173.894 1.80208 174.085 1.49623 174.334 1.24773C174.582 0.999224 174.869 0.808069 175.213 0.674261C175.538 0.540452 175.901 0.463989 176.303 0.463989C176.704 0.463989 177.048 0.540452 177.392 0.674261ZM175.385 1.03746C175.098 1.15215 174.85 1.32419 174.659 1.53446C174.449 1.74473 174.296 1.99323 174.181 2.27997C174.066 2.5667 174.009 2.87255 174.009 3.19751C174.009 3.52248 174.066 3.84744 174.181 4.11506C174.296 4.40179 174.468 4.65029 174.659 4.86056C174.869 5.07084 175.098 5.24288 175.385 5.35757C175.672 5.47226 175.978 5.52961 176.303 5.52961C176.628 5.52961 176.934 5.47226 177.22 5.35757C177.507 5.24288 177.756 5.07084 177.947 4.86056C178.157 4.65029 178.31 4.40179 178.425 4.11506C178.539 3.82833 178.597 3.52248 178.597 3.19751C178.597 2.87255 178.539 2.54758 178.425 2.27997C178.31 1.99323 178.138 1.74473 177.947 1.53446C177.736 1.32419 177.507 1.15215 177.22 1.03746C176.934 0.922762 176.628 0.865416 176.303 0.865416C175.978 0.865416 175.653 0.922762 175.385 1.03746ZM175.328 4.7841V1.63004H176.551C176.914 1.63004 177.182 1.7065 177.335 1.85942C177.488 2.01235 177.583 2.22262 177.583 2.50935C177.583 2.64316 177.583 2.77697 177.526 2.87255C177.469 2.96813 177.431 3.0637 177.354 3.14017C177.297 3.19751 177.182 3.27397 177.106 3.31221C177.01 3.36955 176.914 3.36955 176.8 3.40778L177.736 4.80322H177.278L176.398 3.40778H175.748V4.80322H175.366L175.328 4.7841ZM176.57 3.04459C176.685 3.04459 176.781 3.00636 176.876 2.98724C176.953 2.94901 177.048 2.91078 177.086 2.8152C177.125 2.71962 177.163 2.64316 177.163 2.50935C177.163 2.39466 177.163 2.3182 177.106 2.22262C177.048 2.16527 177.01 2.08881 176.934 2.05058C176.876 1.99323 176.781 1.99323 176.685 1.97412C176.609 1.97412 176.513 1.97412 176.398 1.97412H175.691V3.08282H176.207C176.322 3.08282 176.437 3.08282 176.551 3.08282L176.57 3.04459Z" fill="#111D3B"/>
<path d="M21.4095 0.00512695L7.76105 24.1672H9.86376L23.4549 0.00512695H21.4095Z" fill="#3665EA"/>
</svg>
