<svg width="212" height="138" viewBox="0 0 212 138" fill="none" xmlns="http://www.w3.org/2000/svg">
<rect width="212" height="138" rx="6" fill="#D1D3D9"/>
<rect x="59" y="29" width="138" height="23" rx="1" fill="white"/>
<rect x="16" y="22" width="41" height="105" rx="1" fill="white"/>
<rect x="16" y="10" width="181" height="10" rx="1" fill="white"/>
<rect x="59" y="54" width="138" height="23" rx="1" fill="white"/>
<rect x="59" y="79" width="138" height="23" rx="1" fill="white"/>
<rect x="59" y="104" width="138" height="23" rx="1" fill="white"/>
<g style="mix-blend-mode:multiply">
<rect x="59" y="24" width="9" height="3" fill="#D9D9D9"/>
</g>
<rect x="19" y="24" width="9" height="3" fill="#D9D9D9" fill-opacity="0.5"/>
<rect x="62" y="32" width="23" height="3" fill="#D9D9D9" fill-opacity="0.5"/>
<rect x="62" y="45" width="6" height="3" fill="#D9D9D9" fill-opacity="0.5"/>
<rect x="80" y="45" width="6" height="3" fill="#D9D9D9" fill-opacity="0.5"/>
<rect x="99" y="45" width="6" height="3" fill="#D9D9D9" fill-opacity="0.5"/>
<rect x="87" y="32" width="9" height="3" rx="1.5" fill="#27A201"/>
<rect x="187" y="32" width="8" height="3" fill="#D9D9D9" fill-opacity="0.5"/>
<rect x="163" y="36" width="32" height="3" fill="#D9D9D9" fill-opacity="0.5"/>
<rect x="62" y="57" width="23" height="3" fill="#D9D9D9" fill-opacity="0.5"/>
<rect x="62" y="82" width="23" height="3" fill="#D9D9D9" fill-opacity="0.5"/>
<rect x="62" y="107" width="23" height="3" fill="#D9D9D9" fill-opacity="0.5"/>
<rect x="62" y="70" width="6" height="3" fill="#D9D9D9" fill-opacity="0.5"/>
<rect x="62" y="95" width="6" height="3" fill="#D9D9D9" fill-opacity="0.5"/>
<rect x="62" y="120" width="6" height="3" fill="#D9D9D9" fill-opacity="0.5"/>
<rect x="80" y="70" width="6" height="3" fill="#D9D9D9" fill-opacity="0.5"/>
<rect x="80" y="95" width="6" height="3" fill="#D9D9D9" fill-opacity="0.5"/>
<rect x="80" y="120" width="6" height="3" fill="#D9D9D9" fill-opacity="0.5"/>
<rect x="99" y="70" width="6" height="3" fill="#D9D9D9" fill-opacity="0.5"/>
<rect x="99" y="95" width="6" height="3" fill="#D9D9D9" fill-opacity="0.5"/>
<rect x="99" y="120" width="6" height="3" fill="#D9D9D9" fill-opacity="0.5"/>
<rect x="87" y="57" width="9" height="3" rx="1.5" fill="#E60000"/>
<rect x="87" y="82" width="9" height="3" rx="1.5" fill="#27A201"/>
<rect x="87" y="107" width="9" height="3" rx="1.5" fill="#27A201"/>
<rect x="187" y="57" width="8" height="3" fill="#D9D9D9" fill-opacity="0.5"/>
<rect x="187" y="82" width="8" height="3" fill="#D9D9D9" fill-opacity="0.5"/>
<rect x="187" y="107" width="8" height="3" fill="#D9D9D9" fill-opacity="0.5"/>
<rect x="163" y="61" width="32" height="3" fill="#D9D9D9" fill-opacity="0.5"/>
<rect x="163" y="86" width="32" height="3" fill="#D9D9D9" fill-opacity="0.5"/>
<rect x="163" y="111" width="32" height="3" fill="#D9D9D9" fill-opacity="0.5"/>
<rect x="26" y="13" width="15" height="3" fill="#D9D9D9" fill-opacity="0.5"/>
<rect x="19" y="32" width="12" height="3" fill="#D9D9D9" fill-opacity="0.5"/>
<rect x="50" y="36" width="4" height="3" fill="#D9D9D9" fill-opacity="0.5"/>
<rect x="50" y="24" width="4" height="3" fill="#D9D9D9" fill-opacity="0.5"/>
<rect x="50" y="40" width="4" height="4" fill="#D9D9D9" fill-opacity="0.5"/>
<rect x="50" y="45" width="4" height="3" fill="#D9D9D9" fill-opacity="0.5"/>
<rect x="50" y="57" width="4" height="3" fill="#D9D9D9" fill-opacity="0.5"/>
<rect x="50" y="61" width="4" height="3" fill="#D9D9D9" fill-opacity="0.5"/>
<rect x="50" y="65" width="4" height="4" fill="#D9D9D9" fill-opacity="0.5"/>
<rect x="50" y="70" width="4" height="3" fill="#D9D9D9" fill-opacity="0.5"/>
<rect x="50" y="82" width="4" height="4" fill="#D9D9D9" fill-opacity="0.5"/>
<rect x="50" y="87" width="4" height="3" fill="#D9D9D9" fill-opacity="0.5"/>
<rect x="50" y="91" width="4" height="4" fill="#D9D9D9" fill-opacity="0.5"/>
<rect x="50" y="96" width="4" height="3" fill="#D9D9D9" fill-opacity="0.5"/>
<rect x="50" y="107" width="4" height="3" fill="#D9D9D9" fill-opacity="0.5"/>
<rect x="50" y="111" width="4" height="4" fill="#D9D9D9" fill-opacity="0.5"/>
<rect x="50" y="117" width="4" height="3" fill="#D9D9D9" fill-opacity="0.5"/>
<rect x="50" y="121" width="4" height="3" fill="#D9D9D9" fill-opacity="0.5"/>
<rect x="19" y="52" width="19" height="3" fill="#D9D9D9" fill-opacity="0.5"/>
<rect x="19" y="78" width="24" height="3" fill="#D9D9D9" fill-opacity="0.5"/>
<rect x="19" y="103" width="29" height="3" fill="#D9D9D9" fill-opacity="0.5"/>
<rect x="191" y="45" width="3.39346" height="3.27138" rx="1.63569" fill="#3F67E7"/>
<rect x="70" y="45" width="3.39346" height="3.27138" rx="1.63569" fill="#27A201"/>
<rect x="88" y="45" width="3.39346" height="3.27138" rx="1.63569" fill="#E3B70C"/>
<rect x="107" y="45" width="3.39346" height="3.27138" rx="1.63569" fill="#27A201"/>
<rect x="70" y="24" width="21" height="3" fill="white"/>
<g style="mix-blend-mode:multiply">
<rect x="93" y="24" width="9" height="3" fill="#D9D9D9"/>
</g>
<g style="mix-blend-mode:multiply">
<rect x="188" y="24" width="9" height="3" fill="#D9D9D9"/>
</g>
<g style="mix-blend-mode:multiply">
<rect x="124" y="24" width="3" height="3" fill="#D9D9D9"/>
</g>
<rect x="104" y="24" width="18" height="3" fill="white"/>
<rect x="130" y="24" width="42" height="3" fill="white"/>
<rect x="22" y="56.6333" width="3.39346" height="3.27138" rx="1.63569" fill="#E6E6E6"/>
<rect x="191" y="70" width="3.39346" height="3.27138" rx="1.63569" fill="#3F67E7"/>
<rect x="191" y="95" width="3.39346" height="3.27138" rx="1.63569" fill="#3F67E7"/>
<rect x="191" y="120" width="3.39346" height="3.27138" rx="1.63569" fill="#3F67E7"/>
<rect x="70" y="70" width="3.39346" height="3.27138" rx="1.63569" fill="#E60000"/>
<rect x="70" y="95" width="3.39346" height="3.27138" rx="1.63569" fill="#27A201"/>
<rect x="70" y="120" width="3.39346" height="3.27138" rx="1.63569" fill="#27A201"/>
<rect x="88" y="70" width="3.39346" height="3.27138" rx="1.63569" fill="#E3B70C"/>
<rect x="88" y="95" width="3.39346" height="3.27138" rx="1.63569" fill="#E3B70C"/>
<rect x="88" y="120" width="3.39346" height="3.27138" rx="1.63569" fill="#E3B70C"/>
<rect x="107" y="70" width="3.39346" height="3.27138" rx="1.63569" fill="#27A201"/>
<rect x="107" y="95" width="3.39346" height="3.27138" rx="1.63569" fill="#27A201"/>
<rect x="107" y="120" width="3.39346" height="3.27138" rx="1.63569" fill="#27A201"/>
<rect x="22" y="60.9629" width="3.39346" height="3.27138" rx="1.63569" fill="#E6E6E6"/>
<rect x="22" y="65.2935" width="3.39346" height="3.27138" rx="1.63569" fill="#E6E6E6"/>
<rect x="22" y="36.229" width="9.99972" height="3.27138" rx="1.63569" fill="#E6E6E6"/>
<rect x="22" y="40.5596" width="9.99972" height="3.27138" rx="1.63569" fill="#E6E6E6"/>
<rect x="22" y="44.8896" width="9.99972" height="3.27138" rx="1.63569" fill="#E6E6E6"/>
<rect x="22" y="69.624" width="3.39346" height="3.27138" rx="1.63569" fill="#E6E6E6"/>
<rect x="22" y="82.6147" width="3.39346" height="3.27138" rx="1.63569" fill="#E6E6E6"/>
<rect x="22" y="107.514" width="3.39346" height="3.27138" rx="1.63569" fill="#E6E6E6"/>
<rect x="22" y="86.9448" width="3.39346" height="3.27138" rx="1.63569" fill="#E6E6E6"/>
<rect x="22" y="111.844" width="3.39346" height="3.27138" rx="1.63569" fill="#E6E6E6"/>
<rect x="22" y="91.2754" width="3.39346" height="3.27138" rx="1.63569" fill="#E6E6E6"/>
<rect x="22" y="116.174" width="3.39346" height="3.27138" rx="1.63569" fill="#E6E6E6"/>
<rect x="22" y="95.6055" width="3.39346" height="3.27138" rx="1.63569" fill="#E6E6E6"/>
<rect x="22" y="120.504" width="3.39346" height="3.27138" rx="1.63569" fill="#E6E6E6"/>
<line x1="16" y1="29.5" x2="57" y2="29.5" stroke="#EBEBEB"/>
<rect width="5" height="5" transform="translate(19 13)" fill="#3F67E7"/>
</svg>
