<svg width="168" height="104" viewBox="0 0 168 104" fill="none" xmlns="http://www.w3.org/2000/svg">
<path d="M163.936 46.9934C162.765 45.879 161.903 44.4549 161.411 42.9071C160.795 41.0496 160.425 39.1303 160.24 37.149C160.056 34.9201 159.933 32.753 159.933 30.5241V13.9929C160.117 10.4018 159.194 6.87269 157.408 3.77695C155.806 1.36227 153.035 -0.0617677 150.141 0.0620618H144.537V6.31545H146.754C147.801 6.31545 148.848 6.62502 149.648 7.30609C150.387 8.04906 151.003 8.91587 151.496 9.84459C152.05 11.021 152.419 12.2593 152.481 13.5595C152.666 15.0454 152.789 16.5314 152.789 17.9554V33.6199C152.789 36.2822 153.097 38.8826 153.774 41.4211C154.328 43.3405 155.129 45.136 156.114 46.8696C156.792 48.046 157.654 49.1604 158.639 50.0892C159.194 50.6464 159.809 51.2036 160.487 51.637V51.8228C160.179 52.1324 159.501 52.6896 158.639 53.3706C157.592 54.2994 156.73 55.3519 156.114 56.5902C155.129 58.2619 154.328 60.1194 153.774 62.0387C153.035 64.5772 152.727 67.1776 152.789 69.84V85.6282C152.789 87.0523 152.604 88.4763 152.481 89.9003C152.358 91.2006 152.05 92.4388 151.496 93.6152C151.126 94.6059 150.449 95.4727 149.648 96.1537C148.848 96.8348 147.862 97.1444 146.754 97.1444H144.537V103.026H150.141C153.097 103.212 155.868 101.788 157.408 99.3114C159.194 96.2776 160.117 92.6865 159.933 89.0955V72.4404C159.933 70.2115 160.117 68.0444 160.24 65.8155C160.364 63.8342 160.733 61.9149 161.411 60.0574C161.965 58.5096 162.827 57.1474 163.936 55.9711C164.982 54.9804 166.46 54.3613 168 54.4232V48.4794C166.46 48.4794 164.982 48.046 163.936 46.9315V46.9934Z" fill="#3665EC"/>
<path d="M103.46 0L63.4925 66.3107H97.4251V103.212L140.349 37.3346H103.46V0ZM129.141 43.4022L103.46 82.78V60.1811H74.2696L97.4251 21.794V43.4022H97.5483L97.4251 43.5261V48.2316L103.029 43.4642H129.141V43.4022Z" fill="#3665EC"/>
<path d="M10.5924 3.71499C8.80646 6.74881 7.8827 10.3399 8.06746 13.9309V30.586C8.06746 32.8149 7.8827 34.9819 7.75954 37.2109C7.63637 39.1921 7.26687 41.1115 6.58945 42.9689C6.03519 44.5168 5.17302 45.8789 4.06452 47.0553C3.0176 48.0459 1.53959 48.6651 0 48.6032V54.547C1.53959 54.547 3.0176 54.9804 4.06452 56.0949C5.23461 57.2093 6.09678 58.6334 6.58945 60.1812C7.20528 62.0387 7.57479 63.958 7.75954 65.9393C7.94429 68.1682 8.06746 70.3353 8.06746 72.5642V89.0954C7.8827 92.6865 8.80646 96.2156 10.5924 99.3113C12.1936 101.726 14.9648 103.15 17.8593 103.026H23.4634V96.7728H21.2464C20.1994 96.7728 19.1525 96.4633 18.3519 95.7822C17.6129 95.0392 16.9971 94.1724 16.5044 93.2437C15.9502 92.0673 15.5807 90.829 15.5191 89.5288C15.3343 88.0429 15.2112 86.5569 15.2112 85.1329V69.4684C15.2112 66.8061 14.9032 64.2057 14.2258 61.6672C13.6716 59.7478 12.871 57.9523 11.8856 56.2187C11.2082 55.0423 10.3461 53.9278 9.36071 52.9991C8.80646 52.4419 8.19062 51.8847 7.5132 51.4513V51.2655C7.82112 50.9559 8.49854 50.3987 9.36071 49.7176C10.4076 48.7889 11.2698 47.7364 11.8856 46.4981C12.871 44.8264 13.6716 42.9689 14.2258 41.0496C14.9648 38.5111 15.2727 35.9107 15.2112 33.2483V17.4601C15.2112 16.036 15.3959 14.612 15.5191 13.1879C15.6422 11.8877 15.9502 10.6494 16.5044 9.47306C16.8739 8.48243 17.5513 7.61562 18.3519 6.93456C19.1525 6.2535 20.1378 5.94392 21.2464 5.94392H23.4634V0.06202H17.8593C14.9032 -0.123724 12.132 1.30032 10.5924 3.77691V3.71499Z" fill="#3665EC"/>
<path d="M75.1937 0L28.3901 83.2753H35.5954L82.2758 0H75.1937Z" fill="#3665EC"/>
</svg>
