<svg width="210" height="38" viewBox="0 0 210 38" fill="none" xmlns="http://www.w3.org/2000/svg">
<path d="M39.8797 18.5996C39.6459 18.3769 39.4735 18.0923 39.3751 17.7829C39.252 17.4116 39.1781 17.028 39.1412 16.632C39.1043 16.1865 39.0796 15.7534 39.0796 15.3079V12.0038C39.1166 11.286 38.9319 10.5806 38.575 9.96189C38.255 9.47926 37.7011 9.19464 37.1225 9.21939H36.0024V10.4693H36.4456C36.6548 10.4693 36.8641 10.5311 37.0241 10.6673C37.1718 10.8158 37.2949 10.989 37.3933 11.1746C37.5041 11.4098 37.578 11.6573 37.5903 11.9171C37.6272 12.2141 37.6518 12.5111 37.6518 12.7958V15.9266C37.6518 16.4588 37.7134 16.9785 37.8488 17.4859C37.9595 17.8695 38.1196 18.2284 38.3165 18.5749C38.4519 18.81 38.6242 19.0328 38.8212 19.2184C38.9319 19.3298 39.055 19.4411 39.1904 19.5278V19.5649C39.1289 19.6268 38.9935 19.7381 38.8212 19.8743C38.6119 20.0599 38.4396 20.2703 38.3165 20.5178C38.1196 20.8519 37.9595 21.2231 37.8488 21.6068C37.7011 22.1141 37.6395 22.6339 37.6518 23.166V26.3216C37.6518 26.6063 37.6149 26.8909 37.5903 27.1755C37.5657 27.4354 37.5041 27.6829 37.3933 27.918C37.3195 28.116 37.1841 28.2893 37.0241 28.4254C36.8641 28.5615 36.6671 28.6234 36.4456 28.6234H36.0024V29.799H37.1225C37.7134 29.8361 38.2673 29.5515 38.575 29.0565C38.9319 28.4501 39.1166 27.7324 39.0796 27.0146V23.6858C39.0796 23.2403 39.1166 22.8071 39.1412 22.3616C39.1658 21.9656 39.2397 21.582 39.3751 21.2108C39.4858 20.9014 39.6582 20.6291 39.8797 20.394C40.089 20.196 40.3844 20.0723 40.6921 20.0846V18.8966C40.3844 18.8966 40.089 18.81 39.8797 18.5873V18.5996Z" fill="#3665EC"/>
<path d="M27.7925 9.20703L19.8041 22.4607H26.5862V29.8362L35.1655 16.6692H27.7925V9.20703ZM32.9253 17.8819L27.7925 25.7524V21.2355H21.9581L26.5862 13.563V17.8819H26.6109L26.5862 17.9067V18.8472L27.7063 17.8943H32.9253V17.8819Z" fill="#3665EC"/>
<path d="M9.23076 9.94955C8.87381 10.5559 8.68918 11.2737 8.7261 11.9914V15.3203C8.7261 15.7658 8.68918 16.1989 8.66456 16.6444C8.63994 17.0404 8.56609 17.424 8.43069 17.7953C8.31991 18.1047 8.14759 18.3769 7.92603 18.612C7.71678 18.81 7.42137 18.9338 7.11365 18.9214V20.1094C7.42137 20.1094 7.71678 20.196 7.92603 20.4188C8.1599 20.6415 8.33222 20.9262 8.43069 21.2355C8.55378 21.6068 8.62763 21.9904 8.66456 22.3864C8.70149 22.8319 8.7261 23.265 8.7261 23.7105V27.0147C8.68918 27.7324 8.87381 28.4378 9.23076 29.0565C9.55079 29.5392 10.1047 29.8238 10.6832 29.799H11.8033V28.5492H11.3602C11.1509 28.5492 10.9417 28.4873 10.7817 28.3512C10.634 28.2027 10.5109 28.0294 10.4124 27.8438C10.3016 27.6087 10.2278 27.3612 10.2155 27.1013C10.1785 26.8043 10.1539 26.5073 10.1539 26.2227V23.0918C10.1539 22.5597 10.0924 22.0399 9.95699 21.5325C9.84621 21.1489 9.68619 20.79 9.48925 20.4435C9.35385 20.2084 9.18153 19.9857 8.98459 19.8C8.87381 19.6887 8.75072 19.5773 8.61532 19.4907V19.4535C8.67687 19.3917 8.81226 19.2803 8.98459 19.1442C9.19384 18.9585 9.36616 18.7482 9.48925 18.5007C9.68619 18.1665 9.84621 17.7953 9.95699 17.4117C10.1047 16.9043 10.1662 16.3845 10.1539 15.8524V12.6968C10.1539 12.4122 10.1909 12.1275 10.2155 11.8429C10.2401 11.583 10.3016 11.3355 10.4124 11.1004C10.4863 10.9024 10.6217 10.7292 10.7817 10.593C10.9417 10.4569 11.1386 10.395 11.3602 10.395H11.8033V9.21942H10.6832C10.0924 9.1823 9.53849 9.46692 9.23076 9.96192V9.94955Z" fill="#3665EC"/>
<path d="M22.1427 9.20703L12.788 25.8514H14.2281L23.5582 9.20703H22.1427Z" fill="#3665EC"/>
<path d="M59.1676 23.4258C58.7491 26.136 57.0382 27.7076 54.5395 27.7076C51.45 27.7076 49.4683 25.3811 49.4683 21.7552C49.4683 18.1293 51.5238 15.741 54.638 15.741C57.0997 15.741 58.823 17.226 59.1307 19.5772H57.7029C57.4198 17.9313 56.2504 16.9908 54.5764 16.9908C52.3116 16.9908 50.8838 18.7728 50.8838 21.6438C50.8838 24.5148 52.3362 26.4577 54.6257 26.4577C56.3735 26.4577 57.5305 25.3811 57.8259 23.4258H59.1799H59.1676Z" fill="#EDF3FF"/>
<path d="M65.6544 15.7286C68.8301 15.7286 70.8734 18.1046 70.8734 21.7924C70.8734 25.4801 68.7685 27.6953 65.679 27.6953C62.5895 27.6953 60.4601 25.2945 60.4601 21.7058C60.4601 18.117 62.5403 15.7286 65.6544 15.7286V15.7286ZM65.6544 26.4454C67.8946 26.4454 69.3963 24.5891 69.3963 21.7676C69.3963 18.9461 67.9438 16.9661 65.6544 16.9661C63.365 16.9661 61.9371 18.8224 61.9371 21.6934C61.9371 24.5644 63.4142 26.4454 65.6544 26.4454Z" fill="#EDF3FF"/>
<path d="M81.0404 25.7523C80.0557 27.1136 78.9602 27.7076 77.397 27.7076C74.4059 27.7076 72.4365 25.3068 72.4365 21.7181C72.4365 18.1293 74.4429 15.7409 77.397 15.7409C78.911 15.7409 80.0803 16.3721 81.0404 17.7209V11.7314H82.4436V27.4106H81.0404V25.7647V25.7523ZM81.0404 21.7799C81.0404 18.7728 79.711 16.9784 77.4339 16.9784C75.1568 16.9784 73.8274 18.7604 73.8274 21.7057C73.8274 24.6509 75.1814 26.4577 77.4339 26.4577C79.6864 26.4577 81.0404 24.6757 81.0404 21.7799Z" fill="#EDF3FF"/>
<path d="M94.5309 23.8466C93.7308 26.4082 92.1184 27.7076 89.7427 27.7076C86.6286 27.7076 84.6715 25.4306 84.6715 21.78C84.6715 18.1293 86.7025 15.741 89.6935 15.741C91.8722 15.741 93.5708 16.9908 94.1616 18.9585C94.4447 19.8742 94.5309 20.6538 94.5309 21.9408H86.0624C86.1609 24.7871 87.5395 26.4577 89.7797 26.4577C91.3921 26.4577 92.5122 25.5915 93.1031 23.8466H94.5309V23.8466ZM93.1031 20.8147C92.9677 18.3892 91.7245 16.9785 89.7304 16.9785C87.7364 16.9785 86.4809 18.3397 86.124 20.8147H93.0907H93.1031Z" fill="#EDF3FF"/>
<path d="M96.7341 25.047H98.7282V27.3982H96.7341V25.047Z" fill="#EDF3FF"/>
<path d="M107.184 21.2602C109.031 21.7057 109.855 22.572 109.855 24.1065C109.855 26.2721 108.12 27.7076 105.486 27.7076C103.849 27.7076 102.495 27.1878 101.719 26.2226C101.178 25.5915 100.968 24.948 100.919 23.7723H102.396C102.495 25.5543 103.541 26.4577 105.547 26.4577C107.283 26.4577 108.378 25.6162 108.378 24.2921C108.378 23.4011 107.8 22.8318 106.557 22.5348L103.849 21.879C102.076 21.4582 101.227 20.5177 101.227 18.9832C101.227 16.9785 102.839 15.741 105.412 15.741C107.984 15.741 109.511 16.9908 109.646 19.3173H108.243C107.96 17.721 107.074 16.9908 105.363 16.9908C103.652 16.9908 102.692 17.721 102.692 18.9213C102.692 19.7876 103.209 20.3073 104.378 20.592L107.184 21.2726V21.2602Z" fill="#EDF3FF"/>
<path d="M121.007 23.4258C120.589 26.136 118.878 27.7076 116.379 27.7076C113.289 27.7076 111.308 25.3811 111.308 21.7552C111.308 18.1293 113.363 15.741 116.477 15.741C118.939 15.741 120.662 17.226 120.97 19.5772H119.542C119.259 17.9313 118.09 16.9908 116.416 16.9908C114.151 16.9908 112.723 18.7728 112.723 21.6438C112.723 24.5148 114.176 26.4577 116.465 26.4577C118.213 26.4577 119.37 25.3811 119.665 23.4258H121.019H121.007Z" fill="#EDF3FF"/>
<path d="M132.701 27.4478C132.208 27.5591 131.974 27.5839 131.654 27.5839C130.854 27.5839 130.374 27.2745 130.14 26.6434C130.042 26.3588 130.042 26.334 130.042 25.7276C129.082 27.0394 127.752 27.7076 125.955 27.7076C123.666 27.7076 122.238 26.4578 122.238 24.4406C122.238 23.4506 122.632 22.5349 123.272 21.9904C123.814 21.5201 124.577 21.2108 125.771 21.0251L129.119 20.4806C129.956 20.3445 130.005 20.295 130.005 19.3545C130.005 17.6591 129.18 16.9785 127.199 16.9785C125.217 16.9785 124.343 17.7334 124.257 19.4906H122.755C122.829 17.0033 124.367 15.7286 127.297 15.7286C130.03 15.7286 131.457 16.8795 131.457 19.1318V25.5049C131.457 26.1855 131.642 26.4701 132.036 26.4701C132.221 26.4701 132.368 26.4454 132.713 26.334V27.4354L132.701 27.4478ZM125.992 22.2255C124.454 22.4854 123.703 23.1908 123.703 24.3911C123.703 25.6781 124.663 26.532 126.177 26.532C127.531 26.532 128.749 25.9256 129.476 24.8861C129.87 24.2921 130.042 23.6858 130.042 22.8195V21.5325L125.992 22.2379V22.2255Z" fill="#EDF3FF"/>
<path d="M134.362 16.038H135.765V17.6344C136.676 16.2731 137.686 15.7286 139.298 15.7286C140.578 15.7286 141.587 16.1246 142.264 16.9043C142.806 17.5354 143.015 18.315 143.015 19.6268V27.3859H141.612V19.9609C141.612 18.7853 141.477 18.216 141.07 17.7458C140.652 17.2508 139.95 16.9661 139.126 16.9661C138.166 16.9661 137.279 17.325 136.664 17.9561C136.012 18.612 135.753 19.4411 135.753 20.7034V27.3859H134.35V16.038H134.362Z" fill="#EDF3FF"/>
<path d="M157.884 21.2602C159.731 21.7057 160.555 22.572 160.555 24.1065C160.555 26.2721 158.82 27.7076 156.186 27.7076C154.549 27.7076 153.195 27.1878 152.419 26.2226C151.878 25.5915 151.668 24.948 151.619 23.7723H153.096C153.195 25.5543 154.241 26.4577 156.247 26.4577C157.983 26.4577 159.078 25.6162 159.078 24.2921C159.078 23.4011 158.5 22.8318 157.257 22.5348L154.549 21.879C152.776 21.4582 151.927 20.5177 151.927 18.9832C151.927 16.9785 153.539 15.741 156.112 15.741C158.684 15.741 160.211 16.9908 160.346 19.3173H158.943C158.66 17.721 157.774 16.9908 156.063 16.9908C154.352 16.9908 153.392 17.721 153.392 18.9213C153.392 19.7876 153.909 20.3073 155.078 20.592L157.884 21.2726V21.2602Z" fill="#3665EC"/>
<path d="M162.697 11.7191H164.1V17.4982C164.925 16.3226 166.07 15.741 167.608 15.741C168.913 15.741 170.07 16.2112 170.722 17.028C171.215 17.6344 171.424 18.4882 171.424 19.8495V27.3982H170.021V20.0351C170.021 19.0204 169.885 18.414 169.578 17.9437C169.184 17.3374 168.384 16.9785 167.448 16.9785C165.504 16.9785 164.1 18.414 164.1 20.4311V27.3859H162.697V11.7191Z" fill="#3665EC"/>
<path d="M174.255 11.7191H175.658V13.6001H174.255V11.7191ZM174.255 16.0504H175.658V27.4106H174.255V16.038V16.0504Z" fill="#3665EC"/>
<path d="M187.746 23.8466C186.946 26.4082 185.333 27.7076 182.957 27.7076C179.843 27.7076 177.886 25.4306 177.886 21.78C177.886 18.1293 179.917 15.741 182.908 15.741C185.087 15.741 186.785 16.9908 187.376 18.9585C187.659 19.8742 187.746 20.6538 187.746 21.9408H179.277C179.376 24.7871 180.754 26.4577 182.994 26.4577C184.607 26.4577 185.727 25.5915 186.318 23.8466H187.746V23.8466ZM186.318 20.8147C186.182 18.3892 184.939 16.9785 182.945 16.9785C180.951 16.9785 179.696 18.3397 179.339 20.8147H186.305H186.318Z" fill="#3665EC"/>
<path d="M189.949 11.7191H191.426V27.3982H189.949V11.7191Z" fill="#3665EC"/>
<path d="M202.245 25.7523C201.261 27.1136 200.165 27.7076 198.602 27.7076C195.611 27.7076 193.641 25.3068 193.641 21.7181C193.641 18.1293 195.648 15.7409 198.602 15.7409C200.116 15.7409 201.285 16.3721 202.245 17.7209V11.7314H203.649V27.4106H202.245V25.7647V25.7523ZM202.245 21.7799C202.245 18.7728 200.916 16.9784 198.639 16.9784C196.362 16.9784 195.032 18.7604 195.032 21.7057C195.032 24.6509 196.386 26.4577 198.639 26.4577C200.891 26.4577 202.245 24.6757 202.245 21.7799Z" fill="#3665EC"/>
</svg>
