<svg width="150" height="30" viewBox="0 0 150 30" fill="none" xmlns="http://www.w3.org/2000/svg">
<path d="M68.5864 23.6702V20.2103H71.3008V23.6702H68.5864Z" fill="#111D3B"/>
<path d="M6.86248 29.921V28.1051H6.21255C5.9067 28.1051 5.60086 28.0286 5.37147 27.8183C5.1612 27.608 4.97004 27.3595 4.83623 27.0728C4.66419 26.7287 4.56862 26.3655 4.5495 25.9832C4.49215 25.5627 4.47304 25.123 4.45392 24.7025V20.1721C4.45392 19.4075 4.37746 18.6429 4.16719 17.8974C3.99515 17.343 3.76576 16.8078 3.47903 16.3108C3.28787 15.9667 3.03937 15.6608 2.73352 15.3741C2.56148 15.2021 2.38944 15.0491 2.19829 14.9344V14.8771C2.29387 14.7815 2.48502 14.6286 2.73352 14.4374C3.03937 14.1698 3.28787 13.864 3.47903 13.5008C3.76576 13.0038 4.01427 12.4877 4.16719 11.9142C4.37746 11.1687 4.47304 10.4232 4.45392 9.63944V5.07082C4.45392 4.65028 4.51127 4.24885 4.5495 3.82831C4.58773 3.446 4.68331 3.0828 4.83623 2.73872C4.95093 2.45199 5.14208 2.20349 5.37147 1.99322C5.60086 1.78294 5.9067 1.70648 6.21255 1.70648H6.86248V0.00519897H5.23766C4.37746 -0.0521477 3.57461 0.368395 3.11583 1.09479C2.5806 1.9741 2.3321 3.02546 2.37033 4.05769V8.89393C2.37033 9.54386 2.31298 10.1747 2.27475 10.8246C2.23652 11.3981 2.12183 11.9524 1.93067 12.5068C1.75863 12.9464 1.51013 13.3479 1.18516 13.6919C0.879316 13.9787 0.439658 14.1507 0 14.1316V15.852C0.439658 15.852 0.879316 15.9858 1.18516 16.2916C1.52924 16.6166 1.77775 17.0372 1.93067 17.4768C2.10271 18.012 2.2174 18.5855 2.27475 19.159C2.3321 19.8089 2.37033 20.4397 2.37033 21.0897V25.8685C2.31298 26.9008 2.5806 27.933 3.11583 28.8314C3.57461 29.5387 4.37746 29.9593 5.23766 29.921" fill="#3665EC"/>
<path d="M144.227 0.0243747C145.087 -0.0138564 145.89 0.406685 146.349 1.11396C146.884 1.99328 147.133 3.04463 147.094 4.07687V8.9131C147.094 9.56303 147.152 10.1938 147.19 10.8438C147.247 11.4172 147.362 11.9716 147.534 12.5259C147.687 12.9656 147.935 13.3861 148.279 13.7111C148.585 13.9978 149.025 14.1699 149.465 14.1508V15.8712C149.025 15.8712 148.585 16.005 148.279 16.3108C147.955 16.6549 147.706 17.0563 147.534 17.496C147.343 18.0312 147.228 18.6047 147.19 19.1782C147.133 19.8281 147.094 20.4589 147.094 21.1088V25.9451C147.152 26.9773 146.884 28.0095 146.349 28.908C145.89 29.6344 145.087 30.0358 144.227 29.9975H142.602V28.2772H143.252C143.558 28.2772 143.864 28.1816 144.093 27.9904C144.323 27.7993 144.514 27.5316 144.628 27.2449C144.8 26.9008 144.896 26.5376 144.915 26.1553C144.972 25.7348 145.011 25.2951 145.011 24.8746V20.3442C145.011 19.5796 145.087 18.815 145.297 18.0695C145.469 17.5151 145.699 16.9799 145.986 16.4829C146.158 16.1197 146.406 15.8138 146.731 15.5462C146.98 15.355 147.171 15.2021 147.266 15.1065V15.0492C147.075 14.9345 146.884 14.7625 146.731 14.6095C146.444 14.3228 146.196 14.017 145.986 13.6729C145.699 13.1759 145.469 12.6406 145.297 12.0863C145.087 11.3408 144.992 10.5953 145.011 9.81153V5.20469C145.011 4.78415 144.972 4.38272 144.915 3.96218C144.858 3.57987 144.762 3.21667 144.628 2.87259C144.475 2.58586 144.303 2.33736 144.093 2.12709C143.864 1.93593 143.558 1.84035 143.252 1.84035H142.602V0.0243747" fill="#3665EC"/>
<path d="M86.4982 11.6275C86.4982 11.0731 86.3644 10.4997 86.0968 10.0027C85.8674 9.56302 85.5615 9.18071 85.1601 8.87486C84.7396 8.56901 84.2808 8.32051 83.7838 8.1867C83.2486 8.03377 82.656 7.97643 82.1016 7.99554C81.6429 7.99554 81.1841 8.05289 80.7253 8.14847C80.2857 8.24404 79.846 8.41608 79.4446 8.64547C79.0814 8.87486 78.7564 9.18071 78.5079 9.52479C78.2594 9.94533 78.1256 10.4041 78.1638 10.9011C78.1638 11.3216 78.2594 11.704 78.5079 12.0289C78.7373 12.3348 79.024 12.6024 79.349 12.8127C79.7122 13.0229 80.0945 13.2141 80.4768 13.3479C80.8591 13.4817 81.2605 13.5964 81.6046 13.692L84.319 14.3419C84.9116 14.4184 85.4851 14.5904 86.0394 14.8389C86.5747 15.0683 87.0908 15.3741 87.5687 15.7182C88.0083 16.1005 88.3906 16.5784 88.6583 17.0945C88.9641 17.6871 89.117 18.3371 89.0979 19.0252C89.1362 19.8472 88.9068 20.65 88.448 21.3382C88.0466 21.9881 87.5113 22.5234 86.8614 22.9248C86.2115 23.3453 85.466 23.6129 84.6822 23.7659C83.9176 23.9188 83.0956 23.9953 82.3119 24.0144C80.343 24.0144 78.7564 23.5747 77.533 22.638C76.3096 21.7014 75.6023 20.2295 75.4112 18.1459H77.4757C77.4757 19.3884 78.0491 20.5353 79.0049 21.3C79.9989 22.0072 81.2223 22.3895 82.4648 22.3322C82.9809 22.3322 83.478 22.2749 83.9941 22.1793C84.5293 22.0837 85.0072 21.8925 85.466 21.644C85.9056 21.3955 86.2879 21.0706 86.5938 20.65C86.8996 20.2295 87.0526 19.6943 87.0334 19.1781C87.0908 18.3179 86.632 17.5342 85.9056 17.1137C85.5233 16.9034 85.141 16.6931 84.7205 16.5211C84.2808 16.3682 83.8411 16.2343 83.3824 16.1196L80.7635 15.5271C80.0754 15.3359 79.4828 15.1256 78.8902 14.9345C78.355 14.7433 77.858 14.4566 77.4183 14.0934C76.9978 13.7684 76.6537 13.3288 76.4243 12.8509C76.1567 12.2774 76.042 11.6466 76.0802 11.0158C76.0802 10.2512 76.2523 9.50567 76.6728 8.83663C77.0742 8.24404 77.5521 7.74704 78.1447 7.36473C78.7755 6.98242 79.4637 6.7148 80.171 6.58099C80.8974 6.40895 81.6429 6.31337 82.3884 6.33249C83.1912 6.33249 83.975 6.42807 84.7587 6.67657C85.466 6.84861 86.1159 7.2118 86.6894 7.67058C87.2246 8.12935 87.6834 8.70282 88.0275 9.35275C88.3715 10.0983 88.5627 10.9011 88.5627 11.7231H86.4409V11.6275H86.4982Z" fill="#111D3B"/>
<path d="M103.893 11.9716C103.683 10.8438 103.129 9.81151 102.307 9.00866C101.427 8.24404 100.261 7.86173 99.0951 7.91908C98.1967 7.88085 97.2983 8.11023 96.5336 8.56901C95.8073 8.97043 95.1764 9.52478 94.6986 10.1938C94.2016 10.882 93.8384 11.6466 93.609 12.4686C93.0737 14.1699 93.0737 15.9858 93.609 17.7062C93.8575 18.5091 94.2207 19.2928 94.6986 19.981C95.1764 20.65 95.8073 21.2235 96.5336 21.6058C97.3174 22.0263 98.1967 22.2557 99.0951 22.2557C99.7068 22.2557 100.319 22.1602 100.873 21.9117C101.408 21.6632 101.924 21.3382 102.345 20.9176C102.784 20.478 103.148 19.9428 103.434 19.3884C103.721 18.7767 103.893 18.1459 103.97 17.4577H106.034C105.843 19.2546 105.059 20.9368 103.817 22.2366C102.632 23.4218 101.045 23.957 99.1334 23.957C97.9673 23.957 96.8013 23.7467 95.7308 23.2689C94.7559 22.8483 93.9148 22.1793 93.2649 21.3382C92.5576 20.5162 92.0415 19.5604 91.7356 18.5282C91.0093 16.2917 91.0093 13.8831 91.7356 11.6275C92.0415 10.5953 92.5576 9.63948 93.2649 8.81751C93.9531 8.01465 94.7941 7.36473 95.7308 6.88684C96.8013 6.38983 97.9673 6.16045 99.1334 6.19868C100.777 6.16045 102.383 6.65745 103.721 7.63234C104.964 8.569 105.69 10.0409 105.938 11.9716H103.874H103.893Z" fill="#111D3B"/>
<path d="M108.729 11.8186C108.729 10.9393 108.959 10.0791 109.379 9.29538C109.704 8.60723 110.201 7.99553 110.813 7.51764C111.444 7.03975 112.17 6.71478 112.935 6.52363C114.521 6.10309 116.184 6.06486 117.828 6.37071C118.536 6.50451 119.205 6.77213 119.797 7.15444C120.409 7.57498 120.906 8.12934 121.231 8.77926C121.632 9.65858 121.804 10.5952 121.766 11.551V20.478C121.766 21.3191 122.168 21.7205 122.951 21.7205C123.181 21.7205 123.391 21.6631 123.601 21.5676V23.288C123.391 23.3453 123.181 23.3644 122.951 23.3835C122.76 23.3835 122.55 23.4409 122.263 23.4409C121.843 23.4791 121.422 23.4027 121.021 23.2497C120.734 23.0968 120.485 22.9057 120.275 22.6571C120.084 22.3704 119.969 22.0646 119.931 21.7205C119.874 21.3191 119.836 20.9367 119.836 20.5353H119.778C119.453 21.0514 119.071 21.5293 118.65 21.969C118.287 22.3895 117.867 22.7336 117.37 23.0012C116.873 23.288 116.357 23.5365 115.783 23.6512C115.095 23.8232 114.388 23.8997 113.661 23.8997C112.916 23.8997 112.189 23.8041 111.482 23.6129C110.832 23.4409 110.24 23.135 109.704 22.7336C109.188 22.3131 108.787 21.7969 108.519 21.2044C108.213 20.5353 108.06 19.7898 108.08 19.0252C108.022 18.0312 108.29 17.0754 108.863 16.2534C109.398 15.5653 110.106 15.03 110.928 14.7242C111.864 14.361 112.839 14.1125 113.833 13.9787C114.923 13.8258 116.012 13.692 117.083 13.5773C117.523 13.5199 117.867 13.4817 118.211 13.4243C118.497 13.367 118.765 13.2523 118.994 13.0803C119.224 12.9082 119.396 12.6597 119.491 12.3921C119.625 12.048 119.683 11.6848 119.683 11.3025C119.721 10.7099 119.606 10.1174 119.339 9.58212C119.128 9.16158 118.803 8.8175 118.402 8.54988C117.981 8.28226 117.523 8.11022 117.026 8.01464C116.452 7.91907 115.879 7.86172 115.305 7.86172C114.177 7.80437 113.03 8.14845 112.094 8.79838C111.253 9.44831 110.851 10.4232 110.813 11.7613H108.691V11.8186H108.729ZM119.664 14.2845H119.606C119.434 14.533 119.167 14.7242 118.861 14.8198C118.536 14.9154 118.211 14.9918 117.867 15.0683C116.987 15.2212 116.089 15.355 115.21 15.4697C114.349 15.5653 113.508 15.7564 112.686 16.0049C111.998 16.2152 111.348 16.5593 110.813 17.0372C110.297 17.5533 110.029 18.2415 110.068 18.9678C110.068 19.4457 110.144 19.9236 110.354 20.3442C110.565 20.7456 110.851 21.1088 111.195 21.3764C111.559 21.6631 111.96 21.9116 112.38 22.0646C112.82 22.2175 113.279 22.294 113.757 22.3131C114.521 22.3131 115.248 22.2175 115.974 21.969C116.662 21.7396 117.293 21.3955 117.848 20.9368C118.383 20.478 118.842 19.9045 119.128 19.2546C119.453 18.5664 119.625 17.8018 119.625 17.0372V14.2654L119.664 14.2845Z" fill="#111D3B"/>
<path d="M125.723 6.67646H127.787V9.58203H127.845C128.246 8.5689 128.973 7.68959 129.909 7.11612C130.903 6.46619 132.05 6.16034 133.216 6.17946C134.21 6.14123 135.223 6.29415 136.179 6.61912C136.925 6.88673 137.575 7.32639 138.11 7.89986C138.607 8.47332 138.951 9.1806 139.104 9.92611C139.314 10.8054 139.41 11.723 139.391 12.6405V23.4217H137.326V12.9846C137.326 12.3155 137.269 11.6274 137.135 10.9583C137.02 10.3849 136.791 9.83053 136.447 9.33352C136.103 8.87475 135.644 8.49244 135.109 8.24394C134.459 7.95721 133.751 7.8234 133.044 7.84251C132.299 7.84251 131.553 7.97632 130.865 8.28217C130.234 8.5689 129.699 8.95121 129.24 9.46733C128.781 10.0026 128.437 10.6143 128.208 11.3024C127.94 12.0288 127.807 12.7934 127.807 13.5772V23.3452H125.742V6.67646H125.723Z" fill="#111D3B"/>
<path d="M28.4057 6.63831C33.2037 6.63831 36.2622 10.1938 36.2622 15.7373C36.2622 21.2808 33.089 24.5878 28.444 24.5878C23.7989 24.5878 20.5875 20.9941 20.5875 15.6035C20.5875 10.2129 23.7224 6.65742 28.4057 6.65742V6.63831ZM28.4057 22.7145C31.7892 22.7145 34.0448 19.9236 34.0448 15.6991C34.0448 11.4745 31.8656 8.51163 28.4057 8.51163C24.9458 8.51163 22.8049 11.3025 22.8049 15.6035C22.8049 19.9045 25.0223 22.7145 28.4057 22.7145Z" fill="#111D3B"/>
<path d="M40.2384 7.09701H42.3602L42.2455 10.1555C43.488 7.76606 44.8261 6.84851 47.1008 6.84851C47.3493 6.84851 47.5214 6.84851 47.8081 6.88674V9.00857C47.5978 8.97034 47.3876 8.97034 47.3111 8.97034C45.7627 8.97034 44.4247 9.71584 43.4689 11.0539C42.666 12.1435 42.3411 13.386 42.3411 15.1447V24.129H40.2192V7.09701H40.2384Z" fill="#111D3B"/>
<path d="M52.797 25.4289C53.0073 27.1493 54.5174 28.1051 57.2318 28.1051C60.9402 28.1051 62.6989 26.3083 62.6989 22.5425V20.9559C61.1123 22.9248 59.3154 23.8423 57.0598 23.8423C52.625 23.8423 49.5092 20.3251 49.5092 15.3168C49.5092 10.3085 52.6823 6.65747 57.1171 6.65747C59.5831 6.65747 61.2461 7.53678 62.6798 9.62038V7.11624H64.6869V22.2366C64.6869 25.1231 64.2281 26.6332 63.0047 27.914C61.6666 29.252 59.5831 29.9976 57.1554 29.9976C53.3514 29.9976 50.809 28.2389 50.5605 25.4481H52.7779L52.797 25.4289ZM62.6989 15.355C62.6989 11.1879 60.5579 8.51168 57.1936 8.51168C53.8293 8.51168 51.7266 11.2261 51.7266 15.2404C51.7266 19.2546 53.944 21.969 57.2318 21.969C60.5197 21.969 62.6989 19.2546 62.6989 15.3359V15.355Z" fill="#111D3B"/>
<path d="M21.39 0.00512695L7.74146 24.1672H9.84417L23.4353 0.00512695H21.39Z" fill="#3665EA"/>
</svg>
