<svg width="18" height="18" viewBox="0 0 18 18" fill="none" xmlns="http://www.w3.org/2000/svg">
<rect width="18" height="18" rx="4" fill="#DFF0D8"/>
<path d="M12.2616 9.04969L9.84237 8.15906L8.95175 5.73797C8.89901 5.59469 8.80358 5.47103 8.67836 5.38368C8.55313 5.29633 8.40412 5.2495 8.25144 5.2495C8.09875 5.2495 7.94975 5.29633 7.82452 5.38368C7.69929 5.47103 7.60387 5.59469 7.55112 5.73797L6.65956 8.15625L4.23847 9.04688C4.09518 9.09962 3.97153 9.19504 3.88418 9.32027C3.79683 9.4455 3.75 9.59451 3.75 9.74719C3.75 9.89987 3.79683 10.0489 3.88418 10.1741C3.97153 10.2993 4.09518 10.3948 4.23847 10.4475L6.65628 11.3438L7.54691 13.7634C7.59965 13.9067 7.69507 14.0304 7.8203 14.1177C7.94553 14.2051 8.09454 14.2519 8.24722 14.2519C8.3999 14.2519 8.54891 14.2051 8.67414 14.1177C8.79937 14.0304 8.89479 13.9067 8.94753 13.7634L9.83816 11.3442L12.2592 10.4536C12.4025 10.4009 12.5262 10.3054 12.6135 10.1802C12.7009 10.055 12.7477 9.90596 12.7477 9.75328C12.7477 9.6006 12.7009 9.45159 12.6135 9.32636C12.5262 9.20113 12.4025 9.10571 12.2592 9.05297L12.2616 9.04969ZM9.58081 10.6406C9.47947 10.6778 9.38744 10.7366 9.31111 10.813C9.23478 10.8893 9.17598 10.9813 9.13878 11.0827L8.24816 13.4948L7.35941 11.0808C7.32218 10.98 7.26356 10.8884 7.18758 10.8125C7.1116 10.7365 7.02005 10.6778 6.91925 10.6406L4.50706 9.75L6.91925 8.85938C7.02005 8.82215 7.1116 8.76353 7.18758 8.68755C7.26356 8.61157 7.32218 8.52002 7.35941 8.41922L8.25003 6.00703L9.14066 8.41922C9.17785 8.52056 9.23666 8.61259 9.31299 8.68892C9.38932 8.76525 9.48135 8.82406 9.58269 8.86125L11.9949 9.75187L9.58081 10.6406ZM9.75003 4.875C9.75003 4.77554 9.78954 4.68016 9.85987 4.60984C9.93019 4.53951 10.0256 4.5 10.125 4.5H10.875V3.75C10.875 3.65054 10.9145 3.55516 10.9849 3.48483C11.0552 3.41451 11.1506 3.375 11.25 3.375C11.3495 3.375 11.4449 3.41451 11.5152 3.48483C11.5855 3.55516 11.625 3.65054 11.625 3.75V4.5H12.375C12.4745 4.5 12.5699 4.53951 12.6402 4.60984C12.7105 4.68016 12.75 4.77554 12.75 4.875C12.75 4.97446 12.7105 5.06984 12.6402 5.14016C12.5699 5.21049 12.4745 5.25 12.375 5.25H11.625V6C11.625 6.09946 11.5855 6.19484 11.5152 6.26516C11.4449 6.33549 11.3495 6.375 11.25 6.375C11.1506 6.375 11.0552 6.33549 10.9849 6.26516C10.9145 6.19484 10.875 6.09946 10.875 6V5.25H10.125C10.0256 5.25 9.93019 5.21049 9.85987 5.14016C9.78954 5.06984 9.75003 4.97446 9.75003 4.875ZM14.625 7.125C14.625 7.22446 14.5855 7.31984 14.5152 7.39016C14.4449 7.46049 14.3495 7.5 14.25 7.5H13.875V7.875C13.875 7.97446 13.8355 8.06984 13.7652 8.14016C13.6949 8.21049 13.5995 8.25 13.5 8.25C13.4006 8.25 13.3052 8.21049 13.2349 8.14016C13.1645 8.06984 13.125 7.97446 13.125 7.875V7.5H12.75C12.6506 7.5 12.5552 7.46049 12.4849 7.39016C12.4145 7.31984 12.375 7.22446 12.375 7.125C12.375 7.02554 12.4145 6.93016 12.4849 6.85984C12.5552 6.78951 12.6506 6.75 12.75 6.75H13.125V6.375C13.125 6.27554 13.1645 6.18016 13.2349 6.10984C13.3052 6.03951 13.4006 6 13.5 6C13.5995 6 13.6949 6.03951 13.7652 6.10984C13.8355 6.18016 13.875 6.27554 13.875 6.375V6.75H14.25C14.3495 6.75 14.4449 6.78951 14.5152 6.85984C14.5855 6.93016 14.625 7.02554 14.625 7.125Z" fill="#008223"/>
</svg>
