<svg width="18" height="18" viewBox="0 0 18 18" fill="none" xmlns="http://www.w3.org/2000/svg">
<path d="M8.62238 3.34795C8.39438 3.34795 8.20838 3.41995 8.06438 3.56395C7.92038 3.70795 7.84838 3.89095 7.84838 4.11295C7.84838 4.33495 7.92038 4.51795 8.06438 4.66195C8.20838 4.80595 8.39138 4.87795 8.61338 4.87795C8.83538 4.87795 9.02138 4.80295 9.17138 4.65295C9.32138 4.50295 9.39638 4.32295 9.39638 4.11295C9.39638 3.90295 9.32138 3.72295 9.17138 3.57295C9.02138 3.42295 8.83838 3.34795 8.62238 3.34795ZM6.30038 4.10395C6.30038 3.69595 6.41438 3.30295 6.64238 2.92495C6.87038 2.54695 7.17638 2.25595 7.56038 2.05195C7.92038 1.85995 8.32538 1.77895 8.77538 1.80895C9.22538 1.83895 9.61838 1.97395 9.95438 2.21395C10.2904 2.45395 10.5544 2.77795 10.7464 3.18595C10.9144 3.58195 10.9714 3.99595 10.9174 4.42795C10.8634 4.85995 10.6954 5.24395 10.4134 5.57995C10.1314 5.91595 9.79238 6.15595 9.39638 6.29995V11.7C9.91238 11.88 10.3204 12.216 10.6204 12.708C10.7524 12.948 10.8424 13.203 10.8904 13.473C10.9384 13.743 10.9384 14.01 10.8904 14.274C10.7944 14.826 10.5364 15.288 10.1164 15.66C9.66038 16.02 9.15638 16.2 8.60438 16.2C8.05238 16.2 7.56038 16.014 7.12838 15.642C6.69638 15.27 6.43238 14.814 6.33638 14.274C6.24038 13.698 6.33338 13.17 6.61538 12.69C6.89738 12.21 7.30838 11.88 7.84838 11.7V6.29995C7.39238 6.13195 7.02038 5.84995 6.73238 5.45395C6.44438 5.05795 6.30038 4.60795 6.30038 4.10395ZM8.62238 13.104C8.40638 13.104 8.22338 13.179 8.07338 13.329C7.92338 13.479 7.84838 13.665 7.84838 13.887C7.84838 14.109 7.92038 14.292 8.06438 14.436C8.20838 14.58 8.39138 14.652 8.61338 14.652C8.83538 14.652 9.02138 14.577 9.17138 14.427C9.32138 14.277 9.39638 14.097 9.39638 13.887C9.39638 13.677 9.31838 13.494 9.16238 13.338C9.00638 13.182 8.82638 13.104 8.62238 13.104Z" fill="#637192"/>
</svg>
