<svg width="300" height="54" viewBox="0 0 300 54" fill="none" xmlns="http://www.w3.org/2000/svg">
<path d="M56.1 26.6297C55.7647 26.3108 55.5177 25.9033 55.3765 25.4604C55.2 24.9288 55.0941 24.3796 55.0412 23.8126C54.9882 23.1748 54.9529 22.5547 54.9529 21.9168V17.1862C55.0059 16.1586 54.7412 15.1486 54.2294 14.2628C53.7706 13.5718 52.9765 13.1643 52.1471 13.1997H50.5412V14.9892H51.1765C51.4765 14.9892 51.7765 15.0778 52.0059 15.2727C52.2177 15.4853 52.3941 15.7333 52.5353 15.9991C52.6941 16.3357 52.8 16.6901 52.8177 17.0622C52.8706 17.4874 52.9059 17.9126 52.9059 18.3201V22.8027C52.9059 23.5646 52.9941 24.3087 53.1882 25.0351C53.3471 25.5844 53.5765 26.0982 53.8588 26.5943C54.053 26.9309 54.3 27.2498 54.5824 27.5156C54.7412 27.6751 54.9177 27.8345 55.1118 27.9586V28.0117C55.0235 28.1003 54.8294 28.2598 54.5824 28.4547C54.2824 28.7204 54.0353 29.0216 53.8588 29.376C53.5765 29.8544 53.3471 30.3859 53.1882 30.9351C52.9765 31.6616 52.8882 32.4057 52.9059 33.1676V37.6856C52.9059 38.0931 52.8529 38.5006 52.8177 38.9081C52.7824 39.2802 52.6941 39.6345 52.5353 39.9712C52.4294 40.2547 52.2353 40.5027 52.0059 40.6976C51.7765 40.8925 51.4941 40.9811 51.1765 40.9811H50.5412V42.6643H52.1471C52.9941 42.7174 53.7882 42.3099 54.2294 41.6012C54.7412 40.733 55.0059 39.7054 54.9529 38.6778V33.9117C54.9529 33.2739 55.0059 32.6538 55.0412 32.0159C55.0765 31.4489 55.1824 30.8997 55.3765 30.3682C55.5353 29.9252 55.7824 29.5354 56.1 29.1988C56.4 28.9153 56.8235 28.7381 57.2647 28.7559V27.055C56.8235 27.055 56.4 26.9309 56.1 26.612V26.6297Z" fill="#3665EC"/>
<path d="M38.7706 13.182L27.3176 32.1577H37.0412V42.7174L49.3412 23.8658H38.7706V13.182ZM46.1294 25.6021L38.7706 36.8706V30.4036H30.4059L37.0412 19.4186V25.6021H37.0765L37.0412 25.6375V26.9841L38.6471 25.6198H46.1294V25.6021Z" fill="#3665EC"/>
<path d="M12.1588 14.245C11.6471 15.1132 11.3824 16.1408 11.4353 17.1685V21.9345C11.4353 22.5724 11.3824 23.1925 11.3471 23.8303C11.3118 24.3973 11.2059 24.9465 11.0118 25.4781C10.8529 25.921 10.6059 26.3108 10.2882 26.6474C9.98824 26.9309 9.56471 27.1081 9.12354 27.0904V28.7913C9.56471 28.7913 9.98824 28.9153 10.2882 29.2342C10.6235 29.5532 10.8706 29.9607 11.0118 30.4036C11.1882 30.9351 11.2941 31.4844 11.3471 32.0514C11.4 32.6892 11.4353 33.3093 11.4353 33.9471V38.6778C11.3824 39.7054 11.6471 40.7153 12.1588 41.6012C12.6177 42.2922 13.4118 42.6997 14.2412 42.6643H15.8471V40.8748H15.2118C14.9118 40.8748 14.6118 40.7862 14.3824 40.5913C14.1706 40.3787 13.9941 40.1306 13.8529 39.8649C13.6941 39.5282 13.5882 39.1739 13.5706 38.8018C13.5177 38.3766 13.4824 37.9514 13.4824 37.5438V33.0613C13.4824 32.2994 13.3941 31.5553 13.2 30.8288C13.0412 30.2796 12.8118 29.7658 12.5294 29.2697C12.3353 28.933 12.0882 28.6141 11.8059 28.3483C11.6471 28.1889 11.4706 28.0294 11.2765 27.9054V27.8523C11.3647 27.7637 11.5588 27.6042 11.8059 27.4093C12.1059 27.1435 12.3529 26.8423 12.5294 26.488C12.8118 26.0096 13.0412 25.4781 13.2 24.9288C13.4118 24.2024 13.5 23.4583 13.4824 22.6964V18.1784C13.4824 17.7709 13.5353 17.3634 13.5706 16.9559C13.6059 16.5838 13.6941 16.2294 13.8529 15.8928C13.9588 15.6093 14.1529 15.3613 14.3824 15.1664C14.6118 14.9715 14.8941 14.8829 15.2118 14.8829H15.8471V13.1997H14.2412C13.3941 13.1465 12.6 13.5541 12.1588 14.2628V14.245Z" fill="#3665EC"/>
<path d="M30.6706 13.182L17.2588 37.0123H19.3235L32.7 13.182H30.6706Z" fill="#3665EC"/>
<path d="M83.7529 33.5396C83.1529 37.4198 80.7 39.67 77.1176 39.67C72.6882 39.67 69.8471 36.339 69.8471 31.1477C69.8471 25.9565 72.7941 22.5369 77.2588 22.5369C80.7882 22.5369 83.2588 24.6631 83.7 28.0294H81.6529C81.2471 25.673 79.5706 24.3264 77.1706 24.3264C73.9235 24.3264 71.8765 26.8778 71.8765 30.9883C71.8765 35.0988 73.9588 37.8805 77.2412 37.8805C79.7471 37.8805 81.4059 36.339 81.8294 33.5396H83.7706H83.7529Z" fill="#111D3B"/>
<path d="M93.0529 22.5192C97.6059 22.5192 100.535 25.921 100.535 31.2009C100.535 36.4808 97.5176 39.6523 93.0882 39.6523C88.6588 39.6523 85.6059 36.215 85.6059 31.0769C85.6059 25.9387 88.5882 22.5192 93.0529 22.5192V22.5192ZM93.0529 37.8628C96.2647 37.8628 98.4177 35.2051 98.4177 31.1655C98.4177 27.1258 96.3353 24.291 93.0529 24.291C89.7706 24.291 87.7235 26.9486 87.7235 31.0592C87.7235 35.1697 89.8412 37.8628 93.0529 37.8628Z" fill="#111D3B"/>
<path d="M115.112 36.8706C113.7 38.8195 112.129 39.67 109.888 39.67C105.6 39.67 102.776 36.2327 102.776 31.0946C102.776 25.9565 105.653 22.5369 109.888 22.5369C112.059 22.5369 113.735 23.4405 115.112 25.3718V16.7964H117.124V39.2447H115.112V36.8883V36.8706ZM115.112 31.1832C115.112 26.8778 113.206 24.3087 109.941 24.3087C106.676 24.3087 104.771 26.8601 104.771 31.0769C104.771 35.2937 106.712 37.8805 109.941 37.8805C113.171 37.8805 115.112 35.3291 115.112 31.1832Z" fill="#111D3B"/>
<path d="M134.453 34.142C133.306 37.8096 130.994 39.67 127.588 39.67C123.124 39.67 120.318 36.4099 120.318 31.1832C120.318 25.9565 123.229 22.5369 127.518 22.5369C130.641 22.5369 133.076 24.3264 133.924 27.1435C134.329 28.4547 134.453 29.5709 134.453 31.4135H122.312C122.453 35.4886 124.429 37.8805 127.641 37.8805C129.953 37.8805 131.559 36.6402 132.406 34.142H134.453V34.142ZM132.406 29.8012C132.212 26.3285 130.429 24.3087 127.571 24.3087C124.712 24.3087 122.912 26.2577 122.4 29.8012H132.388H132.406Z" fill="#111D3B"/>
<path d="M137.612 35.8607H140.471V39.227H137.612V35.8607Z" fill="#111D3B"/>
<path d="M152.594 30.439C155.241 31.0769 156.424 32.3171 156.424 34.5141C156.424 37.6147 153.935 39.67 150.159 39.67C147.812 39.67 145.871 38.9258 144.759 37.5438C143.982 36.6402 143.682 35.7189 143.612 34.0357H145.729C145.871 36.5871 147.371 37.8805 150.247 37.8805C152.735 37.8805 154.306 36.6757 154.306 34.7799C154.306 33.5042 153.476 32.6892 151.694 32.264L147.812 31.3249C145.271 30.7225 144.053 29.376 144.053 27.179C144.053 24.3087 146.365 22.5369 150.053 22.5369C153.741 22.5369 155.929 24.3264 156.124 27.6574H154.112C153.706 25.3718 152.435 24.3264 149.982 24.3264C147.529 24.3264 146.153 25.3718 146.153 27.0904C146.153 28.3306 146.894 29.0748 148.571 29.4823L152.594 30.4568V30.439Z" fill="#111D3B"/>
<path d="M172.412 33.5396C171.812 37.4198 169.359 39.67 165.776 39.67C161.347 39.67 158.506 36.339 158.506 31.1477C158.506 25.9565 161.453 22.5369 165.918 22.5369C169.447 22.5369 171.918 24.6631 172.359 28.0294H170.312C169.906 25.673 168.229 24.3264 165.829 24.3264C162.582 24.3264 160.535 26.8778 160.535 30.9883C160.535 35.0988 162.618 37.8805 165.9 37.8805C168.406 37.8805 170.065 36.339 170.488 33.5396H172.429H172.412Z" fill="#111D3B"/>
<path d="M189.176 39.2979C188.471 39.4574 188.135 39.4928 187.676 39.4928C186.529 39.4928 185.841 39.0498 185.506 38.1462C185.365 37.7387 185.365 37.7033 185.365 36.8351C183.988 38.7132 182.082 39.67 179.506 39.67C176.224 39.67 174.176 37.8805 174.176 34.9925C174.176 33.5751 174.741 32.264 175.659 31.4844C176.435 30.8111 177.529 30.3682 179.241 30.1024L184.041 29.3228C185.241 29.1279 185.312 29.0571 185.312 27.7105C185.312 25.2832 184.129 24.3087 181.288 24.3087C178.447 24.3087 177.194 25.3895 177.071 27.9054H174.918C175.024 24.3441 177.229 22.5192 181.429 22.5192C185.347 22.5192 187.394 24.167 187.394 27.3916V36.5162C187.394 37.4907 187.659 37.8982 188.224 37.8982C188.488 37.8982 188.7 37.8628 189.194 37.7033V39.2802L189.176 39.2979ZM179.559 31.821C177.353 32.1931 176.276 33.203 176.276 34.9216C176.276 36.7643 177.653 37.9868 179.824 37.9868C181.765 37.9868 183.512 37.1186 184.553 35.6303C185.118 34.7799 185.365 33.9117 185.365 32.6715V30.8288L179.559 31.8387V31.821Z" fill="#111D3B"/>
<path d="M191.559 22.9622H193.571V25.2477C194.876 23.2988 196.324 22.5192 198.635 22.5192C200.471 22.5192 201.918 23.0862 202.888 24.2024C203.665 25.106 203.965 26.2222 203.965 28.1003V39.2093H201.953V28.5787C201.953 26.8955 201.759 26.0805 201.176 25.4072C200.576 24.6985 199.571 24.291 198.388 24.291C197.012 24.291 195.741 24.8048 194.859 25.7084C193.924 26.6474 193.553 27.8345 193.553 29.6417V39.2093H191.541V22.9622H191.559Z" fill="#111D3B"/>
<path d="M225.282 30.439C227.929 31.0769 229.112 32.3171 229.112 34.5141C229.112 37.6147 226.624 39.67 222.847 39.67C220.5 39.67 218.559 38.9258 217.447 37.5438C216.671 36.6402 216.371 35.7189 216.3 34.0357H218.418C218.559 36.5871 220.059 37.8805 222.935 37.8805C225.424 37.8805 226.994 36.6757 226.994 34.7799C226.994 33.5042 226.165 32.6892 224.382 32.264L220.5 31.3249C217.959 30.7225 216.741 29.376 216.741 27.179C216.741 24.3087 219.053 22.5369 222.741 22.5369C226.429 22.5369 228.618 24.3264 228.812 27.6574H226.8C226.394 25.3718 225.124 24.3264 222.671 24.3264C220.218 24.3264 218.841 25.3718 218.841 27.0904C218.841 28.3306 219.582 29.0748 221.259 29.4823L225.282 30.4568V30.439Z" fill="#3665EC"/>
<path d="M232.182 16.7787H234.194V25.0529C235.376 23.3697 237.018 22.5369 239.224 22.5369C241.094 22.5369 242.753 23.2102 243.688 24.3796C244.394 25.2477 244.694 26.4703 244.694 28.4192V39.227H242.682V28.685C242.682 27.2321 242.488 26.364 242.047 25.6907C241.482 24.8225 240.335 24.3087 238.994 24.3087C236.206 24.3087 234.194 26.364 234.194 29.252V39.2093H232.182V16.7787Z" fill="#3665EC"/>
<path d="M248.753 16.7787H250.765V19.4718H248.753V16.7787ZM248.753 22.9799H250.765V39.2447H248.753V22.9622V22.9799Z" fill="#3665EC"/>
<path d="M268.094 34.142C266.947 37.8096 264.635 39.67 261.229 39.67C256.765 39.67 253.959 36.4099 253.959 31.1832C253.959 25.9565 256.871 22.5369 261.159 22.5369C264.282 22.5369 266.718 24.3264 267.565 27.1435C267.971 28.4547 268.094 29.5709 268.094 31.4135H255.953C256.094 35.4886 258.071 37.8805 261.282 37.8805C263.594 37.8805 265.2 36.6402 266.047 34.142H268.094V34.142ZM266.047 29.8012C265.853 26.3285 264.071 24.3087 261.212 24.3087C258.353 24.3087 256.553 26.2577 256.041 29.8012H266.029H266.047Z" fill="#3665EC"/>
<path d="M271.253 16.7787H273.371V39.227H271.253V16.7787Z" fill="#3665EC"/>
<path d="M288.882 36.8706C287.471 38.8195 285.9 39.67 283.659 39.67C279.371 39.67 276.547 36.2327 276.547 31.0946C276.547 25.9565 279.424 22.5369 283.659 22.5369C285.829 22.5369 287.506 23.4405 288.882 25.3718V16.7964H290.894V39.2447H288.882V36.8883V36.8706ZM288.882 31.1832C288.882 26.8778 286.976 24.3087 283.712 24.3087C280.447 24.3087 278.541 26.8601 278.541 31.0769C278.541 35.2937 280.482 37.8805 283.712 37.8805C286.941 37.8805 288.882 35.3291 288.882 31.1832Z" fill="#3665EC"/>
</svg>
