<svg width="13" height="7" viewBox="0 0 13 7" fill="none" xmlns="http://www.w3.org/2000/svg">
<path d="M12.6206 2.92699C12.537 2.85749 12.4755 2.76869 12.4403 2.67217C12.3963 2.55635 12.3699 2.43666 12.3567 2.31311C12.3435 2.17412 12.3347 2.03899 12.3347 1.9V0.869156C12.3479 0.645227 12.2819 0.425159 12.1543 0.232116C12.0399 0.0815434 11.842 -0.00725614 11.6352 0.000465549H11.2349V0.390411H11.3932C11.468 0.390411 11.5428 0.409715 11.6 0.452184C11.6528 0.498515 11.6968 0.552566 11.732 0.610479C11.7716 0.683835 11.798 0.761052 11.8024 0.84213C11.8156 0.93479 11.8244 1.02745 11.8244 1.11625V2.09304C11.8244 2.25906 11.8464 2.42122 11.8948 2.57951C11.9343 2.6992 11.9915 2.81116 12.0619 2.91926C12.1103 2.99262 12.1719 3.06212 12.2423 3.12003C12.2819 3.15478 12.3259 3.18952 12.3743 3.21655V3.22813C12.3523 3.24744 12.3039 3.28218 12.2423 3.32465C12.1675 3.38257 12.1059 3.4482 12.0619 3.52542C11.9915 3.62966 11.9343 3.74549 11.8948 3.86517C11.842 4.02347 11.82 4.18562 11.8244 4.35164V5.33615C11.8244 5.42495 11.8112 5.51375 11.8024 5.60255C11.7936 5.68363 11.7716 5.76085 11.732 5.8342C11.7056 5.89598 11.6572 5.95003 11.6 5.9925C11.5428 6.03497 11.4724 6.05427 11.3932 6.05427H11.2349V6.42105H11.6352C11.8464 6.43263 12.0443 6.34383 12.1543 6.1894C12.2819 6.00022 12.3479 5.77629 12.3347 5.55236V4.51379C12.3347 4.3748 12.3479 4.23967 12.3567 4.10068C12.3655 3.97714 12.3919 3.85745 12.4403 3.74162C12.4799 3.6451 12.5414 3.56016 12.6206 3.48681C12.6954 3.42504 12.801 3.38643 12.911 3.39029V3.01965C12.801 3.01965 12.6954 2.99262 12.6206 2.92313V2.92699Z" fill="#343330"/>
<path d="M0.756673 0.296182C0.629094 0.485363 0.563105 0.709292 0.576303 0.933221V1.97179C0.576303 2.11078 0.563105 2.24591 0.554307 2.3849C0.545508 2.50845 0.519113 2.62813 0.470721 2.74396C0.431127 2.84048 0.369538 2.92542 0.290351 2.99877C0.215564 3.06055 0.109982 3.09916 0 3.09529V3.46594C0.109982 3.46594 0.215564 3.49296 0.290351 3.56246C0.373937 3.63195 0.435527 3.72075 0.470721 3.81727C0.514713 3.9331 0.541109 4.05278 0.554307 4.17633C0.567505 4.31532 0.576303 4.45045 0.576303 4.58944V5.62029C0.563105 5.84422 0.629094 6.06428 0.756673 6.25733C0.871054 6.4079 1.06902 6.4967 1.27579 6.48898H1.67612V6.09903H1.51774C1.44296 6.09903 1.36817 6.07973 1.31098 6.03726C1.25819 5.99093 1.2142 5.93688 1.179 5.87896C1.13941 5.80561 1.11301 5.72839 1.10861 5.64731C1.09542 5.55465 1.08662 5.46199 1.08662 5.37319V4.3964C1.08662 4.23038 1.06462 4.06823 1.01623 3.90993C0.976636 3.79025 0.919446 3.67828 0.849057 3.57018C0.800665 3.49682 0.739076 3.42733 0.668688 3.36941C0.629094 3.33467 0.585102 3.29992 0.53671 3.27289V3.26131C0.558706 3.24201 0.607098 3.20726 0.668688 3.16479C0.743475 3.10688 0.805065 3.04124 0.849057 2.96403C0.919446 2.85978 0.976636 2.74396 1.01623 2.62427C1.06902 2.46598 1.09102 2.30382 1.08662 2.13781V1.15329C1.08662 1.06449 1.09982 0.975691 1.10861 0.886891C1.11741 0.805813 1.13941 0.728597 1.179 0.655241C1.2054 0.593467 1.25379 0.539415 1.31098 0.496946C1.36817 0.454477 1.43856 0.435172 1.51774 0.435172H1.67612V0.0683919H1.27579C1.06462 0.0568094 0.866654 0.145609 0.756673 0.300043V0.296182Z" fill="#343330"/>
<path d="M5.00604 0.350586L1.6626 5.54342H2.17731L5.51195 0.350586H5.00604Z" fill="#343330"/>
<path d="M7.64444 4.15247C7.502 4.99799 6.91969 5.48832 6.06926 5.48832C5.01774 5.48832 4.34326 4.76248 4.34326 3.63125C4.34326 2.50003 5.04287 1.75488 6.10277 1.75488C6.94063 1.75488 7.52714 2.21818 7.63187 2.95174H7.14591C7.04955 2.43825 6.65157 2.14483 6.08182 2.14483C5.31099 2.14483 4.82503 2.70079 4.82503 3.59651C4.82503 4.49222 5.31937 5.09837 6.09858 5.09837C6.69346 5.09837 7.08726 4.76248 7.1878 4.15247H7.64863H7.64444Z" fill="#343330"/>
<path d="M10.3042 3.47682C10.9326 3.61581 11.2133 3.88607 11.2133 4.36481C11.2133 5.04046 10.6226 5.48832 9.72611 5.48832C9.16893 5.48832 8.70811 5.32616 8.44418 5.02502C8.25985 4.82812 8.18863 4.62735 8.17188 4.26057H8.67459C8.70811 4.81653 9.0642 5.09837 9.74706 5.09837C10.3377 5.09837 10.7106 4.83584 10.7106 4.42273C10.7106 4.14475 10.5137 3.96715 10.0906 3.87449L9.16893 3.66986C8.56567 3.53859 8.27661 3.24517 8.27661 2.76642C8.27661 2.14097 8.82541 1.75488 9.70097 1.75488C10.5765 1.75488 11.096 2.14483 11.1421 2.87067H10.6645C10.5682 2.37262 10.2665 2.14483 9.68422 2.14483C9.1019 2.14483 8.77514 2.37262 8.77514 2.74712C8.77514 3.01738 8.95109 3.17953 9.34907 3.26833L10.3042 3.48068V3.47682Z" fill="#343330"/>
</svg>
