<svg width="39" height="39" viewBox="0 0 39 39" fill="none" xmlns="http://www.w3.org/2000/svg">
<path d="M35.0487 27.464L26.5823 19.0057L35.04 10.54C35.0402 10.5398 35.0404 10.5395 35.0407 10.5393C36.9929 8.58635 36.9927 5.41739 35.04 3.46469C33.0871 1.51177 29.9176 1.51177 27.9647 3.46469L27.964 3.46536L19.5057 11.9317L11.04 3.47407C11.0399 3.47396 11.0398 3.47385 11.0397 3.47374C11.0396 3.47363 11.0394 3.47351 11.0393 3.4734C9.08634 1.52114 5.91739 1.52137 3.96469 3.47407C2.01177 5.42699 2.01177 8.59645 3.96469 10.5494L3.96536 10.55L12.4317 19.0084L3.97407 27.4741C3.97398 27.4741 3.9739 27.4742 3.97382 27.4743C3.97368 27.4745 3.97354 27.4746 3.9734 27.4747C2.02114 29.4277 2.02137 32.5967 3.97407 34.5494C5.92699 36.5023 9.09645 36.5023 11.0494 34.5494L11.05 34.5487L19.5084 26.0823L27.9741 34.54C27.9743 34.5402 27.9745 34.5404 27.9747 34.5407C29.9277 36.4929 33.0967 36.4927 35.0494 34.54C37.0023 32.5871 37.0023 29.4176 35.0494 27.4647L35.0487 27.464Z" fill="#D02F3A" stroke="white" stroke-width="4"/>
</svg>
