<svg width="26" height="26" viewBox="0 0 26 26" fill="none" xmlns="http://www.w3.org/2000/svg">
<path d="M17.7075 9.7075L14.4138 13L17.7075 16.2925C17.8004 16.3854 17.8741 16.4957 17.9244 16.6171C17.9747 16.7385 18.0006 16.8686 18.0006 17C18.0006 17.1314 17.9747 17.2615 17.9244 17.3829C17.8741 17.5043 17.8004 17.6146 17.7075 17.7075C17.6146 17.8004 17.5043 17.8741 17.3829 17.9244C17.2615 17.9747 17.1314 18.0006 17 18.0006C16.8686 18.0006 16.7385 17.9747 16.6171 17.9244C16.4957 17.8741 16.3854 17.8004 16.2925 17.7075L13 14.4137L9.70751 17.7075C9.6146 17.8004 9.5043 17.8741 9.3829 17.9244C9.26151 17.9747 9.1314 18.0006 9.00001 18.0006C8.86861 18.0006 8.7385 17.9747 8.61711 17.9244C8.49572 17.8741 8.38542 17.8004 8.29251 17.7075C8.1996 17.6146 8.12589 17.5043 8.07561 17.3829C8.02533 17.2615 7.99945 17.1314 7.99945 17C7.99945 16.8686 8.02533 16.7385 8.07561 16.6171C8.12589 16.4957 8.1996 16.3854 8.29251 16.2925L11.5863 13L8.29251 9.7075C8.10486 9.51986 7.99945 9.26536 7.99945 9C7.99945 8.73464 8.10486 8.48014 8.29251 8.2925C8.48015 8.10486 8.73464 7.99944 9.00001 7.99944C9.26537 7.99944 9.51987 8.10486 9.70751 8.2925L13 11.5863L16.2925 8.2925C16.3854 8.19959 16.4957 8.12589 16.6171 8.07561C16.7385 8.02532 16.8686 7.99944 17 7.99944C17.1314 7.99944 17.2615 8.02532 17.3829 8.07561C17.5043 8.12589 17.6146 8.19959 17.7075 8.2925C17.8004 8.38541 17.8741 8.49571 17.9244 8.6171C17.9747 8.7385 18.0006 8.86861 18.0006 9C18.0006 9.13139 17.9747 9.2615 17.9244 9.3829C17.8741 9.50429 17.8004 9.61459 17.7075 9.7075ZM26 13C26 15.5712 25.2376 18.0846 23.8091 20.2224C22.3807 22.3603 20.3503 24.0265 17.9749 25.0104C15.5995 25.9944 12.9856 26.2518 10.4638 25.7502C7.94208 25.2486 5.6257 24.0105 3.80762 22.1924C1.98953 20.3743 0.751405 18.0579 0.249797 15.5362C-0.251811 13.0144 0.0056327 10.4006 0.989572 8.02512C1.97351 5.64968 3.63975 3.61935 5.77759 2.1909C7.91543 0.762437 10.4288 0 13 0C16.4467 0.00363977 19.7512 1.37445 22.1884 3.81163C24.6256 6.24882 25.9964 9.5533 26 13ZM24 13C24 10.8244 23.3549 8.69767 22.1462 6.88873C20.9375 5.07979 19.2195 3.66989 17.2095 2.83733C15.1995 2.00476 12.9878 1.78692 10.854 2.21136C8.72022 2.6358 6.76021 3.68345 5.22183 5.22183C3.68345 6.7602 2.63581 8.72022 2.21137 10.854C1.78693 12.9878 2.00477 15.1995 2.83733 17.2095C3.66989 19.2195 5.07979 20.9375 6.88873 22.1462C8.69767 23.3549 10.8244 24 13 24C15.9164 23.9967 18.7123 22.8367 20.7745 20.7745C22.8367 18.7123 23.9967 15.9164 24 13Z" fill="white"/>
</svg>
