<svg width="80" height="83" xmlns="http://www.w3.org/2000/svg"><g fill="#236A97" fill-rule="nonzero"><path d="M79.03 3.78A4.27 4.27 0 0074.88 0H4.24A3.94 3.94 0 00.28 3.97v10.97c0 .37.09.65.37.92L31.9 52.2v29.23a1.44 1.44 0 001.38 1.39c.28 0 .56-.1.74-.19l12.73-7.93c.37-.28.64-.74.64-1.2V52.2l31.27-36.34c.18-.27.36-.55.36-.92V3.97v-.19zm-2.76 10.6L45 50.73c-.18.28-.36.56-.36.92v21.12l-9.96 6.18v-27.3c0-.36-.1-.64-.37-.92L3.04 14.4V3.97c0-.56.46-1.2 1.2-1.2h70.64c.65 0 1.3.55 1.39 1.29v10.33z"/><path d="M55.33 13.56H9.5c-.74 0-1.38.64-1.38 1.38 0 .74.64 1.38 1.38 1.38h45.83c.74 0 1.39-.64 1.39-1.38 0-.74-.65-1.38-1.39-1.38zM68.98 13.56h-7c-.74 0-1.39.64-1.39 1.38 0 .74.65 1.38 1.38 1.38h7.01c.74 0 1.39-.64 1.39-1.38 0-.74-.65-1.38-1.39-1.38z"/></g></svg>
