<svg width="16" height="16" viewBox="0 0 16 16" fill="none" xmlns="http://www.w3.org/2000/svg">
    <path d="M10.9899 6.97125C10.9741 6.89352 10.94 6.82067 10.8904 6.75872C10.8409 6.69678 10.7773 6.64751 10.7049 6.615L7.57992 5.21312L8.43742 1.61562C8.46278 1.50819 8.45188 1.39539 8.40642 1.2948C8.36096 1.19422 8.28349 1.1115 8.18609 1.05956C8.08869 1.00761 7.97684 0.989357 7.86798 1.00764C7.75913 1.02592 7.65938 1.07971 7.58429 1.16062L1.63304 7.58875C1.57916 7.64697 1.53991 7.71717 1.51852 7.79355C1.49713 7.86994 1.49422 7.95032 1.51004 8.02805C1.52585 8.10579 1.55994 8.17864 1.60947 8.2406C1.65901 8.30255 1.72257 8.35184 1.79492 8.38437L4.91992 9.78687L4.06242 13.3844C4.03705 13.4918 4.04795 13.6046 4.09341 13.7052C4.13888 13.8058 4.21635 13.8885 4.31374 13.9404C4.41114 13.9924 4.52299 14.0106 4.63185 13.9924C4.74071 13.9741 4.84046 13.9203 4.91554 13.8394L10.8655 7.41125C10.9198 7.35308 10.9593 7.28282 10.981 7.2063C11.0026 7.12977 11.0057 7.04919 10.9899 6.97125ZM5.47617 11.7631L5.98617 9.61562C6.01313 9.50247 5.99979 9.38345 5.94846 9.27907C5.89712 9.17469 5.811 9.09147 5.70492 9.04375L2.83929 7.7575L7.02367 3.23687L6.51367 5.38437C6.4867 5.49753 6.50004 5.61654 6.55137 5.72092C6.60271 5.82531 6.68883 5.90852 6.79492 5.95625L9.65992 7.2425L5.47617 11.7631ZM14.9468 13.2762L12.6968 8.77625C12.6553 8.69321 12.5914 8.62337 12.5124 8.57457C12.4335 8.52576 12.3425 8.49991 12.2496 8.49991C12.1568 8.49991 12.0657 8.52576 11.9868 8.57457C11.9078 8.62337 11.8439 8.69321 11.8024 8.77625L9.55242 13.2762C9.49307 13.3948 9.48328 13.5322 9.52518 13.658C9.56708 13.7838 9.65725 13.8878 9.77585 13.9472C9.89446 14.0065 10.0318 14.0163 10.1576 13.9744C10.2834 13.9325 10.3874 13.8423 10.4468 13.7237L11.0587 12.5H13.4405L14.0524 13.7237C14.094 13.8068 14.1579 13.8767 14.2369 13.9255C14.316 13.9743 14.407 14.0001 14.4999 14C14.5851 14 14.6689 13.9781 14.7433 13.9366C14.8178 13.8951 14.8803 13.8352 14.9251 13.7627C14.9699 13.6902 14.9954 13.6074 14.9992 13.5223C15.003 13.4372 14.9849 13.3525 14.9468 13.2762ZM11.5587 11.5L12.2499 10.1181L12.9405 11.5H11.5587Z" fill="#3665EF"/>
</svg>