<svg width="22" height="24" viewBox="0 0 22 24" fill="none" xmlns="http://www.w3.org/2000/svg">
  <g filter="url(#filter0_d_650_118)">
    <path d="M8.50001 4.50003C8.49979 4.07925 8.38159 3.66696 8.15883 3.30999C7.93607 2.95302 7.61767 2.66566 7.23979 2.48056C6.86191 2.29546 6.4397 2.22003 6.02111 2.26283C5.60251 2.30564 5.20431 2.46497 4.87172 2.72273C4.53913 2.98048 4.28548 3.32634 4.13959 3.72101C3.99369 4.11569 3.96139 4.54336 4.04635 4.95547C4.13131 5.36758 4.33013 5.74761 4.62023 6.0524C4.91033 6.35719 5.28009 6.57452 5.68751 6.67971V11.3203C5.15726 11.4572 4.69515 11.7828 4.38779 12.2361C4.08044 12.6893 3.94893 13.2391 4.01794 13.7824C4.08694 14.3257 4.35171 14.8251 4.76262 15.1871C5.17353 15.5492 5.70237 15.7489 6.25001 15.7489C6.79764 15.7489 7.32648 15.5492 7.73739 15.1871C8.1483 14.8251 8.41307 14.3257 8.48207 13.7824C8.55108 13.2391 8.41958 12.6893 8.11222 12.2361C7.80486 11.7828 7.34275 11.4572 6.81251 11.3203V6.67971C7.29531 6.55431 7.72288 6.2723 8.02825 5.87787C8.33362 5.48343 8.49953 4.99885 8.50001 4.50003ZM7.37501 13.5C7.37501 13.7225 7.30903 13.94 7.18541 14.125C7.06179 14.31 6.88609 14.4542 6.68052 14.5394C6.47496 14.6245 6.24876 14.6468 6.03053 14.6034C5.8123 14.56 5.61184 14.4529 5.45451 14.2955C5.29718 14.1382 5.19003 13.9377 5.14662 13.7195C5.10321 13.5013 5.12549 13.2751 5.21064 13.0695C5.29579 12.8639 5.43998 12.6882 5.62499 12.5646C5.80999 12.441 6.0275 12.375 6.25001 12.375C6.54837 12.375 6.83452 12.4936 7.0455 12.7045C7.25648 12.9155 7.37501 13.2017 7.37501 13.5ZM6.25001 5.62503C6.0275 5.62503 5.80999 5.55905 5.62499 5.43543C5.43998 5.31181 5.29579 5.13611 5.21064 4.93055C5.12549 4.72498 5.10321 4.49878 5.14662 4.28055C5.19003 4.06232 5.29718 3.86187 5.45451 3.70453C5.61184 3.5472 5.8123 3.44005 6.03053 3.39664C6.24876 3.35323 6.47496 3.37551 6.68052 3.46066C6.88609 3.54581 7.06179 3.69 7.18541 3.87501C7.30903 4.06002 7.37501 4.27752 7.37501 4.50003C7.37501 4.79839 7.25648 5.08454 7.0455 5.29552C6.83452 5.5065 6.54837 5.62503 6.25001 5.62503ZM15.8125 11.3203V8.71034C15.8138 8.19306 15.7126 7.68065 15.5147 7.20273C15.3167 6.72481 15.026 6.29086 14.6594 5.92596L12.6702 3.93753H14.6875C14.8367 3.93753 14.9798 3.87826 15.0853 3.77277C15.1907 3.66728 15.25 3.52421 15.25 3.37503C15.25 3.22584 15.1907 3.08277 15.0853 2.97728C14.9798 2.87179 14.8367 2.81253 14.6875 2.81253H11.3125C11.1633 2.81253 11.0202 2.87179 10.9148 2.97728C10.8093 3.08277 10.75 3.22584 10.75 3.37503V6.75003C10.75 6.89921 10.8093 7.04228 10.9148 7.14777C11.0202 7.25326 11.1633 7.31253 11.3125 7.31253C11.4617 7.31253 11.6048 7.25326 11.7103 7.14777C11.8157 7.04228 11.875 6.89921 11.875 6.75003V4.73276L13.8634 6.7219C14.1255 6.98233 14.3333 7.29219 14.4748 7.63352C14.6162 7.97485 14.6885 8.34086 14.6875 8.71034V11.3203C14.1573 11.4572 13.6951 11.7828 13.3878 12.2361C13.0804 12.6893 12.9489 13.2391 13.0179 13.7824C13.0869 14.3257 13.3517 14.8251 13.7626 15.1871C14.1735 15.5492 14.7024 15.7489 15.25 15.7489C15.7976 15.7489 16.3265 15.5492 16.7374 15.1871C17.1483 14.8251 17.4131 14.3257 17.4821 13.7824C17.5511 13.2391 17.4196 12.6893 17.1122 12.2361C16.8049 11.7828 16.3428 11.4572 15.8125 11.3203ZM15.25 14.625C15.0275 14.625 14.81 14.559 14.625 14.4354C14.44 14.3118 14.2958 14.1361 14.2106 13.9305C14.1255 13.725 14.1032 13.4988 14.1466 13.2806C14.19 13.0623 14.2972 12.8619 14.4545 12.7045C14.6118 12.5472 14.8123 12.4401 15.0305 12.3966C15.2488 12.3532 15.475 12.3755 15.6805 12.4607C15.8861 12.5458 16.0618 12.69 16.1854 12.875C16.309 13.06 16.375 13.2775 16.375 13.5C16.375 13.7984 16.2565 14.0845 16.0455 14.2955C15.8345 14.5065 15.5484 14.625 15.25 14.625Z" fill="white"/>
  </g>
  <defs>
    <filter id="filter0_d_650_118" x="-2.8125" y="0" width="26" height="26" filterUnits="userSpaceOnUse" color-interpolation-filters="sRGB">
      <feFlood flood-opacity="0" result="BackgroundImageFix"/>
      <feColorMatrix in="SourceAlpha" type="matrix" values="0 0 0 0 0 0 0 0 0 0 0 0 0 0 0 0 0 0 127 0" result="hardAlpha"/>
      <feOffset dy="4"/>
      <feGaussianBlur stdDeviation="2"/>
      <feComposite in2="hardAlpha" operator="out"/>
      <feColorMatrix type="matrix" values="0 0 0 0 0 0 0 0 0 0 0 0 0 0 0 0 0 0 0.25 0"/>
      <feBlend mode="normal" in2="BackgroundImageFix" result="effect1_dropShadow_650_118"/>
      <feBlend mode="normal" in="SourceGraphic" in2="effect1_dropShadow_650_118" result="shape"/>
    </filter>
  </defs>
</svg>