<svg width="16" height="16" viewBox="0 0 16 16" fill="none" xmlns="http://www.w3.org/2000/svg">
    <path d="M6.5 3.99997C6.49982 3.62594 6.39475 3.25947 6.19674 2.94216C5.99873 2.62485 5.7157 2.36942 5.37981 2.20489C5.04392 2.04035 4.66862 1.9733 4.29654 2.01135C3.92445 2.0494 3.5705 2.19103 3.27486 2.42015C2.97923 2.64926 2.75376 2.95669 2.62408 3.30751C2.49439 3.65833 2.46568 4.03849 2.5412 4.40481C2.61672 4.77113 2.79345 5.10894 3.05132 5.37986C3.30919 5.65078 3.63786 5.84396 4 5.93747V10.0625C3.52868 10.1842 3.11791 10.4736 2.8447 10.8765C2.5715 11.2794 2.45461 11.7681 2.51595 12.251C2.57728 12.7339 2.81264 13.1778 3.17789 13.4996C3.54314 13.8214 4.01322 13.999 4.5 13.999C4.98679 13.999 5.45687 13.8214 5.82212 13.4996C6.18737 13.1778 6.42273 12.7339 6.48406 12.251C6.5454 11.7681 6.42851 11.2794 6.15531 10.8765C5.8821 10.4736 5.47133 10.1842 5 10.0625V5.93747C5.42916 5.826 5.80923 5.57532 6.08067 5.22472C6.35211 4.87411 6.49959 4.44337 6.5 3.99997ZM5.5 12C5.5 12.1978 5.44136 12.3911 5.33147 12.5555C5.22159 12.72 5.06541 12.8482 4.88269 12.9238C4.69996 12.9995 4.4989 13.0193 4.30491 12.9808C4.11093 12.9422 3.93275 12.8469 3.7929 12.7071C3.65305 12.5672 3.5578 12.389 3.51922 12.1951C3.48063 12.0011 3.50044 11.8 3.57613 11.6173C3.65181 11.4346 3.77999 11.2784 3.94443 11.1685C4.10888 11.0586 4.30222 11 4.5 11C4.76522 11 5.01957 11.1053 5.20711 11.2929C5.39465 11.4804 5.5 11.7348 5.5 12ZM4.5 4.99997C4.30222 4.99997 4.10888 4.94132 3.94443 4.83144C3.77999 4.72156 3.65181 4.56538 3.57613 4.38265C3.50044 4.19993 3.48063 3.99886 3.51922 3.80488C3.5578 3.6109 3.65305 3.43271 3.7929 3.29286C3.93275 3.15301 4.11093 3.05777 4.30491 3.01918C4.4989 2.9806 4.69996 3.0004 4.88269 3.07609C5.06541 3.15178 5.22159 3.27995 5.33147 3.4444C5.44136 3.60885 5.5 3.80219 5.5 3.99997C5.5 4.26519 5.39465 4.51954 5.20711 4.70708C5.01957 4.89461 4.76522 4.99997 4.5 4.99997ZM13 10.0625V7.74247C13.0012 7.28266 12.9112 6.82719 12.7352 6.40237C12.5593 5.97755 12.3009 5.59182 11.975 5.26747L10.2069 3.49997H12C12.1326 3.49997 12.2598 3.44729 12.3536 3.35352C12.4473 3.25975 12.5 3.13258 12.5 2.99997C12.5 2.86736 12.4473 2.74018 12.3536 2.64642C12.2598 2.55265 12.1326 2.49997 12 2.49997H9C8.8674 2.49997 8.74022 2.55265 8.64645 2.64642C8.55268 2.74018 8.5 2.86736 8.5 2.99997V5.99997C8.5 6.13258 8.55268 6.25975 8.64645 6.35352C8.74022 6.44729 8.8674 6.49997 9 6.49997C9.13261 6.49997 9.25979 6.44729 9.35356 6.35352C9.44733 6.25975 9.5 6.13258 9.5 5.99997V4.20684L11.2675 5.97497C11.5005 6.20646 11.6852 6.48189 11.8109 6.7853C11.9367 7.0887 12.0009 7.41404 12 7.74247V10.0625C11.5287 10.1842 11.1179 10.4736 10.8447 10.8765C10.5715 11.2794 10.4546 11.7681 10.5159 12.251C10.5773 12.7339 10.8126 13.1778 11.1779 13.4996C11.5431 13.8214 12.0132 13.999 12.5 13.999C12.9868 13.999 13.4569 13.8214 13.8221 13.4996C14.1874 13.1778 14.4227 12.7339 14.4841 12.251C14.5454 11.7681 14.4285 11.2794 14.1553 10.8765C13.8821 10.4736 13.4713 10.1842 13 10.0625ZM12.5 13C12.3022 13 12.1089 12.9413 11.9444 12.8314C11.78 12.7216 11.6518 12.5654 11.5761 12.3827C11.5004 12.1999 11.4806 11.9989 11.5192 11.8049C11.5578 11.6109 11.653 11.4327 11.7929 11.2929C11.9328 11.153 12.1109 11.0578 12.3049 11.0192C12.4989 10.9806 12.7 11.0004 12.8827 11.0761C13.0654 11.1518 13.2216 11.2799 13.3315 11.4444C13.4414 11.6088 13.5 11.8022 13.5 12C13.5 12.2652 13.3946 12.5195 13.2071 12.7071C13.0196 12.8946 12.7652 13 12.5 13Z" fill="#A222A0"/>
</svg>