<?xml version="1.0" encoding="UTF-8" standalone="no"?>
<!DOCTYPE svg PUBLIC "-//W3C//DTD SVG 1.1//EN" "http://www.w3.org/Graphics/SVG/1.1/DTD/svg11.dtd">
<svg version="1.1" xmlns="http://www.w3.org/2000/svg" xmlns:xlink="http://www.w3.org/1999/xlink" preserveAspectRatio="xMidYMid meet" viewBox="-0.9828623147657258 263.874921675423 178.08000000000004 34" width="105" height="30"><defs><path d="M5.23 294.87C3.86 294.87 3.32 293.87 3.11 293.76C2.61 293.02 2.36 292.03 2.36 290.79C2.36 287.91 2.36 286.31 2.36 285.99C2.36 285.35 2.33 284.71 2.27 284.07C2.22 283.49 2.1 282.93 1.91 282.39C1.76 281.95 1.52 281.54 1.19 281.21C0.88 280.91 0.45 280.76 0.02 280.77C0.02 280.6 0.02 279.21 0.02 279.04C0.45 279.06 0.88 278.9 1.19 278.6C1.52 278.27 1.77 277.87 1.91 277.42C2.1 276.88 2.22 276.32 2.27 275.74C2.33 275.11 2.36 274.46 2.36 273.82C2.36 273.33 2.36 269.44 2.36 268.95C2.36 267.09 3.04 266.28 3.11 265.98C3.61 265.25 4.32 264.88 5.23 264.87L6.87 264.87L6.87 266.6C6.47 266.6 6.26 266.6 6.21 266.6C5.91 266.6 5.62 266.7 5.38 266.88C5.14 267.09 4.95 267.34 4.83 267.63C4.68 267.97 4.57 268.34 4.52 268.71C4.45 269.12 4.42 269.54 4.42 269.96C4.42 270.42 4.42 274.11 4.42 274.57C4.42 275.9 4.16 276.64 4.13 276.87C3.97 277.43 3.73 277.97 3.44 278.47C3.23 278.83 2.97 279.15 2.67 279.43C2.5 279.59 2.32 279.73 2.13 279.86C2.13 279.86 2.13 279.91 2.13 279.92C2.32 280.05 2.5 280.19 2.67 280.34C2.97 280.63 3.23 280.95 3.44 281.31C3.73 281.81 3.96 282.35 4.12 282.91C4.32 283.55 4.42 284.32 4.42 285.21C4.42 287.95 4.42 289.47 4.42 289.78C4.41 290.2 4.44 290.63 4.51 291.05C4.56 291.42 4.67 291.79 4.83 292.13C4.95 292.41 5.14 292.67 5.38 292.87C5.62 293.05 5.91 293.15 6.21 293.15C6.26 293.15 6.47 293.15 6.87 293.15L6.87 294.87C6 294.87 5.45 294.87 5.23 294.87Z" id="b20kUyDGxz"></path><path d="M7.78 289.12L17.79 264.87L19.46 264.87L9.51 289.12L7.78 289.12Z" id="b22PW8Ep5g"></path><path d="M32.87 277.12C32.45 275.23 31.46 274.44 31.31 274.15C30.16 273.07 28.43 273.18 28.11 273.07C26.64 273.07 25.79 273.63 25.53 273.69C24.8 274.09 24.17 274.65 23.69 275.32C23.19 276.02 22.81 276.8 22.58 277.62C22.08 279.34 22.08 281.16 22.58 282.88C22.81 283.7 23.19 284.48 23.69 285.18C24.18 285.85 24.81 286.41 25.53 286.81C26.64 287.43 27.85 287.37 28.11 287.43C28.73 287.43 29.34 287.31 29.91 287.07C30.47 286.83 30.97 286.49 31.41 286.07C31.85 285.63 32.22 285.12 32.48 284.55C32.77 283.95 32.95 283.29 33.01 282.63C33.21 282.63 34.86 282.63 35.06 282.63C34.63 285.7 33.03 286.93 32.81 287.41C30.98 289.13 28.58 288.95 28.11 289.12C26.18 289.12 25.04 288.49 24.7 288.42C23.73 287.98 22.88 287.32 22.2 286.51C21.51 285.68 20.99 284.72 20.67 283.69C19.97 281.45 19.97 279.05 20.67 276.8C20.99 275.77 21.51 274.81 22.2 273.98C22.88 273.17 23.74 272.51 24.7 272.06C26.19 271.34 27.77 271.41 28.11 271.34C30.82 271.34 32.24 272.63 32.69 272.77C33.94 273.73 34.69 275.18 34.93 277.11C33.83 277.12 33.15 277.12 32.87 277.12Z" id="b1Xl8IFL2Z"></path><path d="M48.74 272.2L49.02 272.35L49.29 272.52L49.55 272.69L49.81 272.88L50.05 273.08L50.29 273.29L50.52 273.51L50.74 273.74L50.95 273.98L51.15 274.23L51.34 274.49L51.53 274.76L51.7 275.04L51.86 275.32L52 275.6L52.14 275.9L52.27 276.19L52.38 276.5L52.49 276.8L52.67 277.48L52.82 278.16L52.92 278.85L52.99 279.55L53.01 280.25L52.99 280.94L52.92 281.64L52.82 282.33L52.67 283.01L52.49 283.69L52.38 284L52.27 284.3L52.14 284.6L52 284.89L51.86 285.18L51.7 285.46L51.53 285.73L51.34 286L51.15 286.26L50.95 286.51L50.74 286.75L50.52 286.98L50.29 287.2L50.05 287.41L49.81 287.6L49.55 287.79L49.29 287.97L49.02 288.13L48.74 288.28L48.46 288.42L48.01 288.61L47.56 288.76L47.13 288.87L46.71 288.95L46.32 289.01L45.96 289.05L45.65 289.07L45.39 289.09L45.18 289.11L45.04 289.12L44.49 289.11L43.98 289.06L43.52 288.99L43.11 288.9L42.75 288.8L42.43 288.7L42.16 288.6L41.94 288.52L41.76 288.46L41.64 288.42L41.35 288.28L41.07 288.13L40.8 287.97L40.54 287.79L40.28 287.6L40.04 287.41L39.8 287.2L39.57 286.98L39.35 286.75L39.14 286.51L38.94 286.26L38.75 286L38.56 285.73L38.39 285.46L38.23 285.18L38.09 284.89L37.95 284.6L37.82 284.3L37.71 284L37.6 283.69L37.42 283.01L37.27 282.33L37.17 281.64L37.1 280.94L37.08 280.25L37.1 279.55L37.17 278.85L37.27 278.16L37.42 277.48L37.6 276.8L37.71 276.5L37.82 276.19L37.95 275.9L38.09 275.6L38.23 275.32L38.39 275.04L38.56 274.76L38.75 274.49L38.94 274.23L39.14 273.98L39.35 273.74L39.57 273.51L39.8 273.29L40.04 273.08L40.28 272.88L40.54 272.69L40.8 272.52L41.07 272.35L41.35 272.2L41.64 272.05L41.94 271.92L42.25 271.8L42.57 271.69L42.89 271.59L43.23 271.52L43.58 271.45L43.93 271.4L44.29 271.36L44.66 271.34L45.04 271.34L48.46 272.05L48.74 272.2ZM44.01 273.31L43.59 273.42L43.24 273.5L42.95 273.57L42.72 273.62L42.56 273.66L42.47 273.69L42.2 273.84L41.94 274.02L41.69 274.2L41.46 274.4L41.23 274.61L41.01 274.84L40.81 275.07L40.62 275.32L40.44 275.58L40.27 275.86L40.12 276.13L39.97 276.42L39.84 276.71L39.72 277.01L39.61 277.31L39.52 277.62L39.35 278.27L39.24 278.92L39.17 279.58L39.14 280.25L39.17 280.91L39.24 281.57L39.35 282.23L39.52 282.87L39.61 283.18L39.72 283.48L39.84 283.78L39.97 284.07L40.12 284.36L40.28 284.64L40.45 284.91L40.63 285.18L40.82 285.42L41.02 285.66L41.23 285.88L41.46 286.09L41.7 286.29L41.95 286.48L42.2 286.65L42.47 286.81L42.89 287.01L43.31 287.16L43.71 287.26L44.08 287.33L44.41 287.37L44.69 287.39L44.91 287.41L45.05 287.43L45.57 287.4L46.04 287.34L46.44 287.25L46.79 287.14L47.09 287.03L47.32 286.93L47.5 286.85L47.63 286.81L47.9 286.65L48.15 286.48L48.4 286.29L48.64 286.09L48.87 285.88L49.08 285.66L49.28 285.42L49.47 285.18L49.65 284.91L49.82 284.64L49.98 284.36L50.13 284.07L50.26 283.78L50.38 283.48L50.49 283.18L50.58 282.87L50.75 282.23L50.86 281.57L50.93 280.91L50.96 280.25L50.93 279.58L50.86 278.92L50.75 278.27L50.58 277.62L50.49 277.31L50.38 277.01L50.26 276.71L50.13 276.42L49.98 276.14L49.82 275.86L49.65 275.58L49.47 275.32L49.28 275.07L49.08 274.84L48.87 274.61L48.64 274.4L48.4 274.2L48.15 274.02L47.9 273.84L47.63 273.69L47.34 273.54L47.05 273.42L46.74 273.31L46.42 273.22L46.1 273.15L45.76 273.11L45.41 273.08L45.04 273.07L44.5 273.2L44.01 273.31Z" id="a26gd4KyPG"></path><path d="M69 288.67L69 285.47L68.93 285.47L68.89 285.57L68.84 285.68L68.79 285.78L68.74 285.88L68.69 285.98L68.64 286.07L68.58 286.17L68.52 286.26L68.46 286.36L68.4 286.45L68.33 286.54L68.26 286.63L68.19 286.72L68.12 286.8L68.05 286.89L67.97 286.97L67.89 287.06L67.81 287.14L67.72 287.22L67.64 287.3L67.55 287.38L67.47 287.46L67.38 287.53L67.29 287.6L67.2 287.68L67.1 287.75L67.01 287.81L66.91 287.88L66.82 287.95L66.72 288.01L66.62 288.07L66.52 288.13L66.41 288.19L66.31 288.25L66.2 288.3L66.1 288.35L65.99 288.41L65.88 288.46L65.78 288.51L65.67 288.55L65.56 288.6L65.45 288.64L65.34 288.68L65.22 288.72L65.11 288.76L65 288.8L64.89 288.83L64.77 288.87L64.66 288.9L64.55 288.93L64.43 288.95L64.32 288.98L64.2 289L64.09 289.02L63.97 289.04L63.86 289.06L63.74 289.08L63.63 289.09L63.51 289.1L63.39 289.11L63.28 289.12L63.16 289.12L63.04 289.13L62.93 289.13L62.58 289.12L62.25 289.1L61.93 289.07L61.64 289.03L61.37 288.98L61.11 288.92L60.88 288.87L60.66 288.8L60.46 288.74L60.28 288.68L60.12 288.62L59.98 288.57L59.85 288.52L59.74 288.48L59.65 288.45L59.58 288.43L59.41 288.34L59.24 288.25L59.07 288.15L58.91 288.05L58.75 287.94L58.59 287.83L58.44 287.72L58.29 287.6L58.14 287.48L58 287.35L57.86 287.22L57.72 287.08L57.59 286.94L57.46 286.8L57.34 286.65L57.22 286.5L57.1 286.34L56.98 286.18L56.87 286.01L56.76 285.84L56.66 285.67L56.56 285.5L56.47 285.33L56.38 285.15L56.29 284.97L56.21 284.79L56.13 284.6L56.06 284.42L55.99 284.23L55.93 284.04L55.87 283.85L55.81 283.66L55.71 283.24L55.61 282.82L55.54 282.39L55.47 281.97L55.42 281.54L55.39 281.11L55.36 280.68L55.36 280.25L55.36 279.82L55.39 279.39L55.42 278.96L55.47 278.53L55.54 278.11L55.61 277.68L55.71 277.26L55.81 276.84L55.87 276.65L55.93 276.46L55.99 276.27L56.06 276.08L56.13 275.9L56.21 275.71L56.29 275.53L56.38 275.35L56.47 275.18L56.56 275L56.66 274.83L56.76 274.66L56.87 274.49L56.98 274.32L57.1 274.16L57.22 274L57.34 273.85L57.46 273.7L57.59 273.56L57.72 273.42L57.86 273.28L58 273.15L58.14 273.02L58.29 272.9L58.44 272.78L58.59 272.66L58.75 272.55L58.91 272.44L59.08 272.34L59.24 272.24L59.41 272.15L59.58 272.06L59.85 271.93L60.12 271.82L60.39 271.73L60.66 271.65L60.92 271.59L61.18 271.53L61.42 271.49L61.66 271.46L61.89 271.43L62.1 271.41L62.29 271.39L62.46 271.38L62.62 271.37L62.75 271.36L62.85 271.35L62.93 271.34L63.04 271.34L63.16 271.34L63.28 271.35L63.39 271.35L63.51 271.36L63.63 271.37L63.74 271.38L63.86 271.4L63.97 271.41L64.09 271.43L64.2 271.45L64.32 271.47L64.43 271.49L64.54 271.52L64.66 271.54L64.77 271.57L64.88 271.6L64.99 271.63L65.1 271.66L65.21 271.7L65.32 271.73L65.42 271.77L65.53 271.81L65.64 271.86L65.74 271.9L65.85 271.95L65.95 272L66.05 272.05L66.15 272.1L66.25 272.16L66.35 272.21L66.45 272.27L66.55 272.33L66.64 272.39L66.74 272.45L66.83 272.52L66.92 272.59L67.01 272.65L67.1 272.73L67.19 272.8L67.27 272.87L67.36 272.95L67.44 273.02L67.52 273.1L67.61 273.18L67.68 273.26L67.76 273.35L67.84 273.43L67.91 273.52L67.99 273.61L68.06 273.7L68.13 273.79L68.19 273.89L68.26 273.99L68.32 274.08L68.38 274.18L68.44 274.29L68.49 274.39L68.55 274.49L68.6 274.6L68.64 274.7L68.69 274.81L68.73 274.92L68.77 275.03L68.83 275.03L68.83 265.37L70.89 265.37L70.89 288.67L69 288.67ZM61.95 273.16L61.56 273.25L61.22 273.36L60.93 273.47L60.71 273.58L60.54 273.66L60.41 273.7L60.16 273.87L59.92 274.04L59.69 274.23L59.47 274.43L59.26 274.64L59.06 274.87L58.87 275.11L58.7 275.35L58.54 275.62L58.38 275.89L58.24 276.17L58.11 276.46L57.99 276.75L57.89 277.05L57.8 277.35L57.72 277.65L57.65 277.97L57.59 278.29L57.53 278.62L57.49 278.94L57.46 279.27L57.43 279.59L57.42 279.92L57.41 280.25L57.42 280.57L57.43 280.9L57.46 281.23L57.49 281.55L57.53 281.88L57.59 282.2L57.65 282.52L57.72 282.84L57.8 283.15L57.89 283.45L57.99 283.74L58.11 284.04L58.24 284.32L58.38 284.6L58.54 284.88L58.7 285.14L58.87 285.39L59.06 285.62L59.26 285.85L59.47 286.06L59.69 286.26L59.92 286.45L60.16 286.63L60.41 286.79L60.81 287L61.21 287.15L61.6 287.26L61.97 287.32L62.3 287.37L62.58 287.39L62.79 287.41L62.93 287.43L63.51 287.4L64.01 287.34L64.45 287.24L64.82 287.13L65.13 287.02L65.37 286.92L65.56 286.84L65.69 286.79L65.96 286.63L66.22 286.46L66.46 286.27L66.7 286.07L66.92 285.86L67.13 285.63L67.33 285.39L67.52 285.14L67.69 284.88L67.85 284.6L68 284.33L68.13 284.04L68.25 283.75L68.36 283.45L68.45 283.15L68.53 282.84L68.66 282.2L68.76 281.55L68.82 280.9L68.84 280.25L68.82 279.59L68.76 278.94L68.66 278.29L68.53 277.65L68.45 277.35L68.36 277.04L68.25 276.75L68.13 276.45L68 276.17L67.85 275.89L67.69 275.62L67.52 275.35L67.33 275.1L67.13 274.86L66.92 274.64L66.7 274.42L66.46 274.22L66.22 274.03L65.96 273.86L65.69 273.7L65.26 273.5L64.82 273.34L64.4 273.24L63.99 273.17L63.63 273.13L63.32 273.1L63.08 273.09L62.93 273.07L62.41 273.09L61.95 273.16Z" id="b6UBrUcx5u"></path><path d="M82.28 271.37L82.6 271.4L82.91 271.45L83.19 271.51L83.45 271.57L83.7 271.64L83.92 271.71L84.12 271.79L84.31 271.86L84.47 271.93L84.62 271.99L84.75 272.05L84.85 272.09L84.95 272.13L85.02 272.15L85.19 272.25L85.36 272.36L85.53 272.47L85.69 272.58L85.85 272.7L86.01 272.82L86.16 272.95L86.31 273.09L86.45 273.22L86.6 273.36L86.73 273.51L86.86 273.66L86.99 273.81L87.12 273.97L87.24 274.13L87.35 274.29L87.46 274.46L87.57 274.64L87.68 274.82L87.78 275L87.87 275.18L87.97 275.37L88.05 275.56L88.14 275.75L88.22 275.94L88.29 276.13L88.36 276.33L88.42 276.52L88.49 276.72L88.54 276.92L88.59 277.12L88.64 277.32L88.69 277.54L88.73 277.75L88.77 277.97L88.81 278.18L88.84 278.4L88.87 278.62L88.89 278.83L88.92 279.05L88.94 279.27L88.95 279.49L88.96 279.71L88.97 279.93L88.97 280.14L88.98 280.36L88.97 280.58L88.97 280.8L76.01 280.8L76.02 280.95L76.02 281.09L76.03 281.24L76.04 281.38L76.05 281.53L76.06 281.67L76.08 281.82L76.09 281.96L76.12 282.11L76.14 282.25L76.16 282.39L76.19 282.54L76.22 282.68L76.25 282.82L76.29 282.96L76.32 283.1L76.36 283.25L76.4 283.39L76.45 283.53L76.5 283.67L76.55 283.81L76.6 283.95L76.66 284.08L76.72 284.22L76.78 284.35L76.85 284.48L76.92 284.61L77 284.74L77.07 284.87L77.15 285L77.23 285.12L77.32 285.24L77.41 285.36L77.5 285.47L77.59 285.59L77.69 285.7L77.79 285.81L77.89 285.91L78 286.01L78.1 286.11L78.21 286.21L78.33 286.3L78.44 286.4L78.56 286.48L78.68 286.57L78.8 286.65L78.92 286.73L79.05 286.81L79.25 286.92L79.45 287.01L79.65 287.09L79.85 287.16L80.05 287.21L80.24 287.26L80.43 287.3L80.6 287.33L80.77 287.35L80.93 287.37L81.08 287.38L81.21 287.39L81.33 287.4L81.43 287.41L81.51 287.42L81.56 287.43L81.97 287.42L82.35 287.38L82.69 287.33L83.01 287.26L83.31 287.18L83.58 287.09L83.82 286.99L84.04 286.88L84.24 286.78L84.41 286.68L84.57 286.58L84.71 286.49L84.82 286.4L84.93 286.34L85.02 286.28L85.09 286.25L85.24 286.1L85.39 285.95L85.54 285.78L85.68 285.62L85.81 285.44L85.93 285.26L86.05 285.07L86.16 284.88L86.27 284.68L86.37 284.48L86.47 284.27L86.56 284.05L86.64 283.83L86.72 283.6L86.79 283.36L86.85 283.12L88.9 283.12L88.77 283.64L88.62 284.12L88.46 284.56L88.29 284.96L88.1 285.33L87.92 285.67L87.73 285.97L87.55 286.25L87.37 286.5L87.2 286.72L87.03 286.91L86.89 287.08L86.76 287.23L86.65 287.36L86.56 287.47L86.5 287.56L86.17 287.83L85.81 288.07L85.44 288.27L85.06 288.44L84.68 288.58L84.3 288.7L83.93 288.8L83.56 288.87L83.21 288.93L82.88 288.97L82.58 289.01L82.3 289.03L82.05 289.06L81.84 289.08L81.68 289.1L81.56 289.12L81.2 289.12L80.86 289.1L80.53 289.07L80.23 289.02L79.95 288.98L79.69 288.92L79.45 288.86L79.22 288.8L79.02 288.74L78.84 288.68L78.67 288.62L78.52 288.56L78.39 288.51L78.28 288.47L78.19 288.44L78.12 288.42L77.95 288.34L77.78 288.25L77.61 288.15L77.44 288.05L77.28 287.95L77.12 287.84L76.97 287.72L76.82 287.6L76.67 287.48L76.53 287.35L76.39 287.22L76.25 287.08L76.12 286.94L75.99 286.8L75.87 286.65L75.75 286.5L75.64 286.34L75.53 286.17L75.42 286.01L75.31 285.84L75.22 285.67L75.12 285.49L75.03 285.32L74.94 285.14L74.86 284.96L74.78 284.78L74.71 284.6L74.64 284.41L74.57 284.23L74.51 284.04L74.45 283.85L74.4 283.66L74.34 283.45L74.29 283.24L74.25 283.03L74.2 282.82L74.16 282.61L74.13 282.39L74.09 282.18L74.06 281.97L74.04 281.75L74.02 281.54L74 281.32L73.98 281.11L73.97 280.89L73.96 280.68L73.96 280.46L73.96 280.25L73.96 280.04L73.96 279.83L73.97 279.63L73.99 279.42L74 279.22L74.02 279.01L74.04 278.8L74.07 278.6L74.1 278.4L74.13 278.19L74.17 277.99L74.21 277.79L74.25 277.58L74.3 277.38L74.35 277.18L74.4 276.98L74.45 276.79L74.51 276.6L74.57 276.41L74.64 276.23L74.71 276.04L74.78 275.86L74.86 275.67L74.95 275.49L75.03 275.32L75.12 275.14L75.22 274.96L75.32 274.79L75.42 274.62L75.53 274.46L75.64 274.29L75.75 274.13L75.87 273.97L75.99 273.82L76.12 273.67L76.25 273.52L76.39 273.38L76.53 273.24L76.67 273.11L76.82 272.98L76.97 272.85L77.12 272.73L77.28 272.62L77.44 272.5L77.61 272.4L77.77 272.29L77.94 272.2L78.12 272.1L78.39 271.97L78.67 271.85L78.95 271.75L79.22 271.67L79.49 271.6L79.75 271.54L80.01 271.5L80.25 271.46L80.49 271.43L80.7 271.41L80.9 271.39L81.08 271.38L81.24 271.37L81.37 271.36L81.48 271.35L81.56 271.34L81.93 271.34L82.28 271.37ZM80.63 273.14L80.18 273.24L79.74 273.39L79.31 273.57L78.93 273.79L78.58 274.03L78.24 274.3L77.93 274.59L77.64 274.91L77.38 275.27L77.13 275.64L76.91 276.02L76.72 276.42L76.55 276.84L76.4 277.27L76.27 277.72L76.16 278.17L76.08 278.62L76.01 279.08L86.91 279.08L86.89 278.62L86.84 278.16L86.75 277.71L86.65 277.26L86.51 276.82L86.35 276.41L86.17 276.01L85.95 275.63L85.71 275.26L85.45 274.91L85.16 274.59L84.85 274.29L84.51 274.03L84.16 273.79L83.78 273.57L83.36 273.39L82.92 273.24L82.48 273.14L82.02 273.08L81.56 273.07L81.09 273.08L80.63 273.14Z" id="bIZqg7YQz"></path><path d="M92.95 288.67L92.95 285.21L95.69 285.21L95.69 288.67L92.95 288.67Z" id="b6Rqf49L8N"></path><path d="M110.9 276.75C110.89 276.18 110.76 275.62 110.51 275.11C110.28 274.65 109.95 274.25 109.54 273.95C109.12 273.64 108.65 273.41 108.15 273.28C107.61 273.13 107.05 273.06 106.49 273.07C106.02 273.07 105.56 273.12 105.1 273.21C104.65 273.3 104.21 273.47 103.81 273.7C103.43 273.92 103.11 274.23 102.87 274.6C102.51 275.16 102.54 275.83 102.51 275.97C102.49 276.38 102.61 276.79 102.85 277.13C103.08 277.45 103.38 277.72 103.71 277.93C104.07 278.15 104.46 278.33 104.86 278.47C105.27 278.61 105.65 278.72 106 278.81C107.64 279.18 108.56 279.39 108.74 279.43C109.34 279.52 109.92 279.68 110.49 279.9C111.04 280.12 111.56 280.42 112.02 280.8C112.47 281.18 112.84 281.65 113.11 282.17C113.54 282.99 113.49 283.9 113.54 284.1C113.54 285.47 112.98 286.2 112.92 286.43C112.51 287.06 111.97 287.6 111.33 288C110.67 288.41 109.93 288.7 109.17 288.87C108.38 289.04 107.59 289.13 106.78 289.13C103.81 289.13 102.45 287.86 101.97 287.72C100.74 286.79 100.04 285.29 99.87 283.22C101.1 283.22 101.78 283.22 101.92 283.22C102.05 285.31 103.28 286.06 103.43 286.37C104.82 287.43 106.53 287.32 106.88 287.43C107.4 287.43 107.92 287.37 108.43 287.27C108.95 287.16 109.45 286.98 109.91 286.71C110.35 286.47 110.74 286.13 111.04 285.72C111.48 285.11 111.43 284.38 111.48 284.23C111.48 283.48 111.2 283.1 111.17 282.98C110.96 282.63 110.67 282.34 110.34 282.13C109.96 281.89 109.56 281.7 109.14 281.56C108.7 281.4 108.25 281.27 107.79 281.16C106.21 280.81 105.32 280.62 105.15 280.58C104.51 280.42 103.89 280.21 103.28 279.97C102.75 279.76 102.25 279.48 101.8 279.12C101.38 278.79 101.04 278.37 100.8 277.88C100.44 277.15 100.48 276.25 100.44 276.07C100.44 274.8 100.96 274.11 101.01 273.89C101.39 273.29 101.9 272.78 102.5 272.42C103.13 272.04 103.82 271.76 104.54 271.6C105.27 271.43 106.02 271.34 106.78 271.34C107.58 271.33 108.37 271.44 109.14 271.67C109.85 271.87 110.5 272.22 111.07 272.68C111.63 273.14 112.08 273.72 112.39 274.38C112.72 275.05 112.9 275.84 112.94 276.76C111.85 276.76 111.17 276.76 110.9 276.75Z" id="c2avQ6BI2n"></path><path d="M128.39 277.12C127.96 275.23 126.98 274.44 126.82 274.15C125.68 273.07 123.94 273.18 123.62 273.07C122.16 273.07 121.3 273.63 121.05 273.69C120.32 274.09 119.69 274.65 119.2 275.32C118.7 276.02 118.33 276.8 118.09 277.62C117.59 279.34 117.59 281.16 118.09 282.88C118.33 283.7 118.7 284.48 119.2 285.18C119.69 285.85 120.32 286.41 121.05 286.81C122.16 287.43 123.37 287.37 123.62 287.43C124.24 287.43 124.85 287.31 125.42 287.07C125.98 286.84 126.49 286.5 126.92 286.07C127.37 285.63 127.73 285.12 128 284.56C128.29 283.95 128.47 283.3 128.52 282.63C128.73 282.63 130.37 282.63 130.57 282.63C130.15 285.7 128.55 286.93 128.32 287.41C126.49 289.13 124.09 288.95 123.62 289.12C121.7 289.12 120.55 288.49 120.21 288.42C119.25 287.98 118.4 287.32 117.72 286.51C117.03 285.68 116.51 284.72 116.18 283.69C115.49 281.45 115.49 279.05 116.18 276.8C116.51 275.77 117.03 274.81 117.72 273.98C118.4 273.17 119.25 272.51 120.21 272.06C121.7 271.34 123.28 271.41 123.62 271.34C126.33 271.34 127.75 272.63 128.21 272.77C129.46 273.73 130.2 275.18 130.45 277.11C129.35 277.12 128.66 277.12 128.39 277.12Z" id="a5hvELdmS"></path><path d="M140.2 271.34L140.33 271.34L140.46 271.34L140.6 271.35L140.73 271.36L140.86 271.36L140.99 271.37L141.12 271.38L141.25 271.4L141.38 271.41L141.51 271.43L141.64 271.44L141.77 271.46L141.9 271.48L142.03 271.5L142.16 271.52L142.29 271.55L142.41 271.57L142.54 271.6L142.66 271.63L142.79 271.66L142.91 271.7L143.03 271.74L143.15 271.78L143.27 271.82L143.38 271.87L143.5 271.92L143.62 271.98L143.73 272.03L143.84 272.09L143.95 272.15L144.06 272.21L144.17 272.28L144.28 272.35L144.39 272.42L144.49 272.5L144.59 272.58L144.69 272.67L144.79 272.75L144.88 272.84L144.97 272.94L145.06 273.03L145.15 273.13L145.23 273.23L145.31 273.33L145.38 273.44L145.46 273.55L145.53 273.65L145.59 273.77L145.66 273.88L145.72 274L145.78 274.12L145.84 274.26L145.9 274.39L145.95 274.53L146 274.68L146.04 274.83L146.08 274.98L146.12 275.14L146.15 275.3L146.18 275.47L146.21 275.64L146.23 275.81L146.24 275.99L146.26 276.18L146.27 276.36L146.27 276.56L146.28 276.75L146.28 285.7L146.29 285.9L146.32 286.08L146.37 286.23L146.43 286.37L146.51 286.48L146.59 286.57L146.69 286.65L146.79 286.71L146.89 286.76L146.99 286.8L147.09 286.83L147.18 286.85L147.27 286.87L147.34 286.89L147.41 286.9L147.46 286.92L147.49 286.94L147.53 286.94L147.57 286.94L147.61 286.93L147.65 286.93L147.68 286.93L147.72 286.92L147.76 286.92L147.8 286.91L147.84 286.9L147.88 286.89L147.92 286.88L147.95 286.87L147.99 286.86L148.03 286.85L148.07 286.84L148.1 286.82L148.14 286.81L148.14 288.54L148.08 288.55L148.02 288.56L147.96 288.57L147.91 288.58L147.86 288.58L147.81 288.59L147.77 288.6L147.73 288.6L147.69 288.61L147.66 288.61L147.63 288.62L147.6 288.62L147.55 288.63L147.53 288.63L147.52 288.63L147.5 288.63L147.46 288.64L147.42 288.64L147.38 288.65L147.34 288.65L147.3 288.65L147.26 288.65L147.22 288.66L147.17 288.66L147.13 288.66L147.09 288.66L147.05 288.66L147.01 288.66L146.97 288.67L146.93 288.67L146.88 288.67L146.84 288.67L146.8 288.67L146.67 288.66L146.54 288.66L146.43 288.65L146.32 288.64L146.22 288.63L146.13 288.61L146.04 288.59L145.96 288.58L145.89 288.56L145.83 288.54L145.77 288.52L145.72 288.51L145.67 288.49L145.63 288.48L145.6 288.47L145.57 288.46L145.55 288.45L145.49 288.43L145.44 288.41L145.39 288.38L145.34 288.35L145.29 288.32L145.25 288.29L145.2 288.26L145.16 288.22L145.11 288.19L145.07 288.15L145.03 288.11L144.99 288.07L144.95 288.03L144.91 287.99L144.88 287.94L144.84 287.9L144.81 287.85L144.78 287.8L144.75 287.75L144.72 287.7L144.69 287.65L144.67 287.59L144.64 287.54L144.62 287.49L144.6 287.43L144.58 287.38L144.56 287.32L144.54 287.26L144.53 287.21L144.51 287.15L144.5 287.09L144.49 287.03L144.48 286.98L144.47 286.92L144.46 286.85L144.45 286.78L144.44 286.71L144.43 286.64L144.43 286.57L144.42 286.5L144.41 286.43L144.41 286.36L144.4 286.29L144.4 286.22L144.4 286.15L144.39 286.08L144.39 286.01L144.39 285.94L144.39 285.87L144.39 285.8L144.39 285.73L144.32 285.73L144.26 285.82L144.2 285.9L144.14 285.99L144.07 286.08L144.01 286.17L143.95 286.26L143.88 286.34L143.82 286.43L143.75 286.51L143.68 286.6L143.61 286.68L143.55 286.77L143.48 286.85L143.41 286.93L143.34 287.02L143.27 287.1L143.2 287.18L143.13 287.25L143.06 287.32L142.99 287.39L142.93 287.46L142.85 287.53L142.78 287.6L142.71 287.66L142.64 287.73L142.56 287.79L142.49 287.85L142.41 287.91L142.33 287.97L142.25 288.02L142.17 288.08L142.09 288.13L142.01 288.19L141.92 288.24L141.83 288.29L141.75 288.34L141.66 288.39L141.57 288.44L141.47 288.48L141.38 288.52L141.29 288.57L141.19 288.61L141.1 288.64L141.01 288.68L140.91 288.72L140.81 288.75L140.72 288.78L140.62 288.81L140.52 288.84L140.42 288.87L140.32 288.89L140.2 288.92L140.08 288.95L139.95 288.97L139.83 288.99L139.7 289.01L139.58 289.03L139.45 289.05L139.33 289.07L139.2 289.08L139.07 289.09L138.95 289.1L138.82 289.11L138.69 289.11L138.57 289.12L138.44 289.12L138.31 289.12L138.19 289.12L138.06 289.12L137.92 289.12L137.79 289.11L137.66 289.11L137.53 289.1L137.4 289.09L137.27 289.08L137.14 289.06L137.01 289.04L136.88 289.03L136.75 289.01L136.62 288.98L136.49 288.96L136.37 288.93L136.24 288.9L136.11 288.87L135.98 288.84L135.87 288.81L135.76 288.78L135.64 288.74L135.53 288.7L135.42 288.66L135.31 288.61L135.2 288.57L135.09 288.52L134.99 288.47L134.88 288.41L134.78 288.35L134.68 288.29L134.58 288.23L134.48 288.17L134.38 288.1L134.28 288.03L134.19 287.96L134.1 287.89L134.01 287.81L133.92 287.73L133.84 287.65L133.76 287.57L133.68 287.48L133.6 287.4L133.53 287.31L133.46 287.22L133.39 287.13L133.32 287.03L133.26 286.93L133.2 286.84L133.14 286.74L133.08 286.63L133.03 286.53L132.98 286.42L132.9 286.26L132.84 286.09L132.79 285.93L132.74 285.76L132.7 285.6L132.67 285.44L132.64 285.28L132.62 285.13L132.6 284.99L132.59 284.85L132.58 284.72L132.57 284.61L132.56 284.5L132.55 284.41L132.55 284.33L132.54 284.27L132.54 284.22L132.54 283.92L132.56 283.64L132.59 283.38L132.64 283.14L132.69 282.92L132.74 282.72L132.8 282.53L132.87 282.36L132.93 282.21L133 282.07L133.06 281.95L133.12 281.84L133.18 281.74L133.23 281.65L133.27 281.58L133.3 281.52L133.32 281.46L133.42 281.35L133.52 281.23L133.62 281.12L133.73 281.01L133.84 280.91L133.96 280.8L134.07 280.71L134.19 280.61L134.32 280.52L134.44 280.44L134.57 280.35L134.7 280.28L134.84 280.2L134.97 280.13L135.11 280.07L135.25 280L135.39 279.95L135.56 279.88L135.72 279.82L135.89 279.76L136.06 279.71L136.23 279.65L136.39 279.6L136.56 279.56L136.74 279.51L136.91 279.47L137.08 279.43L137.25 279.39L137.42 279.35L137.6 279.32L137.77 279.29L137.95 279.26L138.12 279.23L138.3 279.21L138.58 279.18L138.85 279.14L139.12 279.11L139.38 279.07L139.63 279.04L139.87 279.01L140.1 278.98L140.32 278.96L140.52 278.93L140.71 278.91L140.88 278.89L141.04 278.87L141.19 278.85L141.31 278.84L141.42 278.82L141.51 278.81L141.58 278.8L141.69 278.79L141.79 278.78L141.9 278.77L141.99 278.76L142.08 278.74L142.16 278.73L142.24 278.72L142.31 278.71L142.38 278.7L142.44 278.69L142.5 278.68L142.55 278.67L142.59 278.66L142.63 278.66L142.67 278.65L142.69 278.64L142.72 278.64L142.77 278.63L142.82 278.62L142.87 278.61L142.92 278.59L142.97 278.58L143.02 278.56L143.07 278.54L143.12 278.53L143.17 278.51L143.22 278.48L143.26 278.46L143.31 278.44L143.36 278.41L143.4 278.38L143.45 278.36L143.49 278.33L143.53 278.3L143.57 278.27L143.61 278.23L143.65 278.2L143.68 278.17L143.72 278.13L143.75 278.09L143.78 278.06L143.82 278.02L143.85 277.98L143.88 277.94L143.9 277.9L143.93 277.85L143.95 277.81L143.98 277.77L144 277.72L144.02 277.68L144.04 277.63L144.06 277.57L144.08 277.5L144.1 277.44L144.12 277.38L144.14 277.31L144.15 277.25L144.17 277.18L144.18 277.12L144.19 277.05L144.2 276.98L144.21 276.92L144.21 276.85L144.22 276.79L144.22 276.72L144.22 276.65L144.22 276.59L144.22 276.52L144.22 276.34L144.21 276.17L144.19 276.02L144.17 275.87L144.15 275.73L144.13 275.61L144.1 275.49L144.07 275.39L144.05 275.29L144.02 275.2L143.99 275.12L143.96 275.05L143.94 274.98L143.92 274.93L143.9 274.88L143.89 274.84L143.88 274.81L143.84 274.73L143.8 274.66L143.75 274.58L143.71 274.51L143.66 274.44L143.61 274.38L143.56 274.31L143.5 274.24L143.45 274.18L143.39 274.12L143.33 274.06L143.27 274L143.2 273.95L143.14 273.89L143.07 273.84L143 273.79L142.93 273.75L142.85 273.7L142.78 273.65L142.7 273.61L142.62 273.57L142.54 273.53L142.46 273.49L142.38 273.46L142.3 273.42L142.22 273.39L142.13 273.36L142.05 273.33L141.96 273.31L141.88 273.28L141.79 273.26L141.71 273.24L141.62 273.22L141.53 273.21L141.43 273.19L141.33 273.17L141.23 273.16L141.13 273.14L141.03 273.13L140.93 273.12L140.83 273.11L140.73 273.1L140.63 273.09L140.53 273.08L140.43 273.08L140.32 273.07L140.22 273.07L140.12 273.06L140.02 273.06L139.92 273.06L139.82 273.06L139.48 273.07L139.17 273.09L138.88 273.13L138.6 273.18L138.35 273.24L138.11 273.3L137.9 273.38L137.7 273.45L137.52 273.53L137.35 273.61L137.2 273.68L137.07 273.76L136.95 273.82L136.85 273.88L136.76 273.93L136.68 273.97L136.62 273.99L136.48 274.11L136.34 274.23L136.22 274.36L136.1 274.49L135.99 274.64L135.89 274.79L135.8 274.95L135.71 275.12L135.64 275.29L135.57 275.48L135.51 275.67L135.45 275.87L135.41 276.07L135.37 276.29L135.35 276.51L135.33 276.74L135.31 276.98L133.25 276.98L133.27 276.73L133.3 276.49L133.33 276.27L133.37 276.05L133.41 275.85L133.46 275.67L133.5 275.49L133.55 275.33L133.6 275.18L133.64 275.05L133.69 274.92L133.73 274.81L133.77 274.71L133.8 274.63L133.83 274.55L133.86 274.49L133.87 274.44L133.93 274.32L133.99 274.2L134.06 274.08L134.13 273.96L134.2 273.85L134.27 273.74L134.35 273.63L134.43 273.52L134.52 273.42L134.6 273.32L134.69 273.22L134.79 273.12L134.88 273.03L134.98 272.93L135.08 272.85L135.18 272.76L135.29 272.68L135.4 272.59L135.52 272.51L135.63 272.44L135.75 272.36L135.87 272.29L135.99 272.22L136.11 272.16L136.23 272.1L136.36 272.04L136.48 271.98L136.61 271.93L136.74 271.87L136.87 271.83L137 271.78L137.13 271.74L137.26 271.7L137.39 271.66L137.55 271.62L137.7 271.59L137.86 271.55L138.02 271.52L138.17 271.49L138.33 271.47L138.49 271.44L138.64 271.42L138.8 271.4L138.96 271.39L139.12 271.37L139.28 271.36L139.43 271.35L139.59 271.34L139.75 271.34L139.91 271.34L140.07 271.34L140.2 271.34ZM144 279.65L143.82 279.79L143.64 279.88L143.49 279.95L143.4 279.99L143.21 280.04L143.02 280.09L142.82 280.14L142.62 280.18L142.42 280.21L141.67 280.34L140.99 280.44L140.42 280.53L139.99 280.59L139.73 280.62L139.22 280.69L138.71 280.78L138.2 280.89L137.7 281.02L137.2 281.16L136.59 281.4L136.1 281.65L135.74 281.88L135.49 282.07L135.33 282.19L134.98 282.62L134.77 283.09L134.67 283.53L134.63 283.89L134.59 284.1L134.6 284.38L134.64 284.67L134.7 284.95L134.79 285.22L134.9 285.48L135.04 285.72L135.19 285.94L135.35 286.15L135.54 286.35L135.73 286.53L135.95 286.7L136.19 286.85L136.43 286.99L136.68 287.1L136.94 287.2L137.22 287.28L137.49 287.34L137.78 287.39L138.06 287.42L138.35 287.43L138.8 287.41L139.26 287.37L139.71 287.3L140.16 287.2L140.6 287.07L141 286.92L141.4 286.74L141.77 286.53L142.13 286.29L142.47 286.02L143.09 285.39L143.59 284.67L143.95 283.87L144.16 283.02L144.22 282.14L144.21 279.46L144.15 279.46L144 279.65Z" id="b2MUDluOyd"></path><path d="M150.35 271.83L152.4 271.83L152.4 274.73C152.44 274.73 152.46 274.73 152.47 274.73C153.05 273.2 154.35 272.51 154.55 272.27C155.54 271.65 156.69 271.33 157.85 271.33C159.61 271.33 160.51 271.75 160.8 271.79C162 272.25 162.52 272.95 162.71 273.08C163.21 273.67 163.56 274.37 163.72 275.12C163.93 276.01 164.03 276.91 164.02 277.82C164.02 278.55 164.02 282.16 164.02 288.66L161.97 288.66C161.97 282.36 161.97 278.86 161.97 278.16C161.97 277.48 161.91 276.81 161.77 276.15C161.66 275.57 161.42 275.02 161.09 274.54C160.75 274.07 160.29 273.7 159.76 273.46C158.93 273.07 157.9 273.11 157.69 273.07C156.93 273.05 156.18 273.2 155.49 273.51C154.87 273.79 154.31 274.2 153.86 274.71C153.4 275.25 153.04 275.87 152.81 276.54C152.56 277.28 152.42 278.06 152.41 278.84C152.41 279.5 152.41 282.77 152.41 288.67L150.35 288.67L150.35 271.83Z" id="eSvYTrIOW"></path><path d="M168.89 264.87C170.26 264.87 170.79 265.87 171.01 265.98C171.51 266.72 171.76 267.71 171.75 268.95C171.75 271.85 171.75 273.46 171.75 273.78C171.75 274.43 171.78 275.07 171.85 275.71C171.9 276.28 172.02 276.85 172.2 277.39C172.35 277.83 172.59 278.23 172.92 278.56C173.24 278.86 173.66 279.02 174.1 279C174.1 279.18 174.1 280.56 174.1 280.73C173.66 280.72 173.24 280.88 172.92 281.18C172.59 281.51 172.35 281.91 172.2 282.35C172.02 282.89 171.9 283.46 171.85 284.03C171.78 284.67 171.75 285.31 171.75 285.95C171.75 286.44 171.75 290.3 171.75 290.78C171.75 292.65 171.08 293.46 171.01 293.75C170.51 294.49 169.8 294.86 168.89 294.86L167.25 294.86L167.25 293.14C167.64 293.14 167.86 293.14 167.91 293.14C168.21 293.15 168.5 293.05 168.74 292.86C168.98 292.66 169.17 292.41 169.3 292.12C169.45 291.78 169.55 291.42 169.61 291.05C169.67 290.63 169.7 290.2 169.7 289.77C169.7 289.32 169.7 285.66 169.7 285.21C169.7 283.87 169.96 283.13 169.99 282.9C170.15 282.34 170.38 281.81 170.68 281.3C170.89 280.95 171.14 280.62 171.45 280.34C171.61 280.19 171.79 280.05 171.98 279.92C171.98 279.91 171.98 279.86 171.98 279.85C171.79 279.72 171.61 279.58 171.45 279.43C171.14 279.15 170.89 278.82 170.68 278.47C170.38 277.96 170.15 277.43 169.99 276.87C169.8 276.22 169.7 275.46 169.7 274.57C169.7 271.81 169.7 270.27 169.7 269.97C169.7 269.55 169.67 269.13 169.61 268.71C169.55 268.34 169.45 267.98 169.3 267.63C169.17 267.34 168.98 267.09 168.74 266.89C168.5 266.7 168.21 266.6 167.91 266.61C167.86 266.61 167.64 266.61 167.25 266.61L167.25 264.87C168.12 264.87 168.67 264.87 168.89 264.87Z" id="cUykFgVXW"></path></defs><g><g><use xlink:href="#b20kUyDGxz" opacity="1" fill="#3665ef" fill-opacity="1"></use><g><use xlink:href="#b20kUyDGxz" opacity="1" fill-opacity="0" stroke="#000000" stroke-width="1" stroke-opacity="0"></use></g></g><g><use xlink:href="#b22PW8Ep5g" opacity="1" fill="#3665ef" fill-opacity="1"></use><g><use xlink:href="#b22PW8Ep5g" opacity="1" fill-opacity="0" stroke="#000000" stroke-width="1" stroke-opacity="0"></use></g></g><g><use xlink:href="#b1Xl8IFL2Z" opacity="1" fill="#000000" fill-opacity="1"></use><g><use xlink:href="#b1Xl8IFL2Z" opacity="1" fill-opacity="0" stroke="#000000" stroke-width="1" stroke-opacity="0"></use></g></g><g><use xlink:href="#a26gd4KyPG" opacity="1" fill="#000000" fill-opacity="1"></use><g><use xlink:href="#a26gd4KyPG" opacity="1" fill-opacity="0" stroke="#000000" stroke-width="1" stroke-opacity="0"></use></g></g><g><use xlink:href="#b6UBrUcx5u" opacity="1" fill="#000000" fill-opacity="1"></use><g><use xlink:href="#b6UBrUcx5u" opacity="1" fill-opacity="0" stroke="#000000" stroke-width="1" stroke-opacity="0"></use></g></g><g><use xlink:href="#bIZqg7YQz" opacity="1" fill="#000000" fill-opacity="1"></use><g><use xlink:href="#bIZqg7YQz" opacity="1" fill-opacity="0" stroke="#000000" stroke-width="1" stroke-opacity="0"></use></g></g><g><use xlink:href="#b6Rqf49L8N" opacity="1" fill="#000000" fill-opacity="1"></use><g><use xlink:href="#b6Rqf49L8N" opacity="1" fill-opacity="0" stroke="#000000" stroke-width="1" stroke-opacity="0"></use></g></g><g><use xlink:href="#c2avQ6BI2n" opacity="1" fill="#000000" fill-opacity="1"></use><g><use xlink:href="#c2avQ6BI2n" opacity="1" fill-opacity="0" stroke="#000000" stroke-width="1" stroke-opacity="0"></use></g></g><g><use xlink:href="#a5hvELdmS" opacity="1" fill="#000000" fill-opacity="1"></use><g><use xlink:href="#a5hvELdmS" opacity="1" fill-opacity="0" stroke="#000000" stroke-width="1" stroke-opacity="0"></use></g></g><g><use xlink:href="#b2MUDluOyd" opacity="1" fill="#000000" fill-opacity="1"></use><g><use xlink:href="#b2MUDluOyd" opacity="1" fill-opacity="0" stroke="#000000" stroke-width="1" stroke-opacity="0"></use></g></g><g><use xlink:href="#eSvYTrIOW" opacity="1" fill="#000000" fill-opacity="1"></use><g><use xlink:href="#eSvYTrIOW" opacity="1" fill-opacity="0" stroke="#000000" stroke-width="1" stroke-opacity="0"></use></g></g><g><use xlink:href="#cUykFgVXW" opacity="1" fill="#3665ef" fill-opacity="1"></use><g><use xlink:href="#cUykFgVXW" opacity="1" fill-opacity="0" stroke="#000000" stroke-width="1" stroke-opacity="0"></use></g></g></g></svg>