<svg viewBox="0 0 14 14" xmlns="http://www.w3.org/2000/svg" fill-rule="evenodd" clip-rule="evenodd" stroke-linejoin="round" stroke-miterlimit="1.414"><path d="M12.625 6.154a3.991 3.991 0 0 0-1.902-1.279v-.046C10.723 2.65 8.93.857 6.75.857c-2.179 0-3.972 1.793-3.972 3.972v.053A3.982 3.982 0 0 0 0 8.671c0 2.179 1.793 3.972 3.972 3.972a3.978 3.978 0 0 0 2.791-1.144 3.97 3.97 0 0 0 2.766 1.122c2.178 0 3.971-1.793 3.971-3.972 0-.905-.31-1.784-.877-2.489l.002-.006zm-3.073 5.489a2.99 2.99 0 0 1-2.973-2.971c0-.275-.225-.5-.5-.5a.501.501 0 0 0-.499.5 3.952 3.952 0 0 0 .56 2.032 2.971 2.971 0 0 1-2.164.936 2.985 2.985 0 0 1-2.97-2.97 2.985 2.985 0 0 1 2.97-2.971c.35 0 .697.062 1.026.183h.012c.114.038.223.09.324.155a.5.5 0 1 0 .65-.759 2.224 2.224 0 0 0-.646-.341 3.974 3.974 0 0 0-1.369-.243h-.192A2.985 2.985 0 0 1 6.75 1.85a2.986 2.986 0 0 1 2.972 2.972c0 .96-.466 1.863-1.249 2.42a.5.5 0 1 0 .58.814 3.983 3.983 0 0 0 1.526-2.184 2.979 2.979 0 0 1 1.941 2.789 2.986 2.986 0 0 1-2.969 2.972l.001.01z" fill="#f3702a" fill-rule="nonzero"/></svg>