<svg id="_ÎÓÈ_1" data-name="—ÎÓÈ_1" xmlns="http://www.w3.org/2000/svg" xmlns:xlink="http://www.w3.org/1999/xlink"
     viewBox="0 0 1169.93 339.19">
  <defs>
    <style>
      .cls-1{fill:url(#New_Gradient_Swatch_2);}.cls-2{fill:url(#New_Gradient_Swatch_2-2);}.cls-3{fill:url(#New_Gradient_Swatch_2-3);}.cls-4{fill:url(#New_Gradient_Swatch_2-4);}.cls-5{fill:url(#New_Gradient_Swatch_2-5);}.cls-6{fill:url(#New_Gradient_Swatch_2-6);}.cls-7{fill:url(#New_Gradient_Swatch_2-7);}.cls-8{fill:url(#New_Gradient_Swatch_2-8);}.cls-9{fill:url(#New_Gradient_Swatch_2-9);}.cls-10{fill:#3665ef;}.cls-11{fill:#000;}.cls-12{fill:url(#New_Gradient_Swatch_2-10);}.cls-13{fill:url(#New_Gradient_Swatch_2-11);}
    </style>
    <linearGradient id="New_Gradient_Swatch_2" x1="442.2" y1="307.77" x2="1062.06" y2="204.01"
                    gradientUnits="userSpaceOnUse">
      <stop offset="0" stop-color="#0157ff"/>
      <stop offset="1" stop-color="#46dec2"/>
    </linearGradient>
    <linearGradient id="New_Gradient_Swatch_2-2" x1="443.45" y1="315.22" x2="1063.31" y2="211.47"
                    xlink:href="#New_Gradient_Swatch_2"/>
    <linearGradient id="New_Gradient_Swatch_2-3" x1="443.33" y1="314.53" x2="1063.19" y2="210.78"
                    xlink:href="#New_Gradient_Swatch_2"/>
    <linearGradient id="New_Gradient_Swatch_2-4" x1="445.79" y1="329.21" x2="1065.65" y2="225.46"
                    xlink:href="#New_Gradient_Swatch_2"/>
    <linearGradient id="New_Gradient_Swatch_2-5" x1="446.89" y1="335.78" x2="1066.75" y2="232.02"
                    xlink:href="#New_Gradient_Swatch_2"/>
    <linearGradient id="New_Gradient_Swatch_2-6" x1="448.39" y1="344.72" x2="1068.24" y2="240.97"
                    xlink:href="#New_Gradient_Swatch_2"/>
    <linearGradient id="New_Gradient_Swatch_2-7" x1="448.17" y1="343.44" x2="1068.03" y2="239.69"
                    xlink:href="#New_Gradient_Swatch_2"/>
    <linearGradient id="New_Gradient_Swatch_2-8" x1="449.36" y1="350.54" x2="1069.22" y2="246.78"
                    xlink:href="#New_Gradient_Swatch_2"/>
    <linearGradient id="New_Gradient_Swatch_2-9" x1="450.49" y1="357.28" x2="1070.35" y2="253.53"
                    xlink:href="#New_Gradient_Swatch_2"/>
    <linearGradient id="New_Gradient_Swatch_2-10" x1="436.45" y1="273.41" x2="1056.31" y2="169.65"
                    xlink:href="#New_Gradient_Swatch_2"/>
    <linearGradient id="New_Gradient_Swatch_2-11" x1="440.61" y1="298.25" x2="1060.47" y2="194.5"
                    xlink:href="#New_Gradient_Swatch_2"/>
  </defs>
  <g id="Group_1265" data-name="Group 1265">
    <path id="Path_1594" data-name="Path 1594" class="cls-1"
          d="M684.94,246.41v47h-4.79V282.81a22.63,22.63,0,0,1-20.23,11.66,24.55,24.55,0,1,1,0-49.1A22.63,22.63,0,0,1,680.15,257V246.41Zm-4.79,23.51a19.81,19.81,0,1,0,0,.46v-.47Z"/>
    <path id="Path_1595" data-name="Path 1595" class="cls-2"
          d="M734,246.4v47h-4.7v-8.92a17.73,17.73,0,0,1-16.84,10,17.35,17.35,0,0,1-18.29-16.34,18.52,18.52,0,0,1,0-2.47V246.41H699v29.26a13,13,0,0,0,11.55,14.26,13.36,13.36,0,0,0,2.28,0c9.22,0,16.44-6,16.44-18.71V246.41Z"/>
    <path id="Path_1596" data-name="Path 1596" class="cls-3"
          d="M758.51,251v30.57c0,8.27,4.43,8.47,14,7.62v4.24c-12.34,1.87-18.82-1.14-18.82-11.86V251H743.37v-4.61h10.35V231.06l4.79-3.28V246.4h14V251Z"/>
    <path id="Path_1597" data-name="Path 1597" class="cls-4"
          d="M776.19,269.91A24.69,24.69,0,1,1,801,294.47h-.1a24.38,24.38,0,0,1-24.73-24Zm44.58,0a19.81,19.81,0,1,0,0,.46C820.78,270.22,820.77,270.07,820.77,269.91Z"/>
    <path id="Path_1598" data-name="Path 1598" class="cls-5"
          d="M846.5,246.39v8.09a12.55,12.55,0,0,1,5.45-6.73,16.93,16.93,0,0,1,8.84-2.3V259a13.86,13.86,0,0,0-10,2.25,10.84,10.84,0,0,0-4.32,9.69v22.48H834.37v-47Z"/>
    <path id="Path_1599" data-name="Path 1599" class="cls-6"
          d="M901.8,252V246.4h12.14v47H901.8v-5.55a18.49,18.49,0,0,1-15.33,6.87,21.55,21.55,0,0,1-16.18-7.15,26.61,26.61,0,0,1,0-35.27,21.38,21.38,0,0,1,16.18-7.24A18.48,18.48,0,0,1,901.8,252ZM879.42,279.5a13.65,13.65,0,0,0,18.62,0,13,13,0,0,0,3.76-9.59,12.69,12.69,0,0,0-3.76-9.5,13.39,13.39,0,0,0-18.62,0,12.82,12.82,0,0,0-3.67,9.5,13.17,13.17,0,0,0,3.66,9.6Z"/>
    <path id="Path_1600" data-name="Path 1600" class="cls-7"
          d="M952.31,245.09a21.16,21.16,0,0,1,16.17,7.24,26.35,26.35,0,0,1,0,35.27,21.1,21.1,0,0,1-16.17,7.15,18.19,18.19,0,0,1-15.24-6.87v5.55H924.94V227.59h12.13V252A18.21,18.21,0,0,1,952.31,245.09Zm-11.57,34.42a13.65,13.65,0,0,0,18.62,0,13,13,0,0,0,3.76-9.59,12.7,12.7,0,0,0-3.76-9.5,13.41,13.41,0,0,0-18.62,0,12.85,12.85,0,0,0-3.67,9.5,13.15,13.15,0,0,0,3.67,9.59Z"/>
    <path id="Path_1601" data-name="Path 1601" class="cls-8"
          d="M983.82,254.75v38.68H996v-47Zm11.33-26.7c-.16-.16-.32-.32-.5-.47a7.14,7.14,0,0,0-4.81-1.79,7,7,0,0,0-4.72,1.79l-.5.47a7.33,7.33,0,0,0-2.21,5.27,7.54,7.54,0,0,0,7.44,7.43,7.41,7.41,0,0,0,5.3-12.7Z"/>
    <path id="Path_1602" data-name="Path 1602" class="cls-9"
          d="M1023.32,258.07v19.56a4.68,4.68,0,0,0,1.23,3.57,5.56,5.56,0,0,0,3.58,1.27,49.31,49.31,0,0,0,5.83-.05v11q-12.33,1.41-17.54-2.31a15.5,15.5,0,0,1-5.23-13.5V258.06H1003V246.4h8.17V235.93l12.14-8.35V246.4H1034v11.66Z"/>
  </g>
  <path class="cls-10"
        d="M81.08,33.78l-.5,8.85c-.33.28-.56.67-.82.68-7.5.37-12.23,4.08-12.94,15.93-.63,10.63.06,21.32-.28,32a67.27,67.27,0,0,1-2.18,15.21c-1.69,6.3-4.55,12.17-10,16.27a10.19,10.19,0,0,0-1.42,1.75c.8.88,1.53,1.71,2.3,2.51,6.12,6.3,10,13.79,10.49,22.57.63,11.44.67,22.92.95,34.39.06,2.5,0,5,.15,7.49.7,9.12,4.52,13.14,13.66,14.22v9.63c-3.54,0-7,.35-10.43-.09a14.54,14.54,0,0,1-11.94-8.68,37.5,37.5,0,0,1-3.52-15.92c-.11-12.16.14-24.32-.19-36.48a66.83,66.83,0,0,0-2.27-14.2c-1.45-5.79-5.67-9.19-11.43-10.79v-8.25c10.77-3.07,13.1-12,13.56-21.38.65-13.29.22-26.64.31-40a37.43,37.43,0,0,1,3.34-16c2-4.24,4.76-7.59,9.65-8.63.57-.12,1-.73,1.56-1.12Z"/>
  <path class="cls-10"
        d="M1066.08,33.78c.31.36.56.95.94,1.06,9.32,2.65,11.78,10.25,12.59,18.43.65,6.59,0,13.3.19,20,.21,9.3.42,18.61,1,27.88a36.12,36.12,0,0,0,2.63,10.57c1.86,4.76,5.57,7.75,10.9,8.87V129c-10.5,3-13.18,11.53-13.59,20.87-.66,14.61-.73,29.25-.9,43.88a31.21,31.21,0,0,1-3.53,13.87,13.37,13.37,0,0,1-12.42,7.76c-3.3.07-6.6,0-10.15,0v-8.6c.4-.24.67-.53,1-.55,7.73-.58,11-3.26,12.66-10.83a50.42,50.42,0,0,0,1-9.88c.13-10.16-.15-20.32.11-30.47.21-8.09,2.21-15.82,7-22.52a85.49,85.49,0,0,1,6.44-7.17,26.9,26.9,0,0,0-2.2-2.65c-7.92-7.42-10.85-17-11.22-27.39-.36-10.15,0-20.32-.11-30.47a41.87,41.87,0,0,0-.68-7.92c-1.86-9.32-4.56-11.78-13.93-13-.25-3.36-.5-6.78-.75-10.2Z"/>
  <path class="cls-10"
        d="M157.08,33.78c-6,14.63-11.88,29.28-17.87,43.9Q127,107.47,114.77,137.23q-8.05,19.62-16.08,39.25c-.5,1.21-1.13,2.36-1.77,3.68H88.5a23.31,23.31,0,0,1,.83-3.3q16.52-40.14,33.07-80.27,12.9-31.38,25.68-62.81Z"/>
  <path class="cls-11"
        d="M457.33,92.13V37h12.44V177.81c-1.83.05-3.75.13-5.67.16s-3.61,0-5.83,0V160.34l-.71-.19-2.08,3.12c-6.2,9.29-15.38,14-25.88,16.44-6.4,1.47-12.9,1-19.3-.48-17.68-4.06-27.57-16-32.07-32.73a77,77,0,0,1,0-40c8.73-33.23,40.5-39.46,62-29.64a31.71,31.71,0,0,1,14.14,12.23c.68,1.09,1.38,2.18,2.07,3.28Zm-69.76,35.13c.84,5.4,1.3,10.9,2.61,16.18,2.2,8.77,6.66,16.23,14.32,21.5,13.88,9.55,38.39,6.37,47.62-14.15,6.87-15.29,6.82-31.13.64-46.58-5.09-12.73-15.13-19.51-28.86-20.38-14.27-.9-24.15,6-30.61,18.21C389.14,109.84,388.06,118.43,387.57,127.26Z"/>
  <path class="cls-11"
        d="M937.4,166.84v10.39c-5.8.61-11.31,1.81-16.7-1-5.78-3-5.32-9.07-6.63-14.83-1.28,1.6-2.13,2.59-2.9,3.64-7.22,9.72-17.06,14.53-28.95,15.57a48.72,48.72,0,0,1-19.72-2.11c-11.41-3.79-17.76-11.86-19.25-23.73-1.86-14.69,5-25.7,18.83-30.79,8.52-3.13,17.45-4.1,26.35-5.22,5.28-.67,10.57-1.26,15.85-1.93,4.84-.62,7.76-3.32,9-8.07,3-11.81-2.57-21.6-14.44-24.26-8.5-1.9-17.13-2.18-25.48,1.4-7.2,3.08-11.37,8.41-12.58,16.11-.23,1.46-.52,2.9-.82,4.55H847.1a34.16,34.16,0,0,1,8.5-21.88,30.43,30.43,0,0,1,15.06-9.35,67.7,67.7,0,0,1,32.61-1.29c13.38,2.74,21.44,11.82,22.9,25.49a83.78,83.78,0,0,1,.49,9c.05,16,0,32,0,48,0,1.17,0,2.34,0,3.5.25,5.51,2.25,7.31,7.89,7.14C935.4,167.07,936.21,167,937.4,166.84ZM913,124.24c-3.9,1-7.51,2.26-11.22,2.94-5.72,1-11.51,1.71-17.26,2.58-7.6,1.15-15,2.86-21.58,7.18-5.21,3.44-7.5,8.27-7.18,14.42.45,8.42,6.51,15.7,15.22,18.33a31.54,31.54,0,0,0,17.26,0c13-3.34,22.16-11.06,24.56-24.57C914,138.34,913,131.21,913,124.24Z"/>
  <path class="cls-11"
        d="M578.93,130.39H501.06A35,35,0,0,0,503.31,147c3.82,10.31,10.29,18.51,21.2,21.64,16.6,4.76,32.28-.79,39.66-19.16.67-1.67,1.31-3.36,2-5.09H578.4c-.07,4.19-1.58,7.69-3.09,11.17-6.91,15.83-18.8,24.45-36.24,25.25-7.55.34-15,0-22.16-2.53-9.58-3.3-17-9.35-21.4-18.4C485,138.37,485,116.5,495.59,95.07c7.43-15,20.7-21.42,37-22.14,14-.61,25.87,4,34.81,15A51,51,0,0,1,578,112.38C578.9,118.12,579.75,123.88,578.93,130.39Zm-12.82-10.87a39.72,39.72,0,0,0-6.46-21.47c-5.84-9.38-14.51-13.94-25.39-14.22-16.55-.42-31.81,13.52-33,35.69Z"/>
  <path class="cls-11"
        d="M361.59,126.86c-.32,10.87-2.31,21.3-7.7,30.74-8,14-20,21.91-36.22,23.19-10.17.81-20-.59-28.95-5.68-10.61-6.05-17.27-15.39-20.86-27-5.74-18.48-4.93-36.58,4.95-53.45,8.47-14.45,21.69-21.53,38.46-22,13.23-.34,25,3.31,34.56,12.73,7.88,7.74,12.23,17.32,14.18,28C360.81,117.91,361.08,122.41,361.59,126.86Zm-13.33.48a53.07,53.07,0,0,0-6.74-26.76c-12.42-22.25-43.66-23.16-56.6-.93C274,118.4,274.38,137.59,286,155.83s39.22,20,53.06,1C345.47,148.07,348.18,138.09,348.26,127.34Z"/>
  <path class="cls-11"
        d="M712.28,106.22c-.29-1.18-.68-2.43-.9-3.71-1.53-9-7-14.61-15.44-17.24a35.47,35.47,0,0,0-23.55.84,16.91,16.91,0,0,0-9.84,8.74c-3.24,7.05-.65,14.17,6.43,18.34,5.83,3.43,12.32,4.94,18.8,6.46,4.86,1.15,9.75,2.12,14.61,3.27A41.73,41.73,0,0,1,717.7,130c13.6,10,13.74,31.09.29,42.13a38.77,38.77,0,0,1-19,8.1c-11,1.74-21.86,1.75-32.46-2.3-13.54-5.18-21.71-17.4-21.43-32.46,1.26-.1,2.55-.26,3.85-.28,2.63,0,5.27,0,8.07,0,.41,1.87.73,3.31,1,4.75,1.54,7.43,5.4,13.17,12.21,16.74C681,172.3,692,172.12,703,167.84a24.25,24.25,0,0,0,8.08-5.66A14.54,14.54,0,0,0,708,139.09c-5.36-3.16-11.23-4.9-17.25-6.34-7.76-1.85-15.45-4-23.16-6a20,20,0,0,1-3.29-1.15c-8.52-3.93-14.58-9.73-15.46-19.74-1.06-11.91,3.49-21.14,13.93-26.56,14.35-7.45,29.46-7.84,44.37-1.52,10.71,4.54,17.67,16.24,17.49,28C721.33,106.83,718.39,107,712.28,106.22Z"/>
  <path class="cls-11"
        d="M963.27,177.43h-12c-1-4-1.1-96.72-.14-101.39h12V92.72c1.28-1.91,2-3,2.68-4,6.69-10.28,16.38-15.26,28.43-15.94a51.53,51.53,0,0,1,18.27,2.06c9.53,3,16.4,8.86,19,18.73a61.19,61.19,0,0,1,2.31,14.74c.24,22.15.11,44.31.1,66.46,0,.81-.1,1.62-.17,2.74-4,.9-8,.34-12.54.41-.05-1.86-.15-3.61-.15-5.36,0-19.49.12-39-.09-58.47a59.85,59.85,0,0,0-1.89-14.28c-2.5-9.6-9.41-15.06-19.26-16.19-10.75-1.22-20.17,1.33-27.63,9.51-4.52,4.95-6.87,11-8,17.45a64.46,64.46,0,0,0-.87,10.93c-.09,16.66,0,33.32,0,50Z"/>
  <path class="cls-11"
        d="M238.39,141.92h12.34a19.25,19.25,0,0,1,0,3.67,52.42,52.42,0,0,1-7.93,19.24c-5.8,8.55-13.6,14.14-23.86,15.76-16.26,2.56-31.25,0-43.31-12.25C168.14,160.76,164,151.4,162,141.05a72,72,0,0,1,2.62-36.88c5-15,21-31.4,43.31-31,6.58.12,12.94.84,19.07,3.18,13,4.93,20.39,14.42,23,27.89.22,1.14.36,2.3.59,3.83H238c-.62-1.7-1.26-3.55-2-5.37-3.68-9.47-10-16.3-20.24-18.1-13.37-2.36-24.94,1.47-33.08,12.66-12.5,17.17-12.79,42.36-.13,60,7.82,10.87,18.94,15.39,32,12.8s19.89-11.86,23.17-24.19C238,144.72,238.09,143.56,238.39,141.92Z"/>
  <path class="cls-11"
        d="M818.57,141.44H831a47.49,47.49,0,0,1-7.28,21.23c-7.19,11.7-17.77,17.6-31.42,18.24a53.71,53.71,0,0,1-20.19-2.51c-12.6-4.32-21.17-13.07-26.25-25.1-7.12-16.84-7.25-34-.8-51.11C751.16,86.08,767.3,72.4,788,72.68c10.11.14,19.46,2.22,27.83,8,9.33,6.42,13.09,15.82,14.56,27H817.88c-.37-1-.8-2.08-1.13-3.17-8-26.17-37.38-25.35-50.69-11.82-5.91,6-9.35,13.28-11.3,21.34-3.72,15.4-1.37,29.87,7.77,42.82,7.5,10.61,18.32,14.92,31,12.85,11.75-1.91,19-9.68,22.82-20.68C817.18,146.65,817.76,144.23,818.57,141.44Z"/>
  <path class="cls-11"
        d="M619,177.76h-16c-.06-3.44-.14-6.86-.17-10.28s0-6.65,0-10.35h16C619.92,160.49,620.07,172.76,619,177.76Z"/>
  <path class="cls-11"
        d="M1129.27,53.46c0,9.64-7.1,16.56-16.82,16.51a16.28,16.28,0,0,1-16.56-16.87c.08-9.54,7.28-16.57,16.92-16.51S1129.31,43.7,1129.27,53.46Zm-30.34-.23c0,8,6,14.48,13.59,14.22,8.92-.3,13.85-7,13.91-14.07a13.74,13.74,0,0,0-13.76-14.05C1104.58,39.55,1099,45,1098.93,53.23Z"/>
  <path class="cls-11"
        d="M1116.05,54.76l4.77,7.55c-1.72,1.15-2.72.43-3.54-.79-1.1-1.65-2.22-3.29-3.22-5-1.11-1.91-2.6-2.31-4.8-1.34-.12,2.47-.25,5-.44,8.77-1.27-1.56-2.22-2.18-2.23-2.82-.12-5.6-.07-11.2-.07-17.48,3.07,0,5.81-.06,8.55,0,2.31.06,4.3.86,4.93,3.34s.43,4.64-1.7,6.3C1117.67,53.8,1117,54.18,1116.05,54.76ZM1109.32,52c2.11,0,3.75.09,5.38,0a2.73,2.73,0,0,0,2.83-2.84,2.92,2.92,0,0,0-2.7-3.05,43.59,43.59,0,0,0-5.51,0Z"/>
  <path class="cls-12"
        d="M539.08,271.05a24.13,24.13,0,0,1-24.27,24.45,22.19,22.19,0,0,1-20.14-11.9v10.87H490V228.88h4.69v29.61a22.21,22.21,0,0,1,20.14-11.9A24.14,24.14,0,0,1,539.08,271.05Zm-4.68,0a19.87,19.87,0,1,0-19.87,20A19.72,19.72,0,0,0,534.4,271.05Z"/>
  <path class="cls-13"
        d="M587.9,247.62l-20.24,51.16c-3.56,9-10.5,15.09-18.56,14.44v-4.41c6.28.56,11.06-4.12,14-11l1-2.53-21.55-47.7h5.06l18.92,41.7,16.31-41.7Z"/>
</svg>