<svg viewBox="0 0 105 30" xmlns="http://www.w3.org/2000/svg" fill-rule="evenodd" clip-rule="evenodd" stroke-linejoin="round" stroke-miterlimit="1.414"><path d="M69.959 19.694c-.42.734-1.346 1.698-2.905 1.698-1.378 0-3.032-.795-3.032-3.999v-5.337h1.596v5.054c0 1.736.509 2.905 1.958 2.905 1.074 0 1.817-.772 2.105-1.506.09-.246.147-.55.147-.85v-5.603h1.596v6.638c0 .94.016 1.772.074 2.492h-1.414l-.088-1.492h-.037zm-36.859.56c-.58.734-1.486 1.133-2.538 1.133-1.797 0-2.87-1.36-2.87-2.83 0-2.393 2.068-3.547 5.21-3.525v-.13c0-.49-.257-1.186-1.618-1.186-.906 0-1.87.32-2.45.696l-.509-1.85c.619-.36 1.833-.81 3.45-.81 2.96 0 3.902 1.812 3.902 3.977v3.204c0 .886.036 1.735.125 2.242h-2.487v.005l-.161-.926H33.1zm-15.716-3.79c0 3.372-2.304 4.923-4.68 4.923-2.597 0-4.593-1.774-4.593-4.755s1.89-4.886 4.738-4.886c2.718.006 4.535 1.948 4.535 4.717zm45.403.075c0 3.373-2.252 4.848-4.373 4.848-2.376 0-4.209-1.812-4.209-4.695 0-3.058 1.922-4.848 4.356-4.848 2.518 0 4.226 1.905 4.226 4.695zm16.675 3.057c-.492 1.017-1.56 1.79-2.996 1.79-2.125 0-3.758-1.866-3.758-4.64-.016-3.036 1.795-4.902 3.937-4.902 1.346 0 2.251.658 2.649 1.399h.036V7.792h1.603v11.032c0 .81.015 1.735.072 2.356h-1.434l-.073-1.584h-.036zm-29.325 1.246c-.419.228-1.346.528-2.524.528-2.649 0-4.37-1.866-4.37-4.657 0-2.812 1.852-4.847 4.716-4.847.943 0 1.78.244 2.215.473l-.361 1.284c-.383-.228-.98-.435-1.854-.435-2.016 0-3.104 1.545-3.104 3.45 0 2.11 1.308 3.41 3.046 3.41.906 0 1.509-.245 1.958-.452l.278 1.246zm-48.69-2.17c.507.32 1.56.696 2.376.696.832 0 1.178-.299 1.178-.772 0-.474-.272-.697-1.309-1.056-1.832-.642-2.54-1.68-2.523-2.775 0-1.712 1.414-3.019 3.613-3.019 1.036 0 1.958.245 2.502.528l-.492 1.98c-.397-.228-1.163-.527-1.922-.527-.67 0-1.052.283-1.052.756 0 .435.345.658 1.435 1.056 1.686.603 2.398 1.49 2.413 2.845 0 1.713-1.309 2.981-3.848 2.981-1.162 0-2.193-.268-2.87-.643l.498-2.05zm19.669 2.519h-2.758v-6.29h.005c0-1.147-.037-2.131-.073-2.943h2.398l.125 1.263h.052a3.224 3.224 0 0 1 2.738-1.47c1.817 0 3.179 1.247 3.179 3.962v5.467h-2.76v-5.108c0-1.187-.397-1.997-1.398-1.997-.764 0-1.215.549-1.397 1.076-.074.169-.111.453-.111.72v5.32zm18.77-.005h-2.76v-6.192c0-1.36-.036-2.246-.072-3.036h2.376l.09 1.698h.073c.455-1.339 1.545-1.904 2.397-1.904.257 0 .383 0 .582.038v2.698a3.76 3.76 0 0 0-.743-.076c-1.017 0-1.708.565-1.89 1.453-.038.19-.054.413-.054.642v4.679zm12.99-.006h-1.597V7.792h1.596V21.18zm2.942-4.543c0 1.997 1.104 3.509 2.67 3.509 1.523 0 2.67-1.49 2.67-3.547 0-1.545-.744-3.508-2.634-3.508s-2.706 1.81-2.706 3.546zm23.517-.87c0-.206-.014-.49-.073-.697-.235-1.055-1.105-1.925-2.304-1.925-1.648 0-2.633 1.506-2.633 3.525 0 1.85.869 3.372 2.597 3.372 1.073 0 2.052-.734 2.34-1.98.053-.229.073-.452.073-.718v-1.577zm-46.344 1.055c-1.45-.016-2.576.337-2.576 1.452 0 .735.471 1.094 1.089 1.094.69 0 1.25-.473 1.435-1.056.036-.152.052-.32.052-.49v-1zm-22.032-.261c0 1.582.634 2.774 1.817 2.774 1.073 0 1.759-1.116 1.759-2.774 0-1.377-.507-2.774-1.76-2.774-1.33 0-1.816 1.413-1.816 2.774z" fill="#000" fill-rule="nonzero"/><path d="M102.86 13.634a4.959 4.959 0 0 0-2.363-1.649v-.06c0-2.823-2.208-5.124-4.93-5.124-2.724 0-4.933 2.296-4.933 5.125v.07c-1.994.653-3.45 2.595-3.45 4.886 0 2.823 2.21 5.125 4.932 5.125a4.832 4.832 0 0 0 3.465-1.475 4.817 4.817 0 0 0 3.461 1.475c2.717 0 4.933-2.296 4.933-5.125 0-1.18-.4-2.334-1.115-3.248zm-3.818 7.077c-2.031 0-3.685-1.718-3.685-3.83a.637.637 0 0 0-.623-.646.634.634 0 0 0-.624.647c0 .957.257 1.855.696 2.622a3.607 3.607 0 0 1-2.69 1.213c-2.032 0-3.687-1.719-3.687-3.83 0-2.11 1.655-3.829 3.687-3.829.44 0 .868.082 1.278.234.005 0 .009.005.014.005.142.05.342.147.404.201a.6.6 0 0 0 .874-.07.659.659 0 0 0-.068-.91c-.272-.239-.696-.402-.8-.44a4.767 4.767 0 0 0-1.697-.31c-.079 0-.157 0-.236.005.084-2.04 1.702-3.671 3.687-3.671 2.031 0 3.685 1.718 3.685 3.83a3.896 3.896 0 0 1-1.55 3.122.663.663 0 0 0-.147.898c.12.174.315.272.509.272.125 0 .25-.038.361-.12a5.164 5.164 0 0 0 1.895-2.812c1.424.549 2.413 1.979 2.413 3.595-.005 2.106-1.659 3.824-3.696 3.824z" fill="#f3702a" fill-rule="nonzero"/></svg>
