<?xml version="1.0" encoding="UTF-8" standalone="no"?>
<!DOCTYPE svg PUBLIC "-//W3C//DTD SVG 1.1//EN" "http://www.w3.org/Graphics/SVG/1.1/DTD/svg11.dtd">
<svg version="1.1" xmlns="http://www.w3.org/2000/svg" xmlns:xlink="http://www.w3.org/1999/xlink" preserveAspectRatio="xMidYMid meet" viewBox="-0.9828623147657263 263.8749216754229 643.9485869442972 114.27072187143528" width="105" height="30"><defs><path d="M19.19 375.12C14.16 375.12 12.18 371.45 11.4 371.04C9.56 368.32 8.64 364.68 8.64 360.13C8.64 349.55 8.64 343.67 8.64 342.49C8.64 340.13 8.53 337.77 8.29 335.41C8.1 333.31 7.66 331.24 6.98 329.24C6.44 327.62 5.54 326.14 4.34 324.93C3.17 323.83 1.62 323.25 0.02 323.31C0.02 322.67 0.02 317.58 0.02 316.94C1.62 317 3.17 316.42 4.34 315.32C5.54 314.1 6.44 312.62 6.98 311C7.66 309 8.1 306.93 8.29 304.83C8.53 302.48 8.64 300.12 8.64 297.75C8.64 295.96 8.64 281.66 8.64 279.87C8.64 273.02 11.12 270.05 11.4 268.95C13.24 266.25 15.84 264.89 19.19 264.87L25.19 264.87L25.19 271.23C23.75 271.23 22.95 271.23 22.79 271.23C21.68 271.2 20.6 271.57 19.73 272.26C18.85 273 18.15 273.94 17.69 275C17.14 276.27 16.76 277.6 16.56 278.96C16.32 280.49 16.2 282.04 16.21 283.58C16.21 285.27 16.21 298.81 16.21 300.5C16.21 305.42 15.24 308.11 15.13 308.95C14.54 311.01 13.68 312.99 12.59 314.84C11.83 316.15 10.88 317.35 9.77 318.38C9.15 318.95 8.48 319.47 7.79 319.94C7.79 319.96 7.79 320.15 7.79 320.18C8.48 320.65 9.15 321.17 9.77 321.74C10.88 322.77 11.83 323.96 12.59 325.27C13.67 327.12 14.52 329.1 15.11 331.15C15.82 333.51 16.18 336.33 16.18 339.61C16.18 349.69 16.18 355.29 16.18 356.41C16.18 357.97 16.29 359.54 16.53 361.09C16.73 362.46 17.12 363.79 17.69 365.06C18.16 366.1 18.85 367.03 19.73 367.76C20.6 368.45 21.68 368.82 22.79 368.79C22.95 368.79 23.75 368.79 25.19 368.79L25.19 375.15C21.99 375.13 19.99 375.12 19.19 375.12Z" id="c3hYTz4mha"></path><path d="M28.55 354.01L65.37 264.87L71.49 264.87L34.91 354.01L28.55 354.01Z" id="b2xFEApKs2"></path><path d="M120.8 309.88C119.24 302.92 115.62 300.05 115.04 298.96C110.84 295 104.46 295.4 103.29 295C97.89 295 94.76 297.05 93.81 297.28C91.14 298.76 88.82 300.8 87.03 303.28C85.19 305.84 83.81 308.7 82.95 311.73C81.11 318.04 81.11 324.74 82.95 331.05C83.81 334.08 85.19 336.94 87.03 339.51C88.83 341.97 91.14 344.02 93.82 345.49C97.9 347.77 102.35 347.54 103.3 347.77C105.56 347.78 107.81 347.33 109.9 346.45C111.95 345.58 113.82 344.34 115.41 342.78C117.05 341.17 118.39 339.28 119.37 337.2C120.43 334.97 121.08 332.58 121.29 330.12C122.05 330.12 128.09 330.12 128.85 330.12C127.28 341.41 121.38 345.95 120.55 347.71C113.83 354.01 105 353.38 103.28 354.01C96.2 354.01 91.99 351.69 90.74 351.43C87.21 349.79 84.07 347.39 81.56 344.41C79.03 341.35 77.11 337.82 75.92 334.03C73.36 325.79 73.36 316.96 75.92 308.72C77.11 304.93 79.03 301.41 81.56 298.34C84.08 295.36 87.21 292.94 90.74 291.27C96.22 288.62 102.03 288.89 103.29 288.62C113.25 288.62 118.46 293.37 120.14 293.9C124.74 297.42 127.48 302.74 128.37 309.86C124.33 309.87 121.81 309.87 120.8 309.88Z" id="b1TSyGV3Rw"></path><path d="M178.36 291.39L178.62 291.53L178.89 291.66L179.16 291.8L179.42 291.94L179.68 292.09L179.95 292.24L180.2 292.39L180.46 292.54L180.72 292.69L180.97 292.85L181.22 293.01L181.47 293.18L181.72 293.34L181.97 293.51L182.21 293.69L182.46 293.86L182.7 294.04L182.93 294.22L183.17 294.4L183.41 294.59L183.64 294.77L183.87 294.96L184.1 295.16L184.32 295.35L184.55 295.55L184.77 295.75L184.99 295.95L185.21 296.16L185.42 296.37L185.64 296.58L185.85 296.79L186.06 297L186.26 297.22L186.47 297.44L186.67 297.66L186.87 297.89L187.07 298.11L187.26 298.34L187.45 298.58L187.65 298.82L187.83 299.06L188.02 299.3L188.2 299.54L188.39 299.79L188.57 300.03L188.74 300.28L188.92 300.53L189.09 300.78L189.26 301.04L189.42 301.29L189.59 301.55L189.75 301.81L189.9 302.07L190.06 302.33L190.21 302.59L190.36 302.85L190.51 303.12L190.66 303.39L190.8 303.66L190.94 303.93L191.08 304.2L191.21 304.47L191.34 304.75L191.47 305.02L191.6 305.3L191.72 305.58L191.84 305.86L191.96 306.14L192.08 306.42L192.19 306.7L192.3 306.99L192.41 307.27L192.51 307.56L192.61 307.85L192.71 308.14L192.81 308.43L192.9 308.72L193.09 309.35L193.27 309.99L193.44 310.63L193.61 311.27L193.76 311.91L193.9 312.56L194.03 313.2L194.15 313.85L194.26 314.5L194.36 315.15L194.45 315.8L194.53 316.46L194.6 317.11L194.67 317.77L194.72 318.42L194.76 319.08L194.79 319.73L194.81 320.39L194.82 321.04L194.82 321.7L194.81 322.36L194.79 323.01L194.76 323.67L194.72 324.33L194.67 324.98L194.6 325.63L194.53 326.29L194.45 326.94L194.36 327.59L194.26 328.24L194.15 328.89L194.03 329.54L193.9 330.19L193.76 330.83L193.61 331.48L193.44 332.12L193.27 332.76L193.09 333.39L192.9 334.03L192.81 334.32L192.71 334.61L192.61 334.9L192.51 335.19L192.41 335.47L192.3 335.76L192.19 336.04L192.08 336.33L191.96 336.61L191.84 336.89L191.72 337.17L191.6 337.45L191.47 337.73L191.34 338L191.21 338.28L191.08 338.55L190.94 338.82L190.8 339.09L190.66 339.36L190.51 339.63L190.36 339.89L190.21 340.16L190.06 340.42L189.91 340.68L189.75 340.94L189.59 341.2L189.42 341.46L189.26 341.71L189.09 341.97L188.92 342.22L188.74 342.47L188.57 342.72L188.39 342.96L188.2 343.21L188.02 343.45L187.83 343.69L187.65 343.93L187.45 344.17L187.26 344.41L187.07 344.64L186.87 344.86L186.67 345.09L186.47 345.31L186.26 345.53L186.06 345.74L185.85 345.96L185.64 346.17L185.43 346.38L185.21 346.58L184.99 346.79L184.77 346.99L184.55 347.19L184.33 347.38L184.1 347.58L183.87 347.77L183.64 347.96L183.41 348.15L183.18 348.33L182.94 348.51L182.7 348.69L182.46 348.86L182.22 349.04L181.97 349.21L181.73 349.38L181.48 349.54L181.23 349.7L180.97 349.86L180.72 350.02L180.46 350.17L180.21 350.32L179.95 350.47L179.69 350.62L179.42 350.76L179.16 350.9L178.89 351.04L178.63 351.17L178.36 351.3L178.08 351.43L177.66 351.62L177.24 351.8L176.82 351.97L176.4 352.13L175.98 352.28L175.56 352.43L175.14 352.56L174.72 352.68L174.31 352.8L173.9 352.91L173.49 353.01L173.08 353.1L172.69 353.18L172.29 353.26L171.9 353.33L171.52 353.4L171.15 353.46L170.78 353.51L170.42 353.56L170.06 353.61L169.72 353.65L169.38 353.68L169.06 353.72L168.74 353.74L168.44 353.77L168.14 353.79L167.86 353.81L167.59 353.83L167.33 353.85L167.08 353.87L166.85 353.88L166.63 353.9L166.43 353.91L166.24 353.92L166.07 353.94L165.91 353.95L165.77 353.97L165.65 353.99L165.55 354L165.01 354L164.48 353.99L163.96 353.97L163.46 353.94L162.97 353.9L162.48 353.86L162.01 353.81L161.55 353.75L161.11 353.69L160.67 353.62L160.25 353.55L159.83 353.47L159.43 353.4L159.04 353.31L158.66 353.23L158.29 353.14L157.94 353.05L157.59 352.95L157.26 352.86L156.94 352.77L156.63 352.67L156.33 352.58L156.04 352.48L155.76 352.39L155.5 352.3L155.25 352.21L155 352.12L154.78 352.04L154.56 351.96L154.35 351.88L154.16 351.81L153.97 351.74L153.8 351.68L153.64 351.62L153.49 351.57L153.35 351.52L153.23 351.48L153.11 351.45L153.01 351.43L152.74 351.3L152.47 351.17L152.2 351.03L151.94 350.9L151.67 350.76L151.41 350.62L151.15 350.47L150.89 350.32L150.63 350.17L150.38 350.02L150.12 349.86L149.87 349.7L149.62 349.54L149.37 349.38L149.12 349.21L148.88 349.04L148.64 348.86L148.4 348.69L148.16 348.51L147.92 348.33L147.69 348.15L147.45 347.96L147.22 347.77L146.99 347.58L146.77 347.38L146.54 347.19L146.32 346.99L146.1 346.79L145.88 346.58L145.67 346.38L145.45 346.17L145.24 345.96L145.04 345.74L144.83 345.53L144.63 345.31L144.42 345.09L144.22 344.86L144.03 344.64L143.83 344.41L143.64 344.17L143.45 343.93L143.26 343.69L143.07 343.45L142.89 343.21L142.71 342.96L142.53 342.72L142.35 342.47L142.18 342.22L142.01 341.96L141.84 341.71L141.67 341.46L141.51 341.2L141.35 340.94L141.19 340.68L141.03 340.42L140.88 340.16L140.73 339.89L140.58 339.63L140.44 339.36L140.29 339.09L140.15 338.82L140.02 338.55L139.88 338.27L139.75 338L139.62 337.72L139.5 337.45L139.37 337.17L139.25 336.89L139.13 336.61L139.02 336.33L138.9 336.04L138.79 335.76L138.69 335.47L138.58 335.19L138.48 334.9L138.38 334.61L138.29 334.32L138.19 334.03L138 333.39L137.82 332.76L137.65 332.12L137.49 331.48L137.34 330.83L137.2 330.19L137.06 329.54L136.94 328.89L136.83 328.24L136.73 327.59L136.64 326.94L136.56 326.29L136.49 325.63L136.43 324.98L136.38 324.33L136.34 323.67L136.31 323.01L136.29 322.36L136.28 321.7L136.28 321.04L136.29 320.39L136.31 319.73L136.34 319.08L136.38 318.42L136.43 317.77L136.49 317.11L136.56 316.46L136.64 315.8L136.73 315.15L136.83 314.5L136.94 313.85L137.06 313.2L137.2 312.56L137.34 311.91L137.49 311.27L137.65 310.63L137.82 309.99L138 309.35L138.19 308.72L138.29 308.43L138.38 308.14L138.48 307.85L138.58 307.56L138.69 307.27L138.8 306.99L138.9 306.7L139.02 306.42L139.13 306.14L139.25 305.86L139.37 305.58L139.5 305.3L139.62 305.02L139.75 304.75L139.88 304.47L140.02 304.2L140.16 303.93L140.3 303.66L140.44 303.39L140.58 303.12L140.73 302.86L140.88 302.59L141.03 302.33L141.19 302.07L141.35 301.81L141.51 301.55L141.67 301.29L141.84 301.04L142.01 300.78L142.18 300.53L142.35 300.28L142.53 300.03L142.71 299.79L142.89 299.54L143.07 299.3L143.26 299.06L143.45 298.82L143.64 298.58L143.83 298.34L144.03 298.11L144.23 297.89L144.42 297.66L144.63 297.44L144.83 297.22L145.04 297L145.25 296.79L145.46 296.58L145.67 296.37L145.89 296.16L146.1 295.95L146.32 295.75L146.55 295.55L146.77 295.35L147 295.16L147.23 294.96L147.46 294.77L147.69 294.59L147.92 294.4L148.16 294.22L148.4 294.04L148.64 293.86L148.88 293.69L149.13 293.51L149.37 293.35L149.62 293.18L149.87 293.01L150.12 292.85L150.38 292.69L150.63 292.54L150.89 292.39L151.15 292.24L151.41 292.09L151.67 291.94L151.94 291.8L152.2 291.66L152.47 291.53L152.74 291.39L153.01 291.26L153.29 291.13L153.58 291L153.86 290.87L154.15 290.75L154.44 290.63L154.73 290.51L155.02 290.4L155.32 290.29L155.62 290.19L155.92 290.08L156.22 289.98L156.52 289.89L156.83 289.8L157.14 289.71L157.45 289.62L157.76 289.54L158.08 289.46L158.39 289.39L158.71 289.32L159.04 289.25L159.36 289.19L159.68 289.13L160.01 289.07L160.34 289.01L160.67 288.96L161.01 288.92L161.34 288.87L161.68 288.83L162.02 288.8L162.37 288.76L162.71 288.74L163.06 288.71L163.41 288.69L163.76 288.67L164.11 288.65L164.47 288.64L164.82 288.63L165.18 288.63L165.55 288.62L178.08 291.26L178.36 291.39ZM163.92 295.38L163.41 295.5L162.91 295.62L161.98 295.84L161.54 295.95L160.7 296.15L160.31 296.24L159.94 296.33L159.24 296.5L158.61 296.65L158.04 296.79L157.54 296.91L157.11 297.01L156.92 297.06L156.6 297.14L156.33 297.2L156.14 297.24L156.07 297.26L155.8 297.41L155.54 297.56L155.28 297.72L155.02 297.88L154.76 298.05L154.51 298.22L154.26 298.39L154.01 298.56L153.77 298.74L153.52 298.92L153.28 299.11L153.05 299.3L152.81 299.49L152.58 299.69L152.35 299.89L152.13 300.09L151.9 300.3L151.68 300.51L151.47 300.72L151.25 300.93L151.04 301.15L150.83 301.38L150.63 301.6L150.43 301.83L150.23 302.06L150.04 302.29L149.85 302.53L149.66 302.77L149.47 303.01L149.29 303.26L149.11 303.52L148.93 303.78L148.76 304.04L148.58 304.3L148.41 304.57L148.25 304.83L148.09 305.1L147.93 305.37L147.77 305.64L147.61 305.92L147.46 306.19L147.32 306.47L147.17 306.75L147.03 307.03L146.89 307.31L146.76 307.6L146.63 307.88L146.5 308.17L146.38 308.46L146.26 308.75L146.14 309.04L146.02 309.33L145.91 309.63L145.81 309.92L145.7 310.22L145.6 310.51L145.5 310.81L145.41 311.11L145.32 311.42L145.23 311.72L145.05 312.35L144.89 312.99L144.73 313.62L144.59 314.26L144.46 314.9L144.35 315.54L144.24 316.19L144.15 316.83L144.07 317.48L144 318.13L143.95 318.78L143.91 319.43L143.87 320.08L143.86 320.73L143.85 321.38L143.86 322.03L143.87 322.68L143.91 323.33L143.95 323.98L144 324.62L144.07 325.27L144.15 325.92L144.24 326.56L144.35 327.21L144.46 327.85L144.59 328.49L144.73 329.13L144.89 329.77L145.05 330.4L145.23 331.03L145.32 331.34L145.41 331.64L145.5 331.94L145.6 332.24L145.7 332.54L145.81 332.83L145.92 333.13L146.03 333.42L146.14 333.71L146.26 334.01L146.38 334.3L146.51 334.58L146.64 334.87L146.77 335.16L146.9 335.44L147.04 335.72L147.18 336L147.33 336.28L147.47 336.56L147.63 336.84L147.78 337.11L147.94 337.38L148.1 337.65L148.26 337.92L148.43 338.19L148.6 338.45L148.77 338.72L148.95 338.98L149.13 339.24L149.31 339.49L149.49 339.74L149.68 339.98L149.86 340.22L150.05 340.46L150.25 340.69L150.45 340.92L150.65 341.15L150.85 341.38L151.06 341.6L151.27 341.82L151.48 342.03L151.7 342.25L151.92 342.46L152.14 342.66L152.37 342.86L152.6 343.06L152.83 343.26L153.06 343.45L153.3 343.64L153.54 343.83L153.78 344.01L154.03 344.19L154.28 344.36L154.53 344.54L154.78 344.7L155.04 344.87L155.3 345.03L155.56 345.19L155.82 345.34L156.09 345.49L156.5 345.71L156.91 345.91L157.32 346.1L157.73 346.27L158.14 346.43L158.55 346.58L158.95 346.71L159.36 346.83L159.75 346.94L160.15 347.04L160.53 347.13L160.91 347.21L161.28 347.28L161.65 347.34L162 347.4L162.34 347.45L162.67 347.49L162.99 347.52L163.3 347.56L163.59 347.58L163.87 347.61L164.13 347.63L164.38 347.65L164.61 347.66L164.82 347.68L165.01 347.7L165.18 347.71L165.33 347.73L165.46 347.75L165.56 347.77L166.1 347.76L166.61 347.74L167.11 347.71L167.6 347.67L168.07 347.62L168.53 347.56L168.97 347.49L169.4 347.41L169.81 347.32L170.21 347.23L170.59 347.14L170.96 347.03L171.31 346.93L171.65 346.82L171.97 346.72L172.28 346.61L172.57 346.5L172.85 346.39L173.11 346.29L173.36 346.18L173.6 346.08L173.81 345.99L174.02 345.9L174.21 345.82L174.38 345.74L174.55 345.67L174.69 345.61L174.82 345.56L174.94 345.52L175.04 345.49L175.31 345.34L175.57 345.19L175.83 345.03L176.09 344.87L176.35 344.71L176.6 344.54L176.85 344.37L177.1 344.19L177.35 344.01L177.59 343.83L177.83 343.64L178.07 343.45L178.3 343.26L178.53 343.06L178.76 342.86L178.99 342.66L179.21 342.46L179.43 342.25L179.65 342.03L179.86 341.82L180.07 341.6L180.28 341.38L180.48 341.15L180.68 340.92L180.88 340.69L181.08 340.46L181.27 340.22L181.46 339.98L181.64 339.74L181.82 339.49L182 339.24L182.18 338.98L182.36 338.72L182.53 338.45L182.7 338.19L182.87 337.92L183.03 337.65L183.19 337.38L183.35 337.11L183.51 336.84L183.66 336.56L183.8 336.28L183.95 336L184.09 335.72L184.23 335.44L184.36 335.16L184.49 334.87L184.62 334.58L184.75 334.3L184.87 334.01L184.99 333.71L185.1 333.42L185.21 333.13L185.32 332.83L185.43 332.54L185.53 332.24L185.63 331.94L185.72 331.64L185.81 331.34L185.9 331.03L186.08 330.4L186.24 329.77L186.4 329.13L186.54 328.49L186.66 327.85L186.78 327.21L186.89 326.56L186.98 325.92L187.06 325.27L187.12 324.62L187.18 323.98L187.22 323.33L187.25 322.68L187.27 322.03L187.28 321.38L187.27 320.73L187.25 320.08L187.22 319.43L187.18 318.78L187.12 318.13L187.06 317.48L186.98 316.83L186.89 316.19L186.78 315.54L186.66 314.9L186.54 314.26L186.4 313.62L186.24 312.99L186.08 312.35L185.9 311.72L185.81 311.42L185.72 311.11L185.63 310.81L185.53 310.52L185.43 310.22L185.32 309.92L185.21 309.63L185.1 309.33L184.99 309.04L184.87 308.75L184.75 308.46L184.62 308.17L184.49 307.88L184.36 307.6L184.23 307.31L184.09 307.03L183.95 306.75L183.8 306.47L183.66 306.2L183.5 305.92L183.35 305.65L183.19 305.37L183.03 305.1L182.87 304.83L182.7 304.57L182.53 304.3L182.36 304.04L182.18 303.78L182 303.52L181.82 303.26L181.64 303.02L181.46 302.77L181.27 302.53L181.08 302.3L180.88 302.06L180.68 301.83L180.48 301.6L180.28 301.38L180.07 301.16L179.86 300.94L179.65 300.72L179.43 300.51L179.21 300.3L178.99 300.09L178.76 299.89L178.53 299.69L178.3 299.5L178.07 299.3L177.83 299.11L177.59 298.93L177.35 298.74L177.1 298.57L176.85 298.39L176.6 298.22L176.35 298.05L176.09 297.89L175.83 297.73L175.57 297.57L175.31 297.41L175.04 297.27L174.77 297.12L174.49 296.97L174.21 296.83L173.92 296.7L173.64 296.57L173.35 296.44L173.06 296.32L172.76 296.21L172.46 296.1L172.16 296L171.86 295.9L171.55 295.8L171.24 295.72L170.93 295.63L170.62 295.55L170.3 295.48L169.98 295.41L169.65 295.35L169.33 295.29L169 295.24L168.67 295.19L168.33 295.15L167.99 295.11L167.65 295.08L167.31 295.05L166.96 295.03L166.61 295.01L166.26 295L165.9 294.99L165.55 294.99L164.99 295.12L163.92 295.38Z" id="b2JeAExSBw"></path><path d="M253.6 352.33L253.6 340.57L253.36 340.57L253.3 340.72L253.23 340.88L253.17 341.03L253.1 341.18L253.03 341.33L252.96 341.48L252.89 341.63L252.82 341.78L252.75 341.92L252.67 342.07L252.59 342.22L252.52 342.36L252.44 342.51L252.36 342.65L252.28 342.79L252.19 342.94L252.11 343.08L252.02 343.22L251.94 343.36L251.85 343.5L251.76 343.63L251.67 343.77L251.58 343.91L251.48 344.04L251.39 344.18L251.29 344.31L251.2 344.44L251.1 344.58L251 344.71L250.9 344.84L250.79 344.97L250.69 345.1L250.59 345.22L250.48 345.35L250.37 345.48L250.27 345.6L250.16 345.72L250.05 345.85L249.94 345.97L249.82 346.09L249.71 346.22L249.59 346.34L249.47 346.46L249.35 346.59L249.23 346.71L249.11 346.83L248.98 346.95L248.86 347.07L248.74 347.19L248.61 347.3L248.48 347.42L248.36 347.53L248.23 347.65L248.1 347.76L247.97 347.87L247.84 347.98L247.71 348.1L247.58 348.2L247.45 348.31L247.31 348.42L247.18 348.53L247.04 348.63L246.91 348.74L246.77 348.84L246.63 348.94L246.49 349.04L246.36 349.14L246.22 349.24L246.08 349.34L245.93 349.44L245.79 349.53L245.65 349.63L245.51 349.72L245.36 349.82L245.22 349.91L245.07 350L244.93 350.09L244.78 350.18L244.63 350.26L244.48 350.35L244.33 350.44L244.18 350.52L244.03 350.61L243.87 350.69L243.72 350.78L243.57 350.86L243.41 350.94L243.26 351.02L243.1 351.1L242.95 351.18L242.79 351.26L242.63 351.33L242.47 351.41L242.32 351.48L242.16 351.56L242 351.63L241.84 351.7L241.68 351.77L241.52 351.84L241.36 351.91L241.2 351.98L241.04 352.04L240.88 352.11L240.71 352.17L240.55 352.24L240.39 352.3L240.22 352.36L240.06 352.42L239.9 352.48L239.73 352.54L239.57 352.59L239.4 352.65L239.24 352.71L239.07 352.76L238.9 352.81L238.74 352.86L238.57 352.92L238.4 352.97L238.23 353.01L238.07 353.06L237.9 353.11L237.74 353.15L237.57 353.2L237.4 353.24L237.24 353.28L237.07 353.32L236.9 353.36L236.73 353.4L236.57 353.44L236.4 353.48L236.23 353.51L236.06 353.55L235.89 353.58L235.73 353.61L235.56 353.64L235.39 353.67L235.22 353.7L235.05 353.73L234.88 353.75L234.71 353.78L234.54 353.8L234.37 353.82L234.2 353.84L234.03 353.86L233.86 353.88L233.69 353.9L233.52 353.92L233.35 353.93L233.17 353.94L233 353.96L232.83 353.97L232.66 353.98L232.49 353.99L232.32 354L232.15 354L231.97 354.01L231.8 354.01L231.63 354.02L231.46 354.02L231.29 354.02L230.76 354.02L230.25 354L229.75 353.98L229.26 353.96L228.78 353.92L228.31 353.88L227.85 353.83L227.41 353.78L226.98 353.72L226.55 353.66L226.14 353.59L225.74 353.51L225.36 353.44L224.98 353.36L224.61 353.27L224.26 353.19L223.91 353.1L223.58 353.01L223.26 352.92L222.95 352.83L222.65 352.74L222.36 352.65L222.08 352.55L221.81 352.46L221.56 352.37L221.31 352.28L221.08 352.2L220.85 352.11L220.64 352.03L220.44 351.96L220.25 351.88L220.06 351.81L219.89 351.75L219.73 351.68L219.58 351.63L219.44 351.58L219.32 351.54L219.2 351.5L219.09 351.47L218.99 351.44L218.74 351.32L218.48 351.19L218.23 351.06L217.98 350.92L217.74 350.79L217.49 350.65L217.25 350.5L217 350.36L216.76 350.21L216.52 350.06L216.29 349.91L216.05 349.75L215.82 349.59L215.58 349.43L215.35 349.27L215.13 349.1L214.9 348.93L214.68 348.76L214.45 348.58L214.23 348.41L214.02 348.23L213.8 348.05L213.59 347.86L213.38 347.67L213.17 347.48L212.96 347.29L212.75 347.1L212.55 346.9L212.35 346.7L212.15 346.5L211.95 346.3L211.76 346.09L211.57 345.89L211.38 345.68L211.19 345.46L211.01 345.25L210.83 345.03L210.65 344.81L210.47 344.59L210.29 344.37L210.12 344.13L209.94 343.9L209.77 343.66L209.6 343.42L209.43 343.18L209.27 342.94L209.1 342.69L208.94 342.45L208.79 342.2L208.63 341.95L208.48 341.7L208.33 341.45L208.18 341.2L208.03 340.95L207.89 340.69L207.75 340.43L207.61 340.18L207.47 339.92L207.34 339.66L207.21 339.4L207.08 339.13L206.96 338.87L206.83 338.6L206.71 338.34L206.59 338.07L206.48 337.8L206.36 337.53L206.25 337.26L206.15 336.99L206.04 336.71L205.94 336.44L205.84 336.16L205.74 335.89L205.65 335.61L205.55 335.33L205.47 335.05L205.38 334.77L205.29 334.49L205.21 334.21L205.13 333.93L204.97 333.31L204.82 332.69L204.67 332.07L204.53 331.45L204.4 330.83L204.28 330.21L204.17 329.58L204.06 328.95L203.96 328.33L203.88 327.7L203.8 327.07L203.72 326.44L203.66 325.81L203.61 325.18L203.56 324.55L203.52 323.92L203.49 323.29L203.47 322.65L203.46 322.02L203.46 321.39L203.46 320.76L203.47 320.13L203.49 319.49L203.52 318.86L203.56 318.23L203.61 317.6L203.66 316.97L203.72 316.34L203.8 315.71L203.88 315.08L203.96 314.45L204.06 313.82L204.17 313.2L204.28 312.57L204.4 311.95L204.53 311.33L204.67 310.71L204.82 310.09L204.97 309.47L205.13 308.85L205.21 308.57L205.29 308.29L205.38 308.01L205.47 307.73L205.56 307.45L205.65 307.17L205.74 306.89L205.84 306.62L205.94 306.34L206.04 306.07L206.15 305.79L206.26 305.52L206.37 305.25L206.48 304.98L206.59 304.71L206.71 304.44L206.83 304.18L206.96 303.91L207.08 303.65L207.21 303.39L207.34 303.12L207.47 302.86L207.61 302.61L207.75 302.35L207.89 302.09L208.03 301.84L208.18 301.58L208.33 301.33L208.48 301.08L208.63 300.83L208.79 300.58L208.94 300.34L209.1 300.09L209.27 299.85L209.43 299.6L209.6 299.36L209.77 299.12L209.94 298.89L210.12 298.65L210.29 298.42L210.47 298.19L210.65 297.97L210.83 297.75L211.01 297.53L211.2 297.32L211.38 297.1L211.57 296.89L211.76 296.68L211.96 296.48L212.16 296.27L212.35 296.07L212.56 295.87L212.76 295.67L212.96 295.48L213.17 295.29L213.38 295.1L213.59 294.91L213.81 294.72L214.02 294.54L214.24 294.36L214.46 294.18L214.68 294L214.91 293.83L215.13 293.66L215.36 293.49L215.59 293.33L215.82 293.16L216.05 293L216.29 292.84L216.53 292.69L216.76 292.53L217.01 292.38L217.25 292.24L217.49 292.09L217.74 291.95L217.99 291.81L218.23 291.67L218.49 291.54L218.74 291.41L218.99 291.28L219.38 291.09L219.78 290.91L220.17 290.73L220.57 290.57L220.97 290.42L221.36 290.28L221.76 290.14L222.16 290.02L222.55 289.9L222.94 289.79L223.33 289.69L223.72 289.6L224.1 289.51L224.48 289.43L224.85 289.35L225.22 289.29L225.58 289.22L225.94 289.17L226.29 289.12L226.63 289.07L226.97 289.03L227.3 288.99L227.62 288.95L227.93 288.92L228.23 288.9L228.52 288.87L228.8 288.85L229.07 288.83L229.33 288.81L229.58 288.79L229.82 288.78L230.04 288.76L230.25 288.75L230.44 288.74L230.62 288.72L230.78 288.71L230.93 288.69L231.07 288.68L231.19 288.66L231.29 288.64L231.46 288.64L231.63 288.64L231.8 288.64L231.97 288.65L232.14 288.65L232.31 288.66L232.49 288.66L232.66 288.67L232.83 288.68L233 288.69L233.17 288.7L233.34 288.71L233.51 288.73L233.68 288.74L233.85 288.76L234.02 288.77L234.19 288.79L234.36 288.81L234.53 288.83L234.7 288.85L234.87 288.87L235.04 288.89L235.21 288.91L235.38 288.94L235.55 288.97L235.72 288.99L235.89 289.02L236.06 289.05L236.23 289.08L236.39 289.11L236.56 289.14L236.73 289.18L236.9 289.21L237.07 289.25L237.23 289.28L237.4 289.32L237.57 289.36L237.73 289.4L237.9 289.44L238.07 289.48L238.23 289.52L238.39 289.57L238.55 289.61L238.72 289.66L238.88 289.7L239.04 289.75L239.2 289.8L239.36 289.85L239.52 289.9L239.68 289.95L239.84 290.01L239.99 290.06L240.15 290.12L240.31 290.17L240.47 290.23L240.62 290.29L240.78 290.35L240.94 290.41L241.09 290.48L241.25 290.54L241.4 290.61L241.56 290.67L241.71 290.74L241.86 290.81L242.01 290.88L242.17 290.95L242.32 291.02L242.47 291.09L242.62 291.17L242.77 291.24L242.92 291.32L243.07 291.4L243.21 291.48L243.36 291.56L243.51 291.64L243.66 291.72L243.8 291.8L243.95 291.89L244.09 291.97L244.24 292.06L244.38 292.15L244.52 292.23L244.66 292.32L244.8 292.41L244.94 292.5L245.08 292.6L245.22 292.69L245.36 292.78L245.49 292.88L245.63 292.98L245.77 293.07L245.9 293.17L246.03 293.27L246.17 293.37L246.3 293.47L246.43 293.57L246.56 293.68L246.69 293.78L246.82 293.89L246.95 293.99L247.08 294.1L247.2 294.21L247.33 294.32L247.45 294.43L247.58 294.54L247.7 294.65L247.82 294.77L247.95 294.88L248.07 294.99L248.19 295.11L248.31 295.23L248.42 295.34L248.54 295.46L248.66 295.58L248.77 295.7L248.89 295.82L249 295.95L249.11 296.07L249.23 296.19L249.34 296.32L249.45 296.45L249.56 296.58L249.67 296.71L249.78 296.84L249.89 296.98L249.99 297.11L250.1 297.25L250.2 297.38L250.3 297.52L250.4 297.66L250.5 297.8L250.6 297.94L250.7 298.08L250.79 298.22L250.89 298.37L250.98 298.51L251.07 298.65L251.16 298.8L251.25 298.95L251.33 299.09L251.42 299.24L251.5 299.39L251.58 299.54L251.67 299.69L251.75 299.84L251.82 299.99L251.9 300.15L251.98 300.3L252.05 300.45L252.12 300.61L252.19 300.76L252.26 300.92L252.33 301.08L252.4 301.24L252.46 301.39L252.53 301.55L252.59 301.71L252.65 301.87L252.71 302.04L252.76 302.2L253 302.2L253 266.69L260.56 266.69L260.56 352.33L253.6 352.33ZM230.26 295.01L229.76 295.04L229.28 295.09L228.81 295.14L228.36 295.21L227.92 295.28L227.5 295.36L227.1 295.45L226.71 295.54L226.34 295.64L225.98 295.74L225.64 295.85L225.31 295.96L225 296.07L224.7 296.18L224.42 296.29L224.15 296.4L223.9 296.51L223.66 296.61L223.44 296.72L223.23 296.81L223.03 296.9L222.85 296.99L222.68 297.07L222.53 297.14L222.39 297.2L222.26 297.25L222.15 297.29L222.05 297.32L221.8 297.48L221.55 297.64L221.3 297.8L221.06 297.96L220.82 298.13L220.58 298.3L220.35 298.48L220.11 298.66L219.88 298.84L219.66 299.03L219.43 299.21L219.21 299.41L218.99 299.6L218.78 299.8L218.56 300L218.35 300.21L218.15 300.41L217.94 300.63L217.74 300.84L217.55 301.06L217.35 301.28L217.16 301.5L216.97 301.72L216.79 301.95L216.61 302.18L216.43 302.42L216.26 302.66L216.08 302.9L215.92 303.14L215.75 303.38L215.59 303.64L215.42 303.9L215.26 304.17L215.1 304.43L214.95 304.7L214.8 304.97L214.65 305.24L214.5 305.51L214.36 305.78L214.22 306.06L214.09 306.33L213.96 306.61L213.83 306.89L213.7 307.17L213.58 307.45L213.46 307.74L213.35 308.02L213.23 308.31L213.13 308.6L213.02 308.88L212.92 309.17L212.82 309.47L212.72 309.76L212.63 310.05L212.54 310.35L212.46 310.64L212.38 310.94L212.3 311.24L212.23 311.54L212.15 311.84L212.08 312.15L212.01 312.46L211.94 312.78L211.87 313.09L211.81 313.41L211.75 313.72L211.69 314.04L211.63 314.35L211.57 314.67L211.52 314.99L211.47 315.3L211.43 315.62L211.38 315.94L211.34 316.26L211.3 316.57L211.26 316.89L211.23 317.21L211.2 317.53L211.17 317.85L211.14 318.17L211.12 318.49L211.1 318.81L211.08 319.13L211.06 319.45L211.05 319.77L211.03 320.09L211.02 320.41L211.02 320.74L211.01 321.06L211.01 321.38L211.01 321.7L211.02 322.02L211.02 322.34L211.03 322.66L211.05 322.98L211.06 323.3L211.08 323.62L211.1 323.94L211.12 324.26L211.14 324.58L211.17 324.9L211.2 325.22L211.23 325.54L211.26 325.86L211.3 326.18L211.34 326.5L211.38 326.82L211.43 327.13L211.47 327.45L211.52 327.77L211.57 328.08L211.63 328.4L211.69 328.72L211.75 329.03L211.81 329.35L211.87 329.66L211.94 329.97L212.01 330.29L212.08 330.6L212.15 330.91L212.23 331.21L212.3 331.51L212.38 331.81L212.46 332.11L212.54 332.41L212.63 332.7L212.72 332.99L212.82 333.29L212.92 333.58L213.02 333.87L213.13 334.16L213.23 334.45L213.35 334.73L213.46 335.02L213.58 335.3L213.7 335.58L213.83 335.86L213.96 336.14L214.09 336.42L214.22 336.7L214.36 336.97L214.5 337.25L214.65 337.52L214.8 337.79L214.95 338.06L215.1 338.32L215.26 338.59L215.42 338.85L215.59 339.11L215.75 339.37L215.92 339.62L216.08 339.86L216.26 340.1L216.43 340.34L216.61 340.57L216.79 340.8L216.97 341.03L217.16 341.26L217.35 341.48L217.55 341.7L217.74 341.92L217.94 342.13L218.15 342.34L218.35 342.55L218.56 342.75L218.78 342.96L218.99 343.15L219.21 343.35L219.43 343.54L219.66 343.73L219.88 343.92L220.11 344.1L220.35 344.28L220.58 344.45L220.82 344.62L221.06 344.79L221.3 344.96L221.55 345.12L221.8 345.28L222.05 345.43L222.44 345.66L222.83 345.87L223.22 346.06L223.61 346.24L224 346.4L224.4 346.55L224.79 346.69L225.18 346.81L225.57 346.93L225.95 347.03L226.33 347.12L226.7 347.2L227.07 347.27L227.42 347.34L227.77 347.39L228.11 347.44L228.44 347.48L228.75 347.52L229.06 347.55L229.35 347.58L229.62 347.6L229.88 347.63L230.13 347.64L230.35 347.66L230.56 347.68L230.75 347.69L230.92 347.71L231.07 347.73L231.2 347.75L231.3 347.77L231.89 347.76L232.47 347.74L233.02 347.71L233.55 347.67L234.07 347.61L234.56 347.55L235.04 347.48L235.5 347.4L235.95 347.31L236.37 347.22L236.78 347.12L237.17 347.01L237.55 346.91L237.9 346.8L238.24 346.69L238.57 346.58L238.87 346.47L239.16 346.36L239.44 346.25L239.7 346.14L239.94 346.04L240.17 345.94L240.38 345.85L240.57 345.77L240.76 345.69L240.92 345.62L241.07 345.55L241.21 345.5L241.33 345.46L241.44 345.43L241.71 345.28L241.97 345.13L242.23 344.97L242.49 344.81L242.75 344.64L243 344.47L243.25 344.3L243.5 344.12L243.74 343.94L243.98 343.76L244.22 343.57L244.46 343.38L244.69 343.19L244.92 342.99L245.15 342.79L245.37 342.58L245.59 342.37L245.81 342.16L246.02 341.95L246.24 341.73L246.44 341.51L246.65 341.28L246.85 341.05L247.05 340.82L247.24 340.59L247.43 340.35L247.62 340.11L247.8 339.87L247.98 339.62L248.16 339.37L248.33 339.12L248.51 338.86L248.67 338.59L248.84 338.33L249 338.07L249.15 337.8L249.31 337.53L249.46 337.26L249.61 336.99L249.75 336.71L249.89 336.44L250.03 336.16L250.16 335.88L250.29 335.6L250.42 335.32L250.54 335.03L250.66 334.75L250.77 334.46L250.89 334.17L250.99 333.88L251.1 333.59L251.2 333.3L251.3 333L251.39 332.71L251.48 332.41L251.57 332.12L251.65 331.82L251.73 331.52L251.81 331.22L251.88 330.91L252.03 330.29L252.16 329.66L252.29 329.03L252.41 328.39L252.51 327.76L252.61 327.12L252.69 326.49L252.77 325.85L252.84 325.21L252.89 324.58L252.94 323.94L252.97 323.3L253 322.66L253.01 322.02L253.02 321.38L253.01 320.74L253 320.1L252.97 319.46L252.94 318.82L252.89 318.18L252.84 317.54L252.77 316.9L252.69 316.26L252.61 315.63L252.51 314.99L252.41 314.36L252.29 313.73L252.16 313.1L252.03 312.47L251.88 311.84L251.81 311.54L251.73 311.24L251.65 310.94L251.57 310.64L251.48 310.34L251.39 310.04L251.3 309.75L251.2 309.45L251.1 309.16L250.99 308.87L250.89 308.58L250.77 308.29L250.66 308.01L250.54 307.72L250.42 307.44L250.29 307.15L250.16 306.87L250.03 306.6L249.89 306.32L249.75 306.04L249.61 305.77L249.46 305.5L249.31 305.22L249.15 304.96L249 304.69L248.84 304.42L248.67 304.16L248.51 303.9L248.33 303.64L248.16 303.38L247.98 303.13L247.8 302.89L247.62 302.64L247.43 302.4L247.24 302.17L247.05 301.93L246.85 301.7L246.65 301.47L246.44 301.25L246.24 301.03L246.02 300.81L245.81 300.59L245.59 300.38L245.37 300.17L245.15 299.97L244.92 299.77L244.69 299.57L244.46 299.38L244.22 299.18L243.98 299L243.74 298.81L243.5 298.63L243.25 298.46L243 298.28L242.75 298.11L242.49 297.95L242.23 297.79L241.97 297.63L241.71 297.47L241.44 297.32L241.03 297.1L240.61 296.89L240.18 296.7L239.75 296.52L239.33 296.35L238.9 296.21L238.47 296.07L238.04 295.94L237.62 295.83L237.2 295.73L236.79 295.64L236.38 295.56L235.98 295.49L235.59 295.42L235.2 295.37L234.83 295.32L234.47 295.27L234.12 295.24L233.78 295.2L233.46 295.18L233.16 295.15L232.87 295.13L232.6 295.11L232.35 295.09L232.12 295.08L231.91 295.06L231.72 295.04L231.56 295.03L231.42 295.01L231.3 294.99L230.77 294.99L230.26 295.01Z" id="ai2PTJXVh"></path><path d="M300.88 288.64L301.4 288.67L301.92 288.7L302.42 288.74L302.9 288.79L303.38 288.84L303.84 288.91L304.29 288.98L304.73 289.05L305.16 289.13L305.57 289.22L305.98 289.3L306.37 289.4L306.74 289.49L307.11 289.59L307.46 289.7L307.81 289.8L308.14 289.9L308.46 290.01L308.77 290.12L309.06 290.23L309.35 290.33L309.62 290.44L309.88 290.54L310.13 290.65L310.37 290.75L310.6 290.84L310.82 290.94L311.03 291.03L311.22 291.11L311.41 291.2L311.58 291.27L311.74 291.34L311.9 291.41L312.04 291.47L312.17 291.52L312.29 291.56L312.4 291.6L312.5 291.62L312.76 291.77L313.01 291.92L313.26 292.07L313.52 292.22L313.76 292.38L314.01 292.54L314.25 292.7L314.5 292.87L314.74 293.03L314.98 293.2L315.21 293.38L315.45 293.55L315.68 293.73L315.91 293.91L316.14 294.1L316.36 294.28L316.59 294.47L316.81 294.66L317.03 294.86L317.24 295.05L317.46 295.25L317.67 295.45L317.88 295.66L318.09 295.86L318.29 296.07L318.5 296.28L318.7 296.5L318.89 296.71L319.09 296.93L319.28 297.15L319.47 297.37L319.66 297.6L319.85 297.83L320.03 298.06L320.21 298.29L320.39 298.52L320.56 298.76L320.73 299L320.9 299.24L321.07 299.48L321.24 299.73L321.41 299.99L321.57 300.25L321.73 300.51L321.89 300.77L322.04 301.03L322.2 301.29L322.35 301.56L322.5 301.83L322.64 302.09L322.79 302.36L322.93 302.63L323.07 302.9L323.2 303.18L323.34 303.45L323.47 303.72L323.59 304L323.72 304.28L323.84 304.56L323.96 304.84L324.08 305.12L324.2 305.4L324.31 305.68L324.42 305.96L324.52 306.25L324.63 306.54L324.73 306.82L324.83 307.11L324.93 307.4L325.02 307.69L325.11 307.98L325.2 308.27L325.28 308.56L325.37 308.86L325.45 309.15L325.53 309.45L325.6 309.74L325.67 310.04L325.74 310.34L325.81 310.64L325.88 310.95L325.95 311.26L326.01 311.58L326.08 311.9L326.14 312.21L326.2 312.53L326.26 312.84L326.32 313.16L326.37 313.48L326.42 313.8L326.47 314.11L326.52 314.43L326.57 314.75L326.61 315.07L326.65 315.39L326.69 315.71L326.73 316.03L326.76 316.35L326.8 316.67L326.83 316.99L326.86 317.31L326.88 317.63L326.91 317.95L326.93 318.27L326.95 318.59L326.97 318.91L326.99 319.23L327 319.55L327.01 319.87L327.02 320.19L327.03 320.52L327.04 320.84L327.04 321.16L327.04 321.48L327.04 321.8L327.04 322.13L327.03 322.45L327.03 322.77L327.02 323.09L327.01 323.41L279.39 323.42L279.39 323.63L279.4 323.85L279.4 324.06L279.41 324.27L279.42 324.49L279.43 324.7L279.44 324.91L279.45 325.13L279.46 325.34L279.47 325.56L279.49 325.77L279.51 325.98L279.53 326.19L279.55 326.41L279.57 326.62L279.59 326.83L279.61 327.05L279.64 327.26L279.66 327.47L279.69 327.68L279.72 327.89L279.75 328.1L279.78 328.32L279.82 328.53L279.85 328.74L279.89 328.95L279.92 329.16L279.96 329.37L280 329.58L280.04 329.79L280.09 330L280.13 330.21L280.18 330.42L280.22 330.63L280.27 330.83L280.32 331.04L280.37 331.25L280.42 331.46L280.48 331.67L280.53 331.87L280.58 332.08L280.64 332.3L280.7 332.51L280.76 332.72L280.82 332.92L280.89 333.13L280.95 333.34L281.02 333.55L281.09 333.75L281.17 333.96L281.24 334.17L281.32 334.37L281.39 334.57L281.47 334.78L281.55 334.98L281.64 335.18L281.72 335.38L281.81 335.58L281.9 335.78L281.99 335.97L282.08 336.17L282.18 336.37L282.28 336.56L282.37 336.76L282.47 336.95L282.58 337.14L282.68 337.33L282.79 337.52L282.89 337.71L283 337.9L283.11 338.09L283.23 338.28L283.34 338.46L283.46 338.65L283.57 338.83L283.69 339.01L283.82 339.19L283.94 339.38L284.06 339.55L284.19 339.73L284.32 339.91L284.45 340.08L284.58 340.25L284.72 340.42L284.85 340.59L284.99 340.76L285.13 340.93L285.27 341.09L285.41 341.25L285.55 341.41L285.7 341.57L285.84 341.73L285.99 341.89L286.14 342.04L286.29 342.2L286.45 342.35L286.6 342.5L286.76 342.65L286.92 342.8L287.08 342.94L287.24 343.09L287.4 343.23L287.56 343.37L287.73 343.51L287.89 343.64L288.06 343.78L288.23 343.91L288.4 344.05L288.58 344.18L288.75 344.3L288.92 344.43L289.1 344.56L289.28 344.68L289.46 344.8L289.64 344.92L289.82 345.04L290 345.15L290.19 345.27L290.37 345.38L290.56 345.49L290.85 345.66L291.14 345.81L291.43 345.96L291.73 346.1L292.02 346.23L292.32 346.36L292.61 346.47L292.91 346.58L293.2 346.68L293.49 346.77L293.78 346.86L294.07 346.94L294.36 347.02L294.65 347.09L294.93 347.15L295.2 347.21L295.48 347.26L295.75 347.31L296.01 347.36L296.27 347.4L296.53 347.43L296.77 347.47L297.02 347.5L297.25 347.52L297.48 347.55L297.7 347.57L297.92 347.59L298.12 347.61L298.32 347.62L298.5 347.64L298.68 347.65L298.85 347.66L299.01 347.68L299.16 347.69L299.29 347.7L299.42 347.71L299.53 347.73L299.63 347.74L299.72 347.75L299.8 347.77L300.41 347.76L301 347.74L301.58 347.71L302.14 347.66L302.68 347.6L303.2 347.53L303.71 347.45L304.2 347.36L304.67 347.26L305.13 347.16L305.57 347.04L306 346.92L306.41 346.79L306.81 346.66L307.19 346.52L307.56 346.37L307.91 346.23L308.25 346.08L308.58 345.93L308.89 345.77L309.19 345.62L309.48 345.46L309.75 345.31L310.02 345.16L310.27 345.01L310.5 344.86L310.73 344.72L310.95 344.57L311.15 344.44L311.35 344.31L311.53 344.18L311.7 344.07L311.87 343.96L312.02 343.85L312.16 343.76L312.3 343.68L312.42 343.6L312.54 343.54L312.65 343.49L312.75 343.45L312.98 343.23L313.21 343.01L313.44 342.79L313.66 342.56L313.88 342.33L314.09 342.09L314.3 341.85L314.51 341.61L314.71 341.36L314.91 341.11L315.11 340.86L315.3 340.6L315.49 340.34L315.67 340.08L315.86 339.81L316.03 339.54L316.21 339.26L316.38 338.98L316.55 338.7L316.71 338.41L316.87 338.12L317.03 337.83L317.18 337.53L317.33 337.23L317.48 336.93L317.62 336.62L317.76 336.31L317.89 335.99L318.02 335.68L318.15 335.35L318.28 335.03L318.4 334.7L318.51 334.37L318.63 334.03L318.74 333.69L318.84 333.35L318.94 333L319.04 332.65L319.14 332.29L319.23 331.93L326.77 331.93L326.59 332.71L326.39 333.47L326.18 334.2L325.97 334.91L325.74 335.6L325.51 336.26L325.27 336.91L325.02 337.53L324.76 338.13L324.51 338.71L324.24 339.27L323.98 339.8L323.71 340.32L323.43 340.82L323.16 341.3L322.89 341.77L322.61 342.21L322.34 342.64L322.06 343.05L321.79 343.44L321.53 343.81L321.26 344.17L321 344.51L320.75 344.84L320.5 345.15L320.26 345.45L320.02 345.73L319.79 346L319.58 346.26L319.37 346.5L319.17 346.72L318.98 346.94L318.8 347.14L318.64 347.33L318.49 347.51L318.35 347.68L318.23 347.84L318.12 347.99L318.03 348.12L317.96 348.25L317.47 348.67L316.97 349.07L316.46 349.44L315.94 349.8L315.41 350.13L314.87 350.44L314.33 350.73L313.78 351.01L313.22 351.26L312.67 351.5L312.11 351.72L311.55 351.93L310.98 352.12L310.42 352.29L309.87 352.45L309.31 352.6L308.76 352.74L308.22 352.86L307.68 352.97L307.15 353.07L306.63 353.17L306.11 353.25L305.61 353.32L305.12 353.39L304.64 353.45L304.18 353.51L303.73 353.56L303.3 353.6L302.89 353.64L302.49 353.68L302.12 353.71L301.76 353.74L301.43 353.77L301.12 353.8L300.83 353.83L300.57 353.86L300.33 353.89L300.12 353.93L299.94 353.97L299.79 354.01L299.25 354L298.72 353.99L298.2 353.97L297.69 353.94L297.2 353.91L296.72 353.87L296.24 353.82L295.79 353.76L295.34 353.71L294.9 353.64L294.48 353.57L294.07 353.5L293.67 353.42L293.28 353.34L292.9 353.26L292.54 353.17L292.18 353.09L291.84 353L291.51 352.91L291.19 352.82L290.88 352.72L290.59 352.63L290.3 352.54L290.03 352.45L289.76 352.36L289.51 352.27L289.27 352.18L289.04 352.1L288.82 352.02L288.61 351.94L288.42 351.87L288.23 351.8L288.06 351.73L287.89 351.67L287.74 351.62L287.6 351.57L287.46 351.52L287.34 351.48L287.23 351.45L287.13 351.43L286.88 351.31L286.62 351.18L286.37 351.05L286.12 350.92L285.87 350.79L285.62 350.65L285.37 350.51L285.13 350.36L284.89 350.22L284.65 350.07L284.41 349.92L284.17 349.76L283.94 349.6L283.7 349.44L283.47 349.28L283.24 349.11L283.02 348.95L282.79 348.77L282.57 348.6L282.35 348.42L282.13 348.24L281.92 348.06L281.7 347.88L281.49 347.69L281.28 347.5L281.08 347.31L280.87 347.11L280.67 346.91L280.47 346.71L280.27 346.51L280.08 346.31L279.89 346.1L279.7 345.89L279.51 345.68L279.32 345.46L279.14 345.24L278.96 345.02L278.78 344.8L278.61 344.58L278.44 344.35L278.26 344.12L278.09 343.88L277.93 343.64L277.76 343.4L277.6 343.16L277.44 342.92L277.28 342.67L277.13 342.42L276.97 342.18L276.82 341.93L276.68 341.68L276.53 341.43L276.39 341.17L276.24 340.92L276.11 340.66L275.97 340.41L275.84 340.15L275.71 339.89L275.58 339.63L275.45 339.37L275.33 339.11L275.21 338.84L275.09 338.58L274.97 338.31L274.86 338.04L274.74 337.78L274.64 337.51L274.53 337.24L274.43 336.96L274.32 336.69L274.23 336.42L274.13 336.14L274.04 335.87L273.95 335.59L273.86 335.31L273.77 335.03L273.69 334.76L273.61 334.48L273.53 334.19L273.46 333.91L273.37 333.61L273.3 333.3L273.22 332.99L273.14 332.68L273.07 332.37L273 332.06L272.93 331.76L272.86 331.45L272.8 331.14L272.74 330.82L272.68 330.51L272.62 330.2L272.56 329.89L272.51 329.58L272.46 329.27L272.41 328.95L272.36 328.64L272.31 328.33L272.27 328.01L272.23 327.7L272.19 327.39L272.15 327.07L272.12 326.76L272.08 326.44L272.05 326.13L272.02 325.81L272 325.49L271.97 325.18L271.95 324.86L271.93 324.55L271.91 324.23L271.89 323.91L271.88 323.6L271.87 323.28L271.86 322.96L271.85 322.65L271.84 322.33L271.84 322.01L271.84 321.7L271.84 321.38L271.84 321.07L271.84 320.77L271.85 320.47L271.85 320.16L271.86 319.86L271.87 319.56L271.89 319.25L271.9 318.95L271.92 318.65L271.94 318.34L271.96 318.04L271.98 317.74L272.01 317.44L272.03 317.13L272.06 316.83L272.1 316.53L272.13 316.23L272.16 315.93L272.2 315.63L272.24 315.32L272.28 315.02L272.33 314.72L272.37 314.42L272.42 314.12L272.47 313.83L272.52 313.53L272.57 313.23L272.63 312.93L272.69 312.63L272.75 312.33L272.81 312.04L272.87 311.74L272.94 311.44L273.01 311.15L273.08 310.85L273.15 310.56L273.22 310.26L273.3 309.97L273.38 309.67L273.46 309.38L273.53 309.1L273.61 308.82L273.69 308.54L273.78 308.26L273.87 307.98L273.96 307.7L274.05 307.42L274.14 307.15L274.24 306.87L274.34 306.6L274.44 306.32L274.55 306.05L274.65 305.78L274.76 305.51L274.87 305.24L274.99 304.97L275.1 304.7L275.22 304.44L275.34 304.17L275.47 303.91L275.59 303.64L275.72 303.38L275.85 303.12L275.99 302.86L276.12 302.6L276.26 302.35L276.4 302.09L276.54 301.84L276.69 301.58L276.84 301.33L276.99 301.08L277.14 300.83L277.29 300.58L277.45 300.33L277.61 300.09L277.77 299.85L277.93 299.6L278.1 299.36L278.27 299.12L278.44 298.88L278.61 298.65L278.78 298.42L278.96 298.19L279.14 297.97L279.32 297.74L279.51 297.52L279.7 297.3L279.89 297.08L280.08 296.87L280.28 296.66L280.47 296.44L280.67 296.24L280.87 296.03L281.08 295.83L281.29 295.63L281.49 295.43L281.71 295.23L281.92 295.04L282.14 294.85L282.35 294.66L282.57 294.47L282.79 294.29L283.02 294.11L283.25 293.93L283.47 293.76L283.7 293.58L283.94 293.41L284.17 293.24L284.41 293.08L284.65 292.92L284.89 292.76L285.13 292.6L285.37 292.45L285.62 292.3L285.87 292.15L286.12 292L286.37 291.86L286.62 291.72L286.87 291.58L287.13 291.45L287.53 291.24L287.94 291.04L288.34 290.86L288.75 290.69L289.16 290.53L289.56 290.37L289.97 290.23L290.38 290.1L290.78 289.97L291.18 289.85L291.58 289.75L291.98 289.65L292.37 289.55L292.76 289.47L293.15 289.39L293.53 289.31L293.9 289.25L294.27 289.19L294.63 289.13L294.99 289.08L295.33 289.04L295.67 289L296 288.96L296.32 288.93L296.63 288.9L296.93 288.87L297.23 288.85L297.5 288.82L297.77 288.81L298.03 288.79L298.27 288.77L298.5 288.76L298.71 288.74L298.91 288.73L299.1 288.71L299.27 288.7L299.42 288.68L299.56 288.66L299.68 288.64L299.79 288.62L300.34 288.63L300.88 288.64ZM298.56 295.01L298.15 295.04L297.75 295.07L297.34 295.11L296.94 295.17L296.53 295.23L296.13 295.3L295.73 295.38L295.34 295.47L294.94 295.57L294.55 295.67L294.16 295.79L293.77 295.91L293.39 296.05L293 296.19L292.63 296.34L292.25 296.5L291.88 296.67L291.51 296.85L291.17 297.03L290.84 297.21L290.52 297.39L290.19 297.59L289.88 297.79L289.56 298L289.25 298.21L288.94 298.43L288.64 298.65L288.34 298.88L288.05 299.11L287.76 299.36L287.48 299.6L287.2 299.85L286.93 300.11L286.66 300.38L286.39 300.64L286.14 300.92L285.88 301.2L285.63 301.48L285.39 301.77L285.15 302.07L284.91 302.38L284.67 302.69L284.45 303.01L284.22 303.33L284 303.65L283.79 303.98L283.58 304.3L283.38 304.64L283.18 304.97L282.99 305.31L282.8 305.65L282.62 306L282.45 306.34L282.28 306.69L282.11 307.04L281.95 307.4L281.8 307.76L281.65 308.12L281.51 308.48L281.37 308.85L281.23 309.23L281.1 309.61L280.97 309.99L280.84 310.37L280.72 310.76L280.6 311.15L280.49 311.53L280.38 311.92L280.28 312.31L280.18 312.7L280.08 313.1L279.99 313.49L279.91 313.88L279.83 314.28L279.75 314.68L279.68 315.07L279.61 315.47L279.55 315.87L279.49 316.27L279.44 316.67L279.39 317.07L319.46 317.07L319.45 316.67L319.43 316.27L319.41 315.86L319.38 315.46L319.34 315.06L319.3 314.66L319.25 314.26L319.2 313.86L319.14 313.46L319.08 313.07L319.01 312.67L318.93 312.28L318.85 311.88L318.76 311.49L318.66 311.1L318.56 310.71L318.46 310.32L318.35 309.93L318.23 309.55L318.11 309.16L317.98 308.78L317.85 308.42L317.72 308.06L317.58 307.7L317.43 307.34L317.28 306.99L317.12 306.64L316.96 306.29L316.79 305.95L316.62 305.61L316.43 305.27L316.25 304.93L316.06 304.6L315.86 304.27L315.65 303.94L315.45 303.62L315.23 303.3L315.01 302.99L314.79 302.67L314.56 302.37L314.32 302.06L314.08 301.76L313.84 301.47L313.59 301.19L313.33 300.91L313.07 300.64L312.81 300.37L312.54 300.11L312.26 299.85L311.98 299.6L311.7 299.35L311.41 299.11L311.12 298.87L310.82 298.65L310.52 298.42L310.21 298.2L309.9 297.99L309.58 297.79L309.26 297.59L308.94 297.39L308.61 297.21L308.28 297.03L307.94 296.85L307.58 296.67L307.21 296.51L306.84 296.35L306.47 296.19L306.09 296.05L305.72 295.92L305.33 295.79L304.95 295.68L304.56 295.57L304.17 295.47L303.78 295.38L303.39 295.3L302.99 295.23L302.6 295.17L302.2 295.12L301.8 295.07L301.4 295.04L301 295.01L300.59 295L300.19 294.99L299.79 294.99L299.38 294.99L298.97 295L298.56 295.01Z" id="d3x4ndHKlz"></path><path d="M341.65 352.33L341.65 339.61L351.73 339.61L351.73 352.33L341.65 352.33Z" id="aac4WaLBM"></path><path d="M407.63 308.54C407.61 306.44 407.12 304.37 406.19 302.48C405.35 300.81 404.13 299.35 402.64 298.22C401.12 297.08 399.39 296.24 397.54 295.76C395.55 295.23 393.49 294.97 391.42 294.98C389.71 294.99 388 295.17 386.32 295.52C384.66 295.86 383.06 296.47 381.59 297.32C380.18 298.13 378.99 299.26 378.11 300.62C376.79 302.68 376.92 305.16 376.79 305.66C376.74 307.18 377.18 308.67 378.05 309.92C378.9 311.1 379.99 312.09 381.23 312.86C382.55 313.68 383.96 314.34 385.43 314.83C386.95 315.36 388.35 315.78 389.63 316.1C395.67 317.46 399.03 318.22 399.7 318.38C401.9 318.7 404.05 319.29 406.12 320.11C408.16 320.91 410.06 322.02 411.76 323.41C413.42 324.81 414.79 326.52 415.78 328.45C417.34 331.45 417.18 334.82 417.34 335.53C417.34 340.57 415.29 343.24 415.06 344.1C413.57 346.43 411.58 348.4 409.23 349.86C406.78 351.38 404.09 352.47 401.27 353.06C398.39 353.69 395.46 354.02 392.51 354.02C381.59 354.02 376.58 349.38 374.81 348.86C370.3 345.42 367.72 339.91 367.08 332.31C371.6 332.31 374.12 332.31 374.62 332.31C375.1 339.99 379.64 342.73 380.2 343.89C385.29 347.79 391.59 347.39 392.85 347.78C394.77 347.78 396.68 347.58 398.55 347.18C400.47 346.8 402.31 346.11 404.01 345.14C405.63 344.23 407.04 342.99 408.15 341.49C409.77 339.27 409.61 336.57 409.77 336.03C409.77 333.26 408.74 331.87 408.63 331.41C407.85 330.15 406.81 329.09 405.57 328.29C404.2 327.41 402.73 326.7 401.19 326.19C399.55 325.63 397.89 325.15 396.21 324.75C390.38 323.45 387.14 322.74 386.5 322.59C384.16 322 381.87 321.26 379.64 320.37C377.68 319.6 375.84 318.55 374.18 317.25C372.63 316.03 371.38 314.47 370.52 312.69C369.2 310 369.34 306.7 369.2 306.04C369.2 301.36 371.09 298.8 371.3 298C372.67 295.79 374.54 293.94 376.76 292.6C379.08 291.21 381.61 290.19 384.26 289.6C386.95 288.97 389.71 288.65 392.48 288.64C395.43 288.62 398.35 289.02 401.18 289.84C403.77 290.59 406.17 291.86 408.26 293.56C410.31 295.26 411.97 297.39 413.12 299.8C414.32 302.28 415 305.19 415.16 308.56C411.14 308.55 408.64 308.54 407.63 308.54Z" id="b1pS7ZZZuH"></path><path d="M471.93 309.88C470.37 302.92 466.75 300.05 466.18 298.96C461.98 295 455.59 295.4 454.42 295C449.02 295 445.89 297.05 444.94 297.28C442.27 298.76 439.95 300.8 438.16 303.28C436.32 305.84 434.94 308.7 434.08 311.73C432.24 318.04 432.24 324.74 434.08 331.05C434.94 334.08 436.32 336.94 438.16 339.51C439.95 341.98 442.27 344.03 444.94 345.5C449.02 347.78 453.47 347.56 454.42 347.78C456.68 347.8 458.93 347.35 461.01 346.46C463.07 345.59 464.94 344.34 466.54 342.78C468.18 341.17 469.52 339.29 470.5 337.21C471.56 334.99 472.22 332.59 472.43 330.14C473.18 330.14 479.21 330.14 479.97 330.14C478.41 341.41 472.52 345.95 471.69 347.71C464.97 354.01 456.14 353.38 454.41 354.01C447.34 354.01 443.13 351.69 441.88 351.43C438.34 349.79 435.21 347.39 432.7 344.41C430.16 341.35 428.25 337.82 427.06 334.03C424.5 325.79 424.5 316.96 427.06 308.72C428.25 304.93 430.17 301.41 432.7 298.34C435.22 295.36 438.35 292.94 441.88 291.27C447.34 288.62 453.16 288.89 454.41 288.63C464.37 288.63 469.58 293.38 471.27 293.91C475.87 297.43 478.61 302.74 479.5 309.86C475.46 309.87 472.94 309.87 471.93 309.88Z" id="fIeq0BRSP"></path><path d="M514.88 288.63L515.08 288.63L515.29 288.63L515.49 288.63L515.7 288.64L515.9 288.64L516.11 288.65L516.31 288.65L516.52 288.66L516.72 288.67L516.93 288.68L517.13 288.69L517.34 288.7L517.54 288.71L517.75 288.72L517.95 288.74L518.16 288.75L518.36 288.77L518.57 288.79L518.77 288.81L518.97 288.82L519.18 288.84L519.38 288.87L519.59 288.89L519.79 288.91L519.99 288.93L520.2 288.96L520.4 288.98L520.6 289.01L520.81 289.04L521.01 289.07L521.21 289.1L521.42 289.13L521.62 289.16L521.82 289.19L522.03 289.22L522.23 289.26L522.43 289.29L522.63 289.33L522.83 289.37L523.04 289.41L523.23 289.44L523.43 289.48L523.62 289.52L523.82 289.56L524.01 289.61L524.2 289.66L524.39 289.7L524.59 289.75L524.78 289.81L524.97 289.86L525.16 289.92L525.35 289.98L525.54 290.03L525.73 290.1L525.91 290.16L526.1 290.23L526.29 290.29L526.47 290.36L526.66 290.43L526.84 290.51L527.03 290.58L527.21 290.66L527.39 290.74L527.57 290.82L527.75 290.9L527.93 290.98L528.11 291.07L528.29 291.16L528.47 291.25L528.64 291.34L528.82 291.43L528.99 291.52L529.17 291.62L529.34 291.72L529.51 291.82L529.68 291.92L529.85 292.03L530.02 292.13L530.19 292.24L530.35 292.35L530.52 292.46L530.69 292.58L530.85 292.7L531.01 292.82L531.18 292.95L531.33 293.07L531.49 293.2L531.65 293.33L531.8 293.46L531.96 293.6L532.11 293.73L532.25 293.87L532.4 294.01L532.55 294.15L532.69 294.3L532.83 294.44L532.97 294.59L533.11 294.74L533.25 294.89L533.38 295.04L533.51 295.19L533.64 295.35L533.77 295.5L533.9 295.66L534.02 295.82L534.14 295.98L534.26 296.15L534.38 296.31L534.5 296.48L534.61 296.65L534.72 296.81L534.83 296.99L534.94 297.16L535.04 297.33L535.15 297.51L535.25 297.68L535.35 297.86L535.44 298.04L535.54 298.22L535.63 298.4L535.73 298.6L535.83 298.8L535.93 299L536.02 299.21L536.11 299.42L536.2 299.63L536.29 299.84L536.37 300.06L536.45 300.28L536.53 300.5L536.61 300.73L536.68 300.96L536.75 301.19L536.82 301.42L536.88 301.66L536.95 301.9L537.01 302.14L537.07 302.39L537.12 302.64L537.17 302.89L537.22 303.14L537.27 303.4L537.32 303.66L537.36 303.93L537.4 304.19L537.44 304.46L537.47 304.74L537.5 305.01L537.53 305.29L537.56 305.57L537.58 305.85L537.61 306.14L537.63 306.43L537.64 306.72L537.66 307.02L537.67 307.32L537.68 307.62L537.68 307.92L537.69 308.23L537.69 308.54L537.69 341.41L537.7 341.74L537.72 342.06L537.75 342.35L537.8 342.63L537.86 342.9L537.93 343.14L538.02 343.37L538.11 343.59L538.21 343.79L538.32 343.98L538.44 344.16L538.57 344.32L538.7 344.47L538.84 344.61L538.98 344.74L539.13 344.85L539.28 344.96L539.43 345.06L539.59 345.15L539.75 345.23L539.91 345.3L540.07 345.37L540.23 345.43L540.38 345.48L540.54 345.53L540.69 345.57L540.84 345.61L540.98 345.64L541.13 345.68L541.26 345.7L541.39 345.73L541.51 345.76L541.62 345.78L541.73 345.8L541.82 345.83L541.91 345.85L541.99 345.88L542.05 345.9L542.1 345.93L542.14 345.97L542.21 345.97L542.27 345.97L542.33 345.97L542.39 345.96L542.45 345.96L542.51 345.96L542.58 345.96L542.64 345.95L542.7 345.95L542.76 345.94L542.82 345.94L542.88 345.93L542.94 345.92L543 345.91L543.07 345.91L543.13 345.9L543.19 345.89L543.25 345.88L543.31 345.87L543.37 345.85L543.43 345.84L543.49 345.83L543.55 345.81L543.61 345.8L543.67 345.79L543.73 345.77L543.79 345.75L543.85 345.74L543.91 345.72L543.96 345.7L544.02 345.68L544.08 345.66L544.14 345.64L544.2 345.62L544.26 345.6L544.31 345.58L544.37 345.56L544.43 345.53L544.49 345.51L544.54 345.49L544.54 351.85L544.44 351.86L544.35 351.88L544.25 351.9L544.16 351.91L544.07 351.93L543.98 351.94L543.9 351.96L543.81 351.97L543.73 351.99L543.65 352L543.57 352.01L543.5 352.02L543.42 352.03L543.35 352.05L543.28 352.06L543.21 352.07L543.15 352.08L543.09 352.09L543.02 352.09L542.96 352.1L542.91 352.11L542.85 352.12L542.8 352.13L542.75 352.13L542.7 352.14L542.65 352.15L542.6 352.15L542.56 352.16L542.52 352.16L542.44 352.17L542.38 352.18L542.34 352.19L542.32 352.19L542.29 352.19L542.26 352.2L542.24 352.2L542.22 352.2L542.2 352.21L542.14 352.21L542.07 352.22L542.01 352.22L541.95 352.23L541.88 352.24L541.82 352.24L541.75 352.25L541.69 352.25L541.62 352.26L541.56 352.26L541.49 352.27L541.43 352.27L541.37 352.28L541.3 352.28L541.24 352.28L541.17 352.29L541.11 352.29L541.04 352.29L540.98 352.3L540.92 352.3L540.85 352.3L540.79 352.31L540.72 352.31L540.66 352.31L540.59 352.31L540.53 352.32L540.46 352.32L540.4 352.32L540.33 352.32L540.27 352.32L540.21 352.32L540.14 352.32L540.08 352.32L540.01 352.33L539.95 352.33L539.88 352.33L539.82 352.33L539.75 352.33L539.69 352.33L539.62 352.33L539.41 352.32L539.2 352.32L539 352.31L538.81 352.31L538.62 352.29L538.43 352.28L538.25 352.27L538.08 352.25L537.91 352.23L537.75 352.21L537.59 352.19L537.44 352.17L537.3 352.15L537.15 352.12L537.02 352.1L536.89 352.07L536.76 352.05L536.64 352.02L536.52 351.99L536.41 351.97L536.3 351.94L536.19 351.91L536.1 351.88L536 351.85L535.91 351.83L535.82 351.8L535.74 351.77L535.66 351.75L535.59 351.72L535.52 351.7L535.45 351.68L535.39 351.66L535.33 351.64L535.27 351.62L535.22 351.6L535.17 351.59L535.12 351.57L535.08 351.56L535.04 351.55L535 351.55L534.92 351.51L534.84 351.47L534.76 351.44L534.68 351.4L534.6 351.36L534.52 351.32L534.44 351.27L534.37 351.23L534.29 351.19L534.21 351.14L534.14 351.09L534.07 351.05L533.99 351L533.92 350.95L533.85 350.9L533.77 350.85L533.7 350.79L533.63 350.74L533.56 350.69L533.49 350.63L533.43 350.57L533.36 350.52L533.29 350.46L533.23 350.4L533.16 350.34L533.1 350.28L533.04 350.21L532.98 350.15L532.91 350.09L532.85 350.02L532.79 349.96L532.74 349.89L532.68 349.82L532.62 349.75L532.57 349.68L532.51 349.61L532.46 349.54L532.41 349.47L532.35 349.4L532.3 349.33L532.25 349.25L532.21 349.17L532.16 349.09L532.11 349.01L532.06 348.93L532.02 348.85L531.97 348.77L531.93 348.69L531.89 348.61L531.85 348.53L531.81 348.44L531.77 348.36L531.73 348.28L531.69 348.19L531.65 348.11L531.62 348.02L531.58 347.94L531.55 347.85L531.52 347.77L531.48 347.68L531.45 347.6L531.42 347.51L531.39 347.42L531.37 347.33L531.34 347.25L531.31 347.16L531.29 347.07L531.26 346.98L531.24 346.89L531.22 346.8L531.19 346.71L531.17 346.62L531.15 346.53L531.14 346.44L531.12 346.35L531.1 346.26L531.09 346.17L531.07 346.08L531.06 345.99L531.05 345.9L531.03 345.79L531.01 345.68L531 345.57L530.99 345.46L530.97 345.35L530.96 345.24L530.95 345.14L530.93 345.03L530.92 344.92L530.91 344.81L530.9 344.7L530.89 344.59L530.88 344.48L530.87 344.37L530.86 344.26L530.85 344.15L530.84 344.04L530.83 343.93L530.82 343.82L530.81 343.71L530.81 343.6L530.8 343.49L530.79 343.39L530.79 343.28L530.78 343.17L530.78 343.06L530.77 342.95L530.77 342.84L530.76 342.73L530.76 342.62L530.75 342.51L530.75 342.4L530.75 342.29L530.75 342.18L530.75 342.07L530.74 341.96L530.74 341.85L530.74 341.74L530.74 341.63L530.74 341.52L530.5 341.52L530.41 341.66L530.31 341.8L530.22 341.94L530.12 342.08L530.03 342.22L529.93 342.35L529.83 342.49L529.73 342.63L529.64 342.77L529.54 342.9L529.44 343.04L529.34 343.18L529.24 343.31L529.14 343.45L529.04 343.58L528.93 343.72L528.83 343.85L528.73 343.99L528.63 344.12L528.52 344.26L528.42 344.39L528.32 344.52L528.21 344.66L528.11 344.79L528 344.92L527.9 345.05L527.79 345.18L527.68 345.31L527.57 345.45L527.47 345.58L527.36 345.71L527.25 345.83L527.14 345.96L527.03 346.09L526.92 346.22L526.81 346.35L526.7 346.48L526.59 346.6L526.48 346.73L526.37 346.86L526.26 346.97L526.16 347.09L526.06 347.2L525.95 347.31L525.85 347.42L525.74 347.53L525.63 347.64L525.53 347.75L525.42 347.85L525.31 347.96L525.2 348.07L525.09 348.17L524.98 348.28L524.86 348.38L524.75 348.48L524.64 348.58L524.52 348.68L524.41 348.78L524.29 348.88L524.17 348.98L524.06 349.08L523.94 349.18L523.82 349.27L523.7 349.37L523.58 349.46L523.46 349.55L523.33 349.64L523.21 349.73L523.09 349.82L522.96 349.91L522.84 350L522.71 350.09L522.59 350.18L522.46 350.26L522.33 350.35L522.21 350.43L522.08 350.51L521.95 350.59L521.82 350.68L521.69 350.76L521.55 350.84L521.41 350.92L521.27 350.99L521.13 351.07L520.99 351.15L520.85 351.22L520.71 351.3L520.57 351.37L520.43 351.45L520.29 351.52L520.15 351.59L520 351.66L519.86 351.72L519.71 351.79L519.57 351.86L519.42 351.92L519.28 351.99L519.13 352.05L518.99 352.11L518.84 352.17L518.69 352.23L518.54 352.29L518.39 352.35L518.24 352.4L518.1 352.46L517.95 352.51L517.8 352.57L517.65 352.62L517.49 352.67L517.34 352.72L517.19 352.77L517.04 352.82L516.89 352.86L516.73 352.91L516.58 352.95L516.43 352.99L516.27 353.04L516.12 353.08L515.96 353.12L515.81 353.15L515.62 353.2L515.42 353.24L515.23 353.28L515.04 353.33L514.84 353.37L514.65 353.4L514.45 353.44L514.26 353.48L514.06 353.51L513.87 353.55L513.67 353.58L513.48 353.61L513.28 353.64L513.08 353.67L512.89 353.7L512.69 353.72L512.5 353.75L512.3 353.77L512.1 353.79L511.91 353.82L511.71 353.84L511.51 353.86L511.32 353.87L511.12 353.89L510.92 353.91L510.72 353.92L510.53 353.93L510.33 353.95L510.13 353.96L509.93 353.97L509.73 353.97L509.54 353.98L509.34 353.99L509.14 353.99L508.94 354L508.74 354L508.55 354L508.35 354L508.15 354L507.95 353.99L507.75 353.99L507.54 353.99L507.34 353.99L507.13 353.99L506.93 353.98L506.72 353.98L506.52 353.97L506.31 353.96L506.11 353.95L505.9 353.94L505.7 353.93L505.5 353.91L505.29 353.9L505.09 353.88L504.88 353.86L504.68 353.84L504.48 353.82L504.27 353.8L504.07 353.77L503.87 353.75L503.67 353.72L503.46 353.69L503.26 353.66L503.06 353.63L502.86 353.6L502.66 353.57L502.45 353.53L502.25 353.5L502.05 353.46L501.85 353.42L501.65 353.38L501.45 353.34L501.25 353.3L501.05 353.26L500.85 353.21L500.65 353.16L500.45 353.12L500.25 353.07L500.05 353.02L499.85 352.97L499.68 352.92L499.5 352.87L499.32 352.82L499.14 352.77L498.96 352.71L498.79 352.65L498.61 352.6L498.44 352.54L498.26 352.47L498.09 352.41L497.92 352.35L497.74 352.28L497.57 352.21L497.4 352.14L497.23 352.07L497.06 351.99L496.89 351.92L496.72 351.84L496.56 351.76L496.39 351.68L496.23 351.6L496.06 351.52L495.9 351.43L495.73 351.34L495.57 351.25L495.41 351.16L495.25 351.07L495.09 350.98L494.93 350.88L494.78 350.79L494.62 350.69L494.46 350.59L494.31 350.48L494.16 350.38L494 350.28L493.85 350.17L493.7 350.06L493.55 349.95L493.4 349.84L493.26 349.73L493.11 349.61L492.97 349.5L492.83 349.38L492.7 349.26L492.56 349.14L492.42 349.02L492.29 348.9L492.16 348.77L492.03 348.65L491.9 348.52L491.77 348.39L491.65 348.26L491.52 348.13L491.4 348L491.28 347.86L491.16 347.73L491.04 347.59L490.92 347.45L490.81 347.31L490.7 347.17L490.59 347.03L490.48 346.88L490.37 346.74L490.26 346.59L490.16 346.44L490.05 346.29L489.95 346.14L489.85 345.99L489.76 345.84L489.66 345.69L489.57 345.53L489.47 345.37L489.38 345.22L489.29 345.06L489.21 344.9L489.12 344.74L489.04 344.58L488.96 344.41L488.88 344.25L488.8 344.09L488.68 343.83L488.57 343.57L488.47 343.31L488.37 343.05L488.27 342.79L488.19 342.53L488.1 342.26L488.03 342L487.95 341.75L487.89 341.49L487.83 341.23L487.77 340.98L487.71 340.73L487.67 340.48L487.62 340.23L487.58 339.99L487.54 339.75L487.51 339.51L487.47 339.28L487.44 339.06L487.42 338.83L487.39 338.62L487.37 338.41L487.35 338.2L487.34 338L487.32 337.81L487.31 337.63L487.3 337.45L487.28 337.28L487.27 337.11L487.26 336.96L487.26 336.81L487.25 336.68L487.24 336.55L487.23 336.43L487.22 336.32L487.21 336.22L487.2 336.13L487.19 336.06L487.18 335.99L487.18 335.51L487.2 335.05L487.22 334.6L487.25 334.16L487.29 333.74L487.34 333.33L487.39 332.93L487.45 332.54L487.52 332.17L487.59 331.81L487.67 331.47L487.75 331.13L487.83 330.81L487.92 330.5L488.01 330.2L488.11 329.91L488.21 329.64L488.31 329.37L488.41 329.12L488.51 328.87L488.61 328.64L488.72 328.41L488.82 328.2L488.92 327.99L489.02 327.8L489.12 327.61L489.22 327.43L489.31 327.26L489.4 327.1L489.49 326.95L489.57 326.81L489.65 326.67L489.72 326.54L489.79 326.42L489.85 326.31L489.91 326.21L489.96 326.11L490 326.02L490.03 325.93L490.06 325.85L490.21 325.66L490.36 325.48L490.52 325.3L490.68 325.12L490.84 324.94L491 324.77L491.17 324.59L491.33 324.42L491.5 324.25L491.67 324.09L491.85 323.92L492.02 323.76L492.2 323.6L492.38 323.45L492.56 323.29L492.75 323.14L492.93 322.99L493.12 322.84L493.31 322.7L493.5 322.56L493.69 322.42L493.89 322.28L494.08 322.15L494.28 322.02L494.48 321.89L494.68 321.76L494.89 321.64L495.09 321.51L495.3 321.4L495.51 321.28L495.72 321.17L495.93 321.06L496.14 320.95L496.36 320.84L496.58 320.74L496.79 320.64L497.01 320.55L497.23 320.45L497.45 320.36L497.68 320.27L497.94 320.17L498.19 320.08L498.45 319.98L498.71 319.88L498.97 319.79L499.23 319.7L499.49 319.61L499.75 319.52L500.02 319.43L500.28 319.35L500.54 319.26L500.81 319.18L501.07 319.1L501.33 319.02L501.6 318.94L501.86 318.87L502.13 318.8L502.4 318.72L502.66 318.65L502.93 318.59L503.2 318.52L503.47 318.45L503.74 318.39L504 318.33L504.27 318.27L504.54 318.21L504.81 318.15L505.08 318.1L505.35 318.04L505.63 317.99L505.9 317.94L506.17 317.9L506.44 317.85L506.71 317.8L506.99 317.76L507.26 317.72L507.53 317.68L507.81 317.64L508.08 317.61L508.36 317.57L508.8 317.52L509.24 317.46L509.67 317.4L510.1 317.35L510.53 317.29L510.95 317.24L511.36 317.19L511.77 317.13L512.18 317.08L512.58 317.03L512.97 316.98L513.35 316.94L513.73 316.89L514.1 316.84L514.46 316.8L514.82 316.75L515.16 316.71L515.5 316.67L515.84 316.63L516.16 316.59L516.47 316.55L516.78 316.51L517.07 316.48L517.36 316.44L517.63 316.41L517.9 316.38L518.15 316.35L518.4 316.32L518.63 316.29L518.85 316.26L519.26 316.21L519.45 316.19L519.63 316.17L519.79 316.15L519.94 316.13L520.08 316.12L520.2 316.1L520.31 316.09L520.41 316.08L520.59 316.06L520.76 316.04L520.93 316.02L521.1 316L521.26 315.98L521.42 315.96L521.58 315.94L521.73 315.93L521.88 315.91L522.02 315.89L522.16 315.87L522.3 315.85L522.43 315.83L522.56 315.81L522.68 315.79L522.8 315.78L522.92 315.76L523.03 315.74L523.14 315.72L523.25 315.71L523.35 315.69L523.45 315.67L523.55 315.66L523.64 315.64L523.73 315.63L523.81 315.61L523.89 315.6L523.97 315.59L524.04 315.57L524.11 315.56L524.24 315.54L524.3 315.53L524.35 315.52L524.41 315.51L524.45 315.5L524.5 315.49L524.54 315.49L524.58 315.48L524.61 315.48L524.69 315.46L524.77 315.45L524.85 315.43L524.93 315.41L525.01 315.39L525.09 315.37L525.17 315.35L525.25 315.33L525.33 315.31L525.41 315.29L525.49 315.26L525.56 315.24L525.64 315.22L525.72 315.19L525.8 315.16L525.87 315.13L525.95 315.11L526.03 315.08L526.1 315.05L526.18 315.01L526.25 314.98L526.33 314.95L526.4 314.91L526.48 314.88L526.55 314.84L526.63 314.81L526.7 314.77L526.77 314.73L526.84 314.69L526.91 314.65L526.99 314.61L527.06 314.57L527.13 314.53L527.2 314.49L527.27 314.44L527.34 314.4L527.4 314.35L527.47 314.31L527.54 314.26L527.61 314.21L527.67 314.17L527.73 314.12L527.79 314.07L527.85 314.02L527.91 313.97L527.97 313.91L528.03 313.86L528.08 313.81L528.14 313.75L528.19 313.7L528.25 313.64L528.3 313.59L528.36 313.53L528.41 313.47L528.46 313.41L528.51 313.35L528.56 313.29L528.61 313.23L528.66 313.17L528.7 313.11L528.75 313.05L528.8 312.99L528.84 312.92L528.88 312.86L528.93 312.79L528.97 312.73L529.01 312.66L529.05 312.6L529.09 312.53L529.13 312.46L529.17 312.39L529.21 312.32L529.24 312.26L529.28 312.19L529.31 312.12L529.34 312.04L529.38 311.97L529.41 311.9L529.44 311.83L529.47 311.76L529.5 311.66L529.54 311.56L529.57 311.46L529.61 311.36L529.64 311.26L529.67 311.16L529.7 311.07L529.73 310.97L529.76 310.87L529.78 310.76L529.81 310.66L529.83 310.56L529.86 310.46L529.88 310.36L529.9 310.26L529.92 310.16L529.94 310.06L529.96 309.95L529.98 309.85L530 309.75L530.01 309.65L530.03 309.54L530.04 309.44L530.06 309.34L530.07 309.24L530.08 309.13L530.09 309.03L530.1 308.93L530.11 308.82L530.11 308.72L530.12 308.61L530.12 308.51L530.13 308.41L530.13 308.3L530.13 308.2L530.13 308.09L530.13 307.99L530.13 307.89L530.13 307.78L530.13 307.68L530.12 307.39L530.12 307.12L530.11 306.85L530.1 306.58L530.08 306.33L530.06 306.08L530.03 305.84L530.01 305.61L529.98 305.38L529.95 305.16L529.91 304.95L529.88 304.74L529.84 304.54L529.8 304.35L529.76 304.16L529.72 303.98L529.68 303.81L529.63 303.64L529.59 303.48L529.55 303.32L529.5 303.17L529.46 303.03L529.41 302.89L529.37 302.76L529.32 302.64L529.28 302.51L529.24 302.4L529.2 302.29L529.16 302.19L529.12 302.09L529.08 301.99L529.05 301.91L529.02 301.82L528.99 301.75L528.96 301.67L528.93 301.6L528.91 301.54L528.9 301.48L528.88 301.43L528.87 301.38L528.81 301.26L528.75 301.14L528.68 301.03L528.62 300.91L528.55 300.79L528.49 300.68L528.42 300.57L528.35 300.46L528.27 300.35L528.2 300.24L528.13 300.13L528.05 300.02L527.97 299.91L527.89 299.81L527.81 299.7L527.73 299.6L527.65 299.5L527.56 299.4L527.48 299.3L527.39 299.2L527.3 299.1L527.21 299L527.12 298.91L527.03 298.81L526.94 298.72L526.84 298.63L526.74 298.54L526.65 298.45L526.55 298.36L526.45 298.27L526.35 298.19L526.25 298.1L526.14 298.02L526.04 297.94L525.93 297.86L525.83 297.78L525.72 297.7L525.61 297.63L525.5 297.55L525.39 297.48L525.27 297.41L525.15 297.33L525.03 297.26L524.91 297.19L524.79 297.12L524.67 297.06L524.55 296.99L524.43 296.92L524.31 296.86L524.18 296.8L524.06 296.73L523.93 296.67L523.81 296.62L523.68 296.56L523.56 296.5L523.43 296.44L523.3 296.39L523.17 296.34L523.05 296.29L522.92 296.24L522.79 296.19L522.66 296.14L522.53 296.09L522.4 296.05L522.27 296L522.13 295.96L522 295.92L521.87 295.88L521.74 295.84L521.6 295.8L521.47 295.77L521.33 295.73L521.2 295.7L521.07 295.67L520.93 295.63L520.79 295.6L520.66 295.58L520.52 295.55L520.39 295.52L520.25 295.5L520.09 295.47L519.94 295.45L519.78 295.42L519.62 295.39L519.47 295.37L519.31 295.35L519.15 295.32L519 295.3L518.84 295.28L518.68 295.26L518.53 295.24L518.37 295.22L518.21 295.2L518.06 295.18L517.9 295.16L517.74 295.15L517.58 295.13L517.43 295.12L517.27 295.1L517.11 295.09L516.95 295.07L516.8 295.06L516.64 295.05L516.48 295.04L516.32 295.03L516.16 295.02L516.01 295.01L515.85 295L515.69 295L515.53 294.99L515.37 294.98L515.22 294.98L515.06 294.97L514.9 294.97L514.74 294.97L514.58 294.96L514.42 294.96L514.27 294.96L514.11 294.96L513.95 294.96L513.42 294.97L512.9 294.98L512.39 295.01L511.9 295.05L511.43 295.1L510.96 295.15L510.51 295.21L510.08 295.29L509.65 295.36L509.24 295.45L508.84 295.54L508.46 295.64L508.08 295.74L507.72 295.85L507.38 295.96L507.04 296.07L506.72 296.19L506.4 296.3L506.1 296.43L505.81 296.55L505.53 296.67L505.27 296.79L505.01 296.91L504.77 297.03L504.53 297.15L504.31 297.27L504.09 297.39L503.89 297.5L503.7 297.61L503.51 297.71L503.34 297.81L503.18 297.9L503.02 297.99L502.88 298.07L502.74 298.14L502.61 298.21L502.49 298.27L502.39 298.32L502.28 298.36L502.19 298.39L501.97 298.56L501.75 298.74L501.53 298.93L501.32 299.12L501.12 299.31L500.92 299.51L500.73 299.71L500.54 299.92L500.36 300.14L500.18 300.36L500.01 300.59L499.85 300.82L499.69 301.05L499.53 301.29L499.38 301.54L499.24 301.79L499.1 302.05L498.96 302.31L498.84 302.57L498.71 302.85L498.6 303.12L498.48 303.4L498.38 303.69L498.28 303.98L498.18 304.28L498.09 304.58L498.01 304.89L497.93 305.2L497.85 305.52L497.78 305.84L497.72 306.17L497.66 306.51L497.61 306.84L497.56 307.19L497.52 307.54L497.49 307.89L497.45 308.25L497.43 308.61L497.41 308.98L497.39 309.36L489.81 309.38L489.83 308.98L489.87 308.59L489.91 308.21L489.95 307.83L490 307.47L490.05 307.11L490.1 306.76L490.16 306.43L490.22 306.1L490.28 305.77L490.35 305.46L490.41 305.16L490.48 304.86L490.55 304.57L490.62 304.3L490.7 304.03L490.77 303.76L490.85 303.51L490.92 303.27L490.99 303.03L491.07 302.8L491.14 302.58L491.22 302.37L491.29 302.17L491.36 301.97L491.43 301.79L491.49 301.61L491.56 301.44L491.62 301.28L491.68 301.12L491.74 300.98L491.79 300.84L491.85 300.71L491.89 300.59L491.94 300.47L491.98 300.37L492.01 300.27L492.04 300.18L492.06 300.1L492.08 300.02L492.18 299.83L492.27 299.65L492.37 299.46L492.46 299.27L492.56 299.09L492.66 298.9L492.77 298.72L492.88 298.54L492.98 298.36L493.09 298.18L493.21 298L493.32 297.83L493.44 297.65L493.56 297.48L493.68 297.31L493.8 297.14L493.92 296.97L494.05 296.8L494.18 296.64L494.31 296.48L494.44 296.31L494.58 296.15L494.71 295.99L494.85 295.84L494.99 295.68L495.13 295.53L495.28 295.37L495.42 295.22L495.57 295.07L495.72 294.92L495.87 294.78L496.02 294.63L496.18 294.49L496.33 294.35L496.49 294.21L496.65 294.08L496.81 293.94L496.97 293.81L497.14 293.68L497.3 293.55L497.48 293.42L497.65 293.29L497.83 293.16L498.01 293.04L498.19 292.92L498.37 292.8L498.55 292.68L498.73 292.56L498.91 292.45L499.09 292.33L499.28 292.22L499.47 292.11L499.65 292.01L499.84 291.9L500.03 291.8L500.22 291.7L500.41 291.6L500.6 291.5L500.8 291.4L500.99 291.31L501.18 291.21L501.38 291.12L501.58 291.04L501.77 290.95L501.97 290.86L502.17 290.78L502.37 290.7L502.57 290.62L502.77 290.54L502.98 290.47L503.18 290.4L503.38 290.32L503.59 290.26L503.79 290.19L504 290.12L504.21 290.06L504.41 290L504.62 289.94L504.83 289.88L505.04 289.83L505.28 289.77L505.52 289.71L505.76 289.65L506.01 289.59L506.25 289.54L506.49 289.48L506.74 289.43L506.98 289.38L507.22 289.33L507.47 289.28L507.71 289.24L507.95 289.19L508.2 289.15L508.44 289.11L508.69 289.07L508.94 289.04L509.18 289L509.43 288.97L509.67 288.93L509.92 288.9L510.17 288.87L510.41 288.85L510.66 288.82L510.91 288.79L511.15 288.77L511.4 288.75L511.65 288.73L511.9 288.71L512.14 288.7L512.39 288.68L512.64 288.67L512.89 288.66L513.14 288.65L513.39 288.64L513.63 288.63L513.88 288.63L514.13 288.63L514.38 288.63L514.63 288.63L514.88 288.63ZM529.76 318.68L529.64 318.85L529.51 319.01L529.37 319.16L529.22 319.3L529.06 319.42L528.9 319.54L528.74 319.65L528.58 319.75L528.42 319.84L528.26 319.92L528.1 320L527.95 320.07L527.8 320.13L527.67 320.18L527.54 320.23L527.43 320.28L527.33 320.32L527.25 320.36L527.18 320.39L527.13 320.42L526.96 320.47L526.79 320.52L526.62 320.57L526.45 320.61L526.28 320.66L526.11 320.71L525.94 320.75L525.77 320.79L525.6 320.84L525.43 320.88L525.26 320.92L525.09 320.96L524.92 320.99L524.74 321.03L524.57 321.07L524.4 321.1L524.23 321.13L524.05 321.17L523.88 321.2L523.71 321.23L523.53 321.26L522.85 321.38L522.18 321.49L521.53 321.6L520.88 321.7L520.26 321.8L519.65 321.89L519.05 321.98L518.48 322.07L517.93 322.15L517.41 322.23L516.91 322.3L516.44 322.37L515.99 322.43L515.58 322.49L515.19 322.54L514.84 322.59L514.53 322.63L514.24 322.67L514 322.7L513.8 322.73L513.64 322.76L513.19 322.81L512.74 322.87L512.29 322.94L511.84 323.01L511.39 323.08L510.95 323.16L510.5 323.23L510.05 323.32L509.61 323.41L509.17 323.5L508.72 323.59L508.28 323.69L507.84 323.79L507.4 323.9L506.96 324.01L506.52 324.12L506.08 324.23L505.64 324.35L505.21 324.48L504.77 324.61L504.34 324.74L503.75 324.93L503.2 325.13L502.67 325.34L502.17 325.56L501.7 325.77L501.26 326L500.84 326.22L500.45 326.44L500.08 326.66L499.74 326.87L499.42 327.08L499.12 327.28L498.85 327.47L498.6 327.66L498.38 327.83L498.17 327.98L497.99 328.12L497.82 328.25L497.68 328.36L497.55 328.44L497.44 328.51L497.08 328.87L496.75 329.24L496.46 329.63L496.2 330.03L495.97 330.44L495.77 330.85L495.6 331.26L495.45 331.67L495.33 332.08L495.23 332.48L495.14 332.87L495.07 333.24L495.01 333.6L494.96 333.94L494.92 334.26L494.89 334.55L494.86 334.81L494.83 335.05L494.81 335.24L494.78 335.41L494.74 335.53L494.74 335.78L494.74 336.03L494.75 336.28L494.77 336.53L494.79 336.78L494.81 337.03L494.85 337.28L494.89 337.53L494.93 337.78L494.98 338.02L495.03 338.27L495.09 338.51L495.16 338.75L495.23 338.99L495.31 339.23L495.39 339.47L495.48 339.7L495.57 339.94L495.67 340.17L495.77 340.4L495.88 340.63L495.99 340.84L496.11 341.04L496.22 341.25L496.34 341.45L496.47 341.65L496.6 341.85L496.73 342.04L496.86 342.23L497 342.42L497.15 342.61L497.29 342.79L497.44 342.97L497.6 343.15L497.75 343.33L497.91 343.5L498.08 343.67L498.24 343.83L498.41 344L498.58 344.16L498.76 344.31L498.94 344.47L499.13 344.62L499.32 344.77L499.51 344.92L499.71 345.06L499.91 345.2L500.11 345.34L500.31 345.47L500.52 345.6L500.73 345.73L500.94 345.85L501.15 345.97L501.36 346.08L501.58 346.19L501.8 346.29L502.02 346.4L502.24 346.49L502.46 346.59L502.69 346.68L502.92 346.76L503.15 346.85L503.38 346.92L503.62 347L503.86 347.07L504.1 347.15L504.34 347.21L504.58 347.27L504.82 347.33L505.07 347.39L505.31 347.44L505.55 347.49L505.8 347.53L506.05 347.57L506.29 347.61L506.54 347.64L506.79 347.67L507.04 347.69L507.29 347.72L507.54 347.73L507.79 347.75L508.04 347.76L508.29 347.76L508.54 347.76L508.94 347.76L509.34 347.75L509.74 347.74L510.14 347.72L510.54 347.69L510.94 347.66L511.34 347.62L511.74 347.58L512.13 347.53L512.53 347.47L512.93 347.41L513.32 347.34L513.71 347.26L514.11 347.18L514.5 347.09L514.89 347L515.28 346.9L515.66 346.8L516.05 346.68L516.43 346.57L516.81 346.44L517.17 346.32L517.53 346.2L517.89 346.06L518.24 345.92L518.59 345.78L518.93 345.62L519.28 345.47L519.62 345.3L519.95 345.13L520.29 344.95L520.62 344.77L520.94 344.58L521.27 344.38L521.59 344.18L521.9 343.97L522.21 343.76L522.52 343.54L522.83 343.31L523.13 343.08L523.42 342.85L523.71 342.6L524.3 342.09L524.86 341.54L525.39 340.98L525.9 340.4L526.38 339.8L526.83 339.18L527.26 338.54L527.66 337.89L528.03 337.22L528.37 336.54L528.68 335.84L528.97 335.13L529.22 334.41L529.44 333.68L529.64 332.93L529.8 332.18L529.93 331.42L530.03 330.66L530.1 329.89L530.13 329.11L530.13 328.33L530.11 318.5L529.87 318.5L529.76 318.68Z" id="cLDQUFBTS"></path><path d="M552.67 290.43L560.21 290.43L560.21 301.1C560.35 301.1 560.43 301.1 560.45 301.1C562.61 295.46 567.36 292.95 568.12 292.05C571.76 289.78 575.96 288.59 580.24 288.62C586.72 288.62 590.01 290.13 591.1 290.3C595.48 291.98 597.41 294.56 598.12 295.03C599.94 297.2 601.22 299.77 601.83 302.53C602.59 305.79 602.95 309.13 602.91 312.47C602.91 315.13 602.91 328.4 602.91 352.3L595.37 352.3C595.37 329.14 595.37 316.27 595.37 313.7C595.39 311.22 595.15 308.75 594.65 306.32C594.24 304.19 593.38 302.17 592.13 300.38C590.89 298.66 589.21 297.3 587.28 296.43C584.22 294.99 580.42 295.13 579.66 294.99C576.87 294.93 574.11 295.49 571.56 296.6C569.27 297.64 567.22 299.15 565.56 301.04C563.87 303.02 562.57 305.3 561.73 307.76C560.78 310.48 560.28 313.34 560.22 316.22C560.22 318.63 560.22 330.66 560.22 352.33L552.68 352.33L552.67 290.43Z" id="a1gG8YFFld"></path><path d="M620.81 264.87C625.84 264.87 627.82 268.55 628.6 268.95C630.44 271.67 631.36 275.31 631.35 279.87C631.35 290.52 631.35 296.44 631.35 297.63C631.34 299.99 631.45 302.35 631.69 304.7C631.88 306.8 632.32 308.88 633.01 310.87C633.54 312.5 634.44 313.98 635.65 315.19C636.81 316.29 638.37 316.87 639.97 316.81C639.97 317.45 639.97 322.53 639.97 323.17C638.37 323.11 636.81 323.69 635.65 324.79C634.44 326 633.54 327.48 633.01 329.11C632.32 331.1 631.88 333.17 631.69 335.28C631.45 337.63 631.34 339.99 631.35 342.35C631.35 344.13 631.35 358.33 631.35 360.11C631.35 366.96 628.88 369.93 628.6 371.03C626.78 373.73 624.18 375.09 620.81 375.1L614.8 375.1L614.8 368.76C616.24 368.76 617.04 368.76 617.2 368.76C618.31 368.79 619.39 368.43 620.26 367.74C621.15 367.01 621.85 366.08 622.32 365.03C622.88 363.77 623.26 362.44 623.46 361.08C623.7 359.53 623.81 357.96 623.8 356.4C623.8 354.72 623.8 341.28 623.8 339.6C623.8 334.68 624.77 331.99 624.88 331.14C625.47 329.09 626.32 327.11 627.4 325.26C628.16 323.95 629.11 322.76 630.22 321.73C630.84 321.16 631.5 320.64 632.2 320.17C632.2 320.14 632.2 319.95 632.2 319.93C631.5 319.46 630.84 318.94 630.22 318.37C629.11 317.33 628.16 316.14 627.4 314.83C626.32 312.98 625.47 311.01 624.88 308.95C624.16 306.59 623.8 303.77 623.8 300.49C623.8 290.35 623.8 284.72 623.8 283.59C623.81 282.04 623.7 280.5 623.46 278.97C623.25 277.61 622.87 276.27 622.32 275.01C621.86 273.95 621.15 273.01 620.26 272.27C619.39 271.58 618.31 271.21 617.2 271.24C617.04 271.24 616.24 271.24 614.8 271.24L614.8 264.87C618.01 264.87 620.01 264.87 620.81 264.87Z" id="bg3jl84on"></path></defs><g><g><use xlink:href="#c3hYTz4mha" opacity="1" fill="#3665ef" fill-opacity="1"></use><g><use xlink:href="#c3hYTz4mha" opacity="1" fill-opacity="0" stroke="#000000" stroke-width="1" stroke-opacity="0"></use></g></g><g><use xlink:href="#b2xFEApKs2" opacity="1" fill="#3665ef" fill-opacity="1"></use><g><use xlink:href="#b2xFEApKs2" opacity="1" fill-opacity="0" stroke="#000000" stroke-width="1" stroke-opacity="0"></use></g></g><g><use xlink:href="#b1TSyGV3Rw" opacity="1" fill="#ffffff" fill-opacity="1"></use><g><use xlink:href="#b1TSyGV3Rw" opacity="1" fill-opacity="0" stroke="#000000" stroke-width="1" stroke-opacity="0"></use></g></g><g><use xlink:href="#b2JeAExSBw" opacity="1" fill="#ffffff" fill-opacity="1"></use><g><use xlink:href="#b2JeAExSBw" opacity="1" fill-opacity="0" stroke="#000000" stroke-width="1" stroke-opacity="0"></use></g></g><g><use xlink:href="#ai2PTJXVh" opacity="1" fill="#ffffff" fill-opacity="1"></use><g><use xlink:href="#ai2PTJXVh" opacity="1" fill-opacity="0" stroke="#000000" stroke-width="1" stroke-opacity="0"></use></g></g><g><use xlink:href="#d3x4ndHKlz" opacity="1" fill="#ffffff" fill-opacity="1"></use><g><use xlink:href="#d3x4ndHKlz" opacity="1" fill-opacity="0" stroke="#000000" stroke-width="1" stroke-opacity="0"></use></g></g><g><use xlink:href="#aac4WaLBM" opacity="1" fill="#ffffff" fill-opacity="1"></use><g><use xlink:href="#aac4WaLBM" opacity="1" fill-opacity="0" stroke="#000000" stroke-width="1" stroke-opacity="0"></use></g></g><g><use xlink:href="#b1pS7ZZZuH" opacity="1" fill="#ffffff" fill-opacity="1"></use><g><use xlink:href="#b1pS7ZZZuH" opacity="1" fill-opacity="0" stroke="#000000" stroke-width="1" stroke-opacity="0"></use></g></g><g><use xlink:href="#fIeq0BRSP" opacity="1" fill="#ffffff" fill-opacity="1"></use><g><use xlink:href="#fIeq0BRSP" opacity="1" fill-opacity="0" stroke="#000000" stroke-width="1" stroke-opacity="0"></use></g></g><g><use xlink:href="#cLDQUFBTS" opacity="1" fill="#ffffff" fill-opacity="1"></use><g><use xlink:href="#cLDQUFBTS" opacity="1" fill-opacity="0" stroke="#000000" stroke-width="1" stroke-opacity="0"></use></g></g><g><use xlink:href="#a1gG8YFFld" opacity="1" fill="#ffffff" fill-opacity="1"></use><g><use xlink:href="#a1gG8YFFld" opacity="1" fill-opacity="0" stroke="#000000" stroke-width="1" stroke-opacity="0"></use></g></g><g><use xlink:href="#bg3jl84on" opacity="1" fill="#3665ef" fill-opacity="1"></use><g><use xlink:href="#bg3jl84on" opacity="1" fill-opacity="0" stroke="#000000" stroke-width="1" stroke-opacity="0"></use></g></g></g></svg>