<svg width="15" height="15" viewBox="0 0 15 15" fill="none" xmlns="http://www.w3.org/2000/svg">
<path d="M11.3488 7.56625L8.12317 6.37875L6.93567 3.15062C6.86534 2.95958 6.73811 2.7947 6.57114 2.67824C6.40417 2.56178 6.20549 2.49933 6.00192 2.49933C5.79834 2.49933 5.59966 2.56178 5.43269 2.67824C5.26572 2.7947 5.13849 2.95958 5.06817 3.15062L3.87942 6.375L0.651291 7.5625C0.460247 7.63282 0.29537 7.76005 0.178907 7.92702C0.0624441 8.094 0 8.29267 0 8.49625C0 8.69983 0.0624441 8.8985 0.178907 9.06548C0.29537 9.23245 0.460247 9.35968 0.651291 9.43L3.87504 10.625L5.06254 13.8512C5.13286 14.0423 5.26009 14.2072 5.42707 14.3236C5.59404 14.4401 5.79272 14.5025 5.99629 14.5025C6.19987 14.5025 6.39854 14.4401 6.56552 14.3236C6.73249 14.2072 6.85972 14.0423 6.93004 13.8512L8.11754 10.6256L11.3457 9.43812C11.5367 9.3678 11.7016 9.24057 11.8181 9.0736C11.9345 8.90663 11.997 8.70795 11.997 8.50438C11.997 8.3008 11.9345 8.10212 11.8181 7.93515C11.7016 7.76818 11.5367 7.64095 11.3457 7.57063L11.3488 7.56625ZM7.77442 9.6875C7.6393 9.73709 7.51659 9.8155 7.41482 9.91727C7.31304 10.019 7.23463 10.1418 7.18504 10.2769L5.99754 13.4931L4.81254 10.2744C4.76291 10.14 4.68475 10.0179 4.58344 9.9166C4.48213 9.81529 4.36007 9.73713 4.22567 9.6875L1.00942 8.5L4.22567 7.3125C4.36007 7.26287 4.48213 7.18471 4.58344 7.0834C4.68475 6.98209 4.76291 6.86003 4.81254 6.72563L6.00004 3.50938L7.18754 6.72563C7.23713 6.86074 7.31554 6.98345 7.41732 7.08523C7.51909 7.187 7.6418 7.26541 7.77692 7.315L10.9932 8.5025L7.77442 9.6875ZM8.00004 2C8.00004 1.86739 8.05272 1.74021 8.14649 1.64645C8.24026 1.55268 8.36743 1.5 8.50004 1.5H9.50004V0.5C9.50004 0.367392 9.55272 0.240215 9.64649 0.146447C9.74026 0.0526784 9.86743 0 10 0C10.1326 0 10.2598 0.0526784 10.3536 0.146447C10.4474 0.240215 10.5 0.367392 10.5 0.5V1.5H11.5C11.6326 1.5 11.7598 1.55268 11.8536 1.64645C11.9474 1.74021 12 1.86739 12 2C12 2.13261 11.9474 2.25979 11.8536 2.35355C11.7598 2.44732 11.6326 2.5 11.5 2.5H10.5V3.5C10.5 3.63261 10.4474 3.75979 10.3536 3.85355C10.2598 3.94732 10.1326 4 10 4C9.86743 4 9.74026 3.94732 9.64649 3.85355C9.55272 3.75979 9.50004 3.63261 9.50004 3.5V2.5H8.50004C8.36743 2.5 8.24026 2.44732 8.14649 2.35355C8.05272 2.25979 8.00004 2.13261 8.00004 2ZM14.5 5C14.5 5.13261 14.4474 5.25979 14.3536 5.35355C14.2598 5.44732 14.1326 5.5 14 5.5H13.5V6C13.5 6.13261 13.4474 6.25979 13.3536 6.35355C13.2598 6.44732 13.1326 6.5 13 6.5C12.8674 6.5 12.7403 6.44732 12.6465 6.35355C12.5527 6.25979 12.5 6.13261 12.5 6V5.5H12C11.8674 5.5 11.7403 5.44732 11.6465 5.35355C11.5527 5.25979 11.5 5.13261 11.5 5C11.5 4.86739 11.5527 4.74021 11.6465 4.64645C11.7403 4.55268 11.8674 4.5 12 4.5H12.5V4C12.5 3.86739 12.5527 3.74021 12.6465 3.64645C12.7403 3.55268 12.8674 3.5 13 3.5C13.1326 3.5 13.2598 3.55268 13.3536 3.64645C13.4474 3.74021 13.5 3.86739 13.5 4V4.5H14C14.1326 4.5 14.2598 4.55268 14.3536 4.64645C14.4474 4.74021 14.5 4.86739 14.5 5Z" fill="#008223"/>
</svg>
