<svg width="16" height="16" viewBox="0 0 16 16" fill="none" xmlns="http://www.w3.org/2000/svg">
<path d="M8.75 2V4C8.75 4.19891 8.67098 4.38968 8.53033 4.53033C8.38968 4.67098 8.19891 4.75 8 4.75C7.80109 4.75 7.61032 4.67098 7.46967 4.53033C7.32902 4.38968 7.25 4.19891 7.25 4V2C7.25 1.80109 7.32902 1.61032 7.46967 1.46967C7.61032 1.32902 7.80109 1.25 8 1.25C8.19891 1.25 8.38968 1.32902 8.53033 1.46967C8.67098 1.61032 8.75 1.80109 8.75 2ZM10.8281 5.92188C10.9267 5.92187 11.0243 5.90244 11.1153 5.86469C11.2064 5.82694 11.2891 5.77161 11.3588 5.70188L12.7731 4.2875C12.914 4.1466 12.9932 3.95551 12.9932 3.75625C12.9932 3.55699 12.914 3.3659 12.7731 3.225C12.6322 3.0841 12.4411 3.00495 12.2419 3.00495C12.0426 3.00495 11.8515 3.0841 11.7106 3.225L10.2981 4.64125C10.1932 4.7461 10.1216 4.87974 10.0926 5.02524C10.0636 5.17075 10.0784 5.32159 10.1352 5.45868C10.1919 5.59577 10.288 5.71295 10.4114 5.7954C10.5347 5.87785 10.6798 5.92187 10.8281 5.92188ZM14 7.25H12C11.8011 7.25 11.6103 7.32902 11.4697 7.46967C11.329 7.61032 11.25 7.80109 11.25 8C11.25 8.19891 11.329 8.38968 11.4697 8.53033C11.6103 8.67098 11.8011 8.75 12 8.75H14C14.1989 8.75 14.3897 8.67098 14.5303 8.53033C14.671 8.38968 14.75 8.19891 14.75 8C14.75 7.80109 14.671 7.61032 14.5303 7.46967C14.3897 7.32902 14.1989 7.25 14 7.25ZM11.3588 10.2981C11.289 10.2284 11.2062 10.173 11.115 10.1353C11.0239 10.0975 10.9262 10.0781 10.8275 10.0781C10.7288 10.0781 10.6311 10.0975 10.54 10.1353C10.4488 10.173 10.366 10.2284 10.2963 10.2981C10.2265 10.3679 10.1711 10.4507 10.1334 10.5419C10.0956 10.633 10.0762 10.7307 10.0762 10.8294C10.0762 10.928 10.0956 11.0257 10.1334 11.1169C10.1711 11.208 10.2265 11.2909 10.2963 11.3606L11.7106 12.775C11.8515 12.9159 12.0426 12.9951 12.2419 12.9951C12.4411 12.9951 12.6322 12.9159 12.7731 12.775C12.914 12.6341 12.9932 12.443 12.9932 12.2437C12.9932 12.0445 12.914 11.8534 12.7731 11.7125L11.3588 10.2981ZM8 11.25C7.80109 11.25 7.61032 11.329 7.46967 11.4697C7.32902 11.6103 7.25 11.8011 7.25 12V14C7.25 14.1989 7.32902 14.3897 7.46967 14.5303C7.61032 14.671 7.80109 14.75 8 14.75C8.19891 14.75 8.38968 14.671 8.53033 14.5303C8.67098 14.3897 8.75 14.1989 8.75 14V12C8.75 11.8011 8.67098 11.6103 8.53033 11.4697C8.38968 11.329 8.19891 11.25 8 11.25ZM4.64125 10.2981L3.22688 11.7125C3.08598 11.8534 3.00682 12.0445 3.00682 12.2437C3.00682 12.443 3.08598 12.6341 3.22688 12.775C3.36777 12.9159 3.55887 12.9951 3.75813 12.9951C3.95738 12.9951 4.14848 12.9159 4.28937 12.775L5.70375 11.3606C5.84465 11.2197 5.9238 11.0286 5.9238 10.8294C5.9238 10.6301 5.84465 10.439 5.70375 10.2981C5.56285 10.1572 5.37176 10.0781 5.1725 10.0781C4.97324 10.0781 4.78215 10.1572 4.64125 10.2981ZM4.75 8C4.75 7.80109 4.67098 7.61032 4.53033 7.46967C4.38968 7.32902 4.19891 7.25 4 7.25H2C1.80109 7.25 1.61032 7.32902 1.46967 7.46967C1.32902 7.61032 1.25 7.80109 1.25 8C1.25 8.19891 1.32902 8.38968 1.46967 8.53033C1.61032 8.67098 1.80109 8.75 2 8.75H4C4.19891 8.75 4.38968 8.67098 4.53033 8.53033C4.67098 8.38968 4.75 8.19891 4.75 8ZM4.2875 3.22688C4.1466 3.08598 3.95551 3.00682 3.75625 3.00682C3.55699 3.00682 3.3659 3.08598 3.225 3.22688C3.0841 3.36777 3.00495 3.55887 3.00495 3.75813C3.00495 3.95738 3.0841 4.14848 3.225 4.28937L4.64125 5.70188C4.78215 5.84277 4.97324 5.92193 5.1725 5.92193C5.37176 5.92193 5.56285 5.84277 5.70375 5.70188C5.84465 5.56098 5.9238 5.36988 5.9238 5.17063C5.9238 4.97137 5.84465 4.78027 5.70375 4.63938L4.2875 3.22688Z" fill="#767676"/>
</svg>