<svg id="Layer_1" data-name="Layer 1" xmlns="http://www.w3.org/2000/svg" viewBox="0 0 30 88"><defs><style>.cls-1{fill:#cb2029;}.cls-2{fill:#549dd0;}.cls-3{fill:#a0a5a8;}</style></defs><g id="Group_7691" data-name="Group 7691"><path id="Path_10468" data-name="Path 10468" class="cls-1" d="M15,87.26a14,14,0,1,1,14-14,14,14,0,0,1-14,14m0-25.42A11.44,11.44,0,1,0,26.43,73.28,11.46,11.46,0,0,0,15,61.84"/></g><path id="Path_10469" data-name="Path 10469" class="cls-1" d="M24.78,72.54c-.37-.73-.83-1.65-1.73-1.65s-1.35.91-1.72,1.65-.54,1-1,1-.62-.35-1-1-.82-1.65-1.72-1.65-1.35.91-1.73,1.65-.53,1-1,1-.62-.35-1-1-.82-1.65-1.72-1.65-1.36.91-1.73,1.65-.53,1-1,1-.63-.35-1-1-.82-1.65-1.72-1.65-1.36.87-1.72,1.6c0,0-.28.62-.4.91s-.6,1.41-.17,1.95c.25.3.6-.13.8-.45s.5-.94.5-.94c.37-.65.56-1,1-1s.62.36,1,1,.82,1.64,1.73,1.64S11,74.73,11.32,74s.54-1,1-1,.62.36,1,1,.83,1.64,1.73,1.64,1.35-.91,1.72-1.64.54-1,1-1,.62.36,1,1,.82,1.64,1.72,1.64,1.35-.91,1.73-1.64.53-1,1-1,.62.36,1,1l.38.7c.1.17.48.8.81.78s.4-1,.07-1.77C25.06,73.17,24.78,72.54,24.78,72.54Z"/><g id="SonarQube_Icon" data-name="SonarQube Icon"><path id="Path_10444" data-name="Path 10444" class="cls-2" d="M26.24,29.05H24.61A24.1,24.1,0,0,0,.37,5.15V3.52A25.73,25.73,0,0,1,26.24,29.05Z"/><path id="Path_10445" data-name="Path 10445" class="cls-2" d="M27.37,20.26a24.64,24.64,0,0,0-17-17.58l.38-1.31A26,26,0,0,1,28.7,20Z"/><path id="Path_10446" data-name="Path 10446" class="cls-2" d="M28.63,12.5A25,25,0,0,0,18.92,1.67l.57-.93A26.19,26.19,0,0,1,29.63,12.05Z"/></g><path class="cls-3" d="M16.25,42.09h4v2.33h-4V49H13.77V44.42h-4V42.09h4V37.85h2.48Z"/></svg>