<svg width="32" height="32" viewBox="0 0 32 32" fill="none" xmlns="http://www.w3.org/2000/svg">
<path d="M16 3.25C13.4783 3.25 11.0132 3.99777 8.91648 5.39876C6.81976 6.79975 5.18556 8.79103 4.22054 11.1208C3.25552 13.4505 3.00303 16.0141 3.49499 18.4874C3.98696 20.9607 5.20127 23.2325 6.98439 25.0156C8.76751 26.7987 11.0393 28.0131 13.5126 28.505C15.9859 28.997 18.5495 28.7445 20.8792 27.7795C23.209 26.8144 25.2003 25.1802 26.6012 23.0835C28.0022 20.9868 28.75 18.5217 28.75 16C28.746 12.6197 27.4015 9.379 25.0112 6.98877C22.621 4.59854 19.3803 3.25397 16 3.25ZM8.93001 24.75C9.66349 23.5303 10.7 22.5212 11.9389 21.8206C13.1777 21.12 14.5768 20.7518 16 20.7518C17.4232 20.7518 18.8223 21.12 20.0611 21.8206C21.3 22.5212 22.3365 23.5303 23.07 24.75C21.0705 26.3714 18.5743 27.2563 16 27.2563C13.4257 27.2563 10.9296 26.3714 8.93001 24.75ZM11.75 15C11.75 14.1594 11.9993 13.3377 12.4663 12.6388C12.9333 11.9399 13.597 11.3952 14.3736 11.0735C15.1502 10.7518 16.0047 10.6677 16.8291 10.8317C17.6536 10.9956 18.4108 11.4004 19.0052 11.9948C19.5996 12.5892 20.0044 13.3464 20.1683 14.1709C20.3323 14.9953 20.2482 15.8498 19.9265 16.6264C19.6048 17.403 19.0601 18.0668 18.3612 18.5337C17.6623 19.0007 16.8406 19.25 16 19.25C14.8728 19.25 13.7918 18.8022 12.9948 18.0052C12.1978 17.2082 11.75 16.1272 11.75 15ZM24.1888 23.705C23.0103 21.8727 21.2489 20.4908 19.1888 19.7825C20.216 19.0983 20.9959 18.1016 21.413 16.9399C21.8301 15.7783 21.8623 14.5132 21.5049 13.3318C21.1475 12.1504 20.4194 11.1153 19.4282 10.3797C18.4371 9.64404 17.2356 9.24686 16.0013 9.24686C14.767 9.24686 13.5654 9.64404 12.5743 10.3797C11.5832 11.1153 10.8551 12.1504 10.4976 13.3318C10.1402 14.5132 10.1724 15.7783 10.5895 16.9399C11.0066 18.1016 11.7865 19.0983 12.8138 19.7825C10.7536 20.4908 8.99217 21.8727 7.81376 23.705C6.30729 22.1064 5.30179 20.1017 4.92131 17.9382C4.54082 15.7748 4.80201 13.5474 5.67264 11.5307C6.54327 9.51396 7.98524 7.79624 9.82066 6.58946C11.6561 5.38267 13.8046 4.7396 16.0013 4.7396C18.1979 4.7396 20.3464 5.38267 22.1818 6.58946C24.0173 7.79624 25.4592 9.51396 26.3299 11.5307C27.2005 13.5474 27.4617 15.7748 27.0812 17.9382C26.7007 20.1017 25.6952 22.1064 24.1888 23.705Z" fill="#343330"/>
</svg>
