<svg width="16" height="16" viewBox="0 0 16 16" fill="none" xmlns="http://www.w3.org/2000/svg">
    <path d="M7.50001 8.50001V5.00001C7.50001 4.8674 7.55268 4.74022 7.64645 4.64645C7.74022 4.55268 7.8674 4.50001 8.00001 4.50001C8.13261 4.50001 8.25979 4.55268 8.35356 4.64645C8.44733 4.74022 8.50001 4.8674 8.50001 5.00001V8.50001C8.50001 8.63261 8.44733 8.75979 8.35356 8.85356C8.25979 8.94733 8.13261 9.00001 8.00001 9.00001C7.8674 9.00001 7.74022 8.94733 7.64645 8.85356C7.55268 8.75979 7.50001 8.63261 7.50001 8.50001ZM14.5 5.72188V10.2781C14.5004 10.4095 14.4747 10.5396 14.4244 10.661C14.3741 10.7823 14.3001 10.8925 14.2069 10.985L10.985 14.2069C10.8925 14.3001 10.7823 14.3741 10.661 14.4244C10.5396 14.4747 10.4095 14.5004 10.2781 14.5H5.72188C5.59051 14.5004 5.46037 14.4747 5.33902 14.4244C5.21766 14.3741 5.10753 14.3001 5.015 14.2069L1.79313 10.985C1.69987 10.8925 1.62593 10.7823 1.5756 10.661C1.52528 10.5396 1.49959 10.4095 1.50001 10.2781V5.72188C1.49959 5.59051 1.52528 5.46037 1.5756 5.33902C1.62593 5.21766 1.69987 5.10753 1.79313 5.015L5.015 1.79313C5.10753 1.69987 5.21766 1.62593 5.33902 1.5756C5.46037 1.52528 5.59051 1.49959 5.72188 1.50001H10.2781C10.4095 1.49959 10.5396 1.52528 10.661 1.5756C10.7823 1.62593 10.8925 1.69987 10.985 1.79313L14.2069 5.015C14.3001 5.10753 14.3741 5.21766 14.4244 5.33902C14.4747 5.46037 14.5004 5.59051 14.5 5.72188ZM13.5 5.72188L10.2781 2.50001H5.72188L2.50001 5.72188V10.2781L5.72188 13.5H10.2781L13.5 10.2781V5.72188ZM8.00001 10C7.85167 10 7.70666 10.044 7.58333 10.1264C7.45999 10.2088 7.36386 10.3259 7.3071 10.463C7.25033 10.6 7.23548 10.7508 7.26442 10.8963C7.29336 11.0418 7.36479 11.1754 7.46968 11.2803C7.57456 11.3852 7.7082 11.4567 7.85369 11.4856C7.99917 11.5145 8.14997 11.4997 8.28702 11.4429C8.42406 11.3861 8.5412 11.29 8.62361 11.1667C8.70602 11.0433 8.75001 10.8983 8.75001 10.75C8.75001 10.5511 8.67099 10.3603 8.53033 10.2197C8.38968 10.079 8.19892 10 8.00001 10Z" fill="#D92D20"/>
</svg>