<svg width="24" height="24" viewBox="0 0 24 24" fill="none" xmlns="http://www.w3.org/2000/svg">
<path d="M18 3.25H6C5.27065 3.25 4.57118 3.53973 4.05546 4.05546C3.53973 4.57118 3.25 5.27065 3.25 6V12C3.25 12.1989 3.32902 12.3897 3.46967 12.5303C3.61032 12.671 3.80109 12.75 4 12.75C4.19891 12.75 4.38968 12.671 4.53033 12.5303C4.67098 12.3897 4.75 12.1989 4.75 12V6C4.75 5.66848 4.8817 5.35054 5.11612 5.11612C5.35054 4.8817 5.66848 4.75 6 4.75H18C18.3315 4.75 18.6495 4.8817 18.8839 5.11612C19.1183 5.35054 19.25 5.66848 19.25 6V18C19.25 18.3315 19.1183 18.6495 18.8839 18.8839C18.6495 19.1183 18.3315 19.25 18 19.25H12C11.8011 19.25 11.6103 19.329 11.4697 19.4697C11.329 19.6103 11.25 19.8011 11.25 20C11.25 20.1989 11.329 20.3897 11.4697 20.5303C11.6103 20.671 11.8011 20.75 12 20.75H18C18.7293 20.75 19.4288 20.4603 19.9445 19.9445C20.4603 19.4288 20.75 18.7293 20.75 18V6C20.75 5.27065 20.4603 4.57118 19.9445 4.05546C19.4288 3.53973 18.7293 3.25 18 3.25Z" fill="#111D3B"/>
<path d="M11.21 13.1898C11.3017 13.2289 11.4003 13.2493 11.5 13.2498H15.5C15.6989 13.2498 15.8897 13.1708 16.0303 13.0302C16.171 12.8895 16.25 12.6988 16.25 12.4998C16.25 12.3009 16.171 12.1102 16.0303 11.9695C15.8897 11.8289 15.6989 11.7498 15.5 11.7498H13.31L16.53 8.52985C16.6625 8.38767 16.7346 8.19963 16.7312 8.00532C16.7277 7.81102 16.649 7.62564 16.5116 7.48822C16.3742 7.35081 16.1888 7.2721 15.9945 7.26867C15.8002 7.26524 15.6122 7.33737 15.47 7.46985L12.25 10.6898V8.49985C12.25 8.30093 12.171 8.11017 12.0303 7.96952C11.8897 7.82886 11.6989 7.74985 11.5 7.74985C11.3011 7.74985 11.1103 7.82886 10.9697 7.96952C10.829 8.11017 10.75 8.30093 10.75 8.49985V12.4998C10.7505 12.5995 10.7709 12.6981 10.81 12.7898C10.8457 12.8804 10.8996 12.9626 10.9684 13.0314C11.0373 13.1002 11.1195 13.1541 11.21 13.1898V13.1898Z" fill="#111D3B"/>
<path d="M8 14.25H5C4.53668 14.2526 4.09309 14.4378 3.76546 14.7655C3.43784 15.0931 3.25263 15.5367 3.25 16V19C3.25263 19.4633 3.43784 19.9069 3.76546 20.2345C4.09309 20.5622 4.53668 20.7474 5 20.75H8C8.46332 20.7474 8.90691 20.5622 9.23454 20.2345C9.56216 19.9069 9.74737 19.4633 9.75 19V16C9.74737 15.5367 9.56216 15.0931 9.23454 14.7655C8.90691 14.4378 8.46332 14.2526 8 14.25V14.25ZM8.25 19C8.25 19.0663 8.22366 19.1299 8.17678 19.1768C8.12989 19.2237 8.0663 19.25 8 19.25H5C4.9337 19.25 4.87011 19.2237 4.82322 19.1768C4.77634 19.1299 4.75 19.0663 4.75 19V16C4.75 15.9337 4.77634 15.8701 4.82322 15.8232C4.87011 15.7763 4.9337 15.75 5 15.75H8C8.0663 15.75 8.12989 15.7763 8.17678 15.8232C8.22366 15.8701 8.25 15.9337 8.25 16V19Z" fill="#111D3B"/>
</svg>
