<svg width="24" height="24" viewBox="0 0 24 24" fill="none" xmlns="http://www.w3.org/2000/svg">
<path d="M18 20.75H12C11.8011 20.75 11.6103 20.671 11.4697 20.5303C11.329 20.3897 11.25 20.1989 11.25 20C11.25 19.8011 11.329 19.6103 11.4697 19.4697C11.6103 19.329 11.8011 19.25 12 19.25H18C18.3315 19.25 18.6495 19.1183 18.8839 18.8839C19.1183 18.6495 19.25 18.3315 19.25 18V6C19.25 5.66848 19.1183 5.35054 18.8839 5.11612C18.6495 4.8817 18.3315 4.75 18 4.75H6C5.66848 4.75 5.35054 4.8817 5.11612 5.11612C4.8817 5.35054 4.75 5.66848 4.75 6V12C4.75 12.1989 4.67098 12.3897 4.53033 12.5303C4.38968 12.671 4.19891 12.75 4 12.75C3.80109 12.75 3.61032 12.671 3.46967 12.5303C3.32902 12.3897 3.25 12.1989 3.25 12V6C3.25 5.27065 3.53973 4.57118 4.05546 4.05546C4.57118 3.53973 5.27065 3.25 6 3.25H18C18.7293 3.25 19.4288 3.53973 19.9445 4.05546C20.4603 4.57118 20.75 5.27065 20.75 6V18C20.75 18.7293 20.4603 19.4288 19.9445 19.9445C19.4288 20.4603 18.7293 20.75 18 20.75Z" fill="#111D3B"/>
<path d="M16 12.75C15.8019 12.7474 15.6126 12.6676 15.4725 12.5275C15.3324 12.3874 15.2526 12.1981 15.25 12V8.75H12C11.8011 8.75 11.6103 8.67098 11.4697 8.53033C11.329 8.38968 11.25 8.19891 11.25 8C11.25 7.80109 11.329 7.61032 11.4697 7.46967C11.6103 7.32902 11.8011 7.25 12 7.25H16C16.1981 7.25259 16.3874 7.33244 16.5275 7.47253C16.6676 7.61263 16.7474 7.80189 16.75 8V12C16.7474 12.1981 16.6676 12.3874 16.5275 12.5275C16.3874 12.6676 16.1981 12.7474 16 12.75V12.75Z" fill="#111D3B"/>
<path d="M11.5001 13.2501C11.3071 13.2354 11.1276 13.1456 11.0001 13.0001C10.8771 12.8626 10.8091 12.6846 10.8091 12.5001C10.8091 12.3156 10.8771 12.1376 11.0001 12.0001L15.5001 7.50012C15.6422 7.36764 15.8303 7.29552 16.0246 7.29894C16.2189 7.30237 16.4043 7.38109 16.5417 7.5185C16.6791 7.65591 16.7578 7.8413 16.7612 8.0356C16.7647 8.2299 16.6925 8.41795 16.5601 8.56012L12.0001 13.0001C11.8725 13.1456 11.693 13.2354 11.5001 13.2501V13.2501Z" fill="#111D3B"/>
<path d="M8 20.75H5C4.53668 20.7474 4.09309 20.5622 3.76546 20.2345C3.43784 19.9069 3.25263 19.4633 3.25 19V16C3.25263 15.5367 3.43784 15.0931 3.76546 14.7655C4.09309 14.4378 4.53668 14.2526 5 14.25H8C8.46332 14.2526 8.90691 14.4378 9.23454 14.7655C9.56216 15.0931 9.74737 15.5367 9.75 16V19C9.74737 19.4633 9.56216 19.9069 9.23454 20.2345C8.90691 20.5622 8.46332 20.7474 8 20.75V20.75ZM5 15.75C4.9337 15.75 4.87011 15.7763 4.82322 15.8232C4.77634 15.8701 4.75 15.9337 4.75 16V19C4.75 19.0663 4.77634 19.1299 4.82322 19.1768C4.87011 19.2237 4.9337 19.25 5 19.25H8C8.0663 19.25 8.12989 19.2237 8.17678 19.1768C8.22366 19.1299 8.25 19.0663 8.25 19V16C8.25 15.9337 8.22366 15.8701 8.17678 15.8232C8.12989 15.7763 8.0663 15.75 8 15.75H5Z" fill="#111D3B"/>
</svg>
