<svg width="58" height="56" xmlns="http://www.w3.org/2000/svg"><g fill="#4680A5" fill-rule="nonzero"><path d="M28.5 19a9.503 9.503 0 0 0-8.088 4.523 1.198 1.198 0 0 0-.102.172A9.438 9.438 0 0 0 19 28.5c0 1.353.286 2.64.798 3.806.022.061.049.12.08.177C21.388 35.737 24.684 38 28.5 38a9.498 9.498 0 0 0 7.925-4.269 1.2 1.2 0 0 0 .117-.183 9.44 9.44 0 0 0 1.453-4.822c.003-.037.005-.075.005-.114l-.002-.037L38 28.5c0-5.238-4.261-9.5-9.5-9.5zm7.127 8.464h-4.152a5.414 5.414 0 0 0-3.854 1.596l-.788.788a3.13 3.13 0 0 1-2.228.923h-2.938a7.16 7.16 0 0 1-.37-2.271 7.16 7.16 0 0 1 .73-3.156h7.28a1.15 1.15 0 0 0 0-2.298h-5.503a7.17 7.17 0 0 1 4.696-1.748c3.62 0 6.623 2.684 7.127 6.166zm-12.69 5.605h1.668a5.414 5.414 0 0 0 3.853-1.596l.788-.788a3.132 3.132 0 0 1 2.229-.923h4.114a7.147 7.147 0 0 1-.729 2.113h-2.545a1.15 1.15 0 0 0 0 2.298h.615a7.163 7.163 0 0 1-4.43 1.53 7.192 7.192 0 0 1-5.564-2.634z"/><path d="M42.177 15.924c-2.408-2.636-5.517-4.663-8.99-5.863a1.117 1.117 0 0 0-1.423.708c-.2.594.113 1.24.699 1.442 3.123 1.078 5.913 2.896 8.07 5.255 2.287 2.504 3.705 5.49 4.1 8.633.59 4.716-.915 9.5-4.13 13.127-3.111 3.509-7.465 5.503-11.985 5.503-.1 0-.2 0-.3-.003-3.427-.067-6.713-1.208-9.362-3.233.34-.625.535-1.343.535-2.107 0-2.414-1.94-4.379-4.323-4.379-.451 0-.92.072-1.33.202 0 0-1.028-1.91-1.404-5.157a16.581 16.581 0 0 1 .29-5.422c.788-3.618 2.794-6.913 5.643-9.24 1.657-1.352 3.607-2.362 5.643-2.981.593-.18.93-.813.752-1.414a1.118 1.118 0 0 0-1.395-.761c-7.101 2.158-12.34 8.447-13.154 15.923-.382 3.51.207 7.119 1.757 10.286a4.395 4.395 0 0 0-1.124 2.943c0 2.415 1.938 4.38 4.322 4.38.813 0 1.574-.23 2.225-.627 3.062 2.416 6.89 3.78 10.882 3.857.114.003.229.004.343.004 5.156 0 10.116-2.268 13.652-6.256 3.651-4.118 5.36-9.56 4.686-14.93-.454-3.617-2.071-7.037-4.679-9.89zm-29.19 23.462c0-1.162.934-2.107 2.08-2.107 1.148 0 2.082.945 2.082 2.107 0 1.163-.934 2.108-2.081 2.108-1.147 0-2.08-.945-2.08-2.108z"/><path d="M58 17.675c0-1.44-.559-2.793-1.573-3.811a5.329 5.329 0 0 0-3.799-1.579c-.51 0-1.008.072-1.486.21a28.132 28.132 0 0 0-9.442-8.84A27.836 27.836 0 0 0 27.905 0C20.45 0 13.444 2.912 8.173 8.201 2.903 13.489 0 20.521 0 28.001c0 7.478 2.902 14.51 8.173 19.798C13.443 53.088 20.451 56 27.904 56c7.454 0 14.462-2.912 19.732-8.2 5.27-5.29 8.173-12.32 8.173-19.8 0-1.89-.19-3.776-.564-5.617A5.402 5.402 0 0 0 58 17.675zm-4.93 5.373A26.04 26.04 0 0 1 53.543 28c0 6.872-2.667 13.332-7.51 18.192-4.843 4.859-11.281 7.535-18.13 7.535-6.848 0-13.286-2.676-18.13-7.535C4.934 41.332 2.267 34.872 2.267 28S4.933 14.668 9.775 9.808c4.843-4.859 11.281-7.535 18.13-7.535a25.57 25.57 0 0 1 12.674 3.358 25.852 25.852 0 0 1 8.56 7.947 5.364 5.364 0 0 0-1.882 4.097c0 1.44.558 2.793 1.573 3.811a5.39 5.39 0 0 0 4.24 1.562zm1.755-3.17c-.365.367-.798.621-1.26.767a3.13 3.13 0 0 1-3.499-1.208 3.159 3.159 0 0 1-.252-3.08 3.102 3.102 0 0 1 5.01-.885 3.127 3.127 0 0 1 0 4.407z"/><path d="M26.073 10.382c.158.385.558.639.975.617.414-.022.776-.301.905-.694a1.01 1.01 0 0 0-.344-1.1 1.013 1.013 0 0 0-1.166-.039 1.013 1.013 0 0 0-.37 1.216z"/></g></svg>
