<svg width="59" height="44" xmlns="http://www.w3.org/2000/svg"><g fill="#4680A5" fill-rule="nonzero"><path d="M57.025 34.892h-.064v-5.195c0-12.966-8.998-24.204-21.495-26.99A2.994 2.994 0 0 0 34.64.92 2.96 2.96 0 0 0 32.487 0h-5.974a2.96 2.96 0 0 0-2.154.92 2.995 2.995 0 0 0-.825 1.788C11.037 5.493 2.04 16.73 2.04 29.697v5.195h-.064C.885 34.892 0 35.784 0 36.88v1.309c0 .865.544 1.626 1.354 1.893C9.03 42.608 19.027 44 29.5 44c10.473 0 20.47-1.392 28.146-3.918A1.981 1.981 0 0 0 59 38.189V36.88a1.984 1.984 0 0 0-1.975-1.988zM25.735 2.257c.205-.215.482-.333.778-.333h5.974a1.085 1.085 0 0 1 1.083 1.128l-.88 25.656a1.082 1.082 0 0 1-1.082 1.053h-4.216a1.082 1.082 0 0 1-1.082-1.053l-.88-25.656c-.01-.298.098-.58.304-.795zm31.354 35.932c0 .026-.012.056-.037.064-7.49 2.465-17.275 3.823-27.552 3.823-10.277 0-20.062-1.358-27.552-3.823-.025-.009-.036-.038-.036-.064V36.88c0-.035.028-.064.063-.064h36.7c.528 0 .956-.43.956-.962a.959.959 0 0 0-.956-.962H3.95v-5.195c0-9.67 5.38-18.305 13.5-22.687l2.075 14.614a.958.958 0 0 0 1.08.816.961.961 0 0 0 .812-1.088l-2.16-15.227a25.222 25.222 0 0 1 4.317-1.452l.825 24.102a2.992 2.992 0 0 0 2.993 2.91h4.216a2.993 2.993 0 0 0 2.993-2.91l.826-24.102c1.498.358 2.941.846 4.317 1.453l-2.16 15.226a.961.961 0 0 0 .947 1.098.958.958 0 0 0 .945-.826L41.55 7.01c8.121 4.382 13.5 13.017 13.5 22.687v5.195h-6.18a.959.959 0 0 0-.956.962c0 .532.428.962.955.962h8.156c.035 0 .064.03.064.065v1.308z"/><path d="M45.032 35h-2.064c-.535 0-.968.448-.968 1s.433 1 .968 1h2.064c.535 0 .968-.448.968-1s-.433-1-.968-1zM22.987 27.896l-.397-2.065c-.102-.53-.76-.897-1.472-.821-.712.075-1.206.566-1.105 1.094l.397 2.065c.093.483.65.831 1.287.831.061 0 .123-.003.185-.01.712-.075 1.206-.565 1.105-1.094zM37.882 25.01c-.711-.076-1.37.292-1.472.82l-.397 2.066c-.101.529.393 1.019 1.105 1.094.062.007.124.01.185.01.637 0 1.194-.348 1.287-.83l.397-2.066c.101-.528-.393-1.019-1.105-1.094z"/></g></svg>