<svg width="62" height="62" xmlns="http://www.w3.org/2000/svg"><g fill="#4680A5" fill-rule="nonzero"><path d="M32.561 29.44a1.5 1.5 0 1 0-2.122 2.12 1.5 1.5 0 0 0 2.122-2.12zM48.241 13.759a5.998 5.998 0 0 0-8.487 0 6.01 6.01 0 0 0 0 8.487 6.009 6.009 0 0 0 8.487 0 5.998 5.998 0 0 0 0-8.487zm-1.697 6.79a3.605 3.605 0 0 1-5.092 0 3.606 3.606 0 0 1 0-5.093 3.599 3.599 0 0 1 5.092 0 3.599 3.599 0 0 1 0 5.092z"/><path d="M61.648.352a1.198 1.198 0 0 0-.893-.351c-.272.01-6.743.27-14.435 2.988-6.164 2.177-11.301 5.293-15.27 9.262a45.74 45.74 0 0 0-2.583 2.812c-3.924-2.31-7.069-1.586-9.057-.522-4.577 2.45-7.41 9.1-7.41 13.858a1.202 1.202 0 0 0 2.052.85c2.414-2.414 5.392-2.263 6.364-2.135l.421.421a42.277 42.277 0 0 0-1.985 5.838c-.177.69-.117 1.42.146 2.088a11.383 11.383 0 0 0-3.246 2.288c-3.094 3.094-3.723 10.635-3.748 10.954a1.202 1.202 0 0 0 1.293 1.293c.32-.025 7.86-.653 10.954-3.747a11.383 11.383 0 0 0 2.288-3.245 3.394 3.394 0 0 0 2.09.144 42.282 42.282 0 0 0 5.836-1.985l.421.421c.128.973.279 3.95-2.135 6.364a1.202 1.202 0 0 0 .85 2.052c4.757 0 11.409-2.833 13.858-7.41 1.064-1.988 1.788-5.133-.522-9.057a45.756 45.756 0 0 0 2.813-2.583c3.969-3.969 7.084-9.107 9.26-15.27C61.73 7.988 61.99 1.517 62 1.245a1.202 1.202 0 0 0-.352-.893zm-46.96 25.462c.746-3.614 2.915-7.579 5.857-9.154 1.967-1.052 4.116-.949 6.401.302a48.6 48.6 0 0 0-5.05 8.232c-.018-.01-.234-.283-.636-.374-.166-.037-3.346-.72-6.573.994zm7.863 18.735c-1.653 1.653-5.53 2.524-7.98 2.88.356-2.45 1.228-6.327 2.88-7.98.926-.925 2-1.627 3.078-2.022l4.045 4.045c-.396 1.078-1.097 2.151-2.023 3.077zm5.48-3.73c-.348.09-.75-.041-1.05-.34a22337.974 22337.974 0 0 0-5.459-5.459c-.3-.3-.43-.703-.341-1.05a39.03 39.03 0 0 1 1.5-4.59l9.94 9.939a39.003 39.003 0 0 1-4.59 1.5zm17.309.636c-1.575 2.942-5.54 5.111-9.153 5.858 1.152-2.168 1.406-4.928.985-6.602-.098-.388-.351-.584-.366-.607a48.618 48.618 0 0 0 8.232-5.05c1.251 2.286 1.354 4.435.302 6.401zm2.71-12.205a43.628 43.628 0 0 1-3.467 3.11 46.18 46.18 0 0 1-9.581 5.94L23.7 27a46.172 46.172 0 0 1 5.94-9.583 43.619 43.619 0 0 1 3.11-3.467c3.56-3.56 8.156-6.395 13.662-8.435l10.072 10.072c-2.04 5.506-4.874 10.102-8.435 13.663zm9.3-16.198L48.948 4.65c4.578-1.422 8.56-1.954 10.547-2.146-.191 1.988-.724 5.97-2.145 10.547z"/><path d="M28.636 50.364a1.243 1.243 0 0 0-1.758 0l-3.514 3.515a1.242 1.242 0 1 0 1.758 1.757l3.514-3.515a1.242 1.242 0 0 0 0-1.757zM11.636 33.364a1.242 1.242 0 0 0-1.757 0l-3.515 3.514a1.243 1.243 0 0 0 1.757 1.758l3.515-3.514a1.243 1.243 0 0 0 0-1.758zM20.666 52.334a1.14 1.14 0 0 0-1.612 0l-7.72 7.72a1.14 1.14 0 0 0 1.612 1.612l7.72-7.72a1.14 1.14 0 0 0 0-1.612zM10.666 52.334a1.14 1.14 0 0 0-1.612 0l-7.72 7.72a1.14 1.14 0 0 0 1.612 1.612l7.72-7.72a1.14 1.14 0 0 0 0-1.612zM9.666 41.334a1.14 1.14 0 0 0-1.612 0l-7.72 7.72a1.14 1.14 0 1 0 1.612 1.612l7.72-7.72a1.14 1.14 0 0 0 0-1.612zM37.657 24.343a1.172 1.172 0 0 0-1.657 0L34.343 26A1.172 1.172 0 0 0 36 27.657L37.657 26c.457-.457.457-1.2 0-1.657z"/></g></svg>