<svg width="90" height="90" xmlns="http://www.w3.org/2000/svg"><g stroke="#236A97" stroke-width="2" fill="none" fill-rule="evenodd"><path d="M32.087 83H12V12h66v71H57.913"/><path d="M57.79 78H72V18H18v60h14.21M12 12h66V1H12zM17 7h3M23 7h3M28 7h3M34 7h40"/><path d="M56.355 48.275c0 6.258-5.083 11.327-11.355 11.327s-11.355-5.069-11.355-11.327S38.728 36.948 45 36.948s11.355 5.069 11.355 11.327z"/><path d="M61.336 55.028a7.07 7.07 0 0 1-1.276 8.27 7.114 7.114 0 0 1-8.29 1.273A7.101 7.101 0 0 1 45 69.513a7.098 7.098 0 0 1-6.77-4.942 7.114 7.114 0 0 1-8.29-1.274 7.064 7.064 0 0 1-1.277-8.269c-2.867-.906-4.954-3.58-4.954-6.754 0-3.171 2.087-5.846 4.954-6.752a7.07 7.07 0 0 1 1.277-8.27 7.114 7.114 0 0 1 8.29-1.273A7.1 7.1 0 0 1 45 27.036a7.102 7.102 0 0 1 6.77 4.943 7.114 7.114 0 0 1 8.29 1.274 7.07 7.07 0 0 1 1.276 8.269c2.869.906 4.954 3.58 4.954 6.752a7.084 7.084 0 0 1-4.954 6.754z"/><path d="M36.484 69.514V87.92L45 83.673l8.516 4.247V69.514M45 83.673v-7.08M45 42.611V53.94M45 42.611a4.254 4.254 0 0 1-4.258 4.248M81.903 18.54H89v59.47h-7.097M89 29.868h-7.097M84.742 24.205h-2.839M8.097 18.54H1v59.47h7.097M8.097 29.868H1M8.097 24.205H5.258"/></g></svg>