<svg xmlns="http://www.w3.org/2000/svg" viewBox="0 0 51.836 14.93"><path data-name="Tracé 11980" d="M9.689 11.854H4.296L3.27 14.93H-.001L5.557 0h2.851l5.588 14.93h-3.271zM5.126 9.362h3.737L6.982 3.774zm9.425 5.568V0h5.229a6.867 6.867 0 0 1 4.122 1.041 3.559 3.559 0 0 1 1.4 3.051 3.373 3.373 0 0 1-.564 1.933 3.258 3.258 0 0 1-1.569 1.225 3.152 3.152 0 0 1 1.81 1.159 3.426 3.426 0 0 1 .661 2.133 3.94 3.94 0 0 1-1.374 3.261 6.186 6.186 0 0 1-3.912 1.127zm3.076-6.5v4.03h2.636a2.543 2.543 0 0 0 1.7-.518 1.776 1.776 0 0 0 .61-1.43 1.875 1.875 0 0 0-2.126-2.082zm0-2.174h2.276q2.328-.041 2.328-1.856a1.715 1.715 0 0 0-.59-1.461 3.1 3.1 0 0 0-1.861-.446h-2.153zm17.914 5.6h-5.393l-1.026 3.074h-3.271L31.409 0h2.854l5.585 14.93h-3.271zm-4.563-2.492h3.732l-1.876-5.59zm12.5.308v5.258h-3.076V0h5.824a6.738 6.738 0 0 1 2.958.615 4.534 4.534 0 0 1 1.964 1.748 4.875 4.875 0 0 1 .687 2.579 4.287 4.287 0 0 1-1.5 3.461 6.257 6.257 0 0 1-4.158 1.266zm0-2.492h2.748a2.7 2.7 0 0 0 1.861-.574 2.088 2.088 0 0 0 .641-1.641 2.463 2.463 0 0 0-.646-1.774 2.413 2.413 0 0 0-1.784-.7h-2.82z" fill="#fff"/></svg>