<svg id="Calque_1" data-name="Calque 1" xmlns="http://www.w3.org/2000/svg" viewBox="0 0 60 60"><defs><style>.cls-1{fill:#2d3032;}</style></defs><title>abap</title><path id="Tracé_10739" data-name="Tracé 10739" class="cls-1" d="M13.69,34.85H8.3l-1,3.08H4L9.56,23h2.85L18,37.93H14.73ZM9.13,32.36h3.73L11,26.77Zm9.42,5.57V23h5.23a6.88,6.88,0,0,1,4.12,1,3.53,3.53,0,0,1,1.4,3.05A3.3,3.3,0,0,1,28.74,29a3.23,3.23,0,0,1-1.57,1.23A3.13,3.13,0,0,1,29,31.41a3.41,3.41,0,0,1,.66,2.13,4,4,0,0,1-1.37,3.26,6.15,6.15,0,0,1-3.91,1.13Zm3.08-6.5v4h2.63a2.53,2.53,0,0,0,1.7-.52,1.74,1.74,0,0,0,.61-1.43,1.87,1.87,0,0,0-1.63-2.09,2,2,0,0,0-.49,0Zm0-2.18H23.9c1.56,0,2.33-.64,2.33-1.85a1.73,1.73,0,0,0-.59-1.46,3.13,3.13,0,0,0-1.86-.45H21.63Zm17.91,5.6H34.15l-1,3.08H29.85L35.41,23h2.85l5.59,14.93H40.58ZM35,32.36h3.73l-1.87-5.59Zm12.5.31v5.26H44.4V23h5.83a6.86,6.86,0,0,1,3,.61,4.61,4.61,0,0,1,2,1.75,5,5,0,0,1,.69,2.58,4.32,4.32,0,0,1-1.5,3.46,6.24,6.24,0,0,1-4.16,1.27Zm0-2.49h2.75a2.67,2.67,0,0,0,1.86-.58A2.08,2.08,0,0,0,52.73,28a2.32,2.32,0,0,0-2.43-2.47H47.48Z"/></svg>