<svg xmlns="http://www.w3.org/2000/svg" viewBox="0 0 44.75 19.195"><path data-name="Tracé 11998" d="M9.69 11.854H4.296L3.271 14.93H0L5.557 0h2.851l5.588 14.93h-3.268zM5.128 9.362h3.731L6.983 3.774zm18.724.123a6.654 6.654 0 0 1-1.164 4.107 3.731 3.731 0 0 1-3.143 1.543 3.456 3.456 0 0 1-2.717-1.169v5.23h-2.964V3.836h2.748l.1 1.087a3.483 3.483 0 0 1 2.816-1.293 3.757 3.757 0 0 1 3.189 1.518 6.834 6.834 0 0 1 1.134 4.182zm-2.964-.215a4.366 4.366 0 0 0-.549-2.389 1.787 1.787 0 0 0-1.594-.841 1.941 1.941 0 0 0-1.917 1.066v4.542a1.973 1.973 0 0 0 1.938 1.1q2.122-.002 2.122-3.478zm9.065 5.865a5.447 5.447 0 0 1-3.973-1.5 5.321 5.321 0 0 1-1.533-3.989v-.287a6.7 6.7 0 0 1 .646-2.989 4.741 4.741 0 0 1 1.835-2.027 5.137 5.137 0 0 1 2.7-.713 4.6 4.6 0 0 1 3.584 1.436 5.833 5.833 0 0 1 1.307 4.071v1.21h-7.068a2.753 2.753 0 0 0 .867 1.743 2.619 2.619 0 0 0 1.83.656 3.2 3.2 0 0 0 2.68-1.241l1.456 1.63a4.449 4.449 0 0 1-1.8 1.471 5.921 5.921 0 0 1-2.531.529zm-.338-9.105a1.856 1.856 0 0 0-1.43.595 3.073 3.073 0 0 0-.7 1.7h4.122v-.236a2.191 2.191 0 0 0-.533-1.523 1.915 1.915 0 0 0-1.459-.536zm9.968 1.118l1.866-3.312h3.168L41.459 9.27l3.291 5.66h-3.178l-1.979-3.486-1.965 3.486h-3.193l3.293-5.66-3.15-5.435h3.179z" fill="#2e3032"/></svg>