<svg xmlns="http://www.w3.org/2000/svg" viewBox="0 0 66.199 15.34">
  <path data-name="Tracé 11999" d="M12.174 10.162a5.283 5.283 0 0 1-1.779 3.794 6.248 6.248 0 0 1-4.232 1.384 5.618 5.618 0 0 1-4.517-1.933A7.925 7.925 0 0 1 0 8.101v-.913a8.95 8.95 0 0 1 .759-3.794A5.686 5.686 0 0 1 2.928.877 6.075 6.075 0 0 1 6.204 0a6.087 6.087 0 0 1 4.163 1.384 5.677 5.677 0 0 1 1.825 3.886H9.116a3.118 3.118 0 0 0-.8-2.1 2.981 2.981 0 0 0-2.107-.651 2.614 2.614 0 0 0-2.3 1.1 6.178 6.178 0 0 0-.784 3.42v1.128a6.612 6.612 0 0 0 .733 3.538 2.565 2.565 0 0 0 2.312 1.118 3.037 3.037 0 0 0 2.128-.651 2.941 2.941 0 0 0 .8-2.015zm14.281-2.153a9.013 9.013 0 0 1-.781 3.865 5.869 5.869 0 0 1-2.228 2.561 6.169 6.169 0 0 1-3.327.9 6.211 6.211 0 0 1-3.312-.892 5.926 5.926 0 0 1-2.256-2.548 8.755 8.755 0 0 1-.81-3.809v-.738a8.965 8.965 0 0 1 .795-3.881A5.917 5.917 0 0 1 16.782.893a6.177 6.177 0 0 1 3.317-.9 6.177 6.177 0 0 1 3.317.9 5.917 5.917 0 0 1 2.246 2.574 8.94 8.94 0 0 1 .795 3.871zm-3.117-.674a6.283 6.283 0 0 0-.841-3.568 2.74 2.74 0 0 0-2.4-1.22 2.741 2.741 0 0 0-2.389 1.2 6.211 6.211 0 0 0-.851 3.532v.728a6.361 6.361 0 0 0 .841 3.548 2.733 2.733 0 0 0 2.42 1.261 2.708 2.708 0 0 0 2.379-1.215 6.324 6.324 0 0 0 .841-3.543zm5.352 7.8V.205h5.23a6.867 6.867 0 0 1 4.122 1.041 3.559 3.559 0 0 1 1.4 3.051 3.373 3.373 0 0 1-.564 1.933 3.258 3.258 0 0 1-1.564 1.225 3.152 3.152 0 0 1 1.81 1.159 3.426 3.426 0 0 1 .661 2.133 3.94 3.94 0 0 1-1.374 3.26 6.186 6.186 0 0 1-3.917 1.128zm3.076-6.5v4.03h2.636a2.543 2.543 0 0 0 1.7-.518 1.776 1.776 0 0 0 .61-1.43 1.875 1.875 0 0 0-2.126-2.082zm0-2.174h2.277q2.331-.042 2.331-1.857a1.715 1.715 0 0 0-.59-1.461 3.1 3.1 0 0 0-1.861-.446h-2.156zm22.59 1.548a9.013 9.013 0 0 1-.782 3.865 5.869 5.869 0 0 1-2.228 2.561 6.169 6.169 0 0 1-3.327.9 6.211 6.211 0 0 1-3.312-.892 5.926 5.926 0 0 1-2.256-2.543 8.755 8.755 0 0 1-.81-3.809v-.738a8.965 8.965 0 0 1 .795-3.881A5.917 5.917 0 0 1 44.682.898a6.177 6.177 0 0 1 3.317-.9 6.177 6.177 0 0 1 3.317.9 5.917 5.917 0 0 1 2.246 2.574 8.94 8.94 0 0 1 .795 3.871zm-3.117-.674a6.283 6.283 0 0 0-.841-3.568 2.74 2.74 0 0 0-2.4-1.22 2.741 2.741 0 0 0-2.389 1.2 6.211 6.211 0 0 0-.851 3.532v.728a6.361 6.361 0 0 0 .841 3.548 2.733 2.733 0 0 0 2.42 1.261 2.708 2.708 0 0 0 2.379-1.215 6.324 6.324 0 0 0 .841-3.543zm8.429 5.332H66.2v2.468h-9.609V.205h3.076z" fill="#2e3032"/>
</svg>