<svg xmlns="http://www.w3.org/2000/svg" viewBox="0 0 91.042 34.014"><defs><style>.cls-1{fill:#2e3032}</style></defs><g id="Groupe_7546" data-name="Groupe 7546" transform="translate(-6892.702 -10514.941)"><g id="Groupe_7247" data-name="Groupe 7247" transform="translate(6899.396 10523.601)"><g id="Groupe_7246" data-name="Groupe 7246"><g id="Groupe_7245" data-name="Groupe 7245"><path id="Tracé_11502" data-name="Tracé 11502" class="cls-1" d="M39.977 99.04c-.177 0-.222-.089-.133-.222l.931-1.2a.635.635 0 0 1 .488-.222h15.824c.177 0 .222.133.133.266l-.754 1.152a.675.675 0 0 1-.443.266z" transform="translate(-39.8 -97.4)"/></g></g></g><g id="Groupe_7250" data-name="Groupe 7250" transform="translate(6892.702 10527.679)"><g id="Groupe_7249" data-name="Groupe 7249"><g id="Groupe_7248" data-name="Groupe 7248"><path id="Tracé_11503" data-name="Tracé 11503" class="cls-1" d="M24.877 108.24c-.177 0-.222-.089-.133-.222l.931-1.2a.635.635 0 0 1 .488-.222h20.213a.2.2 0 0 1 .222.266l-.355 1.064a.388.388 0 0 1-.4.266z" transform="translate(-24.7 -106.6)"/></g></g></g><g id="Groupe_7253" data-name="Groupe 7253" transform="translate(6903.429 10531.757)"><g id="Groupe_7252" data-name="Groupe 7252"><g id="Groupe_7251" data-name="Groupe 7251"><path id="Tracé_11504" data-name="Tracé 11504" class="cls-1" d="M49.077 117.44c-.177 0-.222-.133-.133-.266l.621-1.108a.588.588 0 0 1 .443-.266h8.865c.177 0 .266.133.266.31l-.089 1.064a.333.333 0 0 1-.31.31z" transform="translate(-48.9 -115.8)"/></g></g></g><g id="Groupe_7257" data-name="Groupe 7257" transform="translate(6916.867 10514.941)"><g id="CXHf1q_3_"><g id="Groupe_7256" data-name="Groupe 7256"><g id="Groupe_7254" data-name="Groupe 7254"><path id="Tracé_11505" data-name="Tracé 11505" class="cls-1" d="M111.966 87.367c-2.793.709-4.7 1.241-7.447 1.95-.665.177-.709.222-1.285-.443a5.934 5.934 0 0 0-2.083-1.684 7.707 7.707 0 0 0-8.023.665 9.427 9.427 0 0 0-4.521 8.422 6.949 6.949 0 0 0 5.984 6.959 8.181 8.181 0 0 0 7.536-2.926c.4-.488.754-1.02 1.2-1.64h-8.56c-.931 0-1.152-.576-.842-1.33.576-1.374 1.64-3.679 2.261-4.832a1.2 1.2 0 0 1 1.108-.709h16.135c-.089 1.2-.089 2.394-.266 3.59a18.9 18.9 0 0 1-3.635 8.688 18.465 18.465 0 0 1-12.633 7.536 15.7 15.7 0 0 1-11.924-2.926 13.923 13.923 0 0 1-5.63-9.841 17.4 17.4 0 0 1 3.768-12.986 19.671 19.671 0 0 1 12.412-7.669 15.275 15.275 0 0 1 11.747 2.172 13.9 13.9 0 0 1 5.142 6.25c.265.399.09.621-.444.754z" transform="translate(-79.215 -77.866)"/></g><g id="Groupe_7255" data-name="Groupe 7255" transform="translate(31.597 .41)"><path id="Tracé_11506" data-name="Tracé 11506" class="cls-1" d="M166.323 112.4a16.629 16.629 0 0 1-10.816-3.9 13.9 13.9 0 0 1-4.787-8.555 16.921 16.921 0 0 1 3.59-13.387 18.582 18.582 0 0 1 12.411-7.4c4.521-.8 8.777-.355 12.633 2.261A13.8 13.8 0 0 1 185.6 91.3a17.111 17.111 0 0 1-5.1 15.027A20.312 20.312 0 0 1 169.869 112c-1.197.218-2.394.262-3.546.4zm10.55-17.908a12.755 12.755 0 0 0-.133-1.463 7.3 7.3 0 0 0-9.043-5.9 9.683 9.683 0 0 0-7.757 7.713 7.3 7.3 0 0 0 4.078 8.378 8.126 8.126 0 0 0 7.225-.266 9.7 9.7 0 0 0 5.629-8.467z" transform="translate(-150.496 -78.792)"/></g></g></g></g></g></svg>