<svg id="Calque_1" data-name="Calque 1" xmlns="http://www.w3.org/2000/svg" viewBox="0 0 75.67 60"><defs><style>.cls-1{isolation:isolate;}.cls-2{fill:#2d3032;}.cls-3{fill:#464a4d;}.cls-4{fill:#fff;}.cls-5{fill:#231f20;}</style></defs><title>go</title><g id="Groupe_6151" data-name="Groupe 6151"><g id="GO" class="cls-1"><g class="cls-1"><path class="cls-2" d="M57.65,36.9a13.24,13.24,0,0,1-4.34.78A7.28,7.28,0,0,1,48,35.81a7.29,7.29,0,0,1-2-5.27c0-4.22,2.92-7.31,7.67-7.31a8.81,8.81,0,0,1,3.52.65l-.44,1.49a7.4,7.4,0,0,0-3.13-.61A5.3,5.3,0,0,0,48,30.45c0,3.59,2.17,5.71,5.46,5.71a6,6,0,0,0,2.44-.37V31.57H53V30.1h4.66Z"/><path class="cls-2" d="M71.7,30.31c0,4.87-3,7.45-6.57,7.45s-6.36-2.9-6.36-7.18c0-4.49,2.79-7.43,6.57-7.43S71.7,26.11,71.7,30.31Zm-11,.23c0,3,1.64,5.73,4.51,5.73s4.54-2.67,4.54-5.88c0-2.81-1.47-5.75-4.51-5.75S60.72,27.43,60.72,30.54Z"/></g></g><g id="go-seeklogo.com"><path id="Tracé_10742" data-name="Tracé 10742" class="cls-3" d="M7.41,31.55c.06,1.29,1.35.69,1.92.29s.71-.06.76-.81a10.48,10.48,0,0,0,.07-1.48,3.61,3.61,0,0,0-2.43.62c-.36.25-1,1.07-.32,1.38"/><path id="Tracé_10743" data-name="Tracé 10743" class="cls-3" d="M33,47.36c1,.61,2.8,2.45,1.32,3.35-1.43,1.3-2.23-1.43-3.47-1.81A3.3,3.3,0,0,1,33,47.36Z"/><path id="Tracé_10744" data-name="Tracé 10744" class="cls-3" d="M15.39,49.44c-1.16.17-1.81,1.22-2.79,1.76s-1.26-.18-1.33-.33-.13.06-.35-.16c-.85-1.34.87-2.31,1.77-3,1.25-.25,2,.84,2.7,1.7Z"/><path id="Tracé_10745" data-name="Tracé 10745" class="cls-3" d="M38.51,31.39c-.06,1.29-1.34.69-1.92.29s-.71-.06-.76-.81a12.38,12.38,0,0,1-.06-1.49,3.65,3.65,0,0,1,2.42.63c.35.25,1,1.07.33,1.38"/><path id="Tracé_10746" data-name="Tracé 10746" class="cls-2" d="M35.11,15.71c4.45-1.57,1-7.67-2.91-5-2.55-2.18-6.05-2.58-9.74-2.58-3.6.29-7,.95-9.43,3-3.87-2.5-7.44,3.49-2.9,5-1.27,4.94.18,10,0,15-.19,4.51-1.38,10.57,1.13,14.63,2.14,3.47,6.73,4.7,10.51,4.84,4.83.17,10.69-1,13-5.69,2.25-4.46,1.63-10,1.34-14.82s.25-9.79-1-14.47Z"/><path id="Tracé_10747" data-name="Tracé 10747" d="M38.85,30.63a2.06,2.06,0,0,0-.59-.72,3.83,3.83,0,0,0-2.07-.67c0-.77,0-1.62,0-2.7v-1a56.44,56.44,0,0,0-.22-6.1,24.15,24.15,0,0,0-.65-3.69,3,3,0,0,0,1.93-1.85,3,3,0,0,0-.3-2.39,3.13,3.13,0,0,0-4.25-1.26,2.87,2.87,0,0,0-.43.28A9.41,9.41,0,0,0,29.42,9,19.69,19.69,0,0,0,22.48,8v.13l0-.13a20.35,20.35,0,0,0-7.37,1.67A9.16,9.16,0,0,0,13,11a3.32,3.32,0,0,0-2.77-.44,3.43,3.43,0,0,0-2,1.6,2.83,2.83,0,0,0-.24,2.39A3,3,0,0,0,10,16.26a18.06,18.06,0,0,0-.5,4.07,47.16,47.16,0,0,0,.26,5.18c.17,1.94.23,2.82.25,3.9a3.72,3.72,0,0,0-2.33.65,1.81,1.81,0,0,0-.59.72.61.61,0,0,0,.19.83l0,0c.05.6.38.87.9.82a2.71,2.71,0,0,0,1.21-.51,1.35,1.35,0,0,1,.26-.15l.1,0,.1,0a.31.31,0,0,0,.1,0c0,.58-.07,1.2-.19,2.6-.12,1.57-.18,2.43-.21,3.4-.11,3.57.31,6.16,1.59,8.22a7.9,7.9,0,0,0,1.46,1.75c-.12.07-.59.42-.74.54a3.88,3.88,0,0,0-1.1,1.11,1.35,1.35,0,0,0,0,1.48h0v0c.14.13.21.17.31.17h0s0,0,0,.06a1.63,1.63,0,0,0,.11.17,1,1,0,0,0,1.34.1h0a6.78,6.78,0,0,0,1-.75l0,0a3.28,3.28,0,0,1,1.7-1l.2,0,.24.1a17.86,17.86,0,0,0,5.91,1.17,20,20,0,0,0,7.49-1A13.74,13.74,0,0,0,30.92,49a3.2,3.2,0,0,1,1.13,1,.09.09,0,0,1,0,.05l0,0,.09.1a2.77,2.77,0,0,0,1,.86,1.08,1.08,0,0,0,1.22-.28c.72-.45.77-1.15.3-1.95a5.26,5.26,0,0,0-1.47-1.54A8.53,8.53,0,0,0,34.91,45a18.81,18.81,0,0,0,1.63-8.78c0-1.28-.06-2.39-.2-4.51v-.06a1.18,1.18,0,0,1,.19.11,3,3,0,0,0,1.21.52c.51,0,.85-.23.9-.83h0a.62.62,0,0,0,.22-.85Zm-4-20.36a3,3,0,0,1,1.8,1.43A2.69,2.69,0,0,1,37,13.88a2.72,2.72,0,0,1-1.78,1.67,19.8,19.8,0,0,0-.66-2,.91.91,0,0,0,.25-1.25,1,1,0,0,0-1.3-.45,9.54,9.54,0,0,0-1.06-1.14,3,3,0,0,1,2.46-.47ZM8.27,14.49a2.58,2.58,0,0,1,.22-2.17,3.05,3.05,0,0,1,4.34-1.1,8.31,8.31,0,0,0-1.3,1.48c-.65-.34-1.31-.4-1.69.29s.07,1.2.7,1.55c-.08.21-.17.43-.25.66s-.17.56-.25.85A2.88,2.88,0,0,1,8.27,14.49Zm1.51,17-.09,0-.11.05a1.28,1.28,0,0,0-.3.17,2.35,2.35,0,0,1-1.1.47c-.37,0-.58-.13-.62-.58a.75.75,0,0,0,.47-.3l-.2-.15c-.07.1-.15.14-.37.21h0l0,0c-.2-.12-.23-.29-.12-.54a1.84,1.84,0,0,1,.51-.63,3.5,3.5,0,0,1,2.2-.6c0,.32,0,.63,0,.93a.34.34,0,0,1,0,.1A2.22,2.22,0,0,1,10,31h0c0,.36-.06.41-.2.47Zm3.77,18.84,0,0a5.8,5.8,0,0,1-1,.73c-.47.29-.8.22-1-.05l-.09-.13,0,0h0a1.64,1.64,0,0,1,.34-.73v0a2.56,2.56,0,0,0,.27-.45l-.23-.1a3.38,3.38,0,0,1-.24.41v0a2,2,0,0,0-.37.75h-.05L11,50.64c-.49-.77-.1-1.43,1-2.26.13-.1.6-.42.72-.52s0,0,.07,0a10.43,10.43,0,0,0,2.34,1.49h0l0,0a3.85,3.85,0,0,0-1.61,1Zm21-1.36c.39.65.37,1.17-.11,1.53a2.9,2.9,0,0,1-.12-.28s0,0,0,0a2.17,2.17,0,0,0-.5-.9l-.17.18a2,2,0,0,1,.45.8v0c.06.16.1.26.14.35a.81.81,0,0,1-.92.19,3.16,3.16,0,0,1-.91-.8l-.07-.1,0,0,0,0a4,4,0,0,0-1-1,9.73,9.73,0,0,0,1.88-1.37A5.87,5.87,0,0,1,34.51,49Zm.17-4a9.43,9.43,0,0,1-5.51,4.61,19.77,19.77,0,0,1-7.4,1c-4.58-.16-8.55-1.76-10.41-4.78-1.25-2-1.67-4.57-1.55-8.09,0-1,.08-1.82.21-3.4.14-1.77.17-2.28.21-3.08,0-.57,0-1.16,0-1.79,0-1.1-.08-2-.25-3.93a46.62,46.62,0,0,1-.26-5.15,16.82,16.82,0,0,1,.81-5.08A8.83,8.83,0,0,1,15.2,9.9a20.06,20.06,0,0,1,7.28-1.65,19.47,19.47,0,0,1,6.86.94,8.74,8.74,0,0,1,4.95,4.41,20.81,20.81,0,0,1,1.37,5.88,56.07,56.07,0,0,1,.23,6.08v1c0,1.51,0,2.57.1,3.64,0,.41,0,.58.1,1.57.14,2.12.19,3.22.2,4.49a18.59,18.59,0,0,1-1.61,8.7ZM38.5,31.27h0l0,0a.68.68,0,0,1-.38-.21l-.2.15a.84.84,0,0,0,.48.3c0,.45-.27.61-.63.58a2.63,2.63,0,0,1-1.1-.47,2.14,2.14,0,0,0-.3-.17h0c0-.69,0-.86-.07-1.23l0-.67a3.34,3.34,0,0,1,1.91.61,1.73,1.73,0,0,1,.51.63.32.32,0,0,1,0,.46l-.08.05Z"/><g id="Groupe_6146" data-name="Groupe 6146"><path id="Tracé_10748" data-name="Tracé 10748" class="cls-4" d="M24.35,21a10.39,10.39,0,0,1,0,2c-.18.33-.5.36-.79.49a1.18,1.18,0,0,1-.9-.7,13,13,0,0,1,.07-2.25,3.07,3.07,0,0,1,.9.14,3.11,3.11,0,0,1,.7.31Z"/><path id="Tracé_10749" data-name="Tracé 10749" class="cls-4" d="M20.82,21.07c-.35,1.33.46,3.48,1.8,1.71a12.58,12.58,0,0,1,.05-2.21,8.94,8.94,0,0,0-1.84.5Z"/><path id="Tracé_10750" data-name="Tracé 10750" d="M24.51,21.61c0-.37,0-.52,0-.71v-.09l-.09,0-1.57-.49v-.09l-.16,0h0l-1.77.45-.06,0,0,.06a2.94,2.94,0,0,0,.14,2.27c.4.7,1.05.71,1.71-.09a1.28,1.28,0,0,0,.94.67h.07l.19-.07h0a1,1,0,0,0,.64-.47h0v0a3.59,3.59,0,0,0,.05-.73c0-.19,0-.36,0-.71Zm-2-.46c0,.23,0,.31,0,.44a7.49,7.49,0,0,0,0,1.16c-.58.74-1.05.74-1.36.18a2.67,2.67,0,0,1-.13-2l1.57-.4c0,.16,0,.33,0,.61ZM24.26,23c-.09.15-.2.22-.5.32h0l-.16.06a1,1,0,0,1-.76-.6,6.2,6.2,0,0,1,0-1.14c0-.13,0-.22,0-.44a5.82,5.82,0,0,0,0-.62l1.36.41c0,.16,0,.31,0,.63s0,.52,0,.72a2.76,2.76,0,0,1-.05.64Z"/></g><g id="Groupe_6147" data-name="Groupe 6147"><path id="Tracé_10751" data-name="Tracé 10751" class="cls-4" d="M13.31,15.59c1.15,4.46,8.3,3.32,8-1.17-.33-5.36-9.13-4.33-8,1.17"/><path id="Tracé_10752" data-name="Tracé 10752" d="M21.46,14.41a3.64,3.64,0,0,0-1.59-2.94,4.54,4.54,0,0,0-3.09-.67A4.49,4.49,0,0,0,14,12.24a3.81,3.81,0,0,0-.77,3.34l.11,0-.11,0C14.37,20.18,21.74,19.07,21.46,14.41Zm-8,1.15a3.57,3.57,0,0,1,.73-3.14,4.21,4.21,0,0,1,2.65-1.37,4.26,4.26,0,0,1,2.93.63,3.49,3.49,0,0,1,1.5,2.77c.26,4.36-6.69,5.4-7.8,1.11Z"/><ellipse id="Ellipse_88" data-name="Ellipse 88" cx="15.28" cy="14.85" rx="1.21" ry="1.31"/><ellipse id="Ellipse_89" data-name="Ellipse 89" class="cls-4" cx="15.83" cy="15.15" rx="0.29" ry="0.34"/></g><g id="Groupe_6148" data-name="Groupe 6148"><path id="Tracé_10753" data-name="Tracé 10753" class="cls-4" d="M23.34,14.75c.89,5.13,9.27,3.77,8.06-1.4C30.32,8.71,23,10,23.34,14.75"/><path id="Tracé_10754" data-name="Tracé 10754" d="M31.52,13.33c-1.11-4.78-8.6-3.47-8.3,1.43h0a4,4,0,0,0,4.67,3.32l.28-.06a4.44,4.44,0,0,0,2.7-1.48,3.62,3.62,0,0,0,.65-3.22Zm-.84,3.07a4.25,4.25,0,0,1-2.55,1.4A3.84,3.84,0,0,1,23.5,15c0-.08,0-.16-.05-.24-.27-4.62,6.79-5.86,7.84-1.36A3.36,3.36,0,0,1,30.68,16.4Z"/><ellipse id="Ellipse_90" data-name="Ellipse 90" cx="25.4" cy="14.52" rx="1.19" ry="1.31"/><ellipse id="Ellipse_91" data-name="Ellipse 91" class="cls-4" cx="25.95" cy="14.82" rx="0.28" ry="0.34"/></g><g id="Groupe_6150" data-name="Groupe 6150"><path id="Tracé_10755" data-name="Tracé 10755" class="cls-3" d="M21.08,18.38a1.54,1.54,0,0,0-1.27,2.17c.67,1.22,2.18-.11,3.12,0s2,1.15,2.83.2-.41-2.07-1.5-2.52l-3.18.14Z"/><path id="Tracé_10756" data-name="Tracé 10756" class="cls-5" d="M25.89,19.21a4.19,4.19,0,0,0-1.56-1.07h0l-3.2.12a1.68,1.68,0,0,0-1.5,1.85,1.48,1.48,0,0,0,.13.51,1.06,1.06,0,0,0,.89.59,2.93,2.93,0,0,0,1-.21.64.64,0,0,1,.15,0,2.37,2.37,0,0,1,1.11-.24h0A2.62,2.62,0,0,1,24,21a3.19,3.19,0,0,0,.95.3,1.13,1.13,0,0,0,1-.41,1.15,1.15,0,0,0,0-1.63v0Zm-.22,1.48a.88.88,0,0,1-.76.33,2.67,2.67,0,0,1-.87-.27,2.82,2.82,0,0,0-1.1-.3,2.65,2.65,0,0,0-1.24.25l-.15.05c-.91.31-1.35.29-1.65-.26a1.44,1.44,0,0,1,.76-1.89,1.19,1.19,0,0,1,.42-.11l3.16-.12a3.82,3.82,0,0,1,1.45,1,.9.9,0,0,1,0,1.27l-.06.05Z"/><g id="Groupe_6149" data-name="Groupe 6149"><path id="Tracé_10757" data-name="Tracé 10757" d="M24.51,17.84c-.38-1.42-3.63-1.21-3.55.49.16,1.26,3.93.92,3.55-.49Z"/></g></g></g></g></svg>