<svg id="Calque_1" data-name="Calque 1" xmlns="http://www.w3.org/2000/svg" viewBox="0 0 60 60"><defs><style>.cls-1{fill:#2d3032;}.cls-2{fill:#464a4d;}.cls-3{fill:#ebebeb;}.cls-4{fill:#fff;}</style></defs><title>html5</title><g id="HTML5_logo_and_wordmark" data-name="HTML5 logo and wordmark"><path id="Tracé_10304" data-name="Tracé 10304" d="M14.37,5h2.29V7.27h2.12V5h2.29v6.88H18.78V9.59h-2.1v2.29H14.37M24.1,7.29h-2V5h6.35V7.29h-2v4.59H24.1M29.44,5h2.4l1.47,2.42L34.79,5h2.4v6.88H34.9V8.47l-1.61,2.47-1.6-2.47v3.41H29.44M38.33,5h2.29V9.61h3.26v2.27H38.33"/><path id="Tracé_10305" data-name="Tracé 10305" class="cls-1" d="M14.29,52,11,15H47.18L43.89,52l-14.83,4.1"/><path id="Tracé_10306" data-name="Tracé 10306" class="cls-2" d="M29.09,52.91V18.06H43.88L41.05,49.57"/><path id="Tracé_10307" data-name="Tracé 10307" class="cls-3" d="M17.72,22.58H29.09v4.53h-6.4l.42,4.63h6v4.52H19m.2,2.27H23.7L24,42.15l5.07,1.36v4.73l-9.29-2.6"/><path id="Tracé_10308" data-name="Tracé 10308" class="cls-4" d="M40.42,22.58H29.07v4.53H40m-.41,4.63H29.07v4.53h5.58l-.53,5.88-5,1.36v4.71l9.27-2.58"/></g></svg>