<svg xmlns="http://www.w3.org/2000/svg" viewBox="0 0 40.057 56.531"><defs><style>.cls-1{fill:#2e3032}.cls-3{fill:#fff}</style></defs><g id="Groupe_7549" data-name="Groupe 7549" transform="translate(-6925.663 -10618)"><path id="Tracé_10304" data-name="Tracé 10304" class="cls-1" d="M108.4 0h2.539v2.517h2.341V0h2.539v7.618h-2.539V5.079h-2.319v2.539H108.4m10.776-5.079h-2.241V0h7.033v2.539h-2.252v5.079h-2.539M125.083 0h2.661l1.634 2.683L131.012 0h2.661v7.618h-2.539V3.842l-1.778 2.738-1.778-2.738v3.776h-2.5M134.932 0h2.539v5.1h3.6v2.518h-6.139" transform="translate(6820.995 10618)"/><path id="Tracé_10305" data-name="Tracé 10305" class="cls-1" d="M78.244 141.5L74.6 100.6h40.057l-3.644 40.874-16.413 4.549" transform="translate(6851.063 10528.508)"/><path id="Tracé_10306" data-name="Tracé 10306" d="M256 169.589V131h16.374l-3.125 34.89" transform="translate(6689.692 10501.464)" fill="#4a4d50"/><path id="Tracé_10307" data-name="Tracé 10307" class="cls-3" d="M142 176.3h12.587v5.013H147.5l.464 5.134h6.625v5h-11.22m.221 2.517h5.035l.353 4.008 5.609 1.5v5.234l-10.29-2.871" transform="translate(6791.105 10461.165)"/><path id="Tracé_10308" data-name="Tracé 10308" class="cls-3" d="M268.365 176.3H255.8v5.013h12.1m-.453 5.134H255.8v5.013h6.183l-.585 6.514-5.6 1.5v5.211l10.268-2.849" transform="translate(6689.87 10461.165)"/></g></svg>