<svg id="Groupe_7521" data-name="Groupe 7521" xmlns="http://www.w3.org/2000/svg" viewBox="0 0 39.004 72.543"><defs><style>.cls-1{fill:#fff;fill-rule:evenodd}</style></defs><path id="Tracé_10176" data-name="Tracé 10176" class="cls-1" d="M97.814 349.592s-1.9 1.106 1.354 1.479a28.484 28.484 0 0 0 10.3-.436 18.015 18.015 0 0 0 2.74 1.336c-9.741 4.173-22.047-.242-14.4-2.38z" transform="translate(-84.919 -311.112)"/><path id="Tracé_10177" data-name="Tracé 10177" class="cls-1" d="M84.688 300.1s-2.132 1.578 1.125 1.915a40.2 40.2 0 0 0 13.3-.638 5.88 5.88 0 0 0 2.046 1.248c-11.776 3.445-24.892.271-16.467-2.525z" transform="translate(-72.984 -267.071)"/><path id="Tracé_10178" data-name="Tracé 10178" class="cls-1" d="M179.7 105.966c2.4 2.764-.63 5.25-.63 5.25s6.094-3.145 3.3-7.086c-2.614-3.673-4.619-5.5 6.233-11.791 0 0-17.034 4.253-8.9 13.628z" transform="translate(-157.96 -82.174)"/><path id="Tracé_10179" data-name="Tracé 10179" class="cls-1" d="M43.326 382.8s1.407 1.16-1.549 2.057c-5.621 1.7-23.4 2.216-28.34.068-1.774-.773 1.554-1.844 2.6-2.07a6.8 6.8 0 0 1 1.715-.193c-1.974-1.39-12.761 2.731-5.479 3.912 19.86 3.219 36.2-1.45 31.051-3.774z" transform="translate(-8.704 -340.286)"/><path id="Tracé_10180" data-name="Tracé 10180" class="cls-1" d="M54.825 248.756s-9.043 2.148-3.2 2.929a67.916 67.916 0 0 0 11.963-.13c3.743-.314 7.5-.986 7.5-.986a15.948 15.948 0 0 0-2.274 1.217c-9.185 2.416-26.925 1.291-21.817-1.179a17.094 17.094 0 0 1 7.83-1.851z" transform="translate(-41.015 -221.368)"/><path id="Tracé_10181" data-name="Tracé 10181" class="cls-1" d="M271.338 254.01c9.336-4.85 5.019-9.511 2.006-8.884a7.061 7.061 0 0 0-1.067.287 1.7 1.7 0 0 1 .8-.615c5.961-2.095 10.544 6.18-1.922 9.457a.829.829 0 0 0 .187-.245z" transform="translate(-241.305 -217.555)"/><path id="Tracé_10182" data-name="Tracé 10182" class="cls-1" d="M128.721 0s5.169 5.172-4.9 13.123c-8.078 6.381-1.842 10.017 0 14.175-4.716-4.255-8.175-8-5.855-11.486 3.4-5.112 12.84-7.597 10.755-15.812z" transform="translate(-104.316)"/><path id="Tracé_10183" data-name="Tracé 10183" class="cls-1" d="M76.926 413.781c8.96.573 22.722-.319 23.047-4.559 0 0-.626 1.607-7.405 2.882a73.621 73.621 0 0 1-22.677.349s1.146.948 7.034 1.327z" transform="translate(-62.199 -364.178)"/><path id="Tracé_10184" data-name="Tracé 10184" class="cls-1" d="M337.22 518.483h-.273v-.153h.735v.153h-.272v.762h-.19v-.762zm1.467.039l-.271.724h-.125l-.269-.724v.724h-.18v-.915h.264l.249.648.25-.648h.263v.915h-.175v-.724z" transform="translate(-299.859 -461.277)"/><path id="Tracé_10185" data-name="Tracé 10185" class="cls-1" d="M66.813 525.293a4.07 4.07 0 0 1-2.54 1.144 1.62 1.62 0 0 1-1.762-1.785c0-1.189.663-2.059 3.32-2.059h.982v2.7zm2.332 2.631v-8.144c0-2.082-1.187-3.456-4.049-3.456a10.682 10.682 0 0 0-4.323.938l.342 1.443a10.041 10.041 0 0 1 3.339-.664c1.649 0 2.358.664 2.358 2.037v1.03h-.822c-4 0-5.812 1.553-5.812 3.889 0 2.013 1.191 3.157 3.433 3.157a5.177 5.177 0 0 0 3.522-1.466l.183 1.236z" transform="translate(-53.554 -459.492)"/><path id="Tracé_10186" data-name="Tracé 10186" class="cls-1" d="M160.541 529.607h-2.908l-3.5-11.393h2.54l2.173 7 .483 2.1a43.88 43.88 0 0 0 2.264-9.1h2.471a46.188 46.188 0 0 1-3.521 11.393z" transform="translate(-137.166 -461.174)"/><path id="Tracé_10187" data-name="Tracé 10187" class="cls-1" d="M260.1 525.293a4.083 4.083 0 0 1-2.541 1.144 1.62 1.62 0 0 1-1.762-1.785c0-1.189.665-2.059 3.319-2.059h.984v2.7zm2.333 2.631v-8.144c0-2.082-1.191-3.456-4.049-3.456a10.683 10.683 0 0 0-4.325.938l.343 1.443a10.057 10.057 0 0 1 3.341-.664c1.647 0 2.357.664 2.357 2.037v1.03h-.824c-4.006 0-5.812 1.553-5.812 3.889 0 2.013 1.189 3.157 3.431 3.157a5.184 5.184 0 0 0 3.524-1.466l.184 1.236z" transform="translate(-225.568 -459.492)"/><path id="Tracé_10188" data-name="Tracé 10188" class="cls-1" d="M4.066 498.779a6.122 6.122 0 0 1-2.915 2.174L0 499.6a4.84 4.84 0 0 0 2.019-1.891 7.317 7.317 0 0 0 .436-3.3V481.4h2.479v12.829c0 2.532-.2 3.555-.868 4.552z" transform="translate(0 -428.41)"/></svg>