<svg id="Calque_1" data-name="Calque 1" xmlns="http://www.w3.org/2000/svg" viewBox="0 0 60 60"><defs><style>.cls-1{fill:#2d3032;}.cls-2{fill:#fff;}</style></defs><title>js</title><g id="Unofficial_JavaScript_logo_2" data-name="Unofficial JavaScript logo 2"><rect id="Rectangle_5722" data-name="Rectangle 5722" class="cls-1" x="5" y="5" width="50.54" height="50.54"/><path id="Tracé_10175" data-name="Tracé 10175" class="cls-2" d="M39,44.49a5.17,5.17,0,0,0,4.69,2.88c2,0,3.22-1,3.22-2.34,0-1.63-1.29-2.21-3.46-3.15l-1.18-.51c-3.43-1.46-5.7-3.29-5.7-7.16,0-3.56,2.71-6.27,6.95-6.27a7,7,0,0,1,6.76,3.8l-3.7,2.37a3.22,3.22,0,0,0-3.06-2,2.06,2.06,0,0,0-2.26,1.84,1.28,1.28,0,0,0,0,.19c0,1.43.88,2,2.92,2.88l1.19.51c4,1.73,6.31,3.5,6.31,7.46,0,4.28-3.36,6.62-7.87,6.62s-7.26-2.1-8.66-4.85Zm-16.78.41c.75,1.32,1.43,2.44,3.06,2.44s2.55-.61,2.55-3V28.21h4.75V44.42c0,4.92-2.89,7.16-7.1,7.16a7.38,7.38,0,0,1-7.12-4.34Z"/></g></svg>