<svg xmlns="http://www.w3.org/2000/svg" viewBox="0 0 41.206 64.473"><g data-name="Groupe 7528"><path data-name="Tracé 11989" d="M6.46 60.388l-1.043 1.084v2.883H4.292v-8.531h1.125v4.219l3.791-4.219h1.359L7.21 59.591l3.621 4.764H9.483zm4.74.738a3.745 3.745 0 0 1 .366-1.671 2.732 2.732 0 0 1 1.02-1.148 2.775 2.775 0 0 1 1.491-.4 2.674 2.674 0 0 1 2.095.9 3.449 3.449 0 0 1 .8 2.385v.063a3.777 3.777 0 0 1-.354 1.661 2.692 2.692 0 0 1-1.014 1.146 2.807 2.807 0 0 1-1.515.41 2.667 2.667 0 0 1-2.089-.9 3.432 3.432 0 0 1-.8-2.373zm1.09.129a2.712 2.712 0 0 0 .489 1.693 1.658 1.658 0 0 0 2.622-.009 2.966 2.966 0 0 0 .486-1.813 2.708 2.708 0 0 0-.5-1.69 1.574 1.574 0 0 0-1.315-.647 1.557 1.557 0 0 0-1.295.639 2.944 2.944 0 0 0-.487 1.827zm7.512-4.775v1.535h1.184v.84h-1.184v3.93a.878.878 0 0 0 .158.571.666.666 0 0 0 .539.19 2.624 2.624 0 0 0 .516-.07v.879a3.143 3.143 0 0 1-.832.117 1.35 1.35 0 0 1-1.1-.439 1.888 1.888 0 0 1-.369-1.248v-3.93h-1.151v-.84h1.154V56.48zm3.627 7.875h-1.084v-9h1.084zm2.912 0h-1.089v-6.34h1.084zm-1.172-8.021a.647.647 0 0 1 .161-.445.6.6 0 0 1 .478-.182.614.614 0 0 1 .48.182.64.64 0 0 1 .164.445.619.619 0 0 1-.164.439.626.626 0 0 1-.48.176.616.616 0 0 1-.478-.176.626.626 0 0 1-.161-.439zm3.932 1.681l.035.8a2.31 2.31 0 0 1 1.9-.914q2.01 0 2.027 2.268v4.186h-1.086v-4.2a1.459 1.459 0 0 0-.313-1.014 1.256 1.256 0 0 0-.958-.328 1.564 1.564 0 0 0-.926.281 1.91 1.91 0 0 0-.621.738v4.523h-1.084v-6.34z" fill="#fff"/><path d="M0 41.206l20.672-20.672 20.534 20.672z" fill="#cfd3d7"/><path data-name="Tracé 11935" d="M0 0h20.672L0 22.32z" fill="#676a71"/><path data-name="Tracé 11936" d="M20.672 0L0 21.771v19.435l20.672-20.672L41.206 0z" fill="#8a8c8f"/></g></svg>