<svg xmlns="http://www.w3.org/2000/svg" viewBox="0 0 59.297 64.561"><defs><style>.cls-1{fill:#fff}</style></defs><g id="Groupe_7531" data-name="Groupe 7531" transform="translate(-813.178 -1756)"><path id="Tracé_11990" data-name="Tracé 11990" class="cls-1" d="M11.223 7.01A5.277 5.277 0 0 1 10.8 9.2a3.2 3.2 0 0 1-1.2 1.427 3.289 3.289 0 0 1-1.8.492 3.183 3.183 0 0 1-3-1.907 5.064 5.064 0 0 1-.442-2.124v-.617A5.215 5.215 0 0 1 4.789 4.3a3.163 3.163 0 0 1 3-1.945 3.307 3.307 0 0 1 1.808.5 3.19 3.19 0 0 1 1.2 1.436 5.3 5.3 0 0 1 .422 2.188zM10.1 6.459a3.825 3.825 0 0 0-.606-2.329 2.01 2.01 0 0 0-1.705-.812 1.988 1.988 0 0 0-1.679.812 3.747 3.747 0 0 0-.63 2.253v.627a3.831 3.831 0 0 0 .62 2.311 2 2 0 0 0 1.7.841 1.989 1.989 0 0 0 1.688-.794 3.809 3.809 0 0 0 .612-2.276zm8 1.441a3.77 3.77 0 0 1-.668 2.335 2.134 2.134 0 0 1-1.793.882 2.21 2.21 0 0 1-1.857-.85l-.045.733h-1V2h1.084v3.357a2.2 2.2 0 0 1 1.811-.814 2.147 2.147 0 0 1 1.813.873 3.883 3.883 0 0 1 .659 2.391zm-1.084-.123a2.929 2.929 0 0 0-.416-1.711 1.416 1.416 0 0 0-1.23-.6 1.591 1.591 0 0 0-1.541 1V9.2a1.636 1.636 0 0 0 1.553 1 1.408 1.408 0 0 0 1.213-.6 3.115 3.115 0 0 0 .429-1.823zm3.576-3.117v7.072q0 1.828-1.658 1.828a2.011 2.011 0 0 1-.662-.105v-.867a2.1 2.1 0 0 0 .492.047.737.737 0 0 0 .554-.2.97.97 0 0 0 .19-.683V4.66zM19.4 2.979a.65.65 0 0 1 .161-.442.592.592 0 0 1 .472-.185.614.614 0 0 1 .48.182.64.64 0 0 1 .164.445.619.619 0 0 1-.164.439.626.626 0 0 1-.48.176.606.606 0 0 1-.475-.176.632.632 0 0 1-.158-.439zm5.572 8.139a2.77 2.77 0 0 1-2.1-.847 3.142 3.142 0 0 1-.809-2.265v-.2a3.8 3.8 0 0 1 .36-1.685 2.811 2.811 0 0 1 1.008-1.16 2.534 2.534 0 0 1 1.4-.419 2.374 2.374 0 0 1 1.922.814 3.526 3.526 0 0 1 .686 2.332v.451h-4.292a2.254 2.254 0 0 0 .548 1.515 1.722 1.722 0 0 0 1.333.577A1.888 1.888 0 0 0 26 10a2.444 2.444 0 0 0 .7-.621l.662.516a2.662 2.662 0 0 1-2.393 1.222zm-.135-5.684a1.446 1.446 0 0 0-1.1.478 2.321 2.321 0 0 0-.551 1.339h3.176v-.083a2.065 2.065 0 0 0-.445-1.28 1.361 1.361 0 0 0-1.083-.454zm6.4 4.8a1.561 1.561 0 0 0 1.014-.352A1.237 1.237 0 0 0 32.733 9h1.025a1.966 1.966 0 0 1-.375 1.037 2.47 2.47 0 0 1-.923.785 2.663 2.663 0 0 1-1.222.293 2.612 2.612 0 0 1-2.06-.864 3.442 3.442 0 0 1-.765-2.364v-.18a3.817 3.817 0 0 1 .34-1.646 2.588 2.588 0 0 1 .976-1.119 2.771 2.771 0 0 1 1.5-.4 2.543 2.543 0 0 1 1.772.639 2.283 2.283 0 0 1 .753 1.658h-1.021a1.494 1.494 0 0 0-.466-1.011 1.449 1.449 0 0 0-1.034-.4 1.517 1.517 0 0 0-1.28.595 2.793 2.793 0 0 0-.454 1.72v.205a2.737 2.737 0 0 0 .451 1.688 1.524 1.524 0 0 0 1.289.596zm5.209-7.107V4.66h1.184v.84h-1.182v3.93a.878.878 0 0 0 .158.571.666.666 0 0 0 .539.19 2.624 2.624 0 0 0 .516-.07V11a3.143 3.143 0 0 1-.832.117 1.35 1.35 0 0 1-1.1-.439 1.888 1.888 0 0 1-.369-1.248V5.5h-1.151v-.84h1.154V3.125zM40.074 11H38.99V4.66h1.084zM38.9 2.979a.647.647 0 0 1 .161-.445.6.6 0 0 1 .478-.182.614.614 0 0 1 .48.182.64.64 0 0 1 .164.445.619.619 0 0 1-.164.439.626.626 0 0 1-.48.176.616.616 0 0 1-.478-.176.626.626 0 0 1-.161-.439zm5 6.551l1.57-4.869h1.107L44.3 11h-.826l-2.3-6.34h1.107zm6.275 1.588a2.77 2.77 0 0 1-2.1-.847 3.142 3.142 0 0 1-.809-2.265v-.2a3.8 3.8 0 0 1 .36-1.685 2.811 2.811 0 0 1 1.008-1.16 2.534 2.534 0 0 1 1.4-.419 2.374 2.374 0 0 1 1.922.814 3.526 3.526 0 0 1 .686 2.332v.451h-4.288a2.254 2.254 0 0 0 .546 1.516 1.722 1.722 0 0 0 1.333.577 1.888 1.888 0 0 0 .974-.232 2.444 2.444 0 0 0 .7-.621l.662.516a2.662 2.662 0 0 1-2.393 1.222zm-.135-5.684a1.446 1.446 0 0 0-1.1.478 2.321 2.321 0 0 0-.551 1.339h3.176v-.083a2.065 2.065 0 0 0-.445-1.28 1.361 1.361 0 0 0-1.079-.454zm6.117 2.385H53.3v-.885h2.859zm7.5.475a3.139 3.139 0 0 1-1 2.089 3.274 3.274 0 0 1-2.235.735A3.006 3.006 0 0 1 58 10.033a4.361 4.361 0 0 1-.911-2.9v-.82a4.861 4.861 0 0 1 .425-2.092 3.173 3.173 0 0 1 1.2-1.386 3.353 3.353 0 0 1 1.8-.483 3.083 3.083 0 0 1 2.18.759 3.176 3.176 0 0 1 .955 2.1h-1.121a2.44 2.44 0 0 0-.636-1.477 1.927 1.927 0 0 0-1.368-.457 2.013 2.013 0 0 0-1.69.8 3.656 3.656 0 0 0-.612 2.268v.826a3.758 3.758 0 0 0 .58 2.209 1.875 1.875 0 0 0 1.623.82 2.165 2.165 0 0 0 1.438-.425 2.357 2.357 0 0 0 .665-1.479z" transform="translate(808.816 1807)"/><path id="Apple_logo_black" class="cls-1" d="M50.593 35.962a22.3 22.3 0 0 1-2.205 3.965 20.143 20.143 0 0 1-2.841 3.433 5.51 5.51 0 0 1-3.647 1.607 9.15 9.15 0 0 1-3.372-.805 9.676 9.676 0 0 0-3.63-.8 10 10 0 0 0-3.733.8 10.045 10.045 0 0 1-3.226.848 5.188 5.188 0 0 1-3.739-1.651 21.151 21.151 0 0 1-2.969-3.559 24.583 24.583 0 0 1-3.142-6.241 22.851 22.851 0 0 1-1.319-7.438 13.582 13.582 0 0 1 1.784-7.106 10.463 10.463 0 0 1 3.736-3.779 10.049 10.049 0 0 1 5.05-1.425 11.891 11.891 0 0 1 3.906.909 12.557 12.557 0 0 0 3.1.911 18.539 18.539 0 0 0 3.435-1.073 11.356 11.356 0 0 1 4.67-.829 9.915 9.915 0 0 1 7.767 4.089 8.64 8.64 0 0 0-4.582 7.849 8.659 8.659 0 0 0 2.841 6.533 9.343 9.343 0 0 0 2.841 1.863q-.342.991-.724 1.9zM42.679 4.82a8.75 8.75 0 0 1-2.243 5.739c-1.8 2.107-3.983 3.325-6.347 3.133a6.385 6.385 0 0 1-.048-.777 8.99 8.99 0 0 1 2.38-5.8 9.162 9.162 0 0 1 2.9-2.176A8.643 8.643 0 0 1 42.636 4a7.45 7.45 0 0 1 .043.82z" transform="translate(807.187 1752.001)"/></g></svg>