<svg id="Calque_1" data-name="Calque 1" xmlns="http://www.w3.org/2000/svg" viewBox="0 0 63 60"><defs><style>.cls-1{fill:#2d3032;}</style></defs><title>php</title><g id="_4c69e694f411fe8138a5242020efdc8d" data-name=" 4c69e694f411fe8138a5242020efdc8d"><path id="Tracé_10232" data-name="Tracé 10232" class="cls-1" d="M19.49,26.77h-3l-1.25,6.41H18s3.45.08,3.61-4.16A2,2,0,0,0,20,26.78,1.57,1.57,0,0,0,19.49,26.77Z"/><path id="Tracé_10233" data-name="Tracé 10233" class="cls-1" d="M45.37,26.77h-3l-1.25,6.41h2.83s3.45.08,3.61-4.16a2,2,0,0,0-1.62-2.24A1.63,1.63,0,0,0,45.37,26.77Z"/><path id="Tracé_10234" data-name="Tracé 10234" class="cls-1" d="M30.79,16C14.89,16,2,22.79,2,31.17S14.89,46.33,30.79,46.33s28.79-6.79,28.79-15.16S46.69,16,30.79,16ZM17.9,35.56l-3.07,0-.86,4H10.68l3-15.16s4.2.05,7,0,5.48,1.9,4.21,6.32C23.29,36,17.9,35.56,17.9,35.56Zm14.77,0s.78-3.53,1.13-6c.14-1,.76-2.72-.88-2.72H29.49l-1.74,8.7H24.5l3-15.24h3.33L30,24.39h3.44s4.54-.35,4,3.4-1.55,7.77-1.55,7.77Zm18-4.84c-1.52,5.27-6.92,4.84-6.92,4.84l-3.06,0-.87,4H36.57l3-15.16s4.21.05,7,0S52,26.29,50.7,30.72Z"/></g></svg>