<svg id="_4c69e694f411fe8138a5242020efdc8d" data-name="4c69e694f411fe8138a5242020efdc8d" xmlns="http://www.w3.org/2000/svg" viewBox="0 0 57.583 30.33"><defs><style>.cls-1{fill:#fff}</style></defs><path id="Tracé_10232" data-name="Tracé 10232" class="cls-1" d="M239.078 425.051h-3.032l-1.246 6.41h2.832s3.449.088 3.608-4.154a1.96 1.96 0 0 0-2.162-2.256z" transform="translate(-221.591 -414.286)"/><path id="Tracé_10233" data-name="Tracé 10233" class="cls-1" d="M679.577 425.051h-3.032l-1.246 6.41h2.832s3.449.088 3.608-4.154a1.958 1.958 0 0 0-2.162-2.256z" transform="translate(-636.208 -414.286)"/><path id="Tracé_10234" data-name="Tracé 10234" class="cls-1" d="M38.792 241.9c-15.9 0-28.792 6.792-28.792 15.165s12.892 15.165 28.792 15.165 28.792-6.787 28.792-15.165S54.692 241.9 38.792 241.9zM25.9 261.455l-3.067-.023-.864 4.031h-3.285l2.962-15.163s4.207.053 6.969 0 5.476 1.9 4.207 6.316c-1.528 5.273-6.922 4.839-6.922 4.839zm14.766 0s.787-3.525 1.134-5.97c.141-1 .764-2.715-.881-2.715-1.375-.006-3.431-.012-3.431-.012l-1.733 8.7H32.5l3.032-15.236h3.326l-.834 4.072h3.431s4.548-.358 4.007 3.4-1.551 7.762-1.551 7.762zm18.034-4.836c-1.516 5.271-6.916 4.836-6.916 4.836l-3.067-.023-.864 4.031h-3.285l2.961-15.163s4.207.053 6.969 0 5.47 1.894 4.202 6.319z" transform="translate(-10 -241.9)"/></svg>