<svg xmlns="http://www.w3.org/2000/svg" viewBox="0 0 65.578 17.801"><path data-name="Tracé 11994" d="M3.076 9.875v5.26H-.001V.205h5.824A6.738 6.738 0 0 1 8.781.82a4.534 4.534 0 0 1 1.964 1.748 4.875 4.875 0 0 1 .684 2.58 4.287 4.287 0 0 1-1.5 3.461 6.257 6.257 0 0 1-4.158 1.266zm0-2.492h2.748a2.7 2.7 0 0 0 1.861-.574 2.088 2.088 0 0 0 .644-1.641 2.463 2.463 0 0 0-.646-1.774 2.413 2.413 0 0 0-1.784-.7h-2.82zm12.705 5.281h6.532v2.471h-9.608V.205h3.076zm8.194 3.753h-2.2l5.5-16.211h2.2zm14.008-5.2a1.579 1.579 0 0 0-.615-1.338 8.07 8.07 0 0 0-2.215-.984 15.7 15.7 0 0 1-2.533-1.02 4.138 4.138 0 0 1-2.543-3.7 3.605 3.605 0 0 1 .682-2.158A4.448 4.448 0 0 1 32.717.535a7.372 7.372 0 0 1 2.866-.533 6.71 6.71 0 0 1 2.851.579 4.539 4.539 0 0 1 1.943 1.634 4.28 4.28 0 0 1 .692 2.4h-3.076a2.013 2.013 0 0 0-.646-1.594 2.655 2.655 0 0 0-1.818-.57 2.837 2.837 0 0 0-1.753.477 1.5 1.5 0 0 0-.625 1.256 1.44 1.44 0 0 0 .733 1.22 8.283 8.283 0 0 0 2.158.923 9.326 9.326 0 0 1 3.827 1.958 3.9 3.9 0 0 1 1.2 2.912 3.593 3.593 0 0 1-1.466 3.04 6.419 6.419 0 0 1-3.948 1.1 7.623 7.623 0 0 1-3.138-.631 4.965 4.965 0 0 1-2.158-1.728 4.425 4.425 0 0 1-.743-2.543h3.086q0 2.471 2.953 2.471a2.873 2.873 0 0 0 1.712-.446 1.451 1.451 0 0 0 .615-1.242zm16.571-3.209a9 9 0 0 1-.677 3.635 6.24 6.24 0 0 1-1.876 2.476l2.481 1.948-1.958 1.733-3.179-2.553a6.728 6.728 0 0 1-1.128.092 6.211 6.211 0 0 1-3.312-.892 5.926 5.926 0 0 1-2.256-2.548 8.755 8.755 0 0 1-.81-3.809v-.738a8.965 8.965 0 0 1 .79-3.881 5.917 5.917 0 0 1 2.25-2.574 6.581 6.581 0 0 1 6.634 0 5.917 5.917 0 0 1 2.246 2.574 8.94 8.94 0 0 1 .795 3.871zm-3.118-.673a6.283 6.283 0 0 0-.841-3.568 2.97 2.97 0 0 0-4.789-.015 6.211 6.211 0 0 0-.851 3.532v.728a6.361 6.361 0 0 0 .841 3.548 2.944 2.944 0 0 0 4.8.046 6.324 6.324 0 0 0 .841-3.543zm7.609 5.332h6.532v2.468h-9.608V.205h3.076z" fill="#2e3032"/></svg>