<svg id="Calque_1" data-name="Calque 1" xmlns="http://www.w3.org/2000/svg" viewBox="0 0 79 60"><defs><style>.cls-1{fill:#2d3032;}</style></defs><title>plsql</title><path id="Tracé_10740" data-name="Tracé 10740" class="cls-1" d="M11.08,32.86v5.26H8V23.19h5.82a6.83,6.83,0,0,1,3,.61,4.63,4.63,0,0,1,2,1.75,4.87,4.87,0,0,1,.68,2.58,4.29,4.29,0,0,1-1.5,3.46,6.24,6.24,0,0,1-4.16,1.27Zm0-2.49h2.75a2.72,2.72,0,0,0,1.86-.58,2.08,2.08,0,0,0,.64-1.64,2.42,2.42,0,0,0-.65-1.77,2.37,2.37,0,0,0-1.78-.7H11.08Zm12.7,5.28h6.53v2.47h-9.6V23.19h3.07ZM32,39.4h-2.2l5.5-16.21h2.2Zm14-5.2a1.59,1.59,0,0,0-.61-1.34,7.87,7.87,0,0,0-2.22-1,16.32,16.32,0,0,1-2.53-1,4.14,4.14,0,0,1-2.54-3.7A3.62,3.62,0,0,1,38.76,25a4.42,4.42,0,0,1,2-1.48A7.19,7.19,0,0,1,43.58,23a6.83,6.83,0,0,1,2.86.57,4.61,4.61,0,0,1,1.94,1.64,4.33,4.33,0,0,1,.69,2.4H46a2,2,0,0,0-.64-1.6,2.71,2.71,0,0,0-1.82-.57,2.85,2.85,0,0,0-1.75.48,1.5,1.5,0,0,0-.63,1.26,1.44,1.44,0,0,0,.74,1.22,8,8,0,0,0,2.15.92,9.45,9.45,0,0,1,3.83,2,3.89,3.89,0,0,1,1.2,2.91,3.58,3.58,0,0,1-1.47,3,6.35,6.35,0,0,1-3.94,1.1,7.7,7.7,0,0,1-3.14-.63A5,5,0,0,1,38.36,36a4.41,4.41,0,0,1-.74-2.54H40.7c0,1.65,1,2.47,3,2.47a2.88,2.88,0,0,0,1.71-.45A1.44,1.44,0,0,0,46,34.2ZM62.56,31a9.27,9.27,0,0,1-.68,3.64A6.18,6.18,0,0,1,60,37.1l2.48,1.95-1.95,1.73-3.18-2.55a7.17,7.17,0,0,1-1.13.09,6.19,6.19,0,0,1-3.31-.89,5.94,5.94,0,0,1-2.26-2.55,8.76,8.76,0,0,1-.81-3.81v-.73a9,9,0,0,1,.79-3.89,5.9,5.9,0,0,1,2.25-2.57,6.56,6.56,0,0,1,6.63,0,5.9,5.9,0,0,1,2.25,2.57,9.09,9.09,0,0,1,.8,3.88Zm-3.12-.67a6.36,6.36,0,0,0-.84-3.57,3,3,0,0,0-4.15-.65,2.78,2.78,0,0,0-.64.64A6.14,6.14,0,0,0,53,30.27V31a6.28,6.28,0,0,0,.84,3.54,2.94,2.94,0,0,0,4.1.74,3.05,3.05,0,0,0,.7-.69,6.36,6.36,0,0,0,.84-3.54Zm7.61,5.33h6.53v2.47H64V23.19h3.08Z"/></svg>