<svg id="Calque_1" data-name="Calque 1" xmlns="http://www.w3.org/2000/svg" viewBox="0 0 60 60"><defs><style>.cls-1{isolation:isolate;}.cls-2{fill:#2d3032;}.cls-3{fill:#464a4d;}</style></defs><title>python</title><g class="cls-1"><path class="cls-2" d="M16.6,54.3v3.1h-1V49.6h2.9a2.58,2.58,0,0,1,2,.7,2.06,2.06,0,0,1,.7,1.7,2.27,2.27,0,0,1-.7,1.8,3.17,3.17,0,0,1-2,.6H16.6Zm0-.8h1.9a1.7,1.7,0,0,0,1.3-.4,1.71,1.71,0,0,0,0-2.2,1.59,1.59,0,0,0-1.2-.4H16.7v3Z"/><path class="cls-2" d="M24.3,55.9l1.4-4.4h1.1l-2.3,6.7c-.4,1-.9,1.5-1.7,1.5h-.2l-.4-.1v-.8h.3a1.88,1.88,0,0,0,.8-.2c.2-.1.3-.4.5-.7l.2-.6-2.1-5.7H23Z"/><path class="cls-2" d="M29,50.1v1.4h1.1v.8H29v3.6a.75.75,0,0,0,.1.5.76.76,0,0,0,.5.2,1.09,1.09,0,0,0,.5-.1v.8a2.2,2.2,0,0,1-.8.1,1.16,1.16,0,0,1-1-.4,2,2,0,0,1-.3-1.1V52.3H26.9v-.8H28V50.1Z"/><path class="cls-2" d="M32.2,52.2a2.14,2.14,0,0,1,1.7-.8c1.2,0,1.8.7,1.9,2.1v3.8h-1V53.5a1.06,1.06,0,0,0-1.2-1.2,1.14,1.14,0,0,0-.8.3,4.35,4.35,0,0,0-.6.7v4.1h-1V49.2h1v3Z"/><path class="cls-2" d="M37,54.4a3.34,3.34,0,0,1,.3-1.5,2.44,2.44,0,0,1,.9-1.1,3.26,3.26,0,0,1,1.4-.4,2.56,2.56,0,0,1,1.9.8,3.07,3.07,0,0,1,.7,2.2v.1a3.34,3.34,0,0,1-.3,1.5,2.19,2.19,0,0,1-.9,1,2.3,2.3,0,0,1-1.4.4,2.56,2.56,0,0,1-1.9-.8,3.39,3.39,0,0,1-.7-2.2Zm1,.1a2.73,2.73,0,0,0,.4,1.6,1.5,1.5,0,0,0,2.4,0,2.86,2.86,0,0,0,.4-1.7,2.25,2.25,0,0,0-.5-1.5,1.74,1.74,0,0,0-1.2-.6,1.43,1.43,0,0,0-1.2.6A5,5,0,0,0,38,54.5Z"/><path class="cls-2" d="M44.5,51.5v.7a1.88,1.88,0,0,1,1.7-.8c1.2,0,1.8.7,1.9,2.1v3.8h-1V53.5a1.06,1.06,0,0,0-1.2-1.2,1.14,1.14,0,0,0-.8.3,4.35,4.35,0,0,0-.6.7v4.1h-1V51.6h1Z"/></g><g id="python-logo-generic"><path id="path1948" class="cls-2" d="M31.64,2a18.4,18.4,0,0,0-4.1.4c-3.7.6-4.3,2-4.3,4.5v3.3h8.6v1.1H19.94a5.47,5.47,0,0,0-5.4,4.4,16.43,16.43,0,0,0,0,8.8c.6,2.6,2.1,4.4,4.6,4.4h3V25a5.58,5.58,0,0,1,5.4-5.4h8.6a4.35,4.35,0,0,0,4.3-4.4h0V7a4.9,4.9,0,0,0-4.3-4.5A17.26,17.26,0,0,0,31.64,2Zm-4.7,2.6a1.65,1.65,0,1,1-1.6,1.7h0A1.67,1.67,0,0,1,26.94,4.62Z"/><path id="path1950" class="cls-3" d="M41.54,11.22V15a5.53,5.53,0,0,1-5.4,5.5h-8.6a4.35,4.35,0,0,0-4.3,4.4v8.2c0,2.3,2,3.7,4.3,4.4a14,14,0,0,0,8.6,0c2.2-.6,4.3-1.9,4.3-4.4v-3.3h-8.6v-1.1h12.9c2.5,0,3.4-1.7,4.3-4.4a14.68,14.68,0,0,0,0-8.8c-.6-2.5-1.8-4.4-4.3-4.4ZM36.64,32a1.65,1.65,0,1,1-1.6,1.7h0a1.61,1.61,0,0,1,1.6-1.7Z"/></g></svg>