<svg xmlns="http://www.w3.org/2000/svg" viewBox="0 0 42.597 68.086"><defs><style>.cls-1{fill:#fff}</style><radialGradient id="radial-gradient" cx="-23.453" cy="142.313" r="12.486" gradientTransform="matrix(0 -.194 1.037 0 -76.413 35.855)" gradientUnits="userSpaceOnUse"><stop offset="0" stop-color="#b8b8b8" stop-opacity=".498"/><stop offset="1" stop-color="#7f7f7f" stop-opacity="0"/></radialGradient></defs><g id="Groupe_7527" data-name="Groupe 7527" transform="translate(-1080.847 -1520.27)"><path id="Tracé_11987" data-name="Tracé 11987" class="cls-1" d="M9.387 7.66V11H8.262V2.469h3.146a3.161 3.161 0 0 1 2.194.715 2.423 2.423 0 0 1 .798 1.892 2.391 2.391 0 0 1-.776 1.913 3.3 3.3 0 0 1-2.224.671zm0-.92h2.021a2.023 2.023 0 0 0 1.383-.425 1.552 1.552 0 0 0 .48-1.228 1.6 1.6 0 0 0-.48-1.219 1.9 1.9 0 0 0-1.318-.475H9.387zm8.437 2.672L19.3 4.66h1.16l-2.549 7.318q-.592 1.582-1.881 1.582l-.205-.018-.4-.076v-.879l.293.023a1.442 1.442 0 0 0 .858-.223 1.611 1.611 0 0 0 .507-.814l.24-.645-2.264-6.268h1.184zM22.9 3.125V4.66h1.184v.84H22.9v3.93a.878.878 0 0 0 .158.571.666.666 0 0 0 .539.19 2.624 2.624 0 0 0 .516-.07V11a3.143 3.143 0 0 1-.832.117 1.35 1.35 0 0 1-1.1-.439 1.888 1.888 0 0 1-.369-1.248V5.5H20.66v-.84h1.154V3.125zm3.533 2.3a2.3 2.3 0 0 1 1.875-.885q2.01 0 2.027 2.268V11H29.25V6.8a1.459 1.459 0 0 0-.313-1.014 1.256 1.256 0 0 0-.958-.328 1.564 1.564 0 0 0-.926.281 1.91 1.91 0 0 0-.621.738V11h-1.084V2h1.084zm5.237 2.346a3.745 3.745 0 0 1 .366-1.671 2.732 2.732 0 0 1 1.02-1.148 2.775 2.775 0 0 1 1.491-.4 2.674 2.674 0 0 1 2.095.9 3.449 3.449 0 0 1 .8 2.385V7.9a3.777 3.777 0 0 1-.354 1.661 2.692 2.692 0 0 1-1.014 1.146 2.807 2.807 0 0 1-1.515.41 2.667 2.667 0 0 1-2.089-.9 3.432 3.432 0 0 1-.8-2.373zm1.09.129a2.712 2.712 0 0 0 .489 1.693 1.658 1.658 0 0 0 2.622-.009 2.966 2.966 0 0 0 .486-1.813 2.708 2.708 0 0 0-.5-1.69 1.574 1.574 0 0 0-1.315-.647 1.557 1.557 0 0 0-1.295.639A2.944 2.944 0 0 0 32.76 7.9zm7.066-3.24l.035.8a2.31 2.31 0 0 1 1.9-.914q2.01 0 2.027 2.268V11H42.7V6.8a1.459 1.459 0 0 0-.313-1.014 1.256 1.256 0 0 0-.958-.328 1.564 1.564 0 0 0-.926.281 1.91 1.91 0 0 0-.621.738V11H38.8V4.66z" transform="translate(1076.127 1574.795)"/><g id="python-logo-generic" transform="translate(1080.846 1520.27)"><path id="path1948" class="cls-1" d="M26.636 6.4a29.338 29.338 0 0 0-4.91.419c-4.348.768-5.137 2.376-5.137 5.341v3.916h10.275v1.305H12.733a6.415 6.415 0 0 0-6.419 5.209 19.2 19.2 0 0 0 0 10.442c.73 3.042 2.475 5.209 5.461 5.209h3.533v-4.696a6.529 6.529 0 0 1 6.419-6.383h10.262a5.176 5.176 0 0 0 5.137-5.221v-9.784c0-2.784-2.349-4.876-5.137-5.341a32.047 32.047 0 0 0-5.353-.416zM21.08 9.547a1.958 1.958 0 1 1-1.928 1.964 1.949 1.949 0 0 1 1.928-1.964z" transform="translate(-5.591 -6.397)"/><path id="path1950" d="M56.11 35.054v4.562a6.59 6.59 0 0 1-6.419 6.514H39.429a5.241 5.241 0 0 0-5.137 5.221v9.784c0 2.784 2.421 4.422 5.137 5.221a17.19 17.19 0 0 0 10.263 0c2.587-.749 5.137-2.256 5.137-5.221V57.22H44.566v-1.305h15.4c2.986 0 4.1-2.083 5.137-5.209 1.073-3.218 1.027-6.314 0-10.442-.738-2.973-2.147-5.209-5.137-5.209zm-5.772 24.777a1.958 1.958 0 1 1-1.928 1.952 1.939 1.939 0 0 1 1.928-1.952z" transform="translate(-23.294 -24.073)" fill="#cfd3d7"/><path id="path1894" d="M36.765 102.791c0 1.475-6.165 2.67-13.769 2.67s-13.769-1.2-13.769-2.67 6.165-2.67 13.769-2.67 13.769 1.195 13.769 2.67z" transform="translate(-1.607 -53.856)" opacity=".444" fill="url(#radial-gradient)"/></g></g></svg>