<svg xmlns="http://www.w3.org/2000/svg" viewBox="0 0 30 64.732"><defs><style>.cls-1{fill:#676a71}.cls-2{fill:#fff}</style></defs><g id="Groupe_7555" data-name="Groupe 7555" transform="translate(-1164 -1857.268)"><path id="path7" class="cls-1" d="M6.6-20s25.076 2.508 25.076 6.687v-10.03s0-4.179-25.076-6.687z" transform="translate(1159.327 1893.985)"/><path id="path14" class="cls-1" d="M6.6-.308S31.673 2.2 31.673 6.379V-3.652s0-4.179-25.076-6.687z" transform="translate(1159.327 1887.667)"/><path id="path21" class="cls-2" d="M31.673-39.877v10.03s0 4.179-25.076 6.687v-10.03s25.076-2.51 25.076-6.687" transform="translate(1159.327 1897.145)"/><path id="path28" class="cls-2" d="M6.6-13.5s25.076-2.508 25.076-6.687v10.03s0 4.179-25.076 6.687z" transform="translate(1159.327 1890.826)"/><path id="path35" class="cls-2" d="M6.6 16.225V6.195S31.673 3.687 31.673-.492v10.03s0 4.179-25.076 6.687" transform="translate(1159.327 1884.507)"/><text id="Scala" transform="translate(1164 1919)" font-size="12" font-family="Roboto-Regular,Roboto" fill="#fff"><tspan x="0" y="0">Scala</tspan></text></g></svg>