<svg xmlns="http://www.w3.org/2000/svg" viewBox="0 0 31.576 76.276"><defs><style>.cls-1{fill:#676a71}.cls-2{fill:#fff}</style></defs><g id="Groupe_7559" data-name="Groupe 7559" transform="translate(-1086.481 -1852.932)"><g id="Groupe_7552" data-name="Groupe 7552" transform="translate(6.422 2.932)"><path id="path7" class="cls-1" d="M6.6-18s30.079 3.008 30.079 8.021V-22.01s0-5.013-30.079-8.021z" transform="translate(1074.403 1888.052)"/><path id="path14" class="cls-1" d="M6.6 1.693S36.676 4.7 36.676 9.714V-2.317s0-5.013-30.079-8.021z" transform="translate(1074.403 1884.402)"/><path id="path21" class="cls-2" d="M36.676-39.877v12.032s0 5.013-30.079 8.021v-12.032s30.079-3.008 30.079-8.021" transform="translate(1074.403 1889.877)"/><path id="path28" class="cls-2" d="M6.6-12.164s30.079-3.008 30.079-8.021v12.032S36.676-3.14 6.6-.132z" transform="translate(1074.403 1886.227)"/><path id="path35" class="cls-2" d="M6.6 19.56V7.529S36.676 4.521 36.676-.492v12.031s0 5.013-30.079 8.021" transform="translate(1074.403 1882.576)"/></g><path id="Tracé_11998" data-name="Tracé 11998" class="cls-2" d="M6.383-6.565h1.17a3.272 3.272 0 0 0-.292-1.32 2.571 2.571 0 0 0-.729-.915 3 3 0 0 0-1.072-.534A4.96 4.96 0 0 0 4.134-9.5a4.761 4.761 0 0 0-1.241.163 3.414 3.414 0 0 0-1.079.494A2.5 2.5 0 0 0 1.053-8a2.459 2.459 0 0 0-.286 1.214 2.03 2.03 0 0 0 .254 1.06 2.055 2.055 0 0 0 .676.689 3.929 3.929 0 0 0 .955.429q.533.162 1.086.286l1.086.24a4.949 4.949 0 0 1 .956.306 1.863 1.863 0 0 1 .676.487 1.165 1.165 0 0 1 .253.78 1.518 1.518 0 0 1-.208.832 1.514 1.514 0 0 1-.546.513 2.47 2.47 0 0 1-.76.267 4.611 4.611 0 0 1-.839.078 3.968 3.968 0 0 1-1.014-.13 2.523 2.523 0 0 1-.865-.4 2.069 2.069 0 0 1-.6-.7 2.1 2.1 0 0 1-.227-1.008H.481a3.264 3.264 0 0 0 .305 1.465 2.8 2.8 0 0 0 .832 1.013 3.644 3.644 0 0 0 1.223.592 5.442 5.442 0 0 0 1.475.2A5.643 5.643 0 0 0 5.6.058a3.706 3.706 0 0 0 1.16-.48 2.728 2.728 0 0 0 .852-.858 2.331 2.331 0 0 0 .332-1.267 2.328 2.328 0 0 0-.253-1.144 2.258 2.258 0 0 0-.676-.754 3.58 3.58 0 0 0-.956-.475q-.534-.18-1.087-.306t-1.086-.24a5.684 5.684 0 0 1-.955-.279 1.88 1.88 0 0 1-.676-.436A.968.968 0 0 1 2-6.877a1.507 1.507 0 0 1 .175-.76 1.365 1.365 0 0 1 .468-.488 2.037 2.037 0 0 1 .67-.26 3.776 3.776 0 0 1 .767-.078 2.621 2.621 0 0 1 1.579.448 1.934 1.934 0 0 1 .724 1.45zm7.436 2h1.144a2.656 2.656 0 0 0-.312-1.035 2.307 2.307 0 0 0-.63-.721 2.612 2.612 0 0 0-.884-.422 4.062 4.062 0 0 0-1.072-.137 3.253 3.253 0 0 0-1.391.28 2.776 2.776 0 0 0-.994.767 3.262 3.262 0 0 0-.592 1.144 4.932 4.932 0 0 0-.195 1.411 4.529 4.529 0 0 0 .2 1.385 3.036 3.036 0 0 0 .6 1.086 2.635 2.635 0 0 0 .988.7A3.5 3.5 0 0 0 12.04.14a2.92 2.92 0 0 0 2.035-.676A3.1 3.1 0 0 0 15-2.457h-1.129a1.937 1.937 0 0 1-.566 1.209 1.808 1.808 0 0 1-1.281.429 1.83 1.83 0 0 1-.9-.208 1.745 1.745 0 0 1-.611-.552 2.439 2.439 0 0 1-.345-.786 3.738 3.738 0 0 1-.11-.91 4.572 4.572 0 0 1 .1-.981 2.461 2.461 0 0 1 .352-.844 1.784 1.784 0 0 1 .643-.585 2.06 2.06 0 0 1 1-.221 1.677 1.677 0 0 1 1.118.351 1.684 1.684 0 0 1 .548.992zm8.372 4.539a1.563 1.563 0 0 1-.791.169.951.951 0 0 1-.685-.243 1.045 1.045 0 0 1-.253-.787A2.644 2.644 0 0 1 19.4-.1a3.5 3.5 0 0 1-1.3.243 3.5 3.5 0 0 1-.865-.1 2.01 2.01 0 0 1-.708-.325 1.56 1.56 0 0 1-.474-.578 1.946 1.946 0 0 1-.175-.864 1.974 1.974 0 0 1 .195-.936 1.7 1.7 0 0 1 .514-.592 2.353 2.353 0 0 1 .728-.345q.41-.117.838-.195.455-.091.865-.137a4.816 4.816 0 0 0 .721-.13 1.2 1.2 0 0 0 .494-.247.6.6 0 0 0 .182-.475 1.1 1.1 0 0 0-.136-.585.936.936 0 0 0-.351-.338 1.427 1.427 0 0 0-.481-.156 3.632 3.632 0 0 0-.526-.039 2.337 2.337 0 0 0-1.17.266 1.131 1.131 0 0 0-.507 1.007h-1.1a2.387 2.387 0 0 1 .26-1.053 1.971 1.971 0 0 1 .624-.7 2.618 2.618 0 0 1 .89-.383 4.7 4.7 0 0 1 1.073-.117 6.291 6.291 0 0 1 .9.065 2.361 2.361 0 0 1 .813.266 1.558 1.558 0 0 1 .585.565 1.81 1.81 0 0 1 .221.949v3.458a2.586 2.586 0 0 0 .038.576q.045.182.306.182a1.094 1.094 0 0 0 .338-.065zM20.4-3.471a1.375 1.375 0 0 1-.546.227q-.338.072-.708.117t-.747.1a2.748 2.748 0 0 0-.676.189 1.23 1.23 0 0 0-.488.37 1.038 1.038 0 0 0-.188.657.9.9 0 0 0 .111.461.921.921 0 0 0 .286.306 1.2 1.2 0 0 0 .41.169 2.272 2.272 0 0 0 .494.052 2.618 2.618 0 0 0 .936-.15 1.969 1.969 0 0 0 .637-.377 1.487 1.487 0 0 0 .364-.494 1.249 1.249 0 0 0 .117-.5zm2.886-5.811V0h1.105v-9.282zm8.772 9.256a1.563 1.563 0 0 1-.793.169.951.951 0 0 1-.683-.243 1.045 1.045 0 0 1-.253-.787 2.644 2.644 0 0 1-1.06.787 3.5 3.5 0 0 1-1.306.241 3.5 3.5 0 0 1-.865-.1 2.01 2.01 0 0 1-.708-.325 1.56 1.56 0 0 1-.475-.578 1.946 1.946 0 0 1-.175-.864 1.974 1.974 0 0 1 .195-.936 1.7 1.7 0 0 1 .514-.592 2.353 2.353 0 0 1 .728-.345q.409-.117.838-.195.455-.091.865-.137a4.816 4.816 0 0 0 .722-.13 1.2 1.2 0 0 0 .494-.247.6.6 0 0 0 .182-.475 1.1 1.1 0 0 0-.137-.585.936.936 0 0 0-.351-.338 1.427 1.427 0 0 0-.481-.156 3.632 3.632 0 0 0-.526-.039 2.337 2.337 0 0 0-1.17.266 1.131 1.131 0 0 0-.513 1.007H26a2.387 2.387 0 0 1 .26-1.053 1.971 1.971 0 0 1 .624-.7 2.618 2.618 0 0 1 .891-.383 4.7 4.7 0 0 1 1.073-.117 6.291 6.291 0 0 1 .9.065 2.361 2.361 0 0 1 .813.266 1.558 1.558 0 0 1 .585.565 1.81 1.81 0 0 1 .221.949v3.458a2.586 2.586 0 0 0 .047.578q.045.182.306.182a1.094 1.094 0 0 0 .338-.065zm-1.794-3.445a1.375 1.375 0 0 1-.546.227q-.338.072-.708.117t-.747.1a2.748 2.748 0 0 0-.676.189 1.23 1.23 0 0 0-.487.37 1.038 1.038 0 0 0-.188.657.9.9 0 0 0 .111.461.921.921 0 0 0 .286.306 1.2 1.2 0 0 0 .41.169 2.272 2.272 0 0 0 .494.052 2.618 2.618 0 0 0 .936-.15 1.969 1.969 0 0 0 .637-.377 1.487 1.487 0 0 0 .364-.494 1.249 1.249 0 0 0 .117-.5z" transform="translate(1086 1929)"/></g></svg>