<svg xmlns="http://www.w3.org/2000/svg" viewBox="0 0 39.268 62.117"><defs><style>.cls-1{fill:#fff}</style></defs><g id="Groupe_7532" data-name="Groupe 7532" transform="translate(-1080.753 -1756)"><path id="Tracé_11992" data-name="Tracé 11992" class="cls-1" d="M15.873 7.2a5.29 5.29 0 0 1-2.106-1.022 1.954 1.954 0 0 1-.659-1.5 2.064 2.064 0 0 1 .806-1.667 3.2 3.2 0 0 1 2.095-.659 3.5 3.5 0 0 1 1.567.34 2.577 2.577 0 0 1 1.066.938 2.4 2.4 0 0 1 .378 1.307h-1.131A1.552 1.552 0 0 0 17.4 3.72a2.006 2.006 0 0 0-1.389-.442 2.052 2.052 0 0 0-1.3.366 1.221 1.221 0 0 0-.466 1.017 1.1 1.1 0 0 0 .442.882 4.343 4.343 0 0 0 1.506.659 6.973 6.973 0 0 1 1.664.659 2.525 2.525 0 0 1 .891.841 2.146 2.146 0 0 1 .29 1.131 1.993 1.993 0 0 1-.809 1.661 3.448 3.448 0 0 1-2.162.624 4.01 4.01 0 0 1-1.641-.337 2.761 2.761 0 0 1-1.175-.923 2.252 2.252 0 0 1-.413-1.33h1.131a1.469 1.469 0 0 0 .571 1.222 2.4 2.4 0 0 0 1.526.448 2.211 2.211 0 0 0 1.365-.363 1.18 1.18 0 0 0 .475-.99 1.158 1.158 0 0 0-.439-.97 5.066 5.066 0 0 0-1.594-.675zm10.049 2.306l1.219-4.846h1.084L26.379 11H25.5l-1.541-4.8-1.5 4.8h-.879l-1.84-6.34h1.078l1.248 4.746 1.477-4.746h.873zM30.5 11h-1.08V4.66h1.08zm-1.168-8.021a.647.647 0 0 1 .161-.445.6.6 0 0 1 .478-.182.614.614 0 0 1 .48.182.64.64 0 0 1 .164.445.619.619 0 0 1-.164.439.626.626 0 0 1-.48.176.616.616 0 0 1-.478-.176.626.626 0 0 1-.161-.439zM32.772 11V5.5h-1v-.84h1v-.65a2.159 2.159 0 0 1 .545-1.576 2.058 2.058 0 0 1 1.541-.557 2.845 2.845 0 0 1 .744.1l-.059.879a3.113 3.113 0 0 0-.586-.053 1.059 1.059 0 0 0-.814.308 1.245 1.245 0 0 0-.287.882v.667h1.354v.84h-1.354V11zm5.1-7.875V4.66h1.184v.84h-1.181v3.93a.878.878 0 0 0 .158.571.666.666 0 0 0 .539.19 2.624 2.624 0 0 0 .516-.07V11a3.143 3.143 0 0 1-.832.117 1.35 1.35 0 0 1-1.1-.439 1.888 1.888 0 0 1-.369-1.248V5.5h-1.15v-.84h1.154V3.125z" transform="translate(1074.816 1807)"/><g id="Groupe_6112" data-name="Groupe 6112" transform="translate(1080.753 1756)"><path id="Tracé_10237" data-name="Tracé 10237" class="cls-1" d="M9.691.1h21.854a8.693 8.693 0 0 1 8.691 8.691v21.853a8.693 8.693 0 0 1-8.691 8.691H9.691A8.693 8.693 0 0 1 1 30.644V8.791A8.693 8.693 0 0 1 9.691.1z" transform="translate(-.969 -.097)"/><path id="Tracé_10238" data-name="Tracé 10238" d="M33.149 32.1s-1.523-2.539-4.064-2.539c-2.454 0-3.9 2.539-8.848 2.539-10.961 0-16.17-9.113-16.21-9.185L0 18.583V8.691A8.693 8.693 0 0 1 8.691 0h7.757l5.737 5.818c12.956 8.807 8.766 18.5 8.766 18.5s3.68 4.147 2.198 7.782z" fill="#cfd3d7"/><path id="Tracé_10239" data-name="Tracé 10239" d="M147.961 186.2c12.953 8.8 8.76 18.5 8.76 18.5s3.683 4.149 2.2 7.788c0 0-1.523-2.539-4.064-2.539-2.454 0-3.9 2.539-8.848 2.539-11 0-16.21-9.185-16.21-9.185 9.911 6.531 16.676 1.9 16.676 1.9-4.471-2.6-13.969-14.985-13.969-14.985 8.279 7.041 11.852 8.888 11.852 8.888-2.138-1.76-8.129-10.37-8.129-10.37 4.793 4.849 14.306 11.6 14.306 11.6 2.722-7.458-2.574-14.136-2.574-14.136z" transform="translate(-125.742 -180.379)" fill="#2d3032"/></g></g></svg>