<svg id="Groupe_7522" data-name="Groupe 7522" xmlns="http://www.w3.org/2000/svg" viewBox="0 0 100.672 24.133"><defs><style>.cls-1{fill:#fff}</style></defs><path id="Tracé_10235" data-name="Tracé 10235" class="cls-1" d="M-52.485 419.507h-5.161v15.949h-2.092v-15.949H-64.9V417.6h12.369v1.906z" transform="translate(64.9 -417.322)"/><path id="Tracé_10236" data-name="Tracé 10236" class="cls-1" d="M-30.757 422.394l-5.859 14.787c-1.069 2.65-2.511 3.952-4.417 3.952a5.723 5.723 0 0 1-1.348-.14v-1.813a3.958 3.958 0 0 0 1.209.232 2.5 2.5 0 0 0 2.325-1.86l1.023-2.418-4.976-12.74h2.278l3.441 9.811q.07.209.279.976h.093c.047-.186.139-.511.233-.93l3.627-9.858zm3.441 10.927h-.047v7.719h-2.046v-18.6h2.046v2.232h.047a4.895 4.895 0 0 1 4.417-2.557 4.672 4.672 0 0 1 3.859 1.72 7.063 7.063 0 0 1 1.395 4.6 7.893 7.893 0 0 1-1.534 5.115 5.249 5.249 0 0 1-4.278 1.906 4.307 4.307 0 0 1-3.859-2.135zm-.047-5.161v1.767a3.756 3.756 0 0 0 1.023 2.7 3.377 3.377 0 0 0 2.6 1.116 3.431 3.431 0 0 0 2.929-1.442 6.33 6.33 0 0 0 1.069-3.952 5.218 5.218 0 0 0-.971-3.349 3.271 3.271 0 0 0-2.65-1.209 3.636 3.636 0 0 0-2.883 1.255 4.492 4.492 0 0 0-1.116 3.114zm22.32 1.116h-9.021a4.806 4.806 0 0 0 1.162 3.3 3.892 3.892 0 0 0 3.022 1.162 6.1 6.1 0 0 0 3.954-1.438v1.9a7.256 7.256 0 0 1-4.464 1.209 5.307 5.307 0 0 1-4.231-1.72 7.147 7.147 0 0 1-1.534-4.882 6.954 6.954 0 0 1 1.674-4.836 5.346 5.346 0 0 1 4.185-1.86 4.754 4.754 0 0 1 3.859 1.627 6.62 6.62 0 0 1 1.348 4.51v1.023zm-2.092-1.721a4.116 4.116 0 0 0-.837-2.743 2.92 2.92 0 0 0-2.325-.976 3.3 3.3 0 0 0-2.464 1.023 5.034 5.034 0 0 0-1.255 2.7zm3.208 6.975v-1.395a7 7 0 0 0 3.906 1.209 4.751 4.751 0 0 0 3.162-.883 2.843 2.843 0 0 0 1.069-2.418 3.044 3.044 0 0 0-.744-2.185A13 13 0 0 0 .3 426.625a11.418 11.418 0 0 1-3.441-2.65 4.4 4.4 0 0 1-.744-2.464 4.2 4.2 0 0 1 1.493-3.211 5.589 5.589 0 0 1 3.906-1.3 9.714 9.714 0 0 1 3.208.558v1.3a8.311 8.311 0 0 0-3.348-.7 4.292 4.292 0 0 0-2.883.93 2.98 2.98 0 0 0-1.069 2.325 3.044 3.044 0 0 0 .744 2.185 13.229 13.229 0 0 0 3.162 2.185 10.95 10.95 0 0 1 3.348 2.517 4.118 4.118 0 0 1 .837 2.557 4.3 4.3 0 0 1-1.442 3.343 5.648 5.648 0 0 1-4.045 1.3 10 10 0 0 1-2.139-.279 12.45 12.45 0 0 1-1.813-.7zm20.227.047a6.577 6.577 0 0 1-3.394.883 5.44 5.44 0 0 1-4.185-1.767A6.76 6.76 0 0 1 7.14 429a6.973 6.973 0 0 1 1.813-4.975 6.009 6.009 0 0 1 4.6-1.953 6.77 6.77 0 0 1 2.836.6v1.3a5.692 5.692 0 0 0-3.022-.837 4.6 4.6 0 0 0-3.627 1.628 6.148 6.148 0 0 0-1.395 4.185 6.056 6.056 0 0 0 1.255 4 4.069 4.069 0 0 0 3.348 1.488 5.6 5.6 0 0 0 3.348-1.023v1.162zm7.719-10.977a2.216 2.216 0 0 0-1.348-.419 2.9 2.9 0 0 0-2.511 1.534 7.862 7.862 0 0 0-1.023 4.417v6h-1.116v-12.738h1.116v2.836h.046a4.532 4.532 0 0 1 1.395-2.278 3.172 3.172 0 0 1 2.185-.79 3.55 3.55 0 0 1 1.255.233v1.205zm1.953-4.417a.918.918 0 0 1-.651-.279.946.946 0 0 1-.279-.7.78.78 0 0 1 .279-.651.87.87 0 0 1 .651-.233 1.253 1.253 0 0 1 .7.233.844.844 0 0 1 .279.651.946.946 0 0 1-.279.7 1.025 1.025 0 0 1-.7.281zm-.558 16V422.44h1.162v12.741zm5.161-2.279h-.046v8.137h-1.162v-18.6h1.162v2.651h.046a5.079 5.079 0 0 1 4.743-2.93 4.678 4.678 0 0 1 3.813 1.674 6.916 6.916 0 0 1 1.348 4.557 7.867 7.867 0 0 1-1.581 5.161 5.008 5.008 0 0 1-4.138 1.953 4.591 4.591 0 0 1-4.185-2.6zm-.046-4.743v1.627a4.9 4.9 0 0 0 1.209 3.3 3.962 3.962 0 0 0 3.162 1.395 3.71 3.71 0 0 0 3.162-1.674 7.523 7.523 0 0 0 1.209-4.417 6 6 0 0 0-1.116-3.813 3.659 3.659 0 0 0-2.976-1.395 4.2 4.2 0 0 0-3.441 1.488 5.388 5.388 0 0 0-1.209 3.487zM47.594 435a4.028 4.028 0 0 1-1.674.418c-1.906 0-2.836-1.116-2.836-3.394v-8.556h-2.279v-1.07h2.278v-3.3c.186-.047.372-.14.558-.186s.372-.14.558-.186v3.72h3.348v1.069H44.2v8.416a3.3 3.3 0 0 0 .418 1.906 1.654 1.654 0 0 0 1.395.6 3.043 3.043 0 0 0 1.534-.465V435h.047z" transform="translate(53.077 -417)"/></svg>