<svg id="Calque_1" data-name="Calque 1" xmlns="http://www.w3.org/2000/svg" viewBox="0 0 91.67 60"><defs><style>.cls-1{fill:#2d3032;}</style></defs><title>ts</title><g id="Groupe_6111" data-name="Groupe 6111"><path id="Tracé_10235" data-name="Tracé 10235" class="cls-1" d="M13.42,22.83H9.09V36.22H7.33V22.83H3v-1.6H13.38v1.6Z"/><path id="Tracé_10236" data-name="Tracé 10236" class="cls-1" d="M21.74,25.53,16.82,37.94c-.9,2.23-2.11,3.32-3.71,3.32A4.3,4.3,0,0,1,12,41.14V39.62a3.18,3.18,0,0,0,1,.2,2.08,2.08,0,0,0,1.95-1.56l.86-2-4.17-10.7h1.91l2.89,8.24c0,.11.11.39.23.82h.08c0-.16.12-.43.2-.79l3-8.27Zm2.89,9.17h0v6.48H22.87V25.57h1.72v1.87h0a4.11,4.11,0,0,1,3.7-2.15,3.92,3.92,0,0,1,3.24,1.45,5.9,5.9,0,0,1,1.18,3.86,6.69,6.69,0,0,1-1.29,4.3,4.4,4.4,0,0,1-3.59,1.6A3.61,3.61,0,0,1,24.63,34.7Zm0-4.33v1.48a3.11,3.11,0,0,0,.86,2.26,2.82,2.82,0,0,0,2.18.94,2.88,2.88,0,0,0,2.46-1.21,5.27,5.27,0,0,0,.9-3.32,4.36,4.36,0,0,0-.82-2.81,2.72,2.72,0,0,0-2.22-1,3,3,0,0,0-2.42,1.05,3.76,3.76,0,0,0-.94,2.62Zm18.73.93H35.75a4.08,4.08,0,0,0,1,2.78,3.28,3.28,0,0,0,2.53,1,5,5,0,0,0,3.32-1.21v1.6a6.06,6.06,0,0,1-3.74,1A4.44,4.44,0,0,1,35.28,35,6,6,0,0,1,34,30.91a5.81,5.81,0,0,1,1.4-4.06,4.51,4.51,0,0,1,3.51-1.56,4,4,0,0,1,3.24,1.37,5.55,5.55,0,0,1,1.14,3.78v.86Zm-1.75-1.44a3.45,3.45,0,0,0-.7-2.3,2.45,2.45,0,0,0-1.95-.82,2.75,2.75,0,0,0-2.07.86,4.28,4.28,0,0,0-1.06,2.26Zm2.69,5.86V34.54a5.83,5.83,0,0,0,3.28,1,4,4,0,0,0,2.65-.74,2.36,2.36,0,0,0,.9-2A2.58,2.58,0,0,0,50.47,31a11,11,0,0,0-2.66-1.87,9.75,9.75,0,0,1-2.88-2.22,3.76,3.76,0,0,1-.63-2.07,3.55,3.55,0,0,1,1.25-2.7A4.71,4.71,0,0,1,48.83,21a8,8,0,0,1,2.69.47v1.09A6.8,6.8,0,0,0,48.71,22a3.53,3.53,0,0,0-2.42.78,2.49,2.49,0,0,0-.9,1.95A2.54,2.54,0,0,0,46,26.54a11.09,11.09,0,0,0,2.66,1.84,9.07,9.07,0,0,1,2.81,2.11,3.43,3.43,0,0,1,.7,2.14A3.62,3.62,0,0,1,51,35.44a4.74,4.74,0,0,1-3.4,1.1,8.38,8.38,0,0,1-1.8-.24,10.34,10.34,0,0,1-1.52-.58Zm17,0a5.48,5.48,0,0,1-2.85.75A4.55,4.55,0,0,1,54.88,35a5.66,5.66,0,0,1-1.33-3.94,5.9,5.9,0,0,1,1.52-4.18,5.06,5.06,0,0,1,3.87-1.64,5.75,5.75,0,0,1,2.38.51v1.09a4.9,4.9,0,0,0-2.54-.7,3.85,3.85,0,0,0-3,1.37A5.16,5.16,0,0,0,54.57,31a5.09,5.09,0,0,0,1,3.36,3.43,3.43,0,0,0,2.81,1.25,4.71,4.71,0,0,0,2.81-.86v1Zm6.48-9.21a1.83,1.83,0,0,0-1.13-.35,2.46,2.46,0,0,0-2.11,1.29,6.65,6.65,0,0,0-.86,3.71v5h-.93V25.52h.94V27.9h0A3.8,3.8,0,0,1,64.83,26a2.64,2.64,0,0,1,1.84-.66,2.88,2.88,0,0,1,1,.2v1Zm1.64-3.71a.74.74,0,0,1-.54-.23.77.77,0,0,1-.24-.59.64.64,0,0,1,.24-.54.71.71,0,0,1,.54-.2,1,1,0,0,1,.59.2.7.7,0,0,1,.23.54.8.8,0,0,1-.23.59.92.92,0,0,1-.59.24Zm-.47,13.43V25.56h1v10.7Zm4.34-1.91h0v6.83h-1V25.57h1v2.22h0a4.27,4.27,0,0,1,4-2.46,3.91,3.91,0,0,1,3.2,1.41,5.75,5.75,0,0,1,1.13,3.82,6.64,6.64,0,0,1-1.33,4.34,4.22,4.22,0,0,1-3.47,1.64A3.85,3.85,0,0,1,73.23,34.35Zm0-4v1.36a4.11,4.11,0,0,0,1,2.78,3.37,3.37,0,0,0,2.66,1.17,3.14,3.14,0,0,0,2.65-1.41,6.31,6.31,0,0,0,1-3.71,5,5,0,0,0-.94-3.2,3.1,3.1,0,0,0-2.5-1.17,3.54,3.54,0,0,0-2.89,1.25,4.6,4.6,0,0,0-1,2.93Zm14.32,5.74a3.53,3.53,0,0,1-1.4.35c-1.6,0-2.38-.94-2.38-2.85V26.43H81.81v-.9h1.92V22.75l.46-.15c.16,0,.32-.12.47-.16v3.12h2.81v.9H84.66v7.07a2.87,2.87,0,0,0,.35,1.6,1.41,1.41,0,0,0,1.17.51,2.63,2.63,0,0,0,1.29-.39v.86Z"/></g></svg>