<svg id="Calque_1" data-name="Calque 1" xmlns="http://www.w3.org/2000/svg" viewBox="0 0 60 60"><defs><style>.cls-1{fill:#2d3032;}</style></defs><title>tsql</title><path id="Tracé_10741" data-name="Tracé 10741" class="cls-1" d="M17.16,25.68H12.59V38.12H9.51V25.68H5V23.19H17.16Zm3.69,7.24H15.08V30.53h5.77Zm9.48,1.28a1.57,1.57,0,0,0-.62-1.34,7.82,7.82,0,0,0-2.21-1,16.32,16.32,0,0,1-2.53-1,4.15,4.15,0,0,1-2.55-3.7A3.62,3.62,0,0,1,23.1,25a4.53,4.53,0,0,1,2-1.48A7.24,7.24,0,0,1,27.93,23a6.82,6.82,0,0,1,2.85.57,4.55,4.55,0,0,1,1.94,1.64,4.17,4.17,0,0,1,.69,2.4H30.33a2,2,0,0,0-.64-1.6,2.64,2.64,0,0,0-1.82-.56,2.86,2.86,0,0,0-1.75.47,1.49,1.49,0,0,0-.62,1.26,1.44,1.44,0,0,0,.73,1.22,8.08,8.08,0,0,0,2.16.92,9.34,9.34,0,0,1,3.82,2,3.9,3.9,0,0,1,1.2,2.91,3.59,3.59,0,0,1-1.46,3A6.38,6.38,0,0,1,28,38.32a7.54,7.54,0,0,1-3.14-.63A5,5,0,0,1,22.7,36,4.41,4.41,0,0,1,22,33.42h3.09c0,1.65,1,2.47,2.95,2.47a2.81,2.81,0,0,0,1.71-.45,1.45,1.45,0,0,0,.62-1.24ZM46.9,31a8.92,8.92,0,0,1-.68,3.64,6.16,6.16,0,0,1-1.87,2.47l2.48,1.95-2,1.73-3.18-2.55a7.08,7.08,0,0,1-1.13.09,6.24,6.24,0,0,1-3.31-.89A6,6,0,0,1,35,34.88a8.91,8.91,0,0,1-.81-3.81v-.73a9.13,9.13,0,0,1,.8-3.89,5.9,5.9,0,0,1,2.25-2.57,6.56,6.56,0,0,1,6.63,0,5.82,5.82,0,0,1,2.24,2.57,8.8,8.8,0,0,1,.8,3.88Zm-3.12-.67a6.28,6.28,0,0,0-.84-3.57,3,3,0,0,0-4.79,0,6.22,6.22,0,0,0-.85,3.53V31a6.36,6.36,0,0,0,.84,3.54,2.94,2.94,0,0,0,4.1.74,2.87,2.87,0,0,0,.7-.69,6.28,6.28,0,0,0,.84-3.54Zm7.61,5.33h6.53v2.47h-9.6V23.19h3.07Z"/></svg>