<svg id="Calque_1" data-name="Calque 1" xmlns="http://www.w3.org/2000/svg" viewBox="0 0 60 60"><defs><style>.cls-1{fill:#2d3032;}.cls-2{fill:#464a4d;}.cls-3{fill:#fff;}</style></defs><title>vb</title><g id="vb"><circle id="Ellipse_65" data-name="Ellipse 65" class="cls-1" cx="31.13" cy="29.45" r="24.45"/><path id="Tracé_10244" data-name="Tracé 10244" class="cls-2" d="M14.19,11.88A24.45,24.45,0,1,0,48.71,46.4Z"/><path id="Tracé_10245" data-name="Tracé 10245" class="cls-3" d="M32.12,19.82,25,39.08H22.51l-7-19.26H18l5.34,15.29a8.22,8.22,0,0,1,.39,1.7h.06a8.75,8.75,0,0,1,.42-1.75l5.44-15.28Z"/><path id="Tracé_10246" data-name="Tracé 10246" class="cls-3" d="M34.89,39.08V19.83h5.48a6,6,0,0,1,4,1.22,4,4,0,0,1,1.47,3.19,4.69,4.69,0,0,1-3.36,4.56v.05a4.9,4.9,0,0,1,3.12,1.47,4.52,4.52,0,0,1,1.17,3.23,5.08,5.08,0,0,1-1.77,4,6.65,6.65,0,0,1-4.48,1.53Zm2.29-17.22v6.22h2.29a4.4,4.4,0,0,0,2.9-.92,3.07,3.07,0,0,0,1.06-2.52q0-2.8-3.69-2.8Zm0,8.24V37h3.06a4.62,4.62,0,0,0,3.06-.94,3.25,3.25,0,0,0,1.09-2.58q0-3.41-4.65-3.41Z"/></g></svg>