<svg xmlns="http://www.w3.org/2000/svg" viewBox="0 0 67.044 16.212"><path data-name="Tracé 11978" d="M2.981 8.593l5.845 2.061v2.876L-.003 9.787v-2.42L8.829 3.62v2.871zm12.986-3.445l2.8-5.147h3.538l-4.348 7.4 4.459 7.529h-3.578l-2.871-5.229-2.872 5.229H9.517l4.46-7.526-4.348-7.4h3.538zM27.144 0l3.837 10.83L34.794 0h4.04v14.93h-3.087v-4.081l.308-7.044-4.03 11.125h-2.112l-4.02-11.115.308 7.034v4.081h-3.076V0zm16.612 12.459h6.532v2.471h-9.607V0h3.076zm8.194 3.753h-2.2L55.241 0h2.2zm12.121-7.65L58.113 6.48V3.63l8.931 3.743v2.41l-8.931 3.753v-2.861z" fill="#fff"/></svg>