<svg id="Calque_1" data-name="Calque 1" xmlns="http://www.w3.org/2000/svg" viewBox="0 0 76.67 60"><defs><style>.cls-1{fill:#2d3032;}</style></defs><title>xml</title><path id="Tracé_10738" data-name="Tracé 10738" class="cls-1" d="M8,31.58l5.85,2.06v2.87L5,32.77V30.35l8.83-3.75v2.87Zm13-3.45L23.77,23H27.3L23,30.38l4.46,7.53H23.84L21,32.68,18.1,37.91H14.52L19,30.39,14.63,23h3.54ZM32.14,23,36,33.81,39.79,23h4V37.91H40.75V33.83l.31-7L37,37.91H34.91l-4-11.11.31,7v4.08H28.12V23ZM48.76,35.44h6.53v2.47H45.68V23h3.08ZM57,39.2h-2.2L60.24,23h2.2Zm12.12-7.65-6-2.09V26.61L72,30.36v2.41l-8.93,3.75V33.66Z"/></svg>