<svg xmlns="http://www.w3.org/2000/svg" viewBox="-1045.352 -4278.348 41.911 37.021">
  <defs>
    <style>
      .cls-1 {
        fill: #434447;
      }

      .cls-2 {
        fill: #f3702a;
      }
    </style>
  </defs>
  <g id="cloud-computing" transform="translate(-1045.352 -4278.348)">
    <path id="Tracé_10173" data-name="Tracé 10173" class="cls-1" d="M35.607,14.812A11.96,11.96,0,0,0,23.808,3.5a12.313,12.313,0,0,0-9.742,4.9c-.052-.027-.108-.046-.161-.072-.137-.066-.275-.129-.417-.186-.082-.033-.166-.062-.25-.092-.138-.048-.277-.091-.419-.129-.084-.022-.167-.045-.251-.065-.154-.035-.31-.061-.468-.085-.073-.011-.146-.025-.22-.034a6.155,6.155,0,0,0-.7-.043A6.294,6.294,0,0,0,4.89,13.978c0,.09.006.178.011.266A9.659,9.659,0,0,0,0,22.468a8.983,8.983,0,0,0,8.973,8.973h3.6a.7.7,0,1,0,0-1.4h-3.6A7.584,7.584,0,0,1,1.4,22.468,8.3,8.3,0,0,1,5.89,15.306l.4-.189v-.44c0-.086.006-.174.01-.262l.006-.121L6.3,14.152c0-.058-.008-.116-.008-.175a4.857,4.857,0,0,1,5.53-4.843c.054.007.109.016.163.025a4.909,4.909,0,0,1,.551.123l.074.019a4.874,4.874,0,0,1,.583.224c.049.022.1.046.145.07a4.827,4.827,0,0,1,.492.278,4.889,4.889,0,0,1,2.239,4.1.7.7,0,1,0,1.4,0,6.272,6.272,0,0,0-2.235-4.8A11.063,11.063,0,0,1,23.808,4.9,10.545,10.545,0,0,1,34.18,14.6a13.3,13.3,0,0,0-2.852.087.7.7,0,0,0,.1,1.389.686.686,0,0,0,.106-.008,12.879,12.879,0,0,1,3.272,0,7.159,7.159,0,0,1,5.7,6.975,7.013,7.013,0,0,1-7,7H30.735a.7.7,0,1,0,0,1.4H33.51a8.412,8.412,0,0,0,8.4-8.4A8.6,8.6,0,0,0,35.607,14.812Z" transform="translate(0 -3.5)"/>
    <path id="Tracé_10174" data-name="Tracé 10174" class="cls-2" d="M33.381,31.281a.7.7,0,1,0,.988-.988l-5.587-5.587a.692.692,0,0,0-.228-.152.7.7,0,0,0-.761.152L22.2,30.293a.7.7,0,1,0,.988.988l4.4-4.4V44.468l-4.4-4.4a.7.7,0,0,0-.988.988l5.587,5.587a.692.692,0,0,0,.228.152.7.7,0,0,0,.761-.152l5.587-5.587a.7.7,0,0,0-.988-.988l-4.4,4.4V26.885Z" transform="translate(-6.632 -9.831)"/>
  </g>
</svg>
