<svg xmlns="http://www.w3.org/2000/svg" viewBox="0 0 65.6 63.3"><linearGradient id="a" gradientUnits="userSpaceOnUse" x1="62.16" y1="735.29" x2="32.81" y2="755.16" gradientTransform="translate(0 -702)"><stop offset=".07" stop-color="#fff" stop-opacity=".4"/><stop offset="1" stop-color="#fff"/></linearGradient><path d="M59.7 25.1H40.9l-3.2 18.4h-13L9.4 61.7c.5.4 1.1.7 1.8.7h40.7c1 0 1.8-.7 2-1.7l5.8-35.6z" fill="url(#a)"/><path d="M2 6.3c-1.1 0-2 .9-2 2v.3l8.5 51.5c.1.6.4 1.2.9 1.6.5.4 1.1.7 1.8.7L27 43.5h-2.2l-3.5-18.4h38.4l2.7-16.5c.2-1.1-.6-2.1-1.7-2.3H2z" fill="#fff"/></svg>