<svg xmlns="http://www.w3.org/2000/svg" viewBox="0 0 536.82 112.395"><defs><style>.cls-2{fill:#dee3e8}.cls-4{fill:#141720}.cls-5{fill:#dfb28b}.cls-7{fill:#e7ecf2}.cls-8{clip-path:url(#clip-path-2)}.cls-12,.cls-9{fill:#8a8c8f}.cls-12{opacity:.445}.cls-15{fill:#b08874}.cls-18{clip-path:url(#clip-path-5)}.cls-20,.cls-21{fill:#c90418}.cls-21{fill-rule:evenodd}</style><clipPath id="clip-path"><ellipse cx="50.082" cy="50.082" rx="50.082" ry="50.082"/></clipPath><clipPath id="clip-path-2"><path fill="none" d="M0 0h70.847v6.672H0z"/></clipPath><clipPath id="clip-path-4"><ellipse cx="49.732" cy="49.732" rx="49.732" ry="49.732"/></clipPath><clipPath id="clip-path-5"><ellipse cx="49.732" cy="49.732" rx="49.732" ry="49.732"/></clipPath></defs><g transform="translate(-438.564 -2511.542)"><g transform="translate(875.22 2514.73)"><g data-name="Groupe 6950"><ellipse class="cls-2" cx="50.082" cy="50.082" rx="50.082" ry="50.082"/><g clip-path="url(#clip-path)"><g transform="translate(24.429 33.05)"><g data-name="Groupe 6944"><path class="cls-4" d="M52.6 144.909a5.581 5.581 0 0 1-2.022 4.684 2.121 2.121 0 0 1-1.277.373 2.923 2.923 0 0 1-1.277-.373C46.8 148.848 46 146.985 46 144.909a6.637 6.637 0 0 1 .639-2.98A3.207 3.207 0 0 1 49.3 139.8a3.143 3.143 0 0 1 2.661 2.129 6.637 6.637 0 0 1 .639 2.98z" transform="translate(-45.947 -98.446)"/><path class="cls-4" d="M52.6 133.709a6.637 6.637 0 0 1-.639 2.98 3.206 3.206 0 0 1-2.661 2.129 3.143 3.143 0 0 1-2.661-2.129 7.437 7.437 0 0 1-.639-2.98 6.637 6.637 0 0 1 .639-2.98A3.207 3.207 0 0 1 49.3 128.6a3.143 3.143 0 0 1 2.661 2.129 6.8 6.8 0 0 1 .639 2.98z" transform="translate(-45.947 -93.206)"/><path class="cls-4" d="M52.6 122.609a6.637 6.637 0 0 1-.639 2.98 3.207 3.207 0 0 1-2.661 2.129 3.143 3.143 0 0 1-2.661-2.129 7.437 7.437 0 0 1-.639-2.98 6.637 6.637 0 0 1 .639-2.98A3.207 3.207 0 0 1 49.3 117.5a3.143 3.143 0 0 1 2.661 2.129 6.637 6.637 0 0 1 .639 2.98z" transform="translate(-45.947 -88.014)"/><path class="cls-4" d="M52.6 111.509a6.637 6.637 0 0 1-.639 2.98 3.207 3.207 0 0 1-2.661 2.129 3.143 3.143 0 0 1-2.661-2.129 7.437 7.437 0 0 1-.639-2.98 6.638 6.638 0 0 1 .639-2.98A3.207 3.207 0 0 1 49.3 106.4a3.143 3.143 0 0 1 2.661 2.129 6.638 6.638 0 0 1 .639 2.98z" transform="translate(-45.947 -82.822)"/><path class="cls-4" d="M52.646 100.409a8.263 8.263 0 0 1-.16 1.65 9.733 9.733 0 0 1-.426 1.331 3.207 3.207 0 0 1-2.661 2.129 3.143 3.143 0 0 1-2.661-2.129 7.437 7.437 0 0 1-.639-2.98 6.637 6.637 0 0 1 .639-2.98A3.207 3.207 0 0 1 49.4 95.3a2.7 2.7 0 0 1 .692.106 3.666 3.666 0 0 1 1.969 2.022 7.44 7.44 0 0 1 .585 2.981z" transform="translate(-45.994 -77.629)"/><path class="cls-4" d="M52.6 89.309a6.637 6.637 0 0 1-.639 2.98A5.32 5.32 0 0 1 51 93.674a2.479 2.479 0 0 1-1.7.745 3.143 3.143 0 0 1-2.661-2.129A7.437 7.437 0 0 1 46 89.309a6.637 6.637 0 0 1 .639-2.98A3.207 3.207 0 0 1 49.3 84.2a3.143 3.143 0 0 1 2.661 2.129 6.637 6.637 0 0 1 .639 2.98z" transform="translate(-45.947 -72.437)"/><path class="cls-4" d="M52.553 78.016v.16a6.244 6.244 0 0 1-.639 2.768 3.316 3.316 0 0 1-2.342 2.076c-.106 0-.213.053-.373.053a3.143 3.143 0 0 1-2.661-2.129 7.437 7.437 0 0 1-.639-2.98 6.637 6.637 0 0 1 .639-2.98 4.13 4.13 0 0 1 .852-1.284 2.707 2.707 0 0 1 1.863-.9 3.143 3.143 0 0 1 2.661 2.129 7.635 7.635 0 0 1 .639 3.087z" transform="translate(-45.9 -67.104)"/><path class="cls-4" d="M52.6 67.1a6.637 6.637 0 0 1-.639 2.98 3.4 3.4 0 0 1-2.342 2.129c-.106 0-.213.053-.319.053a3.143 3.143 0 0 1-2.661-2.129A7.437 7.437 0 0 1 46 67.155a6.494 6.494 0 0 1 .213-1.81c.479-1.916 1.65-3.247 3.087-3.247 1.809-.052 3.3 2.183 3.3 5.002z" transform="translate(-45.947 -62.098)"/></g><path class="cls-4" d="M52.64 161.044H46.2l1.916-6.493 1.277-4.151 1.277 4.151.585 2.023z" transform="translate(-46.04 -103.404)"/></g><g transform="translate(69.03 32.944)"><g data-name="Groupe 6946"><path class="cls-4" d="M136.3 144.909c0 2.821-1.49 5.109-3.3 5.109s-3.3-2.289-3.3-5.109 1.49-5.109 3.3-5.109c1.863 0 3.3 2.289 3.3 5.109z" transform="translate(-129.7 -98.34)"/><path class="cls-4" d="M136.3 133.709c0 2.821-1.49 5.109-3.3 5.109s-3.3-2.289-3.3-5.109 1.49-5.109 3.3-5.109c1.863.053 3.3 2.342 3.3 5.109z" transform="translate(-129.7 -93.101)"/><path class="cls-4" d="M136.3 122.609c0 2.821-1.49 5.109-3.3 5.109s-3.3-2.289-3.3-5.109 1.49-5.109 3.3-5.109c1.863 0 3.3 2.289 3.3 5.109z" transform="translate(-129.7 -87.909)"/><path class="cls-4" d="M136.3 111.509c0 2.821-1.49 5.109-3.3 5.109s-3.3-2.289-3.3-5.109 1.49-5.109 3.3-5.109c1.863 0 3.3 2.289 3.3 5.109z" transform="translate(-129.7 -82.716)"/><path class="cls-4" d="M136.3 100.409c0 2.821-1.49 5.109-3.3 5.109s-3.3-2.289-3.3-5.109 1.49-5.109 3.3-5.109c1.863 0 3.3 2.289 3.3 5.109z" transform="translate(-129.7 -77.524)"/><path class="cls-4" d="M136.3 89.309c0 2.821-1.49 5.109-3.3 5.109s-3.3-2.289-3.3-5.109 1.49-5.109 3.3-5.109c1.863 0 3.3 2.289 3.3 5.109z" transform="translate(-129.7 -72.332)"/><path class="cls-4" d="M136.3 78.109c0 2.821-1.49 5.109-3.3 5.109s-3.3-2.289-3.3-5.109S131.19 73 133 73c1.863.053 3.3 2.342 3.3 5.109z" transform="translate(-129.7 -67.092)"/><path class="cls-4" d="M136.3 67.009c0 2.821-1.49 5.109-3.3 5.109s-3.3-2.289-3.3-5.109 1.49-5.109 3.3-5.109c1.863.053 3.3 2.289 3.3 5.109z" transform="translate(-129.7 -61.9)"/></g><path class="cls-4" d="M133.093 150.3L129.9 161h6.44z" transform="translate(-129.794 -103.252)"/></g><path class="cls-5" d="M97.566 164.173H39.5a28.577 28.577 0 0 1 1.543-9.367c.16-.532.373-1.064.585-1.6.213-.532.426-1.011.692-1.543a31.021 31.021 0 0 1 2.076-3.672 16.9 16.9 0 0 1 1.437-1.969c.373-.426.692-.852 1.064-1.277a6.373 6.373 0 0 1 .585-.639l.585-.585.053-.053a29.105 29.105 0 0 1 3.087-2.661 19.239 19.239 0 0 1 1.7-1.171c.053-.053.16-.106.213-.16a14.682 14.682 0 0 1 1.543-.9c.213-.106.373-.213.585-.319a.186.186 0 0 0 .106-.053 2.159 2.159 0 0 1 .479-.266c.053-.053.106-.053.16-.106.106-.106.266-.16.373-.266a2.922 2.922 0 0 0 .479-.373 2.93 2.93 0 0 0 .479-.373 18.124 18.124 0 0 0 2.5-2.448 22.428 22.428 0 0 0 1.863-2.555 18.76 18.76 0 0 0 1.49-3.14 15.923 15.923 0 0 0 .532-1.7c.106-.426.213-.852.266-1.224a21.665 21.665 0 0 0 .266-3.247h8.516a21.542 21.542 0 0 0 .266 3.193 10.9 10.9 0 0 0 .266 1.277c.16.585.319 1.118.479 1.7a17.441 17.441 0 0 0 1.49 3.193 18.386 18.386 0 0 0 4.364 5c.16.106.266.213.426.319.053.053.106.053.16.106.106.053.16.106.266.16.106.106.266.16.373.266.053.053.106.053.106.106a1.115 1.115 0 0 1 .319.213l.319.16c.106.053.213.16.319.213s.213.16.319.213c.053 0 .053.053.106.053l.16.106c.053 0 .053.053.106.053.16.106.266.16.426.266.213.16.479.266.692.426a7.9 7.9 0 0 0 .692.426 7.651 7.651 0 0 1 1.331.958l1.6 1.277c.479.426.958.851 1.437 1.331l.106.106a31.514 31.514 0 0 1 3.619 4.364 27.807 27.807 0 0 1 5.062 16.182z" transform="translate(-18.477 -57.303)"/><path d="M97.566 176.756H39.5a28.577 28.577 0 0 1 1.543-9.367c.16-.532.373-1.064.585-1.6.213-.532.426-1.011.692-1.543a31.032 31.032 0 0 1 2.076-3.672 16.9 16.9 0 0 1 1.437-1.969c.373-.426.692-.852 1.064-1.277a6.389 6.389 0 0 1 .585-.639l.585-.585.053-.053a29.1 29.1 0 0 1 3.087-2.661 19.242 19.242 0 0 1 1.7-1.171c.053-.053.16-.107.213-.16a14.674 14.674 0 0 1 1.543-.9c.213-.106.373-.213.585-.319a.186.186 0 0 0 .106-.053 2.158 2.158 0 0 1 .479-.266 2.952 2.952 0 0 0 .426-.319c.053-.053.106-.106.16-.106a1.864 1.864 0 0 1 .426-.266.052.052 0 0 0 .053-.053c.16-.106.266-.213.426-.319.319.319.639.639.958.9.16.16.319.266.479.426.16.106.319.266.479.373.053.053.053.053.106.053l.479.319a12.744 12.744 0 0 0 1.118.692c.213.106.373.213.585.319a3.26 3.26 0 0 0 .639.266c.053 0 .053.053.106.053.479.213.958.373 1.437.532.16.053.373.106.585.16a1.575 1.575 0 0 0 .532.106c.053 0 .053 0 .106.053.532.106 1.118.213 1.7.319.213 0 .373.053.585.053a9.416 9.416 0 0 0 1.224.053h.758c.266 0 .532-.053.745-.053s.426-.053.639-.053h.16a1.555 1.555 0 0 0 .479-.106.4.4 0 0 0 .213-.053c.106 0 .266-.053.373-.053a1.354 1.354 0 0 0 .373-.106 2.637 2.637 0 0 0 .692-.213c.213-.053.479-.16.692-.213a2.674 2.674 0 0 0 .692-.266l.319-.16a16.019 16.019 0 0 0 1.65-.851c.16-.106.373-.213.532-.319a2.319 2.319 0 0 1 .373-.213.531.531 0 0 0 .266-.213c.213-.16.373-.266.585-.426a4.8 4.8 0 0 0 .532-.479c.373-.319.692-.639 1.064-.958a2.363 2.363 0 0 0 .585.426l.053.053h.053a4.6 4.6 0 0 0 .532.373c.053.053.106.053.106.107a5.6 5.6 0 0 1 .585.373 4.4 4.4 0 0 0 .692.373c.053 0 .053.053.106.053.053.053.106.053.16.106.053 0 .053.053.106.053.16.106.266.16.426.266.213.16.479.266.692.426a7.892 7.892 0 0 0 .692.426 7.649 7.649 0 0 1 1.331.958c.532.426 1.118.851 1.6 1.277s.958.852 1.437 1.33l.106.107a31.507 31.507 0 0 1 3.619 4.364 28.041 28.041 0 0 1 5.106 16.285z" transform="translate(-18.477 -69.886)" fill="#9d78dc"/><g transform="translate(34.648 79.567)"><path class="cls-7" d="M80.588 154.284l-.053.053a7.871 7.871 0 0 1-6.653 3.619 8.119 8.119 0 0 1-5.8-2.5l-2.98-3.193a14.651 14.651 0 0 1 1.543-.9c.213-.106.373-.213.585-.319a.186.186 0 0 0 .106-.053 2.156 2.156 0 0 1 .479-.266c.053-.053.106-.053.16-.106.106-.053.213-.16.319-.213.053 0 .053-.053.106-.053a2.926 2.926 0 0 0 .479-.372l.053-.053c.16-.106.266-.213.426-.319.319.319.639.639.958.9.16.16.319.266.479.426.16.106.319.266.479.373.053.053.053.053.106.053l.479.319a12.765 12.765 0 0 0 1.118.692c.213.106.373.213.585.319a3.257 3.257 0 0 0 .639.266c.053 0 .053.053.106.053.479.213.958.373 1.437.532.16.053.373.106.585.16a1.577 1.577 0 0 0 .532.106c.053 0 .053 0 .106.053a16.092 16.092 0 0 0 1.7.319 2.184 2.184 0 0 0 .585.053 9.425 9.425 0 0 0 1.224.053z" transform="translate(-65.1 -149.547)"/><path class="cls-7" d="M109.581 152.214l-2.927 3.14a7.948 7.948 0 0 1-12.454-1.117v-.053a15.772 15.772 0 0 0 11.177-4.683 10.4 10.4 0 0 0 1.224.9c.053.053.106.053.106.106a5.592 5.592 0 0 1 .585.373 4.4 4.4 0 0 0 .692.373c.053 0 .053.053.107.053.479.266.958.532 1.437.852z" transform="translate(-78.712 -149.5)"/></g><path class="cls-4" d="M86.48 20.9a27.49 27.49 0 0 1-2.08 10.487 27.159 27.159 0 0 1-25.011 16.605 27.813 27.813 0 0 1-10.378-2.022l-.319-.16c-.106-.053-.16-.053-.266-.106a33.853 33.853 0 0 1-1.6-3.087A24.856 24.856 0 0 1 45.6 39.1 26.281 26.281 0 0 1 83.92 9.4c.16.319.319.692.479 1.064a29.72 29.72 0 0 1 1.224 3.672 25.578 25.578 0 0 1 .857 6.764z" transform="translate(-20.91 -2.807)"/><path class="cls-4" d="M130.3 35.56a26.313 26.313 0 0 1-2.608 11.389 26.737 26.737 0 0 1-10.219-12.241 27.518 27.518 0 0 1 0-20.969c.106-.213.16-.426.266-.639A26.429 26.429 0 0 1 130.3 35.56z" transform="translate(-53.981 -6.128)"/><path class="cls-5" d="M96.747 33.247v17.936a1.812 1.812 0 0 1-.053.532.905.905 0 0 1-.053.373v.212a1.172 1.172 0 0 1-.053.426 4.109 4.109 0 0 1-.106.8.4.4 0 0 1-.053.213c0 .106-.053.266-.053.373v.053c-.053.16-.053.319-.106.479l-.16.8v.213c0 .106-.053.213-.053.319v.053a.2.2 0 0 1-.053.16c0 .106-.053.213-.053.319 0 .053-.053.106-.053.16s-.053.106-.053.16c-.106.426-.266.9-.373 1.331a3 3 0 0 1-.213.639v.053c-.053.16-.106.373-.16.532v.053c0 .053-.053.106-.053.16a2.224 2.224 0 0 1-.213.532c-.106.213-.16.426-.266.639a2.487 2.487 0 0 1-.266.532c0 .053-.053.053-.053.106-.106.213-.16.373-.266.585a5.8 5.8 0 0 1-.319.585v.053a12.009 12.009 0 0 0-.585 1.171l-.319.532a27.4 27.4 0 0 1-2.821 4.045c-.16.16-.266.373-.426.532-.213.266-.426.479-.639.745a5.827 5.827 0 0 1-.532.585v.053a22.566 22.566 0 0 1-1.6 1.6l-.319.319a5.655 5.655 0 0 1-.585.479c-.16.106-.319.266-.479.373-.373.319-.8.639-1.171.9-.16.106-.319.266-.479.373-.266.213-.532.373-.852.585l-.479.319a.052.052 0 0 0-.053.053c-.532.319-1.064.639-1.6.9-.16.053-.266.16-.426.213a1.594 1.594 0 0 0-.426.213 2.223 2.223 0 0 1-.532.213c-.053.053-.16.053-.213.106-.213.106-.426.16-.639.266-.266.106-.532.16-.8.266-.16.053-.373.106-.585.16h-.053a1.89 1.89 0 0 1-.532.106.2.2 0 0 0-.16.053 1.474 1.474 0 0 1-.479.053 2.591 2.591 0 0 1-.639.053h-1.49a1.473 1.473 0 0 1-.479-.053h-.101c-.213-.053-.426-.053-.639-.106-.16-.053-.373-.053-.532-.106a15.18 15.18 0 0 1-2.874-.958 19 19 0 0 1-2.5-1.331c-.053-.053-.106-.053-.16-.106-.373-.213-.745-.479-1.118-.745a4.443 4.443 0 0 0-.639-.426c-.639-.479-1.277-1.011-1.916-1.543-.16-.16-.373-.319-.532-.479s-.373-.319-.532-.479a12.722 12.722 0 0 1-1.171-1.224.052.052 0 0 1-.053-.053 4.8 4.8 0 0 1-.479-.532c-.426-.479-.852-1.011-1.277-1.543-.16-.213-.319-.373-.479-.585-.532-.745-1.064-1.49-1.6-2.289-.106-.213-.266-.426-.373-.639a5.821 5.821 0 0 1-.426-.8c-.213-.373-.426-.745-.639-1.171-.319-.639-.585-1.277-.852-1.916l-.16-.479a4.043 4.043 0 0 1-.213-.585c-.053-.106-.053-.16-.106-.266-.053-.213-.16-.373-.213-.585a4.5 4.5 0 0 1-.266-.9c-.106-.266-.16-.585-.266-.852-.106-.319-.16-.639-.266-.958v-.16a10.9 10.9 0 0 1-.266-1.277c-.053-.16-.053-.319-.106-.479l-.16-1.277a2.183 2.183 0 0 1-.053-.585c0-.213-.053-.426-.053-.585A7.86 7.86 0 0 1 52.2 50.7V33.247A22.3 22.3 0 0 1 73.276 11h2.661a1.474 1.474 0 0 1 .479.053h.426a21.314 21.314 0 0 1 2.555.426 22.362 22.362 0 0 1 4.151 1.384 22.779 22.779 0 0 1 3.513 1.969c.532.373 1.011.745 1.49 1.118.16.16.373.319.532.479a19.4 19.4 0 0 1 2.874 3.034 22.163 22.163 0 0 1 4.737 13.518.578.578 0 0 1 .053.266z" transform="translate(-24.418 -5.146)"/><path class="cls-4" d="M97.184 32.238a26.289 26.289 0 0 1-.9 6.812 28.192 28.192 0 0 1-1.224 3.566c-.16.373-.319.692-.479 1.064-.479-.319-.9-.639-1.384-.958a11.7 11.7 0 0 1-.958-.745 27.785 27.785 0 0 1-2.294-2.077 27.4 27.4 0 0 1-5.645-8.46 27.159 27.159 0 0 1-25.011 16.605 27.813 27.813 0 0 1-10.378-2.022l-.319-.16c-.106-.053-.16-.053-.266-.106a33.856 33.856 0 0 1-1.6-3.087 24.856 24.856 0 0 1-1.226-3.513A26.324 26.324 0 0 1 83.878 9.406c.266.16.479.266.745.426a26.271 26.271 0 0 1 12.561 22.406z" transform="translate(-20.863 -2.807)"/></g></g></g><g class="cls-8" transform="translate(540.236 2560.848)"><g transform="translate(-929 -404)"><circle class="cls-9" cx="2" cy="2" r="2" transform="translate(930 404)"/><circle class="cls-9" cx="1" cy="1" r="1" transform="translate(920 333)"/></g><g transform="translate(-918 -404)"><circle class="cls-9" cx="2" cy="2" r="2" transform="translate(930 404)"/><circle class="cls-9" cx="1" cy="1" r="1" transform="translate(920 333)"/></g><g transform="translate(-907 -404)"><circle class="cls-9" cx="2" cy="2" r="2" transform="translate(930 404)"/><circle class="cls-9" cx="1" cy="1" r="1" transform="translate(920 333)"/></g><g transform="translate(-896 -404)"><circle class="cls-9" cx="2" cy="2" r="2" transform="translate(930 404)"/><circle class="cls-9" cx="1" cy="1" r="1" transform="translate(920 333)"/></g><g transform="translate(-885 -404)"><circle class="cls-9" cx="2" cy="2" r="2" transform="translate(930 404)"/><circle class="cls-9" cx="1" cy="1" r="1" transform="translate(920 333)"/></g><g transform="translate(-874 -404)"><circle class="cls-9" cx="2" cy="2" r="2" transform="translate(930 404)"/><circle class="cls-9" cx="1" cy="1" r="1" transform="translate(920 333)"/></g><g transform="translate(-863 -404)"><circle class="cls-9" cx="2" cy="2" r="2" transform="translate(930 404)"/><circle class="cls-9" cx="1" cy="1" r="1" transform="translate(920 333)"/></g></g><g class="cls-8" transform="translate(803.138 2560.848)"><g transform="translate(-929 -404)"><circle class="cls-9" cx="2" cy="2" r="2" transform="translate(930 404)"/><circle class="cls-9" cx="1" cy="1" r="1" transform="translate(920 333)"/></g><g transform="translate(-918 -404)"><circle class="cls-9" cx="2" cy="2" r="2" transform="translate(930 404)"/><circle class="cls-9" cx="1" cy="1" r="1" transform="translate(920 333)"/></g><g transform="translate(-907 -404)"><circle class="cls-9" cx="2" cy="2" r="2" transform="translate(930 404)"/><circle class="cls-9" cx="1" cy="1" r="1" transform="translate(920 333)"/></g><g transform="translate(-896 -404)"><circle class="cls-9" cx="2" cy="2" r="2" transform="translate(930 404)"/><circle class="cls-9" cx="1" cy="1" r="1" transform="translate(920 333)"/></g><g transform="translate(-885 -404)"><circle class="cls-9" cx="2" cy="2" r="2" transform="translate(930 404)"/><circle class="cls-9" cx="1" cy="1" r="1" transform="translate(920 333)"/></g><g transform="translate(-874 -404)"><circle class="cls-9" cx="2" cy="2" r="2" transform="translate(930 404)"/><circle class="cls-9" cx="1" cy="1" r="1" transform="translate(920 333)"/></g><g transform="translate(-863 -404)"><circle class="cls-9" cx="2" cy="2" r="2" transform="translate(930 404)"/><circle class="cls-9" cx="1" cy="1" r="1" transform="translate(920 333)"/></g></g><rect width="209.437" height="112.395" rx="2" transform="translate(603.316 2511.542)" fill="#434447"/><rect width="43.119" height="7.042" rx="3.521" transform="translate(664.329 2560.551)" fill="#91dc5a"/><rect class="cls-12" width="80.878" height="7.043" rx="3.521" transform="translate(714.603 2560.551)"/><rect class="cls-12" width="80.915" height="7.043" rx="3.521" transform="translate(677.631 2574.636)"/><rect class="cls-9" width="23.898" height="7.043" rx="3.521" transform="translate(763.324 2574.636)"/><rect class="cls-12" width="87.589" height="7.043" rx="3.521" transform="translate(644.105 2588.723)"/><rect class="cls-9" width="45.779" height="7.043" rx="3.521" transform="translate(622.686 2602.807)"/><rect class="cls-9" width="63.386" height="7.043" rx="3.521" transform="translate(622.686 2532.38)"/><rect class="cls-12" width="94.727" height="7.043" rx="3.521" transform="translate(644.105 2546.466)"/><path d="M2 0h205.437a2 2 0 0 1 2 2v9.114H0V2a2 2 0 0 1 2-2z" transform="translate(603.316 2511.542)" fill="#2d3032"/><g transform="translate(438.564 2513.704)"><g data-name="boy (2)"><ellipse class="cls-2" cx="49.732" cy="49.732" rx="49.732" ry="49.732"/><g clip-path="url(#clip-path-4)"><path class="cls-4" d="M97.39 39.4c0 .859-.038 1.707-.1 2.549a31.285 31.285 0 0 1-.641 4.191 30.593 30.593 0 0 1-4.363 10.19 30.6 30.6 0 0 1-2.6 3.37c-.234.261-.468.516-.707.767A28.852 28.852 0 0 1 86.5 62.8c-.223.19-.446.375-.674.555a29.709 29.709 0 0 1-3.426 2.366c-.37.223-.75.435-1.131.642A30.663 30.663 0 0 1 66.8 70a30.713 30.713 0 0 1-14.49-3.637c-.505-.277-1.005-.56-1.489-.859a30.189 30.189 0 0 1-4.153-3.06c-.142-.12-.288-.245-.424-.375a30.29 30.29 0 0 1-2.728-2.81c-.158-.185-.315-.37-.467-.56a30.765 30.765 0 0 1-3.349-5.07c-.093-.174-.179-.348-.266-.522a30.8 30.8 0 0 1-1.865-4.615q-.147-.481-.277-.962a29.863 29.863 0 0 1-.946-5.114c-.027-.293-.054-.587-.076-.886-.043-.7-.071-1.413-.071-2.126 0-.429.011-.853.027-1.277.005-.212.016-.418.033-.63a29.664 29.664 0 0 1 .527-4.082c.06-.3.125-.6.19-.892a29.63 29.63 0 0 1 .9-3.114c.125-.37.261-.739.4-1.1a29.539 29.539 0 0 1 1.484-3.24q.661-1.247 1.435-2.424c.331-.511.679-1.005 1.044-1.494.4-.538.815-1.06 1.25-1.565a28.929 28.929 0 0 1 2.424-2.533c.293-.277.587-.543.891-.8a29.649 29.649 0 0 1 3.652-2.712c.435-.277.875-.543 1.326-.793.652-.37 1.321-.718 2.006-1.038q.636-.3 1.288-.571A30.629 30.629 0 0 1 59.04 9.8c.685-.179 1.38-.331 2.087-.462a30.473 30.473 0 0 1 3.25-.435q.831-.065 1.68-.081c.245-.005.489-.011.739-.011q.88 0 1.745.049c.37.022.739.049 1.1.081a29.774 29.774 0 0 1 4.5.761c.337.081.669.169 1 .261a30.468 30.468 0 0 1 4.756 1.788c.435.207.859.419 1.283.647.794.418 1.56.875 2.31 1.364.131.087.266.174.4.261a29.954 29.954 0 0 1 2.995 2.31c.63.538 1.228 1.109 1.8 1.707a29.155 29.155 0 0 1 2.515 2.92c.158.2.31.4.45.608a30.012 30.012 0 0 1 2.071 3.3c.114.207.223.419.326.625a30.335 30.335 0 0 1 2.386 6.289 29.759 29.759 0 0 1 .669 3.424 30.565 30.565 0 0 1 .288 4.194z" transform="translate(-17.061 -4.154)"/><path class="cls-4" d="M53.827 103.4a.422.422 0 0 1-.005.081 2.675 2.675 0 0 1-1.386 2.277 1.749 1.749 0 0 1-.321.152 2.6 2.6 0 0 1-.989.19 2.7 2.7 0 0 1-2.7-2.7 2.836 2.836 0 0 1 .1-.744 2.628 2.628 0 0 1 .283-.641 2.694 2.694 0 0 1 3.011-1.217 2.5 2.5 0 0 1 .935.456 2.792 2.792 0 0 1 .6.636 2.669 2.669 0 0 1 .472 1.51z" transform="translate(-22.828 -47.468)"/><path class="cls-4" d="M39.834 48.358a2.7 2.7 0 0 1-3.881 2.424 2.754 2.754 0 0 1-.538-.343 2.7 2.7 0 0 1 .891-4.653 2.6 2.6 0 0 1 .826-.131 1.97 1.97 0 0 1 .31.022 2.677 2.677 0 0 1 2.354 2.25 2.267 2.267 0 0 1 .038.431z" transform="translate(-16.232 -21.521)"/><path class="cls-4" d="M68.437 14.26a2.7 2.7 0 0 1-2.065 2.625 2.662 2.662 0 0 1-.631.076 2.693 2.693 0 0 1-2.641-2.125 2.541 2.541 0 0 1-.066-.576 2.573 2.573 0 0 1 .093-.685 2.7 2.7 0 0 1 5.305.685z" transform="translate(-29.714 -5.451)"/><ellipse class="cls-4" cx="2.698" cy="2.698" rx="2.698" ry="2.698" transform="translate(61.431 7.268)"/><path class="cls-4" d="M38.785 65.277a2.625 2.625 0 0 1-.185.973 2.7 2.7 0 0 1-2.516 1.729 2.666 2.666 0 0 1-1.065-.217 2.993 2.993 0 0 1-.62-.375 2.7 2.7 0 0 1 .147-4.326 2.436 2.436 0 0 1 .386-.217 2.634 2.634 0 0 1 1.152-.261 2.694 2.694 0 0 1 2.516 1.705 2.6 2.6 0 0 1 .185.989z" transform="translate(-15.738 -29.498)"/><ellipse class="cls-4" cx="2.698" cy="2.698" rx="2.698" ry="2.698" transform="translate(67.692 54.359)"/><ellipse class="cls-4" cx="2.698" cy="2.698" rx="2.698" ry="2.698" transform="translate(70.468 51.22)"/><ellipse class="cls-4" cx="2.698" cy="2.698" rx="2.698" ry="2.698" transform="translate(64.126 56.616)"/><path class="cls-4" d="M94.767 7.732a2.712 2.712 0 0 1-2.7 2.7 1.29 1.29 0 0 1-.207-.011 2.614 2.614 0 0 1-1.408-.532 2.687 2.687 0 0 1-1.082-2.158 2.474 2.474 0 0 1 .071-.608 2.643 2.643 0 0 1 1.011-1.544 2.605 2.605 0 0 1 1.408-.532 1.291 1.291 0 0 1 .207-.011 2.715 2.715 0 0 1 2.642 2.125 2.819 2.819 0 0 1 .058.571z" transform="translate(-42.125 -2.374)"/><ellipse class="cls-4" cx="2.698" cy="2.698" rx="2.698" ry="2.698" transform="translate(73.166 16.185)"/><path class="cls-4" d="M48.917 93.342a3.85 3.85 0 0 1-.207 1.258 3.708 3.708 0 0 1-.4.853 3.958 3.958 0 0 1-2.544 1.777 3.436 3.436 0 0 1-.75.081.315.315 0 0 1-.07.005 3.975 3.975 0 0 1-3.549-5.772 3.113 3.113 0 0 1 .283-.467 3.972 3.972 0 0 1 3.267-1.712q.171 0 .342.016a3.979 3.979 0 0 1 3.631 3.962z" transform="translate(-19.309 -42.122)"/><path class="cls-4" d="M63.095 105.094a3.966 3.966 0 0 1-2.7 3.761 3.562 3.562 0 0 1-.641.158 3.506 3.506 0 0 1-.636.054 3.957 3.957 0 0 1-3.837-2.962 2.81 2.81 0 0 1-.1-.527 3.569 3.569 0 0 1-.033-.484 3.968 3.968 0 0 1 1.158-2.8 2.613 2.613 0 0 1 .228-.207 3.9 3.9 0 0 1 2.587-.967 3.98 3.98 0 0 1 3.974 3.974z" transform="translate(-25.992 -47.662)"/><path class="cls-4" d="M45.072 38.887a3.976 3.976 0 0 1-3.972 3.978h-.038a3.956 3.956 0 0 1-2.755-1.152 3.774 3.774 0 0 1-.734-.989 3.964 3.964 0 0 1 1.984-5.495 3.839 3.839 0 0 1 1.544-.315 3.417 3.417 0 0 1 .527.038 3.944 3.944 0 0 1 3.4 3.364 3.257 3.257 0 0 1 .044.571z" transform="translate(-17.497 -16.457)"/><ellipse class="cls-4" cx="3.976" cy="3.976" rx="3.976" ry="3.976" transform="translate(56.176 4.081)"/><path class="cls-4" d="M77.386 10.2a3.92 3.92 0 0 1-.277 1.451 3.969 3.969 0 0 1-6.164 1.668 3.914 3.914 0 0 1-1.495-2.831 2.442 2.442 0 0 1-.016-.288 3.777 3.777 0 0 1 .141-1.027 3.96 3.96 0 0 1 5.544-2.555 3.972 3.972 0 0 1 2.267 3.582z" transform="translate(-32.728 -2.936)"/><path class="cls-4" d="M41.34 73.118a3.983 3.983 0 0 1-3.979 3.973 3.814 3.814 0 0 1-1.12-.163 3.53 3.53 0 0 1-.8-.331 3.966 3.966 0 0 1-1.044-6.12 3.017 3.017 0 0 1 .543-.511 3.943 3.943 0 0 1 3.66-.626 3.98 3.98 0 0 1 2.74 3.778z" transform="translate(-15.738 -32.589)"/><ellipse class="cls-4" cx="3.976" cy="3.976" rx="3.976" ry="3.976" transform="translate(66.898 12.034)"/><ellipse class="cls-4" cx="3.977" cy="3.976" rx="3.977" ry="3.976" transform="translate(72.736 20.704)"/><path class="cls-4" d="M62.339 19.217a3.98 3.98 0 0 1-3.978 3.983 3.748 3.748 0 0 1-.929-.114 3.977 3.977 0 0 1-2.951-2.995 3.791 3.791 0 0 1-.1-.87 1.36 1.36 0 0 1 .011-.212 3.966 3.966 0 0 1 3.968-3.761 3.639 3.639 0 0 1 .69.065 3.8 3.8 0 0 1 1.3.467 3.95 3.95 0 0 1 1.941 2.843 3.6 3.6 0 0 1 .048.594z" transform="translate(-25.633 -7.186)"/><path class="cls-4" d="M43.293 83.72a3.537 3.537 0 0 1-3.549 3.544H39.7a3.586 3.586 0 0 1-.549-.054 3.545 3.545 0 0 1-2.951-3.49 3.481 3.481 0 0 1 .571-1.924 3.424 3.424 0 0 1 .522-.631 3.5 3.5 0 0 1 2.457-.994 3.552 3.552 0 0 1 3.549 3.549z" transform="translate(-17.061 -37.789)"/><path class="cls-4" d="M48.814 32.555a3.537 3.537 0 0 1-1.625 2.978 3.494 3.494 0 0 1-1.924.57 3.544 3.544 0 0 1-3.549-3.549.751.751 0 0 1 .005-.109 3.537 3.537 0 0 1 2.7-3.332 3.277 3.277 0 0 1 .843-.1 3.381 3.381 0 0 1 .821.1 3.542 3.542 0 0 1 2.723 3.343.672.672 0 0 1 .006.099z" transform="translate(-19.663 -13.675)"/><ellipse class="cls-4" cx="3.547" cy="3.547" rx="3.547" ry="3.547" transform="translate(51.037 2.872)"/><path class="cls-4" d="M41.355 56.337a3.547 3.547 0 0 1-6.044 2.522 3.171 3.171 0 0 1-.354-.413 3.537 3.537 0 0 1 .375-4.642 3.262 3.262 0 0 1 .728-.549 3.515 3.515 0 0 1 1.745-.462 3.6 3.6 0 0 1 2.8 1.37 3.51 3.51 0 0 1 .75 2.174z" transform="translate(-16.15 -24.885)"/><ellipse class="cls-4" cx="3.547" cy="3.547" rx="3.547" ry="3.547" transform="translate(75.502 30.909)"/><ellipse class="cls-4" cx="3.547" cy="3.547" rx="3.547" ry="3.547" transform="translate(73.166 40.527)"/><path class="cls-4" d="M53.918 25.846a3.137 3.137 0 0 1-.049.56 3.529 3.529 0 0 1-2.652 2.881 3.348 3.348 0 0 1-.848.1 3.535 3.535 0 0 1-3.125-1.88 3.373 3.373 0 0 1-.413-1.56.682.682 0 0 1-.005-.1 3.545 3.545 0 0 1 3.543-3.547 3.256 3.256 0 0 1 .462.033 3.34 3.34 0 0 1 .979.277 3.527 3.527 0 0 1 2.108 3.236z" transform="translate(-22.071 -10.51)"/><ellipse class="cls-4" cx="3.547" cy="3.547" rx="3.547" ry="3.547" transform="translate(64.766 9.059)"/><path class="cls-4" d="M86.48 6.975a3.554 3.554 0 0 1-3.544 3.549 3.42 3.42 0 0 1-1.136-.19 3.535 3.535 0 0 1-2.4-3.071c-.006-.1-.011-.19-.011-.288a3.5 3.5 0 0 1 .422-1.675 3.552 3.552 0 0 1 6.6.984 3.6 3.6 0 0 1 .069.691z" transform="translate(-37.42 -1.618)"/><path class="cls-15" d="M97.2 160.741v.006H39.536v-.006a28.687 28.687 0 0 1 8.512-20.441c.2-.2.391-.386.593-.576a30.055 30.055 0 0 1 2.527-2.114c.272-.2.549-.4.826-.593.571-.391 1.158-.766 1.756-1.114.283-.169.571-.332.859-.49a.019.019 0 0 1 .016-.011c.234-.125.462-.261.69-.4a5.937 5.937 0 0 0 .505-.316 17.324 17.324 0 0 0 1.451-1.038v-.006A18.234 18.234 0 0 0 63.99 121.8a18.81 18.81 0 0 0 .158-2.424l4.223.022 4.3.022a18.926 18.926 0 0 0 .152 2.369 18.182 18.182 0 0 0 6.677 11.862c.2.152.391.3.593.451a.017.017 0 0 1 .011.006c.152.119.31.228.468.331a.822.822 0 0 0 .141.1c.043.033.081.06.125.087l.049.033c.179.119.364.234.549.348.223.136.451.272.679.4a.287.287 0 0 1 .1.049c.255.142.511.288.761.44.331.19.658.391.979.6.57.37 1.12.75 1.663 1.163h.011A28.859 28.859 0 0 1 97.2 160.741z" transform="translate(-18.636 -56.267)"/><path d="M97.2 173.454H39.536a28.687 28.687 0 0 1 8.512-20.442c.2-.2.391-.386.593-.576a30.04 30.04 0 0 1 2.527-2.114c.272-.2.549-.4.826-.593.571-.391 1.152-.766 1.75-1.12.283-.168.571-.331.859-.489a.019.019 0 0 1 .022-.006v-.005c.462-.255.918-.533 1.359-.826.207-.136.408-.277.608-.429.022-.011.038-.028.06-.038q.22-.163.44-.342l.163-.131h.005l.011.011c.348.359.717.7 1.1 1.022 0 .006 0 .006.005.006a15.51 15.51 0 0 0 9.974 3.652h.044a15.529 15.529 0 0 0 11.1-4.669l.006-.005.005-.006c.2.168.408.326.62.484.141.109.288.212.44.316.043.033.092.065.141.1s.081.06.125.087l.049.033c.179.119.364.234.549.348.223.136.451.266.679.391a.609.609 0 0 1 .1.049c.255.142.517.288.766.44.332.2.658.4.973.6.57.364 1.12.75 1.663 1.157h.011A28.928 28.928 0 0 1 97.2 173.454z" transform="translate(-18.636 -68.98)" fill="#185a7d"/><g transform="translate(35.108 77.363)"><path d="M95.642 148.6l-.005.006-.593.6a19.508 19.508 0 0 1-14.007 5.894h-.011a19.517 19.517 0 0 1-14.045-5.9l-.565-.582-.005-.006c.283-.168.571-.331.859-.489a.019.019 0 0 1 .022-.006v-.005c.234-.131.462-.261.69-.4.168-.1.337-.207.505-.316l.163-.114c.207-.136.413-.277.608-.429.022-.011.038-.028.06-.038.146-.114.3-.228.44-.342l.163-.131.011.011h.005v.006a13.975 13.975 0 0 0 1.1 1.016c0 .006 0 .006.005.006a15.51 15.51 0 0 0 9.974 3.652h.044a15.53 15.53 0 0 0 11.1-4.669l.006-.005.005-.006c.19.158.381.31.582.462a.017.017 0 0 1 .011.006.128.128 0 0 0 .028.016c.141.109.288.212.44.316.043.033.092.065.141.1s.081.06.125.087l.049.033c.179.119.364.234.549.348.223.136.451.266.679.391a.605.605 0 0 1 .1.049c.257.139.517.284.767.439z" transform="translate(-66.411 -146.342)" fill="#7aa5ba"/></g><path class="cls-15" d="M96.473 56.412v12.957a26.211 26.211 0 0 1-.25 3.6 28.548 28.548 0 0 1-2.478 8.294c-.353.755-.734 1.5-1.141 2.212-.093.163-.185.326-.278.484a32.844 32.844 0 0 1-2.726 3.917c-.25.316-.511.625-.777.924a27.312 27.312 0 0 1-9.137 7.027 13.435 13.435 0 0 1-5.34 1.273 13.336 13.336 0 0 1-5.289-1.256 27.359 27.359 0 0 1-9.2-7.049c-.288-.332-.571-.669-.848-1.017a32.554 32.554 0 0 1-3.408-5.18q-.359-.685-.685-1.386c-.131-.277-.255-.56-.375-.843-.19-.429-.364-.87-.533-1.31a28.767 28.767 0 0 1-1.25-4.332c-.119-.582-.223-1.169-.3-1.767a26.214 26.214 0 0 1-.25-3.6V56.411h44.265z" transform="translate(-24.612 -26.59)"/><path class="cls-4" d="M51.189 72.728a2.94 2.94 0 0 0 2.94-2.94V55.67h-2.94z" transform="translate(-24.128 -26.241)"/><path class="cls-4" d="M131.4 55.67h2.94v17.059a2.94 2.94 0 0 1-2.94-2.94z" transform="translate(-61.936 -26.241)"/><ellipse class="cls-4" cx="3.547" cy="3.547" rx="3.547" ry="3.547" transform="translate(40.68 26.79)"/><ellipse class="cls-4" cx="3.547" cy="3.547" rx="3.547" ry="3.547" transform="translate(32.478 25.987)"/><ellipse class="cls-4" cx="3.547" cy="3.547" rx="3.547" ry="3.547" transform="translate(24.057 27.362)"/><ellipse class="cls-4" cx="3.547" cy="3.547" rx="3.547" ry="3.547" transform="translate(51.037 26.406)"/><ellipse class="cls-4" cx="3.547" cy="3.547" rx="3.547" ry="3.547" transform="translate(61.762 26.406)"/><ellipse class="cls-4" cx="3.547" cy="3.547" rx="3.547" ry="3.547" transform="translate(69.122 29.767)"/><ellipse class="cls-4" cx="2.698" cy="2.698" rx="2.698" ry="2.698" transform="translate(47.034 27.906)"/><ellipse class="cls-4" cx="2.698" cy="2.698" rx="2.698" ry="2.698" transform="translate(28.751 27.639)"/><ellipse class="cls-4" cx="2.698" cy="2.698" rx="2.698" ry="2.698" transform="translate(37.981 27.639)"/><ellipse class="cls-4" cx="2.698" cy="2.698" rx="2.698" ry="2.698" transform="translate(57.454 28.487)"/><ellipse class="cls-4" cx="2.698" cy="2.698" rx="2.698" ry="2.698" transform="translate(66.158 28.487)"/></g><g class="cls-18"><ellipse class="cls-4" cx="3.976" cy="3.976" rx="3.976" ry="3.976" transform="translate(72.273 45.142)"/></g><g class="cls-18"><ellipse class="cls-4" cx="2.698" cy="2.698" rx="2.698" ry="2.698" transform="translate(77.527 26.78)"/></g><g class="cls-18"><ellipse class="cls-4" cx="2.698" cy="2.698" rx="2.698" ry="2.698" transform="translate(76.895 36.939)"/></g></g><path class="cls-4" d="M98.272 62.879a.147.147 0 0 0-.167-.167 66.049 66.049 0 0 0-8.455-.612c-4.506 0-10.29 1.391-11.292 1.391h-.89c-.445 0-2-.278-3.894-.612a45.649 45.649 0 0 0-7.4-.779 70.19 70.19 0 0 0-7.231.445 10.839 10.839 0 0 0-1.224.167.178.178 0 0 0-.167.167l-.052 2.392c0 .111.056.167.111.167l.278.111c.389.167.389 7.453 2.559 9.233 1.279 1.057 2.447 1.669 7.287 1.669a6.877 6.877 0 0 0 6.23-3c1.223-1.617 2.28-5.451 2.28-5.451a1.984 1.984 0 0 1 1.669-1.724c.056 0 1.391 0 1.724 1.724 0 0 1.057 3.838 2.281 5.451a6.76 6.76 0 0 0 6.23 3c4.839 0 6.007-.612 7.287-1.669 2.169-1.836 2.114-9.067 2.559-9.233l.278-.111c.056-.056.111-.111.111-.167zM73.909 71.5c-.723 1.669-2.559 3.838-5.117 4-7.732.389-8.121-1.78-8.622-3.5a12.511 12.511 0 0 1-.445-4.951c.222-1.724.612-2.726 1.391-3.226a3.29 3.29 0 0 1 1.613-.556 35.542 35.542 0 0 1 4.283-.167 22.211 22.211 0 0 1 3.449.278c2.781.445 4.617 1.391 4.617 2.281a15.461 15.461 0 0 1-1.169 5.841zm21.693.445c-.5 1.724-.834 3.894-8.622 3.5-2.559-.111-4.394-2.281-5.117-4a17.256 17.256 0 0 1-1.224-5.84c0-1.279 3.5-2.559 8.065-2.559s5.284.334 5.9.779c.779.5 1.224 1.5 1.391 3.226a11.284 11.284 0 0 1-.395 4.894z" transform="translate(-28.196 -25.425)"/></g><g transform="translate(500.522 2587.396)"><ellipse cx="17.943" cy="17.943" rx="17.943" ry="17.943" fill="#f9f9fb"/><g transform="translate(4.455 4.243)"><g data-name="Groupe 6722"><path class="cls-20" d="M13.56 27.1a13.548 13.548 0 1 1 13.56-13.56A13.563 13.563 0 0 1 13.56 27.1zm0-24.631A11.095 11.095 0 1 0 24.655 13.56 11.112 11.112 0 0 0 13.56 2.466z"/><path class="cls-21" d="M33.742 49.311c-.37-.049-.69-.419-.962-.962-.37-.764-.789-1.233-1.233-1.257-.444.025-.863.468-1.233 1.257-.69 1.43-1.923 1.43-2.613 0-.69-1.381-1.849-1.381-2.539 0a5.069 5.069 0 0 1-.641 1.011 4.509 4.509 0 0 1-.394.321c-.641.394-1.208-.592-1.553-1.331-.69-1.381-1.849-1.381-2.54 0-.69 1.43-2.071 1.849-2.835.271a5.647 5.647 0 0 0-.173-.69 2.809 2.809 0 0 0-.247-.468c-.616-.912-1.479.049-1.9.888-.3.641-.74 1.06-1.159 1.011a.389.389 0 0 1-.123-.148.356.356 0 0 1-.049-.173c0-.049-.025-.1-.025-.148a1.516 1.516 0 0 1-.025-.345c.025-.222.025-.2.049-.345a1.872 1.872 0 0 1 .1-.271c.049-.074.2-.321.247-.419a5.17 5.17 0 0 0 .37-.74c.666-1.356 2.244-2.49 3.057-.814.1.2.2.419.3.616.3.567.814 1.5 1.307.986a1.862 1.862 0 0 0 .271-.345c.2-.345.37-.74.542-1.11a1.72 1.72 0 0 1 1.751-1.011 1.206 1.206 0 0 1 1.06.74c.37.764.937 1.751 1.578 1.331a.853.853 0 0 0 .271-.247c.1-.123.2-.247.3-.394a4.215 4.215 0 0 0 .321-.567c.666-1.356 1.874-1.578 2.564-.148.419.888 1.282 2.145 2 1.233a6.152 6.152 0 0 0 .616-1.134c.394-.789.912-1.208 1.356-1.208.025 0 .1 0 .123.025a3.191 3.191 0 0 1 1.371 1.574c.173.345.542 1.183.715 1.578.1.3.148.271.148.567v.247c0 .074-.025.173-.025.247-.025.199-.074.347-.148.372z" transform="translate(-10.172 -33.679)"/></g></g></g><g transform="translate(934.522 2587.396)"><ellipse cx="17.943" cy="17.943" rx="17.943" ry="17.943" fill="#fff"/><g transform="translate(4.455 4.243)"><g data-name="Groupe 6722"><path class="cls-20" d="M13.56 27.1a13.548 13.548 0 1 1 13.56-13.56A13.563 13.563 0 0 1 13.56 27.1zm0-24.631A11.095 11.095 0 1 0 24.655 13.56 11.112 11.112 0 0 0 13.56 2.466z"/><path class="cls-21" d="M33.742 49.311c-.37-.049-.69-.419-.962-.962-.37-.764-.789-1.233-1.233-1.257-.444.025-.863.468-1.233 1.257-.69 1.43-1.923 1.43-2.613 0-.69-1.381-1.849-1.381-2.539 0a5.069 5.069 0 0 1-.641 1.011 4.509 4.509 0 0 1-.394.321c-.641.394-1.208-.592-1.553-1.331-.69-1.381-1.849-1.381-2.54 0-.69 1.43-2.071 1.849-2.835.271a5.647 5.647 0 0 0-.173-.69 2.809 2.809 0 0 0-.247-.468c-.616-.912-1.479.049-1.9.888-.3.641-.74 1.06-1.159 1.011a.389.389 0 0 1-.123-.148.356.356 0 0 1-.049-.173c0-.049-.025-.1-.025-.148a1.516 1.516 0 0 1-.025-.345c.025-.222.025-.2.049-.345a1.872 1.872 0 0 1 .1-.271c.049-.074.2-.321.247-.419a5.17 5.17 0 0 0 .37-.74c.666-1.356 2.244-2.49 3.057-.814.1.2.2.419.3.616.3.567.814 1.5 1.307.986a1.862 1.862 0 0 0 .271-.345c.2-.345.37-.74.542-1.11a1.72 1.72 0 0 1 1.751-1.011 1.206 1.206 0 0 1 1.06.74c.37.764.937 1.751 1.578 1.331a.853.853 0 0 0 .271-.247c.1-.123.2-.247.3-.394a4.215 4.215 0 0 0 .321-.567c.666-1.356 1.874-1.578 2.564-.148.419.888 1.282 2.145 2 1.233a6.152 6.152 0 0 0 .616-1.134c.394-.789.912-1.208 1.356-1.208.025 0 .1 0 .123.025a3.191 3.191 0 0 1 1.371 1.574c.173.345.542 1.183.715 1.578.1.3.148.271.148.567v.247c0 .074-.025.173-.025.247-.025.199-.074.347-.148.372z" transform="translate(-10.172 -33.679)"/></g></g></g><path d="M499.754 8.5a6.287 6.287 0 0 0-3.016-2.026v-.065a6.309 6.309 0 1 0-12.617 0V6.5a6.3 6.3 0 0 0 1.888 12.318A6.25 6.25 0 0 0 490.452 17a6.308 6.308 0 0 0 9.3-8.5zm-4.881 8.7a4.726 4.726 0 0 1-4.72-4.72.8.8 0 0 0-.806-.806.787.787 0 0 0-.806.806 6.17 6.17 0 0 0 .9 3.223 4.722 4.722 0 1 1-3.454-7.943 4.465 4.465 0 0 1 1.635.3h.023a2.047 2.047 0 0 1 .506.253.8.8 0 1 0 1.036-1.22 3.539 3.539 0 0 0-1.036-.553 6.312 6.312 0 0 0-2.164-.391h-.3a4.722 4.722 0 1 1 7.46 4.052.784.784 0 0 0-.184 1.105.807.807 0 0 0 .645.322.83.83 0 0 0 .46-.138 6.266 6.266 0 0 0 2.418-3.477 4.743 4.743 0 0 1-1.612 9.187z" transform="translate(305.956 2597.422)" fill="#f3712a"/></g></svg>