<svg xmlns="http://www.w3.org/2000/svg" viewBox="-1096.695 -5028.598 25.874 25.241"><path data-name="Tracé 10275" d="M-1072.556-5022.155a12.881 12.881 0 0 0-4.708-4.708 12.654 12.654 0 0 0-6.494-1.735 12.655 12.655 0 0 0-6.494 1.735 12.879 12.879 0 0 0-4.708 4.708 12.655 12.655 0 0 0-1.735 6.492 12.573 12.573 0 0 0 2.468 7.605 12.67 12.67 0 0 0 6.376 4.674.754.754 0 0 0 .674-.118.659.659 0 0 0 .219-.505l-.008-.91q-.008-.859-.008-1.5l-.387.067a4.943 4.943 0 0 1-.935.059 7.123 7.123 0 0 1-1.171-.118 2.616 2.616 0 0 1-1.129-.5 2.137 2.137 0 0 1-.741-1.036l-.168-.388a4.209 4.209 0 0 0-.531-.859 2.033 2.033 0 0 0-.733-.64l-.118-.084a1.237 1.237 0 0 1-.219-.2.924.924 0 0 1-.152-.236q-.051-.118.084-.194a1.092 1.092 0 0 1 .489-.075l.337.05a2.459 2.459 0 0 1 .834.4 2.719 2.719 0 0 1 .819.877 2.969 2.969 0 0 0 .935 1.053 1.983 1.983 0 0 0 1.1.362 4.79 4.79 0 0 0 .96-.084 3.35 3.35 0 0 0 .758-.253 2.729 2.729 0 0 1 .825-1.735 11.534 11.534 0 0 1-1.727-.3 6.875 6.875 0 0 1-1.583-.657 4.535 4.535 0 0 1-1.356-1.128 5.424 5.424 0 0 1-.884-1.769 8.411 8.411 0 0 1-.345-2.527 4.913 4.913 0 0 1 1.331-3.47 4.528 4.528 0 0 1 .118-3.436 2.36 2.36 0 0 1 1.449.227 10.129 10.129 0 0 1 1.407.649q.447.269.716.455a12.166 12.166 0 0 1 6.469 0l.64-.4a9.066 9.066 0 0 1 1.549-.741 2.208 2.208 0 0 1 1.365-.185 4.485 4.485 0 0 1 .134 3.436 4.914 4.914 0 0 1 1.331 3.47 8.505 8.505 0 0 1-.345 2.535 5.213 5.213 0 0 1-.892 1.769 4.709 4.709 0 0 1-1.365 1.12 6.888 6.888 0 0 1-1.584.657 11.523 11.523 0 0 1-1.727.3 3 3 0 0 1 .876 2.392v3.554a.671.671 0 0 0 .211.505.732.732 0 0 0 .665.118 12.669 12.669 0 0 0 6.376-4.674 12.575 12.575 0 0 0 2.467-7.612 12.665 12.665 0 0 0-1.735-6.492z" fill="#fff"/></svg>