<svg width="14" height="14" xmlns="http://www.w3.org/2000/svg">
  <g fill="none" fill-rule="evenodd">
    <path d="M-1-1h16v16H-1z"/>
    <path d="M13.061 3.574A7.06 7.06 0 0 0 10.514.962 6.719 6.719 0 0 0 7 0a6.72 6.72 0 0 0-3.514.962A7.059 7.059 0 0 0 .94 3.574 7.155 7.155 0 0 0 0 7.175c0 1.564.445 2.97 1.335 4.219.89 1.248 2.04 2.113 3.45 2.592.164.031.286.01.365-.065a.37.37 0 0 0 .118-.28l-.005-.505a85.532 85.532 0 0 1-.004-.831l-.21.037a2.61 2.61 0 0 1-.506.033 3.763 3.763 0 0 1-.633-.066 1.399 1.399 0 0 1-.61-.28 1.185 1.185 0 0 1-.402-.574l-.09-.215a2.346 2.346 0 0 0-.288-.477c-.13-.174-.263-.292-.396-.355l-.064-.047a.676.676 0 0 1-.119-.112.514.514 0 0 1-.082-.13c-.018-.044-.003-.08.046-.108.049-.028.137-.042.264-.042l.182.028c.122.025.272.1.452.224.179.125.326.287.442.486.14.255.308.45.505.584.198.134.397.2.597.2.2 0 .374-.015.52-.046.146-.031.282-.078.41-.14.055-.418.204-.738.447-.962a6.103 6.103 0 0 1-.935-.169 3.67 3.67 0 0 1-.856-.364 2.47 2.47 0 0 1-.734-.626c-.194-.25-.354-.576-.478-.981A4.774 4.774 0 0 1 2.534 6.8c0-.753.24-1.395.72-1.924-.225-.567-.204-1.202.064-1.906.176-.056.437-.014.783.126.347.14.6.26.761.36.162.1.29.183.388.252A6.324 6.324 0 0 1 7 3.466c.601 0 1.185.081 1.75.243l.346-.224c.237-.15.517-.287.839-.411.322-.125.568-.16.738-.103.274.704.298 1.339.073 1.906.48.53.72 1.17.72 1.924 0 .53-.062.998-.187 1.407-.124.408-.285.734-.483.98a2.563 2.563 0 0 1-.738.622c-.295.168-.58.29-.857.364a6.097 6.097 0 0 1-.934.169c.316.28.474.722.474 1.326v1.971c0 .112.038.206.114.28.076.075.196.097.36.066 1.41-.48 2.56-1.344 3.45-2.593C13.555 10.145 14 8.74 14 7.175a7.16 7.16 0 0 0-.939-3.601z" fill="#DDD" fill-rule="nonzero"/>
  </g>
</svg>

