<?xml version="1.0" encoding="utf-8"?>
<!-- Generator: Adobe Illustrator 23.0.0, SVG Export Plug-In . SVG Version: 6.00 Build 0)  -->
<svg version="1.1" id="Calque_1" xmlns="http://www.w3.org/2000/svg" xmlns:xlink="http://www.w3.org/1999/xlink" x="0px" y="0px"
	 viewBox="0 0 170.5 26.3" style="enable-background:new 0 0 170.5 26.3;" xml:space="preserve">
<style type="text/css">
	.st0{fill:#2C2255;}
	.st1{fill:#F7941E;}
	.st2{fill:url(#SVGID_1_);}
	.st3{fill:url(#SVGID_2_);}
	.st4{fill:url(#SVGID_3_);}
	.st5{fill:#FFFFFF;}
	.st6{fill:url(#SVGID_4_);}
	.st7{fill:url(#SVGID_5_);}
	.st8{fill:url(#SVGID_6_);}
	.st9{fill:url(#SVGID_7_);}
	.st10{fill:#865FC5;}
	.st11{fill:#007ACC;}
</style>
<path class="st0" d="M7.2,16.5h-4c0.6,1.9,1.6,3.5,3,4.9c2.2,2.2,5.2,3.5,8.3,3.4c0.6,0,1.2,0,1.9-0.1c2.4-0.4,4.7-1.5,6.4-3.3
	c1.4-1.4,2.4-3,3-4.9C25.7,16.5,7.2,16.5,7.2,16.5z M4.9,11.1H2.8c-0.1,0.5-0.1,0.9-0.1,1.4h23.4c0-0.5-0.1-0.9-0.1-1.4 M2.7,13.8
	c0,0.5,0.1,0.9,0.1,1.4H26c0.1-0.5,0.1-0.9,0.2-1.4 M25.7,9.8c-0.6-1.9-1.6-3.6-3-4.9c-1.7-1.8-4-2.9-6.4-3.3
	c-0.6-0.1-1.2-0.1-1.9-0.1c-3.1-0.1-6.1,1.2-8.3,3.4c-1.4,1.4-2.4,3.1-3,4.9"/>
<path class="st1" d="M2,13.2C2.1,7,6.6,1.8,12.7,0.9h-0.5C5.5,0.9-0.1,6.3-0.1,13.1S5.3,25.4,12,25.4c0.1,0,0.1,0,0.2,0h0.5
	C6.6,24.5,2,19.3,2,13.2z"/>
<linearGradient id="SVGID_1_" gradientUnits="userSpaceOnUse" x1="-178.5318" y1="636.8593" x2="-178.5318" y2="649.3203" gradientTransform="matrix(15.959 0 0 -1.416 2863.6111 217.4881)">
	<stop  offset="0.3" style="stop-color:#473788"/>
	<stop  offset="0.87" style="stop-color:#2C2255"/>
</linearGradient>
<path class="st2" d="M22.4,12.5c0-0.5-0.1-1-0.2-1.4H6.7c-0.1,0.5-0.2,0.9-0.2,1.4H22.4z"/>
<linearGradient id="SVGID_2_" gradientUnits="userSpaceOnUse" x1="-178.5318" y1="638.7803" x2="-178.5318" y2="651.2402" gradientTransform="matrix(15.959 0 0 -1.416 2863.6111 220.2051)">
	<stop  offset="0.3" style="stop-color:#473788"/>
	<stop  offset="0.87" style="stop-color:#2C2255"/>
</linearGradient>
<path class="st3" d="M22.4,13.8h-16c0,0.5,0.1,1,0.2,1.4h15.5C22.3,14.8,22.4,14.3,22.4,13.8z"/>
<linearGradient id="SVGID_3_" gradientUnits="userSpaceOnUse" x1="-177.3258" y1="496.7565" x2="-177.3258" y2="500.5446" gradientTransform="matrix(14.498 0 0 -4.658 2585.2869 1629.5679)">
	<stop  offset="0.3" style="stop-color:#473788"/>
	<stop  offset="0.86" style="stop-color:#2C2255"/>
</linearGradient>
<path class="st4" d="M14.4,21.2c3.1,0,5.9-1.8,7.2-4.7H7.2C8.5,19.3,11.3,21.2,14.4,21.2z"/>
<path class="st5" d="M5.3,13.8h20.9v-1.3H2.7v1.3H5.3z M7.1,9.8h-4c-0.1,0.4-0.2,0.9-0.3,1.3h23.1c-0.1-0.4-0.2-0.9-0.3-1.3
	 M24.4,15.2H2.8c0.1,0.4,0.2,0.9,0.3,1.3h22.5c0.1-0.4,0.2-0.9,0.3-1.3H24.4z"/>
<g>
	
		<linearGradient id="SVGID_4_" gradientUnits="userSpaceOnUse" x1="-175.2318" y1="395.6365" x2="-174.2318" y2="395.6365" gradientTransform="matrix(12.113 0 0 -10.807 2169.4619 4290.5869)">
		<stop  offset="0.26" style="stop-color:#F97A12"/>
		<stop  offset="0.46" style="stop-color:#B07B58"/>
		<stop  offset="0.72" style="stop-color:#577BAE"/>
		<stop  offset="0.91" style="stop-color:#1E7CE5"/>
		<stop  offset="1" style="stop-color:#087CFA"/>
	</linearGradient>
	<path class="st6" d="M53.2,20.3l-6.3-5L50,9.5l9,3.5L53.2,20.3z"/>
	
		<linearGradient id="SVGID_5_" gradientUnits="userSpaceOnUse" x1="-179.4619" y1="417.3121" x2="-178.2529" y2="417.7431" gradientTransform="matrix(16.546 0 0 -25.676 3025.4089 10732.9629)">
		<stop  offset="0" style="stop-color:#F97A12"/>
		<stop  offset="7.000000e-02" style="stop-color:#CB7A3E"/>
		<stop  offset="0.15" style="stop-color:#9E7B6A"/>
		<stop  offset="0.24" style="stop-color:#757B91"/>
		<stop  offset="0.33" style="stop-color:#537BB1"/>
		<stop  offset="0.43" style="stop-color:#387CCC"/>
		<stop  offset="0.54" style="stop-color:#237CE0"/>
		<stop  offset="0.66" style="stop-color:#147CEF"/>
		<stop  offset="0.79" style="stop-color:#0B7CF7"/>
		<stop  offset="1" style="stop-color:#087CFA"/>
	</linearGradient>
	<path class="st7" d="M72.7,7l-0.5,15.1l-10,4l-6-3.9L65,13l-3.9-8.5l3.5-4.2L72.7,7z"/>
	
		<linearGradient id="SVGID_6_" gradientUnits="userSpaceOnUse" x1="-174.1182" y1="407.7607" x2="-174.5982" y2="406.7177" gradientTransform="matrix(11.59 0 0 -15.95 2083.77 6512.9512)">
		<stop  offset="0" style="stop-color:#FE315D"/>
		<stop  offset="8.000000e-02" style="stop-color:#CB417E"/>
		<stop  offset="0.16" style="stop-color:#9E4E9B"/>
		<stop  offset="0.25" style="stop-color:#755BB4"/>
		<stop  offset="0.34" style="stop-color:#5365CA"/>
		<stop  offset="0.44" style="stop-color:#386DDB"/>
		<stop  offset="0.54" style="stop-color:#2374E9"/>
		<stop  offset="0.66" style="stop-color:#1478F3"/>
		<stop  offset="0.79" style="stop-color:#0B7BF8"/>
		<stop  offset="1" style="stop-color:#087CFA"/>
	</linearGradient>
	<path class="st8" d="M72.7,7l-7.9,9.4L61.1,4.6l3.5-4.2L72.7,7z"/>
	
		<linearGradient id="SVGID_7_" gradientUnits="userSpaceOnUse" x1="-181.3264" y1="417.0558" x2="-180.4914" y2="418.1408" gradientTransform="matrix(20.013 0 0 -25.452 3678.0662 10635.3623)">
		<stop  offset="0" style="stop-color:#FE315D"/>
		<stop  offset="4.000000e-02" style="stop-color:#F63462"/>
		<stop  offset="0.1" style="stop-color:#DF3A71"/>
		<stop  offset="0.17" style="stop-color:#C24383"/>
		<stop  offset="0.29" style="stop-color:#AD4A91"/>
		<stop  offset="0.55" style="stop-color:#755BB4"/>
		<stop  offset="0.92" style="stop-color:#1D76ED"/>
		<stop  offset="1" style="stop-color:#087CFA"/>
	</linearGradient>
	<path class="st9" d="M59.1,21.7l-10.5,3.8l1.7-5.9l2.2-7.2l-6-2L50.3,0l8.2,1l8,9.2L59.1,21.7z"/>
	<path d="M51.7,5h16.1v16.1H51.7L51.7,5z"/>
	<path class="st5" d="M53.2,18.1h6v1h-6V18.1z M57.5,8.3V7.1h-3.4v1.2h1v4.2h-1v1.2h3.4v-1.2h-0.9V8.3L57.5,8.3z M60.7,13.9
		c-0.5,0-0.9-0.1-1.3-0.3c-0.3-0.2-0.6-0.4-0.9-0.7l0.9-1c0.2,0.2,0.3,0.4,0.6,0.5c0.2,0.1,0.4,0.2,0.6,0.2c0.2,0,0.5-0.1,0.7-0.3
		c0.2-0.3,0.3-0.6,0.2-0.9V7.1h1.5v4.4c0,0.4,0,0.7-0.1,1c-0.1,0.3-0.3,0.5-0.5,0.7c-0.2,0.2-0.5,0.4-0.7,0.4
		C61.4,13.8,61.1,13.9,60.7,13.9"/>
</g>
<g>
	<path class="st10" d="M111.9,0v22.5l-19.7-2.9l19.7,6.6l6.5-2.7V2.8L111.9,0z"/>
	<path class="st10" d="M99,12.7l6.1,6l3.6-1.5V5.4l-3.6-1.5l-6.1,6l-3.6-2.8l-1.5,0.6v7.3l1.5,0.5L99,12.7z M105.1,8.1v6.2l-4.1-3.1
		L105.1,8.1z M95.4,9l2.2,2.2l-2.2,2.1V9z"/>
</g>
<g>
	<path class="st11" d="M158.5,0v22.5l-19.7-2.9l19.7,6.6l6.5-2.7V2.8L158.5,0z"/>
	<path class="st11" d="M151.7,3.9l-6.1,6L142,7.1l-1.5,0.5l3.7,3.6l-3.7,3.6l1.5,0.5l3.6-2.7l6.1,6l3.6-1.5V5.4L151.7,3.9z
		 M151.7,8.1v6.2l-4.1-3.1L151.7,8.1z"/>
</g>
</svg>
