<svg xmlns="http://www.w3.org/2000/svg" xmlns:xlink="http://www.w3.org/1999/xlink" viewBox="0 0 211.486 26.272">
  <defs>
    <style>
      .cls-2{fill:#fff}.cls-12{fill:#865fc5}.cls-13{fill:#007acc}
    </style>
    <linearGradient id="linear-gradient" x1=".5" x2=".5" y1="-491.105" y2="-503.566" gradientUnits="objectBoundingBox">
      <stop offset=".3" stop-color="#473788"/>
      <stop offset=".87" stop-color="#2c2255"/>
    </linearGradient>
    <linearGradient id="linear-gradient-2" x1=".5" x2=".5" y1="-493.026" y2="-505.486" xlink:href="#linear-gradient"/>
    <linearGradient id="linear-gradient-3" x1=".5" x2=".5" y1="-150.458" y2="-154.246" gradientUnits="objectBoundingBox">
      <stop offset=".3" stop-color="#473788"/>
      <stop offset=".86" stop-color="#2c2255"/>
    </linearGradient>
    <linearGradient id="linear-gradient-4" x2="1" y1=".321" y2=".321" gradientUnits="objectBoundingBox">
      <stop offset=".26" stop-color="#f97a12"/>
      <stop offset=".46" stop-color="#b07b58"/>
      <stop offset=".72" stop-color="#577bae"/>
      <stop offset=".91" stop-color="#1e7ce5"/>
      <stop offset="1" stop-color="#087cfa"/>
    </linearGradient>
    <linearGradient id="linear-gradient-5" x1=".003" x2="1.212" y1=".711" y2=".28" gradientUnits="objectBoundingBox">
      <stop offset="0" stop-color="#f97a12"/>
      <stop offset=".07" stop-color="#cb7a3e"/>
      <stop offset=".15" stop-color="#9e7b6a"/>
      <stop offset=".24" stop-color="#757b91"/>
      <stop offset=".33" stop-color="#537bb1"/>
      <stop offset=".43" stop-color="#387ccc"/>
      <stop offset=".54" stop-color="#237ce0"/>
      <stop offset=".66" stop-color="#147cef"/>
      <stop offset=".79" stop-color="#0b7cf7"/>
      <stop offset="1" stop-color="#087cfa"/>
    </linearGradient>
    <linearGradient id="linear-gradient-6" x1=".782" x2=".302" y1=".724" y2="1.767" gradientUnits="objectBoundingBox">
      <stop offset="0" stop-color="#fe315d"/>
      <stop offset=".08" stop-color="#cb417e"/>
      <stop offset=".16" stop-color="#9e4e9b"/>
      <stop offset=".25" stop-color="#755bb4"/>
      <stop offset=".34" stop-color="#5365ca"/>
      <stop offset=".44" stop-color="#386ddb"/>
      <stop offset=".54" stop-color="#2374e9"/>
      <stop offset=".66" stop-color="#1478f3"/>
      <stop offset=".79" stop-color="#0b7bf8"/>
      <stop offset="1" stop-color="#087cfa"/>
    </linearGradient>
    <linearGradient id="linear-gradient-7" x1=".199" x2="1.034" y1=".857" y2="-.228" gradientUnits="objectBoundingBox">
      <stop offset="0" stop-color="#fe315d"/>
      <stop offset=".04" stop-color="#f63462"/>
      <stop offset=".1" stop-color="#df3a71"/>
      <stop offset=".17" stop-color="#c24383"/>
      <stop offset=".29" stop-color="#ad4a91"/>
      <stop offset=".55" stop-color="#755bb4"/>
      <stop offset=".92" stop-color="#1d76ed"/>
      <stop offset="1" stop-color="#087cfa"/>
    </linearGradient>
  </defs>
  <g transform="translate(185.4)">
    <ellipse cx="13.043" cy="13.043" fill="#6abd88" rx="13.043" ry="13.043"/>
    <path d="M9.205 20.366a1.621 1.621 0 0 1-.932-.252c-1.779-1.155-.429-5.59 1.863-9.149 2.236-3.335 4.891-5.627 6.633-5.7a1.649 1.649 0 0 1 .978.252c.773.5 1.006 1.64.689 3.289a.335.335 0 0 1-.652-.13c.261-1.323.112-2.273-.391-2.6a1 1 0 0 0-.587-.14c-1.528.056-4.081 2.329-6.074 5.4a17.59 17.59 0 0 0-2.4 5.338c-.335 1.472-.214 2.525.335 2.879s1.463.075 2.581-.727a.335.335 0 1 1 .382.54 4.453 4.453 0 0 1-2.422 1z" class="cls-2"/>
    <path d="M19.434 15.419a.335.335 0 0 1-.121-.643c1.09-.419 1.733-.978 1.761-1.537s-.745-1.37-2.133-1.966a17.58 17.58 0 0 0-5.748-1.174h-1.259c-4.253 0-6.853 1.192-6.922 2.329 0 .559.531 1.165 1.584 1.7a.335.335 0 0 1-.307.587c-1.314-.68-1.984-1.481-1.938-2.329.093-1.733 3.2-2.944 7.584-2.963h1.295a18.251 18.251 0 0 1 5.981 1.23c1.686.717 2.59 1.64 2.534 2.609s-.8 1.584-2.18 2.124z" class="cls-2"/>
    <path d="M16.285 20.741a4.369 4.369 0 0 1-2.7-1.425 18.242 18.242 0 0 1-3.559-4.966A18.232 18.232 0 0 1 8.11 8.552c-.224-1.863.13-3.065 1-3.5a1.528 1.528 0 0 1 .587-.158 3.727 3.727 0 0 1 2.413 1.078.335.335 0 1 1-.429.512 3.149 3.149 0 0 0-1.966-.932.857.857 0 0 0-.333.089c-.587.3-.82 1.332-.634 2.795a17.562 17.562 0 0 0 1.863 5.59 17.571 17.571 0 0 0 3.419 4.779c1.109 1.034 2.078 1.453 2.665 1.155s.8-1.248.652-2.655a16.77 16.77 0 0 0-1.649-5.282.335.335 0 1 1 .6-.289 17.422 17.422 0 0 1 1.7 5.506c.177 1.714-.186 2.9-1.016 3.317a1.547 1.547 0 0 1-.7.177z" class="cls-2"/>
    <path d="M14.096 12.931a1 1 0 1 1-1-1 1 1 0 0 1 1 1z" class="cls-2"/>
  </g>
  <path fill="#2c2255" d="M7.169 16.546H3.154a11.366 11.366 0 0 0 2.963 4.9 11.32 11.32 0 0 0 8.3 3.447 12.6 12.6 0 0 0 1.863-.14 11.18 11.18 0 0 0 6.4-3.307 11.357 11.357 0 0 0 2.981-4.9H7.169zm-2.221-5.45H2.837a12.251 12.251 0 0 0-.149 1.416h23.44a12.111 12.111 0 0 0-.149-1.416M2.707 13.817a12.186 12.186 0 0 0 .13 1.416H25.97a12.186 12.186 0 0 0 .158-1.416m-.457-4.034a11.45 11.45 0 0 0-2.981-4.919 11.18 11.18 0 0 0-6.381-3.289 12.643 12.643 0 0 0-1.861-.14 11.357 11.357 0 0 0-8.332 3.428 11.459 11.459 0 0 0-2.963 4.919"/>
  <path fill="#f7941e" d="M2.008 13.162A12.466 12.466 0 0 1 12.703.932h-.458a12.247 12.247 0 1 0 0 24.493h.457A12.466 12.466 0 0 1 2.008 13.162z"/>
  <path fill="url(#linear-gradient)" d="M23.829 14.2a7.984 7.984 0 0 0-.242-1.416H8.112A7.975 7.975 0 0 0 7.87 14.2z" transform="translate(-1.428 -1.684)"/>
  <path fill="url(#linear-gradient-2)" d="M23.829 15.7H7.87a7.956 7.956 0 0 0 .242 1.416h15.456a7.984 7.984 0 0 0 .261-1.416z" transform="translate(-1.428 -1.883)"/>
  <path fill="url(#linear-gradient-3)" d="M15.9 23.248a8 8 0 0 0 7.248-4.658H8.65a8 8 0 0 0 7.25 4.658z" transform="translate(-1.481 -2.081)"/>
  <path d="M5.259 13.813h20.869v-1.31H2.706v1.31zm1.854-4.03h-3.96a11.46 11.46 0 0 0-.317 1.314h23.059a11.646 11.646 0 0 0-.317-1.314m-1.183 5.45H2.836a11.5 11.5 0 0 0 .3 1.314h22.526a11.617 11.617 0 0 0 .307-1.314z" class="cls-2"/>
  <g>
    <path fill="url(#linear-gradient-4)" d="M7.618 22.047l-6.3-4.994L4.45 11.24l8.981 3.5z" transform="translate(45.561 -1.7)"/>
    <path fill="url(#linear-gradient-5)" d="M27.786 8L27.3 23.092l-10.023 4.024-6.037-3.875 8.832-9.167-3.872-8.46 3.462-4.174z" transform="translate(44.883 -1.03)"/>
    <path fill="url(#linear-gradient-6)" d="M28.15 8l-7.938 9.39L16.56 5.614l3.466-4.174z" transform="translate(44.52 -1.03)"/>
    <path fill="url(#linear-gradient-7)" d="M13.559 22.652l-10.472 3.8 1.677-5.888 2.2-7.23L1 11.323 4.764 1l8.2 1.006 8.049 9.2z" transform="translate(45.583 -1)"/>
    <path d="M51.688 5.031h16.1v16.1h-16.1z"/>
    <path d="M53.179 18.111h6.037v1.007h-6.037zm4.36-9.763v-1.23h-3.354v1.23h.969v4.211h-.969v1.23h3.354v-1.23h-.932V8.348zm3.2 5.553a2.7 2.7 0 0 1-1.3-.3 3.224 3.224 0 0 1-.857-.708l.932-1.043a2.161 2.161 0 0 0 .559.484 1.258 1.258 0 0 0 .634.186.932.932 0 0 0 .671-.261 1.314 1.314 0 0 0 .224-.857V7.118h1.491v4.36a2.935 2.935 0 0 1-.149 1.043 1.984 1.984 0 0 1-.484.745 1.668 1.668 0 0 1-.745.447 2.637 2.637 0 0 1-.932.186" class="cls-2"/>
  </g>
  <g>
    <path d="M111.892 0v22.546l-19.658-2.888 19.658 6.615 6.522-2.7V2.795L111.892 0z" class="cls-12"/>
    <path d="M99.032 12.671l6.056 5.962 3.633-1.491V5.404l-3.633-1.491-6.056 5.963-3.633-2.795-1.491.559v7.267l1.491.466zm6.056-4.566v6.242l-4.1-3.074zm-9.689.932l2.236 2.236-2.236 2.14V9.037z" class="cls-12"/>
  </g>
  <g>
    <path d="M158.475 0v22.546l-19.658-2.888 19.658 6.615 6.522-2.7V2.795L158.475 0z" class="cls-13"/>
    <path d="M151.674 3.913l-6.056 5.963-3.633-2.795-1.491.465 3.727 3.633-3.727 3.634 1.491.466 3.633-2.7 6.056 5.963 3.633-1.491V5.404zm0 4.192v6.242l-4.1-3.074z" class="cls-13"/>
  </g>
</svg>