<svg xmlns="http://www.w3.org/2000/svg" viewBox="0 0 33.164 32.812">
  <path fill="#fd6a00" stroke="#fd6a00" stroke-width="1.5" d="M11.236 32.046a.554.554 0 0 1-.188-.033A16.194 16.194 0 0 1 1.017 14.041 15.908 15.908 0 0 1 16.544.75a15.9 15.9 0 0 1 15.588 13.211 16.2 16.2 0 0 1-9.947 18.025.539.539 0 0 1-.695-.317l-3.739-9.668a.568.568 0 0 1 .011-.432.537.537 0 0 1 .314-.294 4.645 4.645 0 0 0 2.999-5.114 4.525 4.525 0 0 0-8.943-.128 4.651 4.651 0 0 0 2.854 5.2.539.539 0 0 1 .3.287.556.556 0 0 1 .012.422l-3.556 9.739a.543.543 0 0 1-.282.311.457.457 0 0 1-.222.056zM16.584 1.88A14.8 14.8 0 0 0 2.156 13.955a15.094 15.094 0 0 0 8.76 16.815l3.181-8.719a5.782 5.782 0 0 1-2.993-6.484 5.6 5.6 0 0 1 10.971.114 5.777 5.777 0 0 1-3.12 6.421l3.34 8.647a15.094 15.094 0 0 0 8.713-16.821A14.8 14.8 0 0 0 16.584 1.88z"/>
</svg>