<svg xmlns="http://www.w3.org/2000/svg" viewBox="0 0 27.86 31.6">
  <path fill="#fd6a00" d="M4.643 0A4.739 4.739 0 0 0 3.1 9.184v13.232A4.739 4.739 0 0 0 4.643 31.6a4.739 4.739 0 0 0 1.548-9.184V9.184A4.739 4.739 0 0 0 4.643 0zm10.835 0l-4.643 4.74 4.643 4.74V6.32h1.548a4.669 4.669 0 0 1 4.643 4.74v11.356a4.644 4.644 0 1 0 3.1 0V11.06a7.845 7.845 0 0 0-7.739-7.9h-1.552zM4.643 3.16a1.541 1.541 0 0 1 1.548 1.58 1.55 1.55 0 1 1-3.1 0 1.541 1.541 0 0 1 1.552-1.58zm0 22.12A1.58 1.58 0 1 1 3.1 26.86a1.541 1.541 0 0 1 1.543-1.58zm18.574 0a1.58 1.58 0 1 1-1.548 1.58 1.541 1.541 0 0 1 1.548-1.58z"/>
</svg>