<svg id="document" xmlns="http://www.w3.org/2000/svg" viewBox="0 0 34.625 32.632"><defs><style>.cls-1{fill:#fd6a00}</style></defs><g id="Groupe_7446" data-name="Groupe 7446" transform="translate(4.777)"><g id="Groupe_7445" data-name="Groupe 7445"><path id="Tracé_11906" data-name="Tracé 11906" class="cls-1" d="M74.735 19.652a3.977 3.977 0 0 0-3.951 3.988l-.144 20.68 2.155.016.144-20.687a1.8 1.8 0 0 1 1.8-1.8h21.655v-2.2z" transform="translate(-70.64 -19.652)"/></g></g><g id="Groupe_7448" data-name="Groupe 7448"><g id="Groupe_7447" data-name="Groupe 7447"><path id="Tracé_11907" data-name="Tracé 11907" class="cls-1" d="M30.531 19.652a4.143 4.143 0 0 0-4.095 4.18v23.209a2.982 2.982 0 1 1-5.962 0v-2.677a1.089 1.089 0 0 0-1.078-1.1H1.078A1.089 1.089 0 0 0 0 44.364v2.677a5.2 5.2 0 0 0 5.136 5.243v-2.2a3.016 3.016 0 0 1-2.981-3.043v-1.577h16.163v1.577a5.137 5.137 0 1 0 10.273 0v-17.2h4.957a1.089 1.089 0 0 0 1.078-1.1v-4.909a4.143 4.143 0 0 0-4.095-4.18zm1.94 7.993h-3.88v-3.813a1.94 1.94 0 1 1 3.879 0v3.813z" transform="translate(0 -19.652)"/></g></g><g id="Groupe_7450" data-name="Groupe 7450" transform="translate(4.921 30.432)"><g id="Groupe_7449" data-name="Groupe 7449"><path id="Rectangle_11314" data-name="Rectangle 11314" class="cls-1" d="M0 0h18.282v2.2H0z"/></g></g><g id="Groupe_7452" data-name="Groupe 7452" transform="translate(9.375 6.123)"><g id="Groupe_7451" data-name="Groupe 7451"><path id="Tracé_11908" data-name="Tracé 11908" class="cls-1" d="M145.267 108.349H139.7a1.1 1.1 0 0 0 0 2.2h5.567a1.1 1.1 0 0 0 0-2.2z" transform="translate(-138.622 -108.349)"/></g></g><g id="Groupe_7454" data-name="Groupe 7454" transform="translate(9.375 10.523)"><g id="Groupe_7453" data-name="Groupe 7453"><path id="Tracé_11909" data-name="Tracé 11909" class="cls-1" d="M151.732 172.083H139.7a1.1 1.1 0 0 0 0 2.2h12.033a1.1 1.1 0 0 0 0-2.2z" transform="translate(-138.622 -172.083)"/></g></g><g id="Groupe_7456" data-name="Groupe 7456" transform="translate(9.375 14.923)"><g id="Groupe_7455" data-name="Groupe 7455"><path id="Tracé_11910" data-name="Tracé 11910" class="cls-1" d="M151.732 235.817H139.7a1.1 1.1 0 0 0 0 2.2h12.033a1.1 1.1 0 0 0 0-2.2z" transform="translate(-138.622 -235.817)"/></g></g><g id="Groupe_7458" data-name="Groupe 7458" transform="translate(9.375 19.323)"><g id="Groupe_7457" data-name="Groupe 7457"><path id="Tracé_11911" data-name="Tracé 11911" class="cls-1" d="M151.732 299.552H139.7a1.1 1.1 0 0 0 0 2.2h12.033a1.1 1.1 0 0 0 0-2.2z" transform="translate(-138.622 -299.552)"/></g></g></svg>