<svg xmlns="http://www.w3.org/2000/svg" viewBox="0 0 19.4 19.4">
  <path fill="#8a8c8f" d="M18.832 0H5.191a.568.568 0 0 0-.568.568v8.526H.568A.568.568 0 0 0 0 9.662v9.17a.568.568 0 0 0 .568.568h9.17a.568.568 0 0 0 .568-.568v-4.055h8.525a.568.568 0 0 0 .568-.568V.568A.568.568 0 0 0 18.832 0zM9.17 18.263H1.137V10.23h3.486v3.979a.568.568 0 0 0 .568.568H9.17zm0-4.623H5.759v-3.41H9.17zm9.094 0h-7.958V9.662a.568.568 0 0 0-.568-.568H5.759V1.137h12.5z"/>
  <path fill="#8a8c8f" d="M17.126 2.84a.568.568 0 0 0-.568-.567h-3.415a.5685.5685 0 0 0 0 1.137h2.038l-3.577 3.577a.568.568 0 1 0 .8.8l3.577-3.577v2.038a.5685.5685 0 0 0 1.137 0V2.84z"/>
</svg>