<svg xmlns="http://www.w3.org/2000/svg" viewBox="0 0 67.01 22">
  <path fill="#1b171b" d="M.532 14.067a5.726 5.726 0 0 0 2.506.7c.892 0 1.253-.3 1.253-.778s-.286-.701-1.391-1.084C.968 12.263.209 11.205.247 10.08c0-1.746 1.5-3.075 3.816-3.075a6.256 6.256 0 0 1 2.639.532l-.513 2.012a4.647 4.647 0 0 0-2.031-.532c-.7 0-1.12.285-1.12.759 0 .437.361.664 1.519 1.082 1.784.607 2.525 1.519 2.544 2.9-.001 1.747-1.387 3.047-4.064 3.047A6.746 6.746 0 0 1 0 16.155zm16.856-2.243a4.708 4.708 0 0 1-4.955 5.012 4.607 4.607 0 0 1-4.86-4.841 4.684 4.684 0 0 1 5.013-4.971 4.563 4.563 0 0 1 4.802 4.8zm-6.8.095c0 1.614.664 2.828 1.917 2.828 1.139 0 1.86-1.139 1.86-2.828 0-1.4-.532-2.828-1.86-2.828-1.4.002-1.913 1.445-1.913 2.833zm7.845-1.687c0-1.177-.038-2.164-.076-3h2.525l.133 1.291h.057a3.456 3.456 0 0 1 2.9-1.5c1.917 0 3.36 1.272 3.36 4.024v5.562h-2.923v-5.185c0-1.215-.418-2.031-1.481-2.031a1.557 1.557 0 0 0-1.481 1.1 1.983 1.983 0 0 0-.114.721v5.41h-2.9zm15.794 6.397l-.171-.949h-.057a3.41 3.41 0 0 1-2.7 1.158 2.886 2.886 0 0 1-3.037-2.885c0-2.43 2.183-3.607 5.505-3.588v-.133c0-.494-.266-1.215-1.708-1.215a5.3 5.3 0 0 0-2.582.7l-.532-1.879a7.782 7.782 0 0 1 3.645-.816c3.132 0 4.119 1.841 4.119 4.043v3.265a14.649 14.649 0 0 0 .133 2.278h-2.62zm-.342-4.442c-1.538-.019-2.734.342-2.734 1.481a1.056 1.056 0 0 0 1.158 1.12 1.592 1.592 0 0 0 1.519-1.082 2.069 2.069 0 0 0 .057-.494zm4.385-1.863c0-1.386-.038-2.278-.076-3.094H40.7l.095 1.727h.076a2.743 2.743 0 0 1 2.523-1.933 2.974 2.974 0 0 1 .607.038v2.753a4.136 4.136 0 0 0-.778-.076 1.86 1.86 0 0 0-1.993 1.481 3.4 3.4 0 0 0-.057.645v4.765H38.25v-6.306zM45.028 3h1.69v13.63h-1.69zm5.638 1.727a1.054 1.054 0 0 1-2.107 0 1.038 1.038 0 0 1 1.063-1.063 1.011 1.011 0 0 1 1.044 1.063zm-1.879 11.9v-9.3h1.689v9.283h-1.689zm3.72-6.774c0-.949-.019-1.746-.076-2.506h1.5l.095 1.538h.038a3.4 3.4 0 0 1 3.075-1.746c1.291 0 3.284.759 3.284 3.948v5.543h-1.692v-5.354c0-1.5-.551-2.753-2.145-2.753a2.373 2.373 0 0 0-2.255 1.728 2.4 2.4 0 0 0-.114.778v5.581h-1.69V9.853zm11.845-5.182v2.658h2.411V8.62h-2.411v5.011c0 1.158.323 1.8 1.272 1.8a3.887 3.887 0 0 0 .987-.114l.076 1.272a4.13 4.13 0 0 1-1.5.228 2.358 2.358 0 0 1-1.822-.7 3.458 3.458 0 0 1-.645-2.411V8.619h-1.443v-1.29h1.443V5.108z"/>
  <path fill="#cc202a" fill-rule="evenodd" d="M66.82 21.736a1.594 1.594 0 0 1-1.044-.59 1.844 1.844 0 0 0-1.348-.759 1.877 1.877 0 0 0-1.348.759 1.854 1.854 0 0 1-2.828 0 1.8 1.8 0 0 0-2.753 0 2.7 2.7 0 0 1-.7.607 3.029 3.029 0 0 1-.437.19c-.683.247-1.31-.361-1.69-.816a1.791 1.791 0 0 0-2.734 0 2.061 2.061 0 0 1-3.075.171 1.186 1.186 0 0 0-.19-.418 1.277 1.277 0 0 0-.266-.285c-.664-.57-1.614.019-2.05.551a1.618 1.618 0 0 1-1.253.626.174.174 0 0 1-.114-.076c-.019-.038-.057-.057-.076-.114a.171.171 0 0 1-.019-.095.778.778 0 0 1-.019-.209.462.462 0 0 1 .057-.209.448.448 0 0 1 .114-.171c.057-.038.209-.209.285-.247a2.2 2.2 0 0 0 .38-.456c.721-.816 2.43-1.519 3.3-.513.114.133.209.247.323.38.323.361.873.93 1.424.607a1.72 1.72 0 0 0 .3-.209c.209-.209.4-.456.589-.683a2.443 2.443 0 0 1 1.9-.626 1.475 1.475 0 0 1 1.139.456c.4.456 1.025 1.082 1.727.816a1.356 1.356 0 0 0 .285-.152c.114-.076.228-.152.323-.228l.342-.342a1.807 1.807 0 0 1 2.772-.076c.456.551 1.386 1.31 2.164.759a3.884 3.884 0 0 0 .664-.7 2 2 0 0 1 1.481-.74.323.323 0 0 1 .133.019 3.056 3.056 0 0 1 1.5.968c.19.209.569.721.778.968.114.19.152.171.152.361v.057a.282.282 0 0 1-.019.114c0 .038-.019.114-.019.152-.017.063-.055.153-.15.153z"/>
</svg>