<svg xmlns="http://www.w3.org/2000/svg" viewBox="0 0 84.346 22">
  <path fill="#070706" d="M.532 14.094a5.73 5.73 0 0 0 2.508.7c.893 0 1.254-.3 1.254-.779s-.285-.7-1.387-1.083C.969 12.289.209 11.227.247 10.105c0-1.748 1.501-3.078 3.818-3.078a6.261 6.261 0 0 1 2.641.532l-.513 2.014a4.65 4.65 0 0 0-2.033-.532c-.7 0-1.121.285-1.121.76 0 .437.361.665 1.52 1.083 1.786.608 2.527 1.52 2.546 2.907 0 1.748-1.387 3.04-4.065 3.04A6.751 6.751 0 0 1 0 16.184zm16.869-2.261a4.711 4.711 0 0 1-4.958 5.015 4.61 4.61 0 0 1-4.863-4.844 4.687 4.687 0 0 1 5.015-4.977 4.587 4.587 0 0 1 4.806 4.806zm-6.8.095c0 1.615.665 2.831 1.919 2.831 1.14 0 1.862-1.14 1.862-2.831 0-1.406-.532-2.831-1.862-2.831-1.407.02-1.919 1.463-1.919 2.83zm7.845-1.691c0-1.178-.038-2.166-.076-3h2.527l.133 1.29h.057a3.459 3.459 0 0 1 2.907-1.5c1.919 0 3.362 1.273 3.362 4.027v5.566H24.43v-5.186c0-1.216-.418-2.033-1.482-2.033a1.558 1.558 0 0 0-1.482 1.1 1.984 1.984 0 0 0-.114.722v5.414h-2.906zm15.805 6.402l-.171-.95h-.057a3.413 3.413 0 0 1-2.7 1.159 2.888 2.888 0 0 1-3.04-2.888c0-2.432 2.185-3.609 5.509-3.59v-.133c0-.494-.266-1.216-1.71-1.216a5.3 5.3 0 0 0-2.584.7l-.532-1.881a7.787 7.787 0 0 1 3.651-.813c3.134 0 4.122 1.843 4.122 4.046v3.267a14.661 14.661 0 0 0 .133 2.28H34.25zm-.342-4.445c-1.539-.019-2.736.342-2.736 1.482a1.057 1.057 0 0 0 1.159 1.121 1.594 1.594 0 0 0 1.52-1.083 2.07 2.07 0 0 0 .057-.494zm4.389-1.862c0-1.387-.038-2.28-.076-3.1h2.508l.095 1.729h.076a2.745 2.745 0 0 1 2.526-1.934 2.976 2.976 0 0 1 .608.038V9.82a4.139 4.139 0 0 0-.779-.076 1.861 1.861 0 0 0-1.994 1.483 3.406 3.406 0 0 0-.057.646v4.768h-2.926v-6.309zm13.374 5.966a6.261 6.261 0 0 1-2.66.532 4.418 4.418 0 0 1-4.635-4.749 4.721 4.721 0 0 1 5-4.939 5.617 5.617 0 0 1 2.337.475l-.38 1.311a3.96 3.96 0 0 0-1.957-.437 3.221 3.221 0 0 0-3.286 3.514 3.192 3.192 0 0 0 3.229 3.476 4.846 4.846 0 0 0 2.071-.456zM52.887 3h1.691v13.64h-1.691zm12.177 8.909a4.543 4.543 0 0 1-4.635 4.939c-2.508 0-4.445-1.843-4.445-4.787 0-3.115 2.033-4.939 4.616-4.939 2.659.019 4.464 1.957 4.464 4.787zm-7.371.095c0 2.033 1.178 3.571 2.831 3.571 1.615 0 2.83-1.52 2.83-3.609 0-1.577-.779-3.571-2.773-3.571s-2.888 1.842-2.888 3.609zm16.509 2.109c0 .95.019 1.8.076 2.527h-1.5l-.095-1.52h-.038a3.515 3.515 0 0 1-3.079 1.73c-1.463 0-3.211-.8-3.211-4.065V7.35h1.691v5.148c0 1.767.532 2.964 2.071 2.964a2.439 2.439 0 0 0 2.223-1.539 2.474 2.474 0 0 0 .152-.874V7.35h1.691v6.763zM84.27 3v11.246c0 .817.019 1.767.076 2.394h-1.52l-.076-1.615h-.038a3.421 3.421 0 0 1-3.173 1.824c-2.242 0-3.97-1.9-3.97-4.73-.019-3.1 1.9-5 4.16-5a3.114 3.114 0 0 1 2.812 1.425h.038V3zm-1.691 8.131a2.952 2.952 0 0 0-.076-.7 2.477 2.477 0 0 0-2.433-1.96c-1.748 0-2.792 1.539-2.792 3.59 0 1.881.931 3.438 2.754 3.438a2.516 2.516 0 0 0 2.47-2.014 2.9 2.9 0 0 0 .076-.722z"/>
</svg>