<svg xmlns="http://www.w3.org/2000/svg" viewBox="0 0 4654 2264"><linearGradient id="a" gradientUnits="userSpaceOnUse" x1="499.375" y1="1043.472" x2="1164.943" y2="1939.597" gradientTransform="matrix(1 0 0 -1 0 2264)"><stop offset="0" stop-color="#fff"/><stop offset="1" stop-color="#f8f8f9"/></linearGradient><path d="M1461.5 149.4C1403.1 91.3 1338.4 41.2 1268.4 0H285.1C215.1 41.2 150.4 91.3 92 149.4 1.8 239.3-69.1 344.2-118.9 461.2-170.8 583.3-197 713.2-197 847s26.2 263.7 78.1 385.8c49.7 117 120.6 221.9 210.9 311.8 89.5 89.1 193.4 158.9 309 207.7 119.1 50.1 245.5 75.7 375.7 75.7s256.5-25.4 375.7-75.7c115.6-48.7 219.6-118.6 309-207.7 90.2-89.8 161.2-194.7 210.9-311.8 51.9-122.1 78.1-252 78.1-385.8s-26.2-263.7-78.1-385.8c-49.7-117-120.6-221.9-210.8-311.8zm28.8 988.8c-38.3 90-93.2 171.2-163.4 241-71 70.6-153.7 126.2-246 165.1-96.2 40.5-198.4 61.1-304 61.1s-207.9-20.6-304-61.1c-92.3-38.9-175.1-94.4-246-165.1-70.2-69.9-125.1-151-163.4-241C24.1 1045.9 4.2 948 4.2 847s19.9-198.9 59-291.2c38.3-90 93.2-171.2 163.4-241 71-70.6 153.7-126.2 246-165.1 96.2-40.5 198.4-61.1 304-61.1s207.9 20.6 304 61.1c92.3 38.9 175.1 94.4 246 165.1 70.2 69.9 125.1 151 163.4 241 39.2 92.3 59 190.3 59 291.2s-19.6 198.9-58.7 291.2z" fill="url(#a)"/><linearGradient id="b" gradientUnits="userSpaceOnUse" x1="3828.883" y1="1759.166" x2="3080.553" y2="1407.541" gradientTransform="matrix(1 0 0 -1 0 2264)"><stop offset="0" stop-color="#fff"/><stop offset="1" stop-color="#f8f8f9"/></linearGradient><path d="M4683.7 0H4458c187.3 355.4 121.9 776.4-165.1 973.8-310.4 213.4-764.3 85.3-1011.8-285.4C3135.5 470.2 3093.3 215.9 3146.5 0h-208.9c-4.2 22.3-7.7 44.8-10.4 67.8-14.5 123-6.3 248.7 24.4 373.5 31.5 128.5 85.6 250.6 160.6 363.1s166.8 208.6 272.7 286c102.9 75.2 214.9 129.6 332.8 161.5 78.7 21.3 157.4 32.1 235.3 32.1 40.2 0 80.1-2.8 119.7-8.5 121.7-17.6 234.2-61.4 334.6-130.4 100.3-69 182.3-158.8 243.5-266.9 58.5-103.3 95.6-218.8 110.2-343.2 14.5-123 6.3-248.7-24.4-373.5-13.6-55.1-31.3-109-52.9-161.5z" fill="url(#b)"/></svg>