<svg xmlns="http://www.w3.org/2000/svg" viewBox="0 0 14.5 15.117">
  <defs>
    <style>
      .cls-1{fill:#8a8c8f}
    </style>
  </defs>
  <path d="M7.25 15.117A7.149 7.149 0 0 1 0 8.09a6.973 6.973 0 0 1 4.075-6.321.63.63 0 0 1 .54 1.138A5.722 5.722 0 0 0 1.261 8.09a5.992 5.992 0 0 0 11.976 0 5.777 5.777 0 0 0-3.461-5.229.62911.62911 0 1 1 .515-1.148A7.035 7.035 0 0 1 14.5 8.09a7.149 7.149 0 0 1-7.25 7.028z" class="cls-1"/>
  <path d="M7.25 8.543a.628.628 0 0 1-.629-.629V.629a.6295.6295 0 0 1 1.259 0v7.284a.628.628 0 0 1-.63.63z" class="cls-1"/>
</svg>