<svg xmlns="http://www.w3.org/2000/svg" viewBox="0 0 51.836 14.93">
  <defs>
    <style>
      .cls-1 {
        fill: #2e3032;
      }
    </style>
  </defs>
  <path id="Tracé_11993" data-name="Tracé 11993" class="cls-1" d="M34.126,15.924H28.733L27.707,19H24.436L29.994,4.07h2.851L38.433,19H35.162Zm-4.563-2.492H33.3L31.419,7.844ZM38.988,19V4.07h5.229a6.867,6.867,0,0,1,4.122,1.041,3.559,3.559,0,0,1,1.4,3.051,3.373,3.373,0,0,1-.564,1.933,3.258,3.258,0,0,1-1.569,1.225,3.152,3.152,0,0,1,1.81,1.159,3.426,3.426,0,0,1,.661,2.133,3.94,3.94,0,0,1-1.374,3.261A6.186,6.186,0,0,1,44.791,19Zm3.076-6.5v4.03H44.7a2.543,2.543,0,0,0,1.7-.518,1.776,1.776,0,0,0,.61-1.43A1.875,1.875,0,0,0,44.884,12.5Zm0-2.174H44.34q2.328-.041,2.328-1.856a1.715,1.715,0,0,0-.59-1.461,3.1,3.1,0,0,0-1.861-.446H42.064Zm17.914,5.6H54.585L53.559,19H50.288L55.846,4.07H58.7L64.285,19H61.014Zm-4.563-2.492h3.732L57.271,7.844Zm12.5.308V19H64.839V4.07h5.824a6.738,6.738,0,0,1,2.958.615,4.534,4.534,0,0,1,1.964,1.748,4.875,4.875,0,0,1,.687,2.579,4.287,4.287,0,0,1-1.5,3.461,6.257,6.257,0,0,1-4.158,1.266Zm0-2.492h2.748a2.7,2.7,0,0,0,1.861-.574,2.088,2.088,0,0,0,.641-1.641,2.463,2.463,0,0,0-.646-1.774,2.413,2.413,0,0,0-1.784-.7h-2.82Z" transform="translate(-24.437 -4.07)"/>
</svg>
