<svg xmlns="http://www.w3.org/2000/svg" viewBox="0 0 53.435 60.056"><defs><style>.cls-2{fill:#4a4d50}.cls-4{fill:#fff}</style></defs><g id="Groupe_7545" data-name="Groupe 7545" transform="translate(-6792.164 -10501.433)"><path id="Tracé_10199" data-name="Tracé 10199" d="M53.432 17.924a5.3 5.3 0 0 0-.653-2.668 5.1 5.1 0 0 0-1.933-1.883Q40.175 7.22 29.5 1.076a5.24 5.24 0 0 0-5.679.056C20.99 2.8 6.814 10.924 2.589 13.37A4.934 4.934 0 0 0 0 17.922v24.746a5.326 5.326 0 0 0 .625 2.617 5.084 5.084 0 0 0 1.962 1.935c4.224 2.447 18.4 10.568 21.233 12.238a5.241 5.241 0 0 0 5.68.056q10.667-6.159 21.347-12.3a5.086 5.086 0 0 0 1.962-1.934 5.333 5.333 0 0 0 .624-2.617V17.921" transform="translate(6792.164 10501.165)" fill="#6b7076"/><path id="Tracé_10200" data-name="Tracé 10200" class="cls-2" d="M29.162 143.509l-26.174 15.07a5.084 5.084 0 0 0 1.962 1.935c4.224 2.447 18.4 10.568 21.233 12.238a5.241 5.241 0 0 0 5.68.056q10.667-6.159 21.347-12.3a5.086 5.086 0 0 0 1.962-1.934l-26.01-15.065" transform="translate(6789.801 10387.871)"/><path id="Tracé_10201" data-name="Tracé 10201" class="cls-2" d="M91.1 147.973a8.834 8.834 0 0 0 15.37-.051l-7.618-4.413-7.752 4.464" transform="translate(6720.109 10387.871)"/><path id="Tracé_10202" data-name="Tracé 10202" d="M154.815 74.627a5.3 5.3 0 0 0-.653-2.668l-25.98 14.959 26.011 15.068a5.333 5.333 0 0 0 .624-2.617V74.627" transform="translate(6690.781 10444.462)" fill="#2e3032"/><path id="Tracé_10203" data-name="Tracé 10203" class="cls-4" d="M197.6 133.283h-2.03v2.033h-2.033v-2.033H191.5v-2.032h2.032v-2.033h2.033v2.033h2.035v2.032m-7.417 0h-2.032v2.033h-2.033v-2.033h-2.033v-2.032h2.033v-2.033h2.033v2.033h2.032v2.032" transform="translate(6646.563 10399.174)"/><path id="Tracé_10204" data-name="Tracé 10204" class="cls-4" d="M68.36 81.1a8.836 8.836 0 1 1-.06-8.77l7.723-4.447a17.745 17.745 0 1 0 .046 17.681L68.36 81.1" transform="translate(6758.221 10454.696)"/></g></svg>