<svg id="Calque_1" data-name="Calque 1" xmlns="http://www.w3.org/2000/svg" viewBox="0 0 60 60"><defs><style>.cls-1{fill:#464a4d;}.cls-2{fill:#2d3032;}.cls-3{fill:#3a3e40;}.cls-4{fill:#fff;}</style></defs><title>c-plus</title><g id="c"><path id="Tracé_10199" data-name="Tracé 10199" class="cls-1" d="M52.86,19.82a4.61,4.61,0,0,0-.55-2.24A4.27,4.27,0,0,0,50.68,16q-9-5.17-17.92-10.32a4.41,4.41,0,0,0-4.76,0C25.62,7.13,13.72,14,10.17,16A4.15,4.15,0,0,0,8,19.82V40.59a4.41,4.41,0,0,0,.52,2.2,4.24,4.24,0,0,0,1.65,1.63c3.55,2,15.45,8.87,17.83,10.27a4.41,4.41,0,0,0,4.77,0q9-5.17,17.92-10.32a4.32,4.32,0,0,0,1.64-1.62,4.58,4.58,0,0,0,.53-2.2V19.81"/><path id="Tracé_10200" data-name="Tracé 10200" class="cls-2" d="M30.5,30.14l-22,12.65a4.24,4.24,0,0,0,1.65,1.63c3.55,2,15.45,8.87,17.83,10.27a4.41,4.41,0,0,0,4.77.05L50.69,44.41a4.25,4.25,0,0,0,1.64-1.62L30.5,30.14"/><path id="Tracé_10201" data-name="Tracé 10201" class="cls-2" d="M24,33.89a7.42,7.42,0,0,0,10.12,2.76,7.54,7.54,0,0,0,2.78-2.8l-6.4-3.7L24,33.89"/><path id="Tracé_10202" data-name="Tracé 10202" class="cls-3" d="M52.86,19.82a4.61,4.61,0,0,0-.55-2.24L30.5,30.14,52.33,42.79a4.53,4.53,0,0,0,.53-2.2V19.82"/><path id="Tracé_10203" data-name="Tracé 10203" class="cls-4" d="M51.65,31H50v1.71H48.24V31h-1.7v-1.7h1.7V27.63H50v1.71h1.7V31m-6.22,0H43.72v1.71H42V31H40.31v-1.7H42V27.63h1.7v1.71h1.71V31"/><path id="Tracé_10204" data-name="Tracé 10204" class="cls-4" d="M36.89,33.85a7.43,7.43,0,1,1,0-7.36l6.49-3.74a14.9,14.9,0,1,0,0,14.84l-6.48-3.75"/></g></svg>