<svg id="Calque_1" data-name="Calque 1" xmlns="http://www.w3.org/2000/svg" viewBox="0 0 60 60"><defs><style>.cls-1{fill:#2d3032;}.cls-2{fill:#464a4d;}.cls-3{fill:#fff;}</style></defs><title>c-sharp</title><g id="csharp"><path id="Tracé_10198" data-name="Tracé 10198" class="cls-1" d="M30.55,5A24.86,24.86,0,1,1,5.69,29.86,24.86,24.86,0,0,1,30.55,5Z"/><path id="Tracé_10195" data-name="Tracé 10195" class="cls-2" d="M13.32,12a24.87,24.87,0,1,0,35.1,35.1Z"/><path id="Tracé_10196" data-name="Tracé 10196" class="cls-3" d="M29.34,38.84A11.64,11.64,0,0,1,23.9,40a8.79,8.79,0,0,1-6.69-2.69,9.91,9.91,0,0,1-2.51-7.06,10.44,10.44,0,0,1,2.83-7.6,9.62,9.62,0,0,1,7.19-2.88,11.56,11.56,0,0,1,4.62.78V23a9.31,9.31,0,0,0-4.67-1.17,7.16,7.16,0,0,0-5.44,2.24,8.57,8.57,0,0,0-2.1,6,8.14,8.14,0,0,0,2,5.7,6.71,6.71,0,0,0,5.15,2.12,9.65,9.65,0,0,0,5.1-1.32Z"/><path id="Tracé_10197" data-name="Tracé 10197" class="cls-3" d="M46.68,25.56,46.37,27H42.8l-.86,4.1h3.84l-.36,1.45H41.66L40.46,38H38.74l1.17-5.44H36.49L35.34,38H33.67l1.15-5.44h-3.6l.27-1.45h3.62L35.94,27H32.15l.28-1.45h3.79l1.15-5.49H39.1L38,25.57h3.44l1.18-5.5h1.68l-1.15,5.5ZM41.11,27H37.67l-.9,4.1h3.47Z"/></g></svg>