<svg xmlns="http://www.w3.org/2000/svg" viewBox="0 0 60.056 60.056">
  <defs>
    <style>
      .cls-1 {
        fill: #2e3032;
      }

      .cls-2 {
        fill: #4a4d50;
      }

      .cls-3 {
        fill: #fff;
      }
    </style>
  </defs>
  <g id="Groupe_7543" data-name="Groupe 7543" transform="translate(-7196.293 -10382.932)">
    <path id="Tracé_10198" data-name="Tracé 10198" class="cls-1" d="M29.615,0A29.615,29.615,0,1,1,0,29.615,29.615,29.615,0,0,1,29.615,0Z" transform="translate(7197.118 10382.932)"/>
    <path id="Tracé_10195" data-name="Tracé 10195" class="cls-2" d="M9.022,9A29.615,29.615,0,1,0,50.835,50.813Z" transform="translate(7197.185 10382.261)"/>
    <path id="Tracé_10196" data-name="Tracé 10196" class="cls-3" d="M29.025,41.72a13.679,13.679,0,0,1-6.478,1.37,10.393,10.393,0,0,1-7.968-3.2,11.827,11.827,0,0,1-2.989-8.413,12.392,12.392,0,0,1,3.369-9.042A11.43,11.43,0,0,1,23.528,19a13.7,13.7,0,0,1,5.5.925V22.84a11.106,11.106,0,0,0-5.553-1.4,8.487,8.487,0,0,0-6.478,2.684A10.115,10.115,0,0,0,14.5,31.3a9.625,9.625,0,0,0,2.332,6.793,7.941,7.941,0,0,0,6.127,2.527,11.5,11.5,0,0,0,6.08-1.564Z" transform="translate(7196.255 10381.517)"/>
    <path id="Tracé_10197" data-name="Tracé 10197" class="cls-3" d="M51.276,25.934l-.37,1.721H46.648L45.63,32.542H50.2l-.435,1.721H45.288l-1.434,6.478H41.808l1.4-6.478H39.133l-1.37,6.478h-2l1.37-6.478H32.84l.324-1.721h4.313l.99-4.877H33.96l.342-1.721h4.507l1.37-6.543h2.064l-1.37,6.543h4.1l1.4-6.543h2L47,25.943ZM44.64,27.655H40.531l-1.064,4.886h4.128Z" transform="translate(7194.671 10381.485)"/>
  </g>
</svg>
