<svg xmlns="http://www.w3.org/2000/svg" viewBox="0 0 40.223 56.773"><defs><style>.cls-1{fill:#2e3032}.cls-3{fill:#fff}</style></defs><g id="CSS3_logo_and_wordmark_1_" data-name="CSS3_logo_and_wordmark (1)" transform="translate(-193.633 -276.362)"><g id="g3013" transform="translate(193.633 276.362)"><path id="polygon2989" class="cls-1" d="M114.855 100.62l-3.664 41.05-16.471 4.566-16.426-4.56-3.66-41.056z" transform="translate(-74.633 -89.463)"/><path id="polygon2991" d="M269.31 165.973l3.131-35.079H256v38.769z" transform="translate(-235.889 -116.38)" fill="#4a4d50"/><path id="polygon2993" class="cls-3" d="M150.31 268.217l.451 5.035h11.269v-5.035z" transform="translate(-141.918 -238.475)"/><path id="polygon2995" class="cls-3" d="M154.758 176.3h-12.626l.458 5.035h12.169z" transform="translate(-134.647 -156.755)"/><path id="polygon2997" class="cls-3" d="M167.452 347.1v-5.239l-.022.006-5.608-1.514-.359-4.016h-5.055l.705 7.906 10.315 2.863z" transform="translate(-147.341 -299.038)"/><path id="path2999" class="cls-1" d="M160 0h6.1v2.55h-3.55V5.1h3.55v2.55H160z" transform="translate(-150.534)"/><path id="path3001" class="cls-1" d="M226 0h6.1v2.218h-3.55v.444h3.55v5.1H226V5.433h3.548V4.99H226z" transform="translate(-209.215)"/><path id="path3003" class="cls-1" d="M292 0h6.1v2.218h-3.55v.444h3.55v5.1H292V5.433h3.548V4.99H292z" transform="translate(-267.897)"/><path id="polygon3005" class="cls-3" d="M262.044 191.532l-.584 6.531-5.616 1.516v5.239l10.323-2.861.076-.851 1.183-13.257.123-1.352.909-10.192h-12.615v5.035h7.1l-.458 5.156h-6.637v5.035z" transform="translate(-235.749 -156.755)"/></g></g></svg>