<svg id="Calque_1" data-name="Calque 1" xmlns="http://www.w3.org/2000/svg" viewBox="0 0 60 60"><defs><style>.cls-1{fill:#2d3032;}</style></defs><title>java</title><g id="Groupe_6110" data-name="Groupe 6110"><path id="Tracé_10176" data-name="Tracé 10176" class="cls-1" d="M23.25,31.94s-1.52.88,1.07,1.17a22.57,22.57,0,0,0,8.19-.34,14.52,14.52,0,0,0,2.17,1.06c-7.74,3.31-17.51-.19-11.43-1.89Z"/><path id="Tracé_10177" data-name="Tracé 10177" class="cls-1" d="M22.3,27.61s-1.7,1.25.89,1.52a31.82,31.82,0,0,0,10.57-.51,4.51,4.51,0,0,0,1.62,1c-9.36,2.74-19.78.22-13.08-2Z"/><path id="Tracé_10178" data-name="Tracé 10178" class="cls-1" d="M30.27,20.27c1.91,2.19-.5,4.17-.5,4.17s4.84-2.5,2.62-5.63c-2.08-2.92-3.67-4.37,5-9.37,0,0-13.53,3.38-7.07,10.82Z"/><path id="Tracé_10179" data-name="Tracé 10179" class="cls-1" d="M40.51,35.14s1.12.92-1.23,1.63c-4.47,1.35-18.6,1.76-22.52.06-1.41-.62,1.23-1.47,2.07-1.65A5.16,5.16,0,0,1,20.19,35c-1.57-1.11-10.14,2.17-4.35,3.11,15.78,2.55,28.76-1.16,24.67-3Z"/><path id="Tracé_10180" data-name="Tracé 10180" class="cls-1" d="M24,23.12s-7.18,1.71-2.54,2.33a53.83,53.83,0,0,0,9.5-.1c3-.25,6-.79,6-.79a13.08,13.08,0,0,0-1.81,1c-7.3,1.92-21.39,1-17.33-.94A13.69,13.69,0,0,1,24,23.12Z"/><path id="Tracé_10181" data-name="Tracé 10181" class="cls-1" d="M36.86,30.33c7.42-3.86,4-7.56,1.6-7.06a5.2,5.2,0,0,0-.86.23,1.29,1.29,0,0,1,.64-.49c4.73-1.66,8.37,4.91-1.53,7.51a.7.7,0,0,0,.15-.19Z"/><path id="Tracé_10182" data-name="Tracé 10182" class="cls-1" d="M32.39,1.36s4.11,4.11-3.9,10.43c-6.42,5.07-1.46,8,0,11.26-3.74-3.38-6.49-6.35-4.65-9.12C26.55,9.86,34.05,7.89,32.39,1.36Z"/><path id="Tracé_10183" data-name="Tracé 10183" class="cls-1" d="M24.7,40.77c7.12.46,18.06-.25,18.31-3.62,0,0-.49,1.28-5.88,2.29a58.54,58.54,0,0,1-18,.28s.91.76,5.59,1.05Z"/><path id="Tracé_10184" data-name="Tracé 10184" class="cls-1" d="M42.68,46.81h-.21v-.12h.58v.12h-.21v.61h-.16Zm1.17,0h0l-.21.57h-.1l-.21-.57h0v.57h-.15v-.73h.21l.2.52.2-.52H44v.73h-.14v-.57Z"/><path id="Tracé_10185" data-name="Tracé 10185" class="cls-1" d="M23.53,53.64a3.14,3.14,0,0,1-2,.91,1.29,1.29,0,0,1-1.41-1.16,2.35,2.35,0,0,1,0-.26c0-.94.52-1.63,2.63-1.63h.78v2.14Zm1.86,2.09V49.26c0-1.65-.95-2.74-3.22-2.74a8.46,8.46,0,0,0-3.43.74L19,48.41a8.22,8.22,0,0,1,2.65-.53c1.31,0,1.87.53,1.87,1.62v.82h-.65c-3.19,0-4.62,1.23-4.62,3.09,0,1.6.94,2.51,2.73,2.51a4.12,4.12,0,0,0,2.79-1.17l.15,1Z"/><path id="Tracé_10186" data-name="Tracé 10186" class="cls-1" d="M31.57,55.73H29.26l-2.78-9h2l1.72,5.57.39,1.67a35.35,35.35,0,0,0,1.8-7.24h2a36.68,36.68,0,0,1-2.8,9Z"/><path id="Tracé_10187" data-name="Tracé 10187" class="cls-1" d="M40.44,53.64a3.22,3.22,0,0,1-2,.91A1.28,1.28,0,0,1,37,53.39a1.13,1.13,0,0,1,0-.26c0-.94.53-1.63,2.64-1.63h.78v2.14Zm1.86,2.09V49.26c0-1.65-.95-2.74-3.22-2.74a8.47,8.47,0,0,0-3.44.74l.27,1.15a8.33,8.33,0,0,1,2.65-.53c1.31,0,1.88.53,1.88,1.62v.82h-.66c-3.18,0-4.62,1.23-4.62,3.09,0,1.6,1,2.51,2.73,2.51a4.13,4.13,0,0,0,2.8-1.17l.15,1Z"/><path id="Tracé_10188" data-name="Tracé 10188" class="cls-1" d="M16.23,57.27A4.9,4.9,0,0,1,13.92,59L13,57.92a3.82,3.82,0,0,0,1.61-1.5A6,6,0,0,0,15,53.8V43.47h2V53.66c0,2-.16,2.82-.69,3.62Z"/></g></svg>