<svg id="Unofficial_JavaScript_logo_2" xmlns="http://www.w3.org/2000/svg" viewBox="0 0 60.208 60.207">
  <defs>
    <style>
      .cls-1 {
        fill: #2e3032;
      }

      .cls-2 {
        fill: #fff;
      }
    </style>
  </defs>
  <rect id="Rectangle_5722" data-name="Rectangle 5722" class="cls-1" width="60.207" height="60.207"/>
  <path id="Tracé_10175" data-name="Tracé 10175" class="cls-2" d="M190.471,305.605c1.213,1.98,2.791,3.436,5.581,3.436,2.344,0,3.842-1.172,3.842-2.791,0-1.94-1.539-2.627-4.119-3.756l-1.414-.607c-4.083-1.739-6.795-3.918-6.795-8.524,0-4.243,3.233-7.473,8.286-7.473,3.6,0,6.183,1.252,8.047,4.53l-4.406,2.829c-.97-1.739-2.016-2.425-3.641-2.425a2.462,2.462,0,0,0-2.707,2.425c0,1.7,1.051,2.384,3.479,3.436l1.414.606c4.807,2.061,7.521,4.163,7.521,8.888,0,5.094-4,7.884-9.375,7.884-5.254,0-8.649-2.5-10.31-5.786Zm-19.986.49c.889,1.577,1.7,2.91,3.641,2.91,1.859,0,3.031-.727,3.031-3.555V286.213h5.658v19.314c0,5.858-3.435,8.524-8.448,8.524a8.783,8.783,0,0,1-8.487-5.168Z" transform="translate(-150.027 -258.568)"/>
</svg>
