<svg xmlns="http://www.w3.org/2000/svg" viewBox="0 0 34.547 41.015">
  <defs>
    <style>
      .cls-1 {
        fill: #2e3032;
      }
    </style>
  </defs>
  <path id="Apple_logo_black" class="cls-1" d="M50.593,35.962a22.3,22.3,0,0,1-2.205,3.965,20.143,20.143,0,0,1-2.841,3.433A5.51,5.51,0,0,1,41.9,44.967a9.15,9.15,0,0,1-3.372-.805,9.676,9.676,0,0,0-3.63-.8,10,10,0,0,0-3.733.8,10.045,10.045,0,0,1-3.226.848A5.188,5.188,0,0,1,24.2,43.359,21.151,21.151,0,0,1,21.231,39.8a24.583,24.583,0,0,1-3.142-6.241,22.851,22.851,0,0,1-1.319-7.438,13.582,13.582,0,0,1,1.784-7.106,10.463,10.463,0,0,1,3.736-3.779,10.049,10.049,0,0,1,5.05-1.425,11.891,11.891,0,0,1,3.906.909,12.557,12.557,0,0,0,3.1.911,18.539,18.539,0,0,0,3.435-1.073,11.356,11.356,0,0,1,4.67-.829,9.915,9.915,0,0,1,7.767,4.089,8.64,8.64,0,0,0-4.582,7.849A8.659,8.659,0,0,0,48.477,32.2a9.343,9.343,0,0,0,2.841,1.863q-.342.991-.724,1.9ZM42.679,4.82a8.75,8.75,0,0,1-2.243,5.739c-1.8,2.107-3.983,3.325-6.347,3.133a6.385,6.385,0,0,1-.048-.777,8.99,8.99,0,0,1,2.38-5.8,9.162,9.162,0,0,1,2.9-2.176A8.643,8.643,0,0,1,42.636,4a7.45,7.45,0,0,1,.043.82Z" transform="translate(-16.77 -3.999)"/>
</svg>
