<svg id="Calque_1" data-name="Calque 1" xmlns="http://www.w3.org/2000/svg" viewBox="0 0 60 60"><defs><style>.cls-1,.cls-2{fill:#2d3032;}.cls-2{fill-rule:evenodd;}</style></defs><title>obj-c</title><path id="Tracé_10735" data-name="Tracé 10735" class="cls-1" d="M9.29,53.79a5,5,0,0,1-.39,2,2.9,2.9,0,0,1-1.1,1.3,3,3,0,0,1-4.18-.89,3.23,3.23,0,0,1-.22-.41A4.62,4.62,0,0,1,3,53.86V53.3a4.73,4.73,0,0,1,.39-2,2.9,2.9,0,0,1,2.75-1.78A3.08,3.08,0,0,1,7.79,50a2.89,2.89,0,0,1,1.1,1.32,4.77,4.77,0,0,1,.39,2Zm-1-.5a3.44,3.44,0,0,0-.56-2.14,1.84,1.84,0,0,0-1.56-.75,1.84,1.84,0,0,0-1.54.75A3.42,3.42,0,0,0,4,53.21v.58a3.46,3.46,0,0,0,.56,2.12,2,2,0,0,0,2.79.35A1.57,1.57,0,0,0,7.7,56a3.51,3.51,0,0,0,.56-2.09Zm7.34,1.32A3.48,3.48,0,0,1,15,56.75a2,2,0,0,1-1.65.81,2,2,0,0,1-1.7-.78l-.05.67h-.91V49.2h1v3.08a2,2,0,0,1,1.66-.75,2,2,0,0,1,1.67.8,3.6,3.6,0,0,1,.6,2.19Zm-1-.11a2.71,2.71,0,0,0-.4-1.57,1.26,1.26,0,0,0-1.12-.55,1.46,1.46,0,0,0-1.42.91V55.8a1.5,1.5,0,0,0,1.43.91,1.28,1.28,0,0,0,1.11-.55,2.86,2.86,0,0,0,.4-1.67Zm3.27-2.86v6.48c0,1.12-.51,1.68-1.52,1.68a1.81,1.81,0,0,1-.61-.1v-.8a1.73,1.73,0,0,0,.45.05.68.68,0,0,0,.51-.18.89.89,0,0,0,.17-.63v-6.5Zm-1.1-1.54a.6.6,0,0,1,.14-.41.56.56,0,0,1,.44-.17.57.57,0,0,1,.44.17.61.61,0,0,1,.15.41.59.59,0,0,1-.15.4.68.68,0,0,1-.88,0,.66.66,0,0,1-.14-.41Zm5.1,7.46A2.53,2.53,0,0,1,20,56.78a2.86,2.86,0,0,1-.74-2.07v-.19A3.42,3.42,0,0,1,19.55,53a2.52,2.52,0,0,1,.92-1.07,2.37,2.37,0,0,1,1.29-.38,2.16,2.16,0,0,1,1.76.75,3.19,3.19,0,0,1,.63,2.13v.42H20.22a2.08,2.08,0,0,0,.5,1.39,1.62,1.62,0,0,0,1.22.53,1.73,1.73,0,0,0,.89-.22,2.19,2.19,0,0,0,.64-.57l.61.47a2.41,2.41,0,0,1-2.19,1.12Zm-.11-5.21a1.28,1.28,0,0,0-1,.44,2,2,0,0,0-.5,1.22h2.91v-.08a1.91,1.91,0,0,0-.41-1.17A1.25,1.25,0,0,0,21.77,52.35Zm5.87,4.4a1.47,1.47,0,0,0,.92-.32,1.11,1.11,0,0,0,.44-.81h.94a1.82,1.82,0,0,1-.34,1,2.28,2.28,0,0,1-.85.72,2.57,2.57,0,0,1-3-.52,3.12,3.12,0,0,1-.7-2.17v-.17a3.41,3.41,0,0,1,.31-1.51,2.4,2.4,0,0,1,.89-1,2.52,2.52,0,0,1,1.39-.36,2.36,2.36,0,0,1,1.62.58A2.1,2.1,0,0,1,30,53.63H29a1.35,1.35,0,0,0-.43-.92,1.3,1.3,0,0,0-.94-.36,1.39,1.39,0,0,0-1.18.54,2.59,2.59,0,0,0-.41,1.58v.19a2.47,2.47,0,0,0,.41,1.54A1.4,1.4,0,0,0,27.64,56.75Zm4.77-6.52v1.41H33.5v.76H32.41V56a.84.84,0,0,0,.15.53.6.6,0,0,0,.49.17,1.84,1.84,0,0,0,.47-.06v.81a2.73,2.73,0,0,1-.76.1,1.23,1.23,0,0,1-1-.4A1.77,1.77,0,0,1,31.42,56v-3.6H30.36v-.77h1.06V50.23Zm3.33,7.22h-1V51.64h1Zm-1.08-7.36a.59.59,0,0,1,.15-.4.55.55,0,0,1,.44-.17.57.57,0,0,1,.44.17.59.59,0,0,1,.15.4.61.61,0,0,1-1,.4A.59.59,0,0,1,34.66,50.09Zm4.58,6,1.44-4.46h1l-2.09,5.82h-.75l-2.11-5.81h1ZM45,57.55a2.53,2.53,0,0,1-1.93-.78,2.85,2.85,0,0,1-.73-2.07v-.18A3.42,3.42,0,0,1,42.67,53a2.52,2.52,0,0,1,.92-1.07,2.35,2.35,0,0,1,1.29-.38,2.16,2.16,0,0,1,1.76.75,3.25,3.25,0,0,1,.63,2.13v.42H43.33a2,2,0,0,0,.5,1.39,1.6,1.6,0,0,0,1.22.53,1.73,1.73,0,0,0,.89-.22,2.32,2.32,0,0,0,.64-.57l.61.47A2.43,2.43,0,0,1,45,57.55Zm-.13-5.2a1.31,1.31,0,0,0-1,.44,2.11,2.11,0,0,0-.5,1.22h2.91v-.08a1.9,1.9,0,0,0-.4-1.17A1.27,1.27,0,0,0,44.87,52.35Zm5.61,2.18H47.86v-.81h2.62Zm6.87.44a2.9,2.9,0,0,1-.91,1.91,3,3,0,0,1-2,.67,2.7,2.7,0,0,1-2.22-1,4,4,0,0,1-.83-2.66v-.75a4.37,4.37,0,0,1,.38-1.92A3,3,0,0,1,52.82,50a3.13,3.13,0,0,1,1.66-.44,2.78,2.78,0,0,1,2,.7,2.9,2.9,0,0,1,.87,1.92h-1a2.26,2.26,0,0,0-.58-1.35,1.76,1.76,0,0,0-1.26-.42,1.85,1.85,0,0,0-1.55.73,3.33,3.33,0,0,0-.56,2.08v.75a3.44,3.44,0,0,0,.53,2,1.74,1.74,0,0,0,1.49.75,2,2,0,0,0,1.32-.39A2.14,2.14,0,0,0,56.32,55Z"/><path class="cls-2" d="M31.64,4.13A7.72,7.72,0,0,1,37.29,1a7.7,7.7,0,0,1-1.86,5.76c-2.51,3-5.36,2.52-5.36,2.52A6.68,6.68,0,0,1,31.64,4.13Z"/><path class="cls-2" d="M30.37,11.33c1.22,0,3.47-1.67,6.41-1.67a8,8,0,0,1,7.06,3.6,7.82,7.82,0,0,0-3.9,6.82,8,8,0,0,0,4.85,7.33S41.4,37,36.82,37c-2.1,0-3.74-1.42-5.95-1.42s-4.5,1.48-6,1.48c-4.19,0-9.47-9.06-9.47-16.34S19.91,9.76,24.11,9.76C26.83,9.76,29,11.33,30.37,11.33Z"/></svg>