<svg id="_4c69e694f411fe8138a5242020efdc8d" data-name="4c69e694f411fe8138a5242020efdc8d" xmlns="http://www.w3.org/2000/svg" viewBox="0 0 57.583 30.33">
  <defs>
    <style>
      .cls-1 {
        fill: #2e3032;
      }
    </style>
  </defs>
  <path id="Tracé_10232" data-name="Tracé 10232" class="cls-1" d="M239.078,425.051h-3.032l-1.246,6.41h2.832s3.449.088,3.608-4.154A1.96,1.96,0,0,0,239.078,425.051Z" transform="translate(-221.591 -414.286)"/>
  <path id="Tracé_10233" data-name="Tracé 10233" class="cls-1" d="M679.577,425.051h-3.032l-1.246,6.41h2.832s3.449.088,3.608-4.154A1.958,1.958,0,0,0,679.577,425.051Z" transform="translate(-636.208 -414.286)"/>
  <path id="Tracé_10234" data-name="Tracé 10234" class="cls-1" d="M38.792,241.9C22.892,241.9,10,248.692,10,257.065s12.892,15.165,28.792,15.165,28.792-6.787,28.792-15.165S54.692,241.9,38.792,241.9ZM25.9,261.455l-3.067-.023-.864,4.031H18.684L21.646,250.3s4.207.053,6.969,0,5.476,1.9,4.207,6.316C31.294,261.889,25.9,261.455,25.9,261.455Zm14.766,0s.787-3.525,1.134-5.97c.141-1,.764-2.715-.881-2.715-1.375-.006-3.431-.012-3.431-.012l-1.733,8.7H32.5l3.032-15.236h3.326l-.834,4.072h3.431s4.548-.358,4.007,3.4-1.551,7.762-1.551,7.762ZM58.7,256.619c-1.516,5.271-6.916,4.836-6.916,4.836l-3.067-.023-.864,4.031H44.568L47.529,250.3s4.207.053,6.969,0S59.968,252.194,58.7,256.619Z" transform="translate(-10 -241.9)"/>
</svg>
