<svg xmlns="http://www.w3.org/2000/svg" viewBox="0 0 42.597 51.604"><defs><radialGradient id="a" cx="58.835" cy="-130.697" r="12.486" gradientTransform="matrix(0 -.194 1.037 0 201.505 -205.779)" gradientUnits="userSpaceOnUse"><stop offset="0" stop-color="#b8b8b8" stop-opacity=".498"/><stop offset="1" stop-color="#7f7f7f" stop-opacity="0"/></radialGradient></defs><g data-name="Groupe 7544"><path d="M21.045.003a29.338 29.338 0 0 0-4.91.419c-4.348.768-5.137 2.376-5.137 5.341v3.916h10.275v1.305H7.142a6.415 6.415 0 0 0-6.419 5.209 19.2 19.2 0 0 0 0 10.442c.73 3.042 2.475 5.209 5.461 5.209h3.533v-4.696a6.529 6.529 0 0 1 6.419-6.383h10.262a5.176 5.176 0 0 0 5.137-5.221V5.76c0-2.784-2.349-4.876-5.137-5.341a32.047 32.047 0 0 0-5.353-.416zM15.489 3.15a1.958 1.958 0 1 1-1.928 1.964 1.949 1.949 0 0 1 1.928-1.964z" fill="#4a4d50"/><path d="M32.816 10.981v4.562a6.59 6.59 0 0 1-6.419 6.514H16.135a5.241 5.241 0 0 0-5.137 5.221v9.784c0 2.784 2.421 4.422 5.137 5.221a17.19 17.19 0 0 0 10.263 0c2.587-.749 5.137-2.256 5.137-5.221v-3.915H21.272v-1.305h15.4c2.986 0 4.1-2.083 5.137-5.209 1.073-3.218 1.027-6.314 0-10.442-.738-2.973-2.147-5.209-5.137-5.209zm-5.772 24.777a1.958 1.958 0 1 1-1.928 1.952 1.939 1.939 0 0 1 1.928-1.952z" fill="#2e3032"/><path d="M36.765 102.791c0 1.475-6.165 2.67-13.769 2.67s-13.769-1.2-13.769-2.67 6.165-2.67 13.769-2.67 13.769 1.195 13.769 2.67z" transform="translate(-1.607 -53.856)" opacity=".444" fill="url(#a)"/></g></svg>