<svg xmlns="http://www.w3.org/2000/svg" xmlns:xlink="http://www.w3.org/1999/xlink" viewBox="0 0 42.597 51.604">
  <defs>
    <style>
      .cls-1 {
        fill: #4a4d50;
      }

      .cls-2 {
        fill: #2e3032;
      }

      .cls-3 {
        opacity: 0.444;
        fill: url(#radial-gradient);
      }
    </style>
    <radialGradient id="radial-gradient" cx="58.835" cy="-130.697" r="12.486" gradientTransform="translate(201.505 -205.779) rotate(-90) scale(0.194 1.037)" gradientUnits="userSpaceOnUse">
      <stop offset="0" stop-color="#b8b8b8" stop-opacity="0.498"/>
      <stop offset="1" stop-color="#7f7f7f" stop-opacity="0"/>
    </radialGradient>
  </defs>
  <g id="Groupe_7544" data-name="Groupe 7544" transform="translate(-7321.846 -10384.27)">
    <g id="python-logo-generic" transform="translate(7321.846 10384.27)">
      <path id="path1948" class="cls-1" d="M26.636,6.4a29.338,29.338,0,0,0-4.91.419c-4.348.768-5.137,2.376-5.137,5.341v3.916H26.864v1.305H12.733a6.415,6.415,0,0,0-6.419,5.209,19.2,19.2,0,0,0,0,10.442c.73,3.042,2.475,5.209,5.461,5.209h3.533V33.545a6.529,6.529,0,0,1,6.419-6.383H31.989a5.176,5.176,0,0,0,5.137-5.221V12.157c0-2.784-2.349-4.876-5.137-5.341A32.047,32.047,0,0,0,26.636,6.4ZM21.08,9.547a1.958,1.958,0,1,1-1.928,1.964A1.949,1.949,0,0,1,21.08,9.547Z" transform="translate(-5.591 -6.397)"/>
      <path id="path1950" class="cls-2" d="M56.11,35.054v4.562a6.59,6.59,0,0,1-6.419,6.514H39.429a5.241,5.241,0,0,0-5.137,5.221v9.784c0,2.784,2.421,4.422,5.137,5.221a17.19,17.19,0,0,0,10.263,0c2.587-.749,5.137-2.256,5.137-5.221V57.22H44.566V55.915h15.4c2.986,0,4.1-2.083,5.137-5.209,1.073-3.218,1.027-6.314,0-10.442-.738-2.973-2.147-5.209-5.137-5.209ZM50.338,59.831a1.958,1.958,0,1,1-1.928,1.952A1.939,1.939,0,0,1,50.338,59.831Z" transform="translate(-23.294 -24.073)"/>
      <path id="path1894" class="cls-3" d="M36.765,102.791c0,1.475-6.165,2.67-13.769,2.67s-13.769-1.2-13.769-2.67,6.165-2.67,13.769-2.67S36.765,101.316,36.765,102.791Z" transform="translate(-1.607 -53.856)"/>
    </g>
  </g>
</svg>
