<svg xmlns="http://www.w3.org/2000/svg" viewBox="0 0 42.118 42.001"><defs><style>.cls-1{fill:#8a8c8f}.cls-1,.cls-2,.cls-4,.cls-5{fill-rule:evenodd}.cls-2{fill:#2d3032}.cls-4{fill:#434447}.cls-5{fill:#636567}</style></defs><g id="Groupe_7548" data-name="Groupe 7548" transform="translate(-7202.253 -10496)"><g id="Groupe_7541" data-name="Groupe 7541" transform="translate(6622.253 8582)"><path id="polygon3282" class="cls-1" d="M64.427 59.18L40.38 73.459l31.136-2.113 2.4-31.4z" transform="translate(548.204 1882.542)"/><path id="polygon3293" class="cls-2" d="M150.175 119.121L147.5 100.65l-7.29 9.626z" transform="translate(469.596 1834.746)"/><path id="polygon3304" class="cls-2" d="M71.989 181.839L52.383 180.3l-11.513 3.633z" transform="translate(547.818 1772.028)"/><path id="polygon3319" class="cls-1" d="M19.22 137.975l4.9-16.045-10.778 2.3z" transform="translate(569.496 1817.99)"/><path id="polygon3334" class="cls-1" d="M75.734 80.792L71.227 63.14 58.33 75.229z" transform="translate(534.07 1864.282)"/><path id="polygon3349" class="cls-1" d="M135.586 27.427l-12.191-9.957L120 28.445z" transform="translate(485.509 1900.244)"/><path id="polygon3362" class="cls-1" d="M123.184.573l-7.17 3.962L111.49.52z" transform="translate(492.21 1913.59)"/><path id="polygon3375" class="cls-1" d="M0 113.624l3-5.478-2.426-6.526z" transform="translate(580 1833.982)"/><path id="path3377" d="M1.94 21.4l2.445 6.93 10.623-2.383 12.127-11.271 3.422-10.871L25.168 0l-9.162 3.429c-2.887 2.685-8.488 8-8.69 8.1S3.617 18.241 1.94 21.4z" transform="translate(578.473 1914)" fill="#fff" fill-rule="evenodd"/><path id="path3400" class="cls-4" d="M14.393 12.858c6.256-6.2 14.321-9.868 17.417-6.745s-.187 10.712-6.443 16.913S11.145 33.093 8.052 29.97s.085-10.911 6.341-17.112z" transform="translate(574.603 1910.081)"/><path id="path3413" class="cls-5" d="M41 137.756l4.86-16.1L62 126.845c-5.837 5.472-12.327 10.097-21 10.911z" transform="translate(547.716 1818.202)"/><path id="path3424" class="cls-4" d="M120.56 65.039l4.14 16.412c4.878-5.126 9.252-10.636 11.4-17.451z" transform="translate(485.068 1863.605)"/><path id="path3435" class="cls-5" d="M148.273 14.326c1.658-5 2.041-12.183-5.778-13.516l-6.416 3.544z" transform="translate(472.848 1913.362)"/><path id="path3437" class="cls-5" d="M0 138.348c.23 8.259 6.188 8.382 8.726 8.454L2.863 133.11z" transform="translate(580 1809.186)"/><path id="path3448" class="cls-5" d="M120.669 65.207c3.746 2.3 11.295 6.926 11.448 7.011.238.134 3.255-5.087 3.939-8.038z" transform="translate(484.983 1863.463)"/><path id="path3459" class="cls-4" d="M63.83 121.66l6.5 12.534a42.008 42.008 0 0 0 9.6-7.34z" transform="translate(529.739 1818.202)"/><path id="path3472" class="cls-4" d="M9.94 133.18l-.92 10.96c1.737 2.372 4.126 2.579 6.632 2.394-1.813-4.513-5.435-13.534-5.712-13.354z" transform="translate(572.898 1809.133)"/><path id="path3485" class="cls-4" d="M135.9 4.35l12.906 1.811c-.689-2.919-2.8-4.8-6.409-5.391z" transform="translate(472.989 1913.394)"/></g></g></svg>