<svg xmlns="http://www.w3.org/2000/svg" viewBox="0 0 42.118 42.001">
  <defs>
    <style>
      .cls-1 {
        fill: #8a8c8f;
      }

      .cls-1, .cls-2, .cls-3, .cls-4, .cls-5 {
        fill-rule: evenodd;
      }

      .cls-2 {
        fill: #2d3032;
      }

      .cls-3 {
        fill: #fff;
      }

      .cls-4 {
        fill: #434447;
      }

      .cls-5 {
        fill: #636567;
      }
    </style>
  </defs>
  <g id="Groupe_7548" data-name="Groupe 7548" transform="translate(-7202.253 -10496)">
    <g id="Groupe_7541" data-name="Groupe 7541" transform="translate(6622.253 8582)">
      <path id="polygon3282" class="cls-1" d="M64.427,59.18,40.38,73.459l31.136-2.113,2.4-31.4Z" transform="translate(548.204 1882.542)"/>
      <path id="polygon3293" class="cls-2" d="M150.175,119.121,147.5,100.65l-7.29,9.626Z" transform="translate(469.596 1834.746)"/>
      <path id="polygon3304" class="cls-2" d="M71.989,181.839,52.383,180.3,40.87,183.933Z" transform="translate(547.818 1772.028)"/>
      <path id="polygon3319" class="cls-1" d="M19.22,137.975l4.9-16.045-10.778,2.3Z" transform="translate(569.496 1817.99)"/>
      <path id="polygon3334" class="cls-1" d="M75.734,80.792,71.227,63.14,58.33,75.229Z" transform="translate(534.07 1864.282)"/>
      <path id="polygon3349" class="cls-1" d="M135.586,27.427,123.395,17.47,120,28.445Z" transform="translate(485.509 1900.244)"/>
      <path id="polygon3362" class="cls-1" d="M123.184.573l-7.17,3.962L111.49.52Z" transform="translate(492.21 1913.59)"/>
      <path id="polygon3375" class="cls-1" d="M0,113.624l3-5.478L.574,101.62Z" transform="translate(580 1833.982)"/>
      <path id="path3377" class="cls-3" d="M1.94,21.4,4.385,28.33l10.623-2.383L27.135,14.676,30.557,3.805,25.168,0,16.006,3.429c-2.887,2.685-8.488,8-8.69,8.1S3.617,18.241,1.94,21.4Z" transform="translate(578.473 1914)"/>
      <path id="path3400" class="cls-4" d="M14.393,12.858c6.256-6.2,14.321-9.868,17.417-6.745s-.187,10.712-6.443,16.913S11.145,33.093,8.052,29.97,8.137,19.059,14.393,12.858Z" transform="translate(574.603 1910.081)"/>
      <path id="path3413" class="cls-5" d="M41,137.756l4.86-16.1L62,126.845C56.163,132.317,49.673,136.942,41,137.756Z" transform="translate(547.716 1818.202)"/>
      <path id="path3424" class="cls-4" d="M120.56,65.039,124.7,81.451C129.578,76.325,133.952,70.815,136.1,64Z" transform="translate(485.068 1863.605)"/>
      <path id="path3435" class="cls-5" d="M148.273,14.326c1.658-5,2.041-12.183-5.778-13.516l-6.416,3.544Z" transform="translate(472.848 1913.362)"/>
      <path id="path3437" class="cls-5" d="M0,138.348c.23,8.259,6.188,8.382,8.726,8.454L2.863,133.11Z" transform="translate(580 1809.186)"/>
      <path id="path3448" class="cls-5" d="M120.669,65.207c3.746,2.3,11.295,6.926,11.448,7.011.238.134,3.255-5.087,3.939-8.038Z" transform="translate(484.983 1863.463)"/>
      <path id="path3459" class="cls-4" d="M63.83,121.66l6.5,12.534a42.008,42.008,0,0,0,9.6-7.34Z" transform="translate(529.739 1818.202)"/>
      <path id="path3472" class="cls-4" d="M9.94,133.18,9.02,144.14c1.737,2.372,4.126,2.579,6.632,2.394C13.839,142.021,10.217,133,9.94,133.18Z" transform="translate(572.898 1809.133)"/>
      <path id="path3485" class="cls-4" d="M135.9,4.35l12.906,1.811c-.689-2.919-2.8-4.8-6.409-5.391Z" transform="translate(472.989 1913.394)"/>
    </g>
  </g>
</svg>
