<svg xmlns="http://www.w3.org/2000/svg" viewBox="0 0 42.118 67.71"><defs><style>.cls-2{fill:#8a8c8f}.cls-2,.cls-3,.cls-5,.cls-6{fill-rule:evenodd}.cls-3{fill:#2d3032}.cls-5{fill:#434447}.cls-6{fill:#636567}</style></defs><g id="Groupe_7557" data-name="Groupe 7557" transform="translate(-7465.253 -10496)"><path id="Tracé_11988" data-name="Tracé 11988" d="M16.881 7.549h-2V11h-1.135V2.469h2.824a3.343 3.343 0 0 1 2.218.656 2.361 2.361 0 0 1 .776 1.91 2.3 2.3 0 0 1-.431 1.389 2.571 2.571 0 0 1-1.2.885l2 3.621V11h-1.2zm-2-.92h1.729a1.952 1.952 0 0 0 1.329-.429 1.465 1.465 0 0 0 .5-1.16 1.543 1.543 0 0 0-.472-1.213 2 2 0 0 0-1.367-.432h-1.723zm10.008 3.744a2.3 2.3 0 0 1-1.857.744 1.971 1.971 0 0 1-1.544-.589 2.549 2.549 0 0 1-.536-1.743V4.66h1.084v4.1q0 1.441 1.172 1.441a1.623 1.623 0 0 0 1.652-.926V4.66h1.08V11h-1.032zM32.953 7.9a3.77 3.77 0 0 1-.668 2.335 2.134 2.134 0 0 1-1.793.882 2.21 2.21 0 0 1-1.857-.85l-.053.733h-1V2h1.088v3.357a2.2 2.2 0 0 1 1.811-.814 2.147 2.147 0 0 1 1.813.873 3.883 3.883 0 0 1 .659 2.391zm-1.084-.123a2.929 2.929 0 0 0-.428-1.711 1.416 1.416 0 0 0-1.23-.6 1.591 1.591 0 0 0-1.541 1V9.2a1.636 1.636 0 0 0 1.553 1 1.408 1.408 0 0 0 1.213-.6 3.115 3.115 0 0 0 .433-1.823zm4.459 1.635L37.8 4.66h1.16l-2.549 7.318q-.592 1.582-1.881 1.582l-.205-.018-.4-.076v-.879l.293.023a1.442 1.442 0 0 0 .858-.223 1.611 1.611 0 0 0 .507-.814l.24-.645-2.26-6.268h1.184z" transform="translate(7459.816 10550.149)" fill="#2e3032"/><g id="Groupe_7548" data-name="Groupe 7548" transform="translate(263)"><g id="Groupe_7541" data-name="Groupe 7541" transform="translate(6622.253 8582)"><path id="polygon3282" class="cls-2" d="M64.427 59.18L40.38 73.459l31.136-2.113 2.4-31.4z" transform="translate(548.204 1882.542)"/><path id="polygon3293" class="cls-3" d="M150.175 119.121L147.5 100.65l-7.29 9.626z" transform="translate(469.596 1834.746)"/><path id="polygon3304" class="cls-3" d="M71.989 181.839L52.383 180.3l-11.513 3.633z" transform="translate(547.818 1772.028)"/><path id="polygon3319" class="cls-2" d="M19.22 137.975l4.9-16.045-10.778 2.3z" transform="translate(569.496 1817.99)"/><path id="polygon3334" class="cls-2" d="M75.734 80.792L71.227 63.14 58.33 75.229z" transform="translate(534.07 1864.282)"/><path id="polygon3349" class="cls-2" d="M135.586 27.427l-12.191-9.957L120 28.445z" transform="translate(485.509 1900.244)"/><path id="polygon3362" class="cls-2" d="M123.184.573l-7.17 3.962L111.49.52z" transform="translate(492.21 1913.59)"/><path id="polygon3375" class="cls-2" d="M0 113.624l3-5.478-2.426-6.526z" transform="translate(580 1833.982)"/><path id="path3377" d="M1.94 21.4l2.445 6.93 10.623-2.383 12.127-11.271 3.422-10.871L25.168 0l-9.162 3.429c-2.887 2.685-8.488 8-8.69 8.1S3.617 18.241 1.94 21.4z" transform="translate(578.473 1914)" fill="#fff" fill-rule="evenodd"/><path id="path3400" class="cls-5" d="M14.393 12.858c6.256-6.2 14.321-9.868 17.417-6.745s-.187 10.712-6.443 16.913S11.145 33.093 8.052 29.97s.085-10.911 6.341-17.112z" transform="translate(574.603 1910.081)"/><path id="path3413" class="cls-6" d="M41 137.756l4.86-16.1L62 126.845c-5.837 5.472-12.327 10.097-21 10.911z" transform="translate(547.716 1818.202)"/><path id="path3424" class="cls-5" d="M120.56 65.039l4.14 16.412c4.878-5.126 9.252-10.636 11.4-17.451z" transform="translate(485.068 1863.605)"/><path id="path3435" class="cls-6" d="M148.273 14.326c1.658-5 2.041-12.183-5.778-13.516l-6.416 3.544z" transform="translate(472.848 1913.362)"/><path id="path3437" class="cls-6" d="M0 138.348c.23 8.259 6.188 8.382 8.726 8.454L2.863 133.11z" transform="translate(580 1809.186)"/><path id="path3448" class="cls-6" d="M120.669 65.207c3.746 2.3 11.295 6.926 11.448 7.011.238.134 3.255-5.087 3.939-8.038z" transform="translate(484.983 1863.463)"/><path id="path3459" class="cls-5" d="M63.83 121.66l6.5 12.534a42.008 42.008 0 0 0 9.6-7.34z" transform="translate(529.739 1818.202)"/><path id="path3472" class="cls-5" d="M9.94 133.18l-.92 10.96c1.737 2.372 4.126 2.579 6.632 2.394-1.813-4.513-5.435-13.534-5.712-13.354z" transform="translate(572.898 1809.133)"/><path id="path3485" class="cls-5" d="M135.9 4.35l12.906 1.811c-.689-2.919-2.8-4.8-6.409-5.391z" transform="translate(472.989 1913.394)"/></g></g></g></svg>