<svg xmlns="http://www.w3.org/2000/svg" viewBox="0 0 28.242 61.85"><defs><style>.cls-1{fill:#676a71}.cls-2{fill:#2e3032}</style></defs><g id="Groupe_7554" data-name="Groupe 7554" transform="translate(-7665.469 -10721.268)"><g id="Groupe_7553" data-name="Groupe 7553" transform="translate(6585.924 8871.268)"><path id="path7" class="cls-1" d="M6.6-20s25.076 2.508 25.076 6.687v-10.03s0-4.179-25.076-6.687z" transform="translate(1074.403 1886.718)"/><path id="path14" class="cls-1" d="M6.6-.308S31.673 2.2 31.673 6.379V-3.652s0-4.179-25.076-6.687z" transform="translate(1074.403 1880.399)"/><path id="path21" class="cls-2" d="M31.673-39.877v10.03s0 4.179-25.076 6.687v-10.03s25.076-2.51 25.076-6.687" transform="translate(1074.403 1889.877)"/><path id="path28" class="cls-2" d="M6.6-13.5s25.076-2.508 25.076-6.687v10.03s0 4.179-25.076 6.687z" transform="translate(1074.403 1883.558)"/><path id="path35" class="cls-2" d="M6.6 16.225V6.195S31.673 3.687 31.673-.492v10.03s0 4.179-25.076 6.687" transform="translate(1074.403 1877.24)"/></g><path id="Tracé_11997" data-name="Tracé 11997" class="cls-2" d="M3.5-3.8a5.29 5.29 0 0 1-2.1-1.025 1.954 1.954 0 0 1-.659-1.5 2.064 2.064 0 0 1 .806-1.667 3.2 3.2 0 0 1 2.095-.659 3.5 3.5 0 0 1 1.567.34 2.577 2.577 0 0 1 1.066.938 2.4 2.4 0 0 1 .375 1.309H5.52a1.552 1.552 0 0 0-.493-1.216 2.006 2.006 0 0 0-1.389-.442 2.052 2.052 0 0 0-1.3.366 1.221 1.221 0 0 0-.463 1.016 1.1 1.1 0 0 0 .442.882 4.343 4.343 0 0 0 1.506.658 6.973 6.973 0 0 1 1.664.659 2.525 2.525 0 0 1 .891.841 2.146 2.146 0 0 1 .29 1.131 1.993 1.993 0 0 1-.809 1.662A3.448 3.448 0 0 1 3.7.117 4.01 4.01 0 0 1 2.057-.22a2.761 2.761 0 0 1-1.175-.923 2.252 2.252 0 0 1-.413-1.33H1.6a1.469 1.469 0 0 0 .571 1.222A2.4 2.4 0 0 0 3.7-.8a2.211 2.211 0 0 0 1.365-.363 1.18 1.18 0 0 0 .475-.99 1.158 1.158 0 0 0-.439-.97A5.066 5.066 0 0 0 3.5-3.8zm6.982 3.032a1.561 1.561 0 0 0 1.018-.351A1.237 1.237 0 0 0 11.977-2H13a1.966 1.966 0 0 1-.375 1.037 2.47 2.47 0 0 1-.923.785 2.663 2.663 0 0 1-1.222.293 2.612 2.612 0 0 1-2.06-.864 3.442 3.442 0 0 1-.765-2.364v-.182A3.817 3.817 0 0 1 8-4.939a2.588 2.588 0 0 1 .976-1.119 2.771 2.771 0 0 1 1.5-.4 2.543 2.543 0 0 1 1.772.639A2.283 2.283 0 0 1 13-4.16h-1.023a1.494 1.494 0 0 0-.466-1.011 1.449 1.449 0 0 0-1.034-.4 1.517 1.517 0 0 0-1.28.595 2.793 2.793 0 0 0-.454 1.72v.205a2.737 2.737 0 0 0 .451 1.688 1.524 1.524 0 0 0 1.288.595zM18.135 0a2.277 2.277 0 0 1-.152-.668 2.419 2.419 0 0 1-1.8.785 2.238 2.238 0 0 1-1.538-.53 1.716 1.716 0 0 1-.6-1.345 1.792 1.792 0 0 1 .747-1.542 3.55 3.55 0 0 1 2.118-.548h1.055v-.5a1.217 1.217 0 0 0-.34-.905 1.366 1.366 0 0 0-1-.337 1.581 1.581 0 0 0-.973.293.863.863 0 0 0-.393.709h-1.09A1.5 1.5 0 0 1 14.5-5.5a2.3 2.3 0 0 1 .914-.7 3.075 3.075 0 0 1 1.269-.258 2.506 2.506 0 0 1 1.717.548 1.976 1.976 0 0 1 .649 1.51v2.918a3.567 3.567 0 0 0 .223 1.389V0zm-1.8-.826a1.905 1.905 0 0 0 .965-.264 1.6 1.6 0 0 0 .662-.686v-1.3h-.85q-1.992 0-1.992 1.166a.987.987 0 0 0 .34.8 1.306 1.306 0 0 0 .876.284zM21.926 0h-1.084v-9h1.084zm5.648 0a2.277 2.277 0 0 1-.152-.668 2.419 2.419 0 0 1-1.8.785 2.238 2.238 0 0 1-1.538-.53 1.716 1.716 0 0 1-.6-1.345 1.792 1.792 0 0 1 .747-1.542 3.55 3.55 0 0 1 2.118-.548H27.4v-.5a1.217 1.217 0 0 0-.34-.905 1.366 1.366 0 0 0-1-.337 1.581 1.581 0 0 0-.973.293.863.863 0 0 0-.393.709h-1.09a1.5 1.5 0 0 1 .337-.917 2.3 2.3 0 0 1 .914-.7 3.075 3.075 0 0 1 1.269-.258 2.506 2.506 0 0 1 1.717.548 1.976 1.976 0 0 1 .647 1.515v2.918a3.567 3.567 0 0 0 .223 1.389V0zm-1.8-.826a1.905 1.905 0 0 0 .967-.264 1.6 1.6 0 0 0 .662-.686v-1.3h-.85q-1.992 0-1.992 1.166a.987.987 0 0 0 .34.8 1.306 1.306 0 0 0 .874.284z" transform="translate(7665 10783)"/></g></svg>