<svg xmlns="http://www.w3.org/2000/svg" viewBox="0 0 39.267 39.239"><g data-name="Groupe 7550"><g data-name="Groupe 6112"><path data-name="Tracé 10237" d="M8.722.003h21.854a8.693 8.693 0 0 1 8.691 8.691v21.853a8.693 8.693 0 0 1-8.691 8.691H8.722a8.693 8.693 0 0 1-8.691-8.691V8.694A8.693 8.693 0 0 1 8.722.003z" fill="#4a4d50"/><path data-name="Tracé 10238" d="M33.149 32.1s-1.523-2.539-4.064-2.539c-2.454 0-3.9 2.539-8.848 2.539-10.961 0-16.17-9.113-16.21-9.185L0 18.583V8.691A8.693 8.693 0 0 1 8.691 0h7.757l5.737 5.818c12.956 8.807 8.766 18.5 8.766 18.5s3.68 4.147 2.198 7.782z" fill="#2e3032"/><path data-name="Tracé 10239" d="M22.219 5.821c12.953 8.8 8.76 18.5 8.76 18.5s3.683 4.149 2.2 7.788c0 0-1.523-2.539-4.064-2.539-2.454 0-3.9 2.539-8.848 2.539-11 0-16.21-9.185-16.21-9.185 9.911 6.531 16.676 1.9 16.676 1.9-4.471-2.6-13.969-14.985-13.969-14.985 8.279 7.041 11.852 8.888 11.852 8.888-2.138-1.76-8.129-10.37-8.129-10.37 4.793 4.849 14.306 11.6 14.306 11.6 2.722-7.458-2.574-14.136-2.574-14.136z" fill="#fff"/></g></g></svg>