<svg id="Calque_1" data-name="Calque 1" xmlns="http://www.w3.org/2000/svg" viewBox="0 0 60 60"><defs><style>.cls-1{fill:#2d3032;}.cls-2{fill:#121415;}.cls-3{fill:#fff;}</style></defs><title>swift</title><path id="Tracé_10736" data-name="Tracé 10736" class="cls-1" d="M20.79,54.08a4.77,4.77,0,0,1-1.92-.93,1.77,1.77,0,0,1-.6-1.38A1.83,1.83,0,0,1,19,50.25a2.86,2.86,0,0,1,1.92-.6,3.1,3.1,0,0,1,1.43.31,2.33,2.33,0,0,1,1,.86,2.19,2.19,0,0,1,.35,1.2h-1a1.44,1.44,0,0,0-.45-1.12,1.83,1.83,0,0,0-1.27-.41,1.79,1.79,0,0,0-1.19.34,1.09,1.09,0,0,0-.43.93,1,1,0,0,0,.4.81,4.14,4.14,0,0,0,1.38.6,5.94,5.94,0,0,1,1.53.6,2.32,2.32,0,0,1,.82.77,2,2,0,0,1,.26,1A1.83,1.83,0,0,1,23,57.1a3.13,3.13,0,0,1-2,.57,3.66,3.66,0,0,1-1.5-.3,2.51,2.51,0,0,1-1.08-.85A2,2,0,0,1,18,55.3h1a1.32,1.32,0,0,0,.52,1.12,2.18,2.18,0,0,0,1.4.41,2,2,0,0,0,1.25-.33,1.1,1.1,0,0,0,.43-.91,1.07,1.07,0,0,0-.4-.89A4.6,4.6,0,0,0,20.79,54.08ZM30,56.2l1.12-4.44h1l-1.69,5.81h-.8l-1.42-4.4-1.37,4.4H26l-1.68-5.81h1l1.15,4.35,1.35-4.35h.8Zm4.2,1.37h-1V51.76h1Zm-1.07-7.35a.61.61,0,0,1,.15-.41.55.55,0,0,1,.44-.17.57.57,0,0,1,.44.17.59.59,0,0,1,.15.41.54.54,0,0,1-.59.56.57.57,0,0,1-.44-.16A.6.6,0,0,1,33.13,50.22Zm3.15,7.35v-5h-.91v-.77h.91v-.6a2,2,0,0,1,.5-1.45,1.89,1.89,0,0,1,1.42-.51,2.59,2.59,0,0,1,.68.09l-.06.81a3.07,3.07,0,0,0-.53-.05,1,1,0,0,0-.75.28,1.15,1.15,0,0,0-.26.81v.61h1.24v.77H37.28v5ZM41,50.35v1.41h1.08v.76H41v3.6a.76.76,0,0,0,.14.53.6.6,0,0,0,.49.17,2,2,0,0,0,.48-.06v.81a3.33,3.33,0,0,1-.77.11,1.3,1.3,0,0,1-1-.4A1.7,1.7,0,0,1,40,56.13v-3.6H38.91v-.77H40V50.35Z"/><g id="Groupe_6112" data-name="Groupe 6112"><path id="Tracé_10237" data-name="Tracé 10237" class="cls-1" d="M18.72,1H40.58a8.69,8.69,0,0,1,8.69,8.69V31.55a8.69,8.69,0,0,1-8.69,8.69H18.72A8.69,8.69,0,0,1,10,31.55V9.69A8.69,8.69,0,0,1,18.72,1Z"/><path id="Tracé_10238" data-name="Tracé 10238" class="cls-2" d="M43.15,33.1s-1.52-2.54-4.07-2.54-3.9,2.54-8.84,2.54c-11,0-16.17-9.11-16.21-9.19h0l-4-4.33V9.69A8.69,8.69,0,0,1,18.69,1h7.76l5.73,5.82h0c13,8.8,8.77,18.5,8.77,18.5S44.63,29.47,43.15,33.1Z"/><path id="Tracé_10239" data-name="Tracé 10239" class="cls-3" d="M32.22,6.82c13,8.8,8.76,18.5,8.76,18.5s3.68,4.15,2.2,7.79c0,0-1.52-2.54-4.07-2.54s-3.89,2.54-8.84,2.54c-11,0-16.21-9.19-16.21-9.19,9.91,6.54,16.67,1.9,16.67,1.9-4.47-2.6-14-15-14-15,8.28,7,11.86,8.89,11.86,8.89C26.48,18,20.49,9.36,20.49,9.36,25.28,14.21,34.79,21,34.79,21,37.52,13.5,32.22,6.82,32.22,6.82Z"/></g></svg>