<svg xmlns="http://www.w3.org/2000/svg" viewBox="0 0 39.267 39.239">
  <defs>
    <style>
      .cls-1 {
        fill: #4a4d50;
      }

      .cls-2 {
        fill: #2e3032;
      }

      .cls-3 {
        fill: #fff;
      }
    </style>
  </defs>
  <g id="Groupe_7550" data-name="Groupe 7550" transform="translate(-7321.753 -10620)">
    <g id="Groupe_6112" data-name="Groupe 6112" transform="translate(7321.753 10620)">
      <path id="Tracé_10237" data-name="Tracé 10237" class="cls-1" d="M9.691.1H31.545a8.693,8.693,0,0,1,8.691,8.691V30.644a8.693,8.693,0,0,1-8.691,8.691H9.691A8.693,8.693,0,0,1,1,30.644V8.791A8.693,8.693,0,0,1,9.691.1Z" transform="translate(-0.969 -0.097)"/>
      <path id="Tracé_10238" data-name="Tracé 10238" class="cls-2" d="M33.149,32.1s-1.523-2.539-4.064-2.539c-2.454,0-3.9,2.539-8.848,2.539-10.961,0-16.17-9.113-16.21-9.185h0L0,18.583V8.691A8.693,8.693,0,0,1,8.691,0h7.757l5.737,5.818h0c12.956,8.807,8.766,18.5,8.766,18.5S34.631,28.465,33.149,32.1Z"/>
      <path id="Tracé_10239" data-name="Tracé 10239" class="cls-3" d="M147.961,186.2c12.953,8.8,8.76,18.5,8.76,18.5s3.683,4.149,2.2,7.788c0,0-1.523-2.539-4.064-2.539-2.454,0-3.9,2.539-8.848,2.539-11,0-16.21-9.185-16.21-9.185,9.911,6.531,16.676,1.9,16.676,1.9-4.471-2.6-13.969-14.985-13.969-14.985,8.279,7.041,11.852,8.888,11.852,8.888-2.138-1.76-8.129-10.37-8.129-10.37,4.793,4.849,14.306,11.6,14.306,11.6C153.257,192.878,147.961,186.2,147.961,186.2Z" transform="translate(-125.742 -180.379)"/>
    </g>
  </g>
</svg>
