<svg xmlns="http://www.w3.org/2000/svg" viewBox="0 0 52.923 17.801">
  <defs>
    <style>
      .cls-1 {
        fill: #2e3032;
      }
    </style>
  </defs>
  <path id="Tracé_11995" data-name="Tracé 11995" class="cls-1" d="M19.226,6.562H14.653V19H11.577V6.562H7.065V4.07H19.226ZM22.919,13.8H17.146V11.412h5.773Zm9.475,1.282a1.579,1.579,0,0,0-.615-1.338,8.07,8.07,0,0,0-2.215-.984,15.7,15.7,0,0,1-2.533-1.02,4.138,4.138,0,0,1-2.543-3.7A3.605,3.605,0,0,1,25.17,5.88,4.448,4.448,0,0,1,27.129,4.4a7.372,7.372,0,0,1,2.866-.533,6.71,6.71,0,0,1,2.851.579A4.539,4.539,0,0,1,34.788,6.08a4.28,4.28,0,0,1,.692,2.4H32.4a2.013,2.013,0,0,0-.646-1.594,2.655,2.655,0,0,0-1.815-.569,2.837,2.837,0,0,0-1.753.477,1.5,1.5,0,0,0-.625,1.256,1.44,1.44,0,0,0,.733,1.22,8.283,8.283,0,0,0,2.158.923,9.326,9.326,0,0,1,3.825,1.958,3.9,3.9,0,0,1,1.2,2.912,3.593,3.593,0,0,1-1.466,3.04,6.419,6.419,0,0,1-3.948,1.1,7.623,7.623,0,0,1-3.138-.631,4.965,4.965,0,0,1-2.158-1.728,4.425,4.425,0,0,1-.743-2.543h3.086q0,2.471,2.953,2.471a2.873,2.873,0,0,0,1.712-.446A1.451,1.451,0,0,0,32.394,15.083Zm16.571-3.209a9,9,0,0,1-.677,3.635,6.24,6.24,0,0,1-1.876,2.476l2.481,1.948-1.958,1.733-3.179-2.553a6.728,6.728,0,0,1-1.128.092,6.211,6.211,0,0,1-3.312-.892,5.926,5.926,0,0,1-2.256-2.548,8.755,8.755,0,0,1-.81-3.809v-.738a8.965,8.965,0,0,1,.795-3.881,5.917,5.917,0,0,1,2.246-2.574,6.581,6.581,0,0,1,6.634,0A5.917,5.917,0,0,1,48.17,7.336a8.94,8.94,0,0,1,.795,3.871ZM45.848,11.2a6.283,6.283,0,0,0-.841-3.568,2.97,2.97,0,0,0-4.789-.015,6.211,6.211,0,0,0-.851,3.532v.728a6.361,6.361,0,0,0,.841,3.548,2.944,2.944,0,0,0,4.8.046,6.324,6.324,0,0,0,.841-3.543Zm7.609,5.332h6.532V19H50.381V4.07h3.076Z" transform="translate(-7.065 -3.865)"/>
</svg>
