<svg xmlns="http://www.w3.org/2000/svg" viewBox="0 0 61.038 61.037">
  <defs>
    <style>
      .cls-1 {
        fill: #2e3032;
      }

      .cls-2 {
        fill: #4a4d50;
      }

      .cls-3 {
        fill: #fff;
      }
    </style>
  </defs>
  <g id="Groupe_7551" data-name="Groupe 7551" transform="translate(-7054.816 -10716.932)">
    <path id="Tracé_11982" data-name="Tracé 11982" class="cls-1" d="M30.1,0A30.1,30.1,0,1,1,0,30.1,30.1,30.1,0,0,1,30.1,0Z" transform="translate(7055.655 10716.932)"/>
    <path id="Tracé_10244" data-name="Tracé 10244" class="cls-2" d="M9.184,9a30.1,30.1,0,1,0,42.5,42.5Z" transform="translate(7055.708 10716.397)"/>
    <path id="Tracé_10245" data-name="Tracé 10245" class="cls-3" d="M32,19.4,23.262,43.1H20.167l-8.6-23.7h3.095l6.584,18.812a11.165,11.165,0,0,1,.48,2.1h.066a10.346,10.346,0,0,1,.527-2.145l6.7-18.812Z" transform="translate(7054.968 10715.782)"/>
    <path id="Tracé_10246" data-name="Tracé 10246" class="cls-3" d="M36.92,43.1V19.4h6.744a7.374,7.374,0,0,1,4.872,1.5,4.863,4.863,0,0,1,1.806,3.922,5.766,5.766,0,0,1-1.119,3.5,5.888,5.888,0,0,1-3.01,2.116v.066a6.029,6.029,0,0,1,3.838,1.806,5.568,5.568,0,0,1,1.439,3.979,6.2,6.2,0,0,1-2.182,4.929,8.127,8.127,0,0,1-5.5,1.881Zm2.822-21.2v7.656h2.822a5.4,5.4,0,0,0,3.565-1.129,3.828,3.828,0,0,0,1.307-3.1q0-3.452-4.543-3.452Zm0,10.149v8.531H43.5a5.644,5.644,0,0,0,3.762-1.157,3.96,3.96,0,0,0,1.345-3.17q0-4.2-5.719-4.2Z" transform="translate(7053.462 10715.78)"/>
  </g>
</svg>
