<svg xmlns="http://www.w3.org/2000/svg" viewBox="0 0 67.044 16.212">
  <defs>
    <style>
      .cls-1 {
        fill: #2e3032;
      }
    </style>
  </defs>
  <path id="Tracé_11996" data-name="Tracé 11996" class="cls-1" d="M20.1,12.663l5.845,2.061V17.6l-8.829-3.743v-2.42L25.948,7.69v2.871ZM33.086,9.218l2.8-5.147h3.538l-4.348,7.4L39.535,19H35.957l-2.871-5.229L30.214,19H26.636l4.46-7.526-4.348-7.4h3.538ZM44.263,4.07,48.1,14.9,51.913,4.07h4.04V19H52.866V14.919l.308-7.044L49.144,19H47.032L43.012,7.885l.308,7.034V19H40.244V4.07ZM60.875,16.529h6.532V19H57.8V4.07h3.076Zm8.194,3.753h-2.2L72.36,4.07h2.2ZM81.19,12.632l-5.958-2.082V7.7l8.931,3.743v2.41l-8.931,3.753V14.745Z" transform="translate(-17.12 -4.07)"/>
</svg>
