<svg xmlns="http://www.w3.org/2000/svg" width="56" height="76"><path fill="#236A97" fill-rule="nonzero" d="M17.0487743 26.4874701c-.2633309-.4728576-1.091713.3613828-1.79162.7607377-2.0687996.6851018-3.9790932-1.532657-4.4992041-4.0925528-.3969505-1.9537243.6064908-3.6941751 1.7771685-4.1474922 2.1227488-.8219843 3.5884107-.2877 4.1680091 2.8376465 1.1349544.0049922 1.9983633-.1127172 2.3897069-.6850429-.0684018-1.529288-.7478783-2.8505691-.7226231-4.0184879.0659164-3.0482709 1.46717-5.1785694.4644218-8.35489055.0664461-.87419458 2.0685712-3.12052482 4.7722246-4.86588792 1.9747258-1.27479955 3.7726433-2.2680363 6.5660309-2.29279903 2.423728-.02148573 4.703752.44235801 8.5545414 2.25344223.9477408.4457359 2.8432176 2.82299404 4.1298563 4.4905583.0345611.08007787.014399.0857984-.192986.05719856-1.8308574-.32752321-2.8607584.55403556-2.7853569 1.76171361.9885263-.77163072 2.8770115-.60270742 4.1852372.7550201 3.0931417 2.8159886 1.0480218 16.8814333-1.4373276 20.0309168-2.0538241 3.9080016-4.3234108 5.2699709-8.6354801 6.2460792-1.8609157.2797775-3.8362101-.0940405-5.7140137-1.1865931-2.1407315-1.2455341-4.4144694-3.503981-6.0553618-6.1948739.0187808 2.0723495 3.7764384 6.0576603 5.9342381 7.2376698-.9367737.0237142-2.4691968-.3932156-3.1200741.7386627-5.9998256-.1512471-6.5604195-1.8928926-8.2563742-5.9540435-.3390647-.8119272-.7232751-1.9810477-.756441-2.6943729-.4627059-1.3040079 1.3941192-1.5492592 1.0254278-2.6826088zm1.4114021-18.4179207c-.7504505.44015027-1.1164727-.15117563-2.4875059.28615942-1.4904753.47543417-1.7618711.51125029-1.7438222.42310144 1.1400862-3.0500199 7.9781043-6.31313247 8.6498836-5.70269013h.0028816c.2534771.20019524.0555727.54255567-.3888558.69496208-.269705.09248869-1.768848 1.30622226-2.1944501 1.75372426-.4601907.48386846-.9379839 1.74136047-1.8381312 2.54474293zm-6.552946 9.7466289c-.2453848-3.0207694-.3236691-5.386481 1.5237371-6.8752622 1.8657474-1.5035618 4.4617843-2.02415494 4.5452929-1.6015585h-.0028736c.7186455 2.3687677-.3154615 4.9265824-.2585473 7.8946002.0184245.960804.6820579 2.3650825.4947415 3.0188752-.1190424.2205283-.3172893.2902448-.6567364.3431914-.1298428-2.3835495-2.5874789-4.2332759-5.6456142-2.7798461zm32.4737865 34.630842c1.0554108-3.1369598 4.2353252-11.7545206 4.0642596-13.2528985.040128-1.658918-2.5599197-2.6618238-5.334522-5.7627521-.2239439-.3911208.1247224-1.0979212.5605312-1.8527667 1.9562556-3.0924062 2.7360681-8.5637912 3.0284629-13.0388633 9.9973171 10.8607839 7.8274932 25.1614774 3.1482943 32.2027661-3.3426731.4176008-5.4734514 2.0281428-5.467026 1.7045145zm-3.9864971-16.3044329c.0779954-.1555206 1.260896-1.1362674 1.4862967-1.3212856.4301278.2716838 1.38033 1.2429404 2.383406 2.1319682 1.1109469.9846328 2.2727537 1.9048948 2.5593899 2.4582061.1526616.3031561.1526616.3088738.1238546.8408196-.836367 4.9767902-3.0647228 10.5983295-4.0252504 12.2770078-.2847638.4976759-1.1681317.5097189-2.4528022.5583352-1.1838459.0486209-1.5813443.1058206-1.9413954.2859939-.2246724.1143994-.2880451.1201171-.2880451.0200188 0-.1000938 4.6173036-7.6760398 4.8074125-8.0478265.2808776-.2329702-.8649593-1.0602052-.8785271-1.5129012.5691258-1.4867022.7019038-3.7086756.1826514-5.4432341-.6463905-2.1592441-1.4993073-1.6584963-1.9569909-2.2471022zM7.42243884 42.1312658c2.96225546-2.586478 6.14876306-4.4512718 9.48232206-5.8428294.5016567.0859968 1.2529385 1.2522493 2.1113377 2.1363665.9583995.987113 3.0928106 2.0244973 5.5447976 3.1401973 1.0727713 4.0182114 1.3969963 6.8164438 3.2692673 6.0230073.1814641-.0657785.3600511-.1201171.3888559-.1201171.4755212.2040689-1.4584967 1.587195-.8468409 2.5596351.927405.9815222 3.901969 2.1249765 6.2677861 3.2202814-4.3627853.216851-9.7240752.8353422-12.6450164 1.0381506-.3479927-.3262174-.5738478-1.5709715-.1526594-6.5864073 0-1.1983142-.5789648-1.1897309-.8007555.0142966-.3498102.8189554.7433036 5.0602025-.2010874 6.2322951-.7221824-.1516801-1.6541154-1.166919-1.9736252-.9986391-.1152167.1773168-.0057598.4747507.308206.8379585.4796679.6176388.3551967 1.0049462-.4579872 1.1296701-.6279317.1344181-.9015687.3317491-.9015687.6663639-.1395094.3793679 1.7505102-.2829514 3.5342674.2173543.2443345 2.3134203.7231506 6.0003224 1.2126529 9.7494889-.9334102.1562189-2.6924146-.144593-5.3689015-1.2736192-1.3569528-.5724096-2.9659282-1.5385969-4.7903192-2.4042461-.200343-6.1900766-1.0420005-13.0804379-3.98073156-19.7392074zm33.34942636-4.1568963c1.0761987.6798942 1.2887029 4.6628109.5588004 5.5525415-1.6636188-.111969-3.5862152-.3158021-4.634591-.6463406l.0144058-1.5100401c.2330021-.2415718.7888386-.3189489 1.4641343-.335567.1722553-.0263259.0618314-.1123771-.7209905-.256435-.3190395-.0503213-.3024234-.0644636-.5357543-.0228799-.296683.0571997-.3686937.0085833-.4464653-.2659706-.2473759-.6561483-.3081684-.5911451-.0748878-.6806605 1.7038609-1.0030418 3.0355483-2.2834828 4.3753484-1.8346478zm-5.570723 1.5515014c-2.185086.1358646-2.8748468-.4421992-3.5372803-.9069699-.1847635-.1519839-.0382396-.2665147.2881729-.1941026 1.500481.5652363 3.0031449-.2086077 5.104091-.5147882.1092616.0026072.1216968.0972554-.0086357.1887613l-1.8463479 1.4270994zm-10.7900283.366069c-.0288047.2345164-.0432083.2516741-.1584226.2516741-2.0120338-.3476962-3.7995849-1.358682-3.5745951-1.9418921.0921728-.2950715.0477019-.2362622.6610565.0114399 1.2486549.4270956 3.4091261.2227999 3.2937519.5605479l-.2217907 1.1182302zm1.5928594-1.3184178c.528331-.508549 1.3135619-.2434308 3.3405929.4603 2.1563543.7486335 2.3527608 1.4729544 3.6588196 1.62458.0561572.2824799.1364588.3496232-.1526616.5033482-.6745057.2826975-.9914879.3036775-1.4488495.4375697-.2534725.0714962-.3110842.1916133-.0662497.1429924.2794002-.0571997 1.6764011.3346103 1.8204201.5090659.0483778.1974263.0158878.6200102-.0057632 1.0124142-1.0173949.6903864-1.5958346 1.4047092-2.4893247 1.9470792-1.6727499 1.0154068-3.4106559 1.5628416-3.8879125 1.1702382-1.2952561-2.9770501-1.932367-5.7144963-.7690714-7.8075878zm8.583643 4.0925506c-.3825812 0-.5086758.0036728-.592898-.1884484l-.3086707-1.4931862c-.0375089-.2543493.0086426-.3002905.1353811-.3632124.8101859-.491804 1.505968-.2981457 1.7599291.2945727.3145116.7340378.0616898 1.7664571-.9937415 1.7502743zm2.6931749 9.5121068c-1.4713976-2.4595278-2.2944343-5.4311004-4.0585054-7.8190368l.4925506-.6492017c1.0905427.2081633 1.2475496-.429535 2.1902373-.3751193.5379942.0310551 1.0523054.9250978 2.2427228 1.0128856-.1457864 3.9609981-.3897989 6.9955018-.8670053 7.8304722zm1.6090782-7.7096341c1.3227297-.7345955 2.8101361.0347732 3.3798098 1.1032127-1.610471 2.9352215-3.4830136 5.9623388-4.3829794 6.8766044.5539163-2.3396918.9406874-5.2615781 1.0031696-7.9798171zm-10.4749847 4.7267303c.558451-2.0553211 2.0712576-2.9049145 3.9116025-4.0982773 1.4246776 1.5691577 2.6177963 4.4670215 3.8050284 7.3986337-.2971831.24412-5.4596849-1.8637622-7.7166309-3.3003564zm23.1182041 12.895413c-1.3330231.5543042-4.0072895.5021466-4.1852372.1315615.0739037-.3542844 3.1411702-.7231918 3.1396495-.8608383-.6133912-.3748428-2.7728487-.3046524-5.4785479-.077223-.270648-2.6463211-.537597-5.3210721-.9793426-6.6521858.7334235-.8522005 3.4006662-1.4868246 4.5191437-1.9646812.815803-.3485441 2.1127077-1.3390668 3.4019951.8207101.9678298 2.8423689 2.7158877 6.8163441-.4176606 8.6026567zm-9.3987815-.1401404c-.1433729-1.4407521-.5979511-4.2829396-.9707023-7.1269364.0110378-.0756541-.1462499-.1899945 1.5642693-.1007512.9756754 1.6290689 1.2601698 4.0207551 1.2412544 6.7472193-.8914739.3505799-1.4238694.4422762-1.8348214.4804683zM24.6559484 73.4016815c-1.8657839-5.9032529-3.0647183-11.7852764-3.5861148-17.6457396 4.4640711-.8617996 10.0507435-1.5304034 15.1941792-.643475.7175837 8.3497085.7617578 15.8041862 1.3480363 18.5580554-3.4600635.9393037-7.5809416 1.0867443-12.9561007-.2688408zm12.9647364-9.9096299c-.2218158-2.9470242-.3887851-5.8165669-.3226039-8.3567048.6615704-.1614876 1.3503996-.2862705 2.2747495-.1747186.5406201 2.071853.6619904 5.487357.888204 7.8893586.0043704.0464353.0030917.1411424-.0233041.1901941-1.1417039.2140125-2.6601893.5458614-2.8170455.4518707zm2.7940109 6.8009004c-.8881082.3303344-1.7105329.5320546-2.4109114.4947649-.1643206-2.1891635-.2022245-4.4026532-.2534748-5.9429278 1.1125659-.0275274 1.9020826-.6572183 1.8549904.0600654.2541758 1.6986744.8236669 3.3178768.8093958 5.3880975zm.8612375-52.6483682c-.1872274.0486197-.2073895.0657774-.2073895.1944744 0 .4575884.3312441.8751371.7949877 1.0124141.7517909.2144932 2.0422154-.1773156 2.7219934-.8179397.4176606-.4003899.4118974-.37179.0720084-.9323357-.2765209-.4518684-.8324396-1.5557987-1.4142792-2.8084481-.1296224-.2859928-.2506-.514787-.2678805-.514787-.0230438 0-.0360042.1673074-.0360042.3675006 0 .6463429.1598679 1.2855387.5861688 2.3437103.1296179.3231715.2304333.632043.2189114.6892427-.047622.3048632-1.7124007.2862909-2.4685163.4661684zm-8.8054178-.674945c-.6048834-.6291842-.7345035-.8379596-1.2068942-1.9418898-.1785871-.4146899-.5357612-1.1697088-.5357612-1.1697088-.3586149 1.3439377 1.1471681 3.4797556 1.3221155 4.0782541-.1473871.3515298-.8972714.4688277-1.686263.3515298-1.1793841-.1753364-1.6776272-.344411-1.750074-.0969969-.1583062.3134421-.1793109.5622358.0695743.8514627.5033395.584924 2.0079877.7810739 3.0671136.5706162.5009488-.0995429.7407462-.3381674 1.0283939-.5784016.4119202-.3440245.5241525-.9569113.2809826-1.3840749-.1231057-.2162525-.3522101-.4109649-.5891875-.6807908zm2.4483473 10.2070751c3.5064365.196941 5.3796962-1.1430348 7.4055398-2.3394175.0751549-.4534056.3155985-1.0462102.4608666-1.5929808.0950567-.4575862.0576094-.5290869-.7517864-1.3184268-2.0854214-2.0276848-4.3580678-5.1621667-4.6288254-6.3947939-.1719059-.8159288-.6864408-.820938-.599127-.2087743-.0130198 2.2932077 2.1214256 4.9591893 4.0786677 7.0954765.5821227.5774902.8298593 1.3924554.146903 2.2450436-1.2912055.6016759-2.579438 1.2011618-3.3412803 1.4128052-2.725544.4427795-2.5725262.0994839-3.0445949-1.5701032 0-.0085788-.0172852-.0200187-.0489669-.0200187-.2396513.1542918-.8132822 1.5595995.3226038 2.6911899zm-18.9272026-3.7121806c.5120563-3.2591491-3.2341125-4.7353352-3.8154246-2.0384129.0684612.2191362.3203958-.6146734 1.1193578-.3667876-.4047299 1.4989357-.30906 2.6578608.2144074 3.5278289.1771645.219805.0729697-1.9784269.2378166-2.4439163.2146791-.578057.6621457-.8122356 1.0242599-.5554809.3348872.2374501.7232739 1.3000631 1.2195829 1.8767688zM37.977868 29.985162c.0058957-.6745097-.0058591-1.3032075-.1008131-1.7159567-2.5228263-.0387385-5.4137344-.0493554-7.1319052-.8579772-.0777716-.0343199-.0720107-.0042895.0489646.2216437.6669865 1.320313 3.4760563 2.5471818 7.1837537 2.3522902zm-8.3186418-.5205058c.605251.5591037 1.2321735 1.5441173 1.797381 2.2164415 1.5968598 1.9539169 5.8118059 1.4710364 7.0598944.6377641.1497801-.1229782.4925506-.6005854.4925506-.6806627-4.1099886-.0213768-7.289903.2138719-8.6412433-2.3079588-.1630898-.3833694-.2429941-.3504598-.5720645-.2768302-.3105339.0694807-.2772858.2201542-.1365182.4112461zm19.8505261 24.8374977c-.7082744-.0782477-2.9402106.3236555-3.846942 1.6425538 1.1316115.177081 2.5202484-1.1793474 3.846942-1.6425538zm.879815 2.3975761c.1807562-.0576803-1.3810242-.4067458-2.5775565-.3445675-.6858425.0356393-1.3818187.3913883-1.2303536.5447597.7647057.0825235 2.1757607-.0261355 3.8079101-.2001922zm.37445 2.0334071c-1.2844649-.396648-3.5702567-.7666799-4.297579-.0858018.204348.1373155 4.7274557.2154227 4.297579.0858018zM10.00905 17.2442234c.4131133-.5564388.4900949.7719747.3360872 1.1800536-2.26958619 2.8168025-.64580712 9.8906178 4.1429491 10.7114866-.0527059 2.1839014 1.7782406 4.0514339 1.7922055 5.0245428.0131558.9233499-2.643008 1.7219601-8.20474079 5.4054705-1.01301658.6709164-2.16982393.9905273-2.26615024 2.0049455-.14060831 1.7961928 3.26377063 7.4421808 3.76758284 14.0451018-7.74279379-6.602921-13.29829129-25.1133417.43206639-38.3716008zm11.3344206 49.95143c.7744808 2.7034618 1.5656256 5.539773 2.540527 7.8562177 4.1938386 1.2252114 8.3597722 1.0468518 12.3713795.6577851 1.7400089-.2462784 2.3531033-.8003196 2.67046-1.6274548.0736981-.1920849-.1473962-.978711-.1212927-1.8530705 1.3465269-.278195 2.5070002-.3087876 2.9177925-1.6649395.3717465-1.2272791-1.1306023-4.8176195-.5932976-6.1483841.7907772-.1828803 1.3238805-.563613 1.2385829-1.3870664.8995479-.5029854 2.2333473-.6780895 3.8107871-.6692205.1209867.2266949.2695702.4509186.4522262.6720862.1785871.2059143.1872274.2087754.679778.2945727 1.5064589.2573964 2.3908406.2226684 4.2313293.0142965 2.9667936-.3240363 3.6401873-5.0599803 2.8055191-7.278503-.4205377-1.4499839-.9678207-2.9257087-1.376841-3.7121852-.6888338-1.1635772-1.1668804-1.1161126-1.3509111-1.3699042 6.1624679-10.1759497 5.1983554-25.3322172-5.0119272-34.8939595-.1491178-6.56000758-2.9313374-10.88118462-8.5286046-14.55627608-3.0926211-2.03057428-12.370489-2.17915292-16.7556673.40250145-3.8552272 2.07365627-7.4997837 3.46897675-8.5519475 7.22703241-2.0096215 1.14435482-2.545466 3.32852382-2.6701461 5.80279012-13.67288175 11.6898471-13.14913114 31.9336859-.34277054 43.1705844.19339699 2.1792606-.08949447 4.8812579.69418034 5.3966763 1.3862439.792693 2.8089087 1.2135222 3.9831199 1.8179844 1.9821925 1.020399 3.7363561 1.9764568 6.9077238 1.8484365zm7.9065686-56.6769982c.2992861-.1857233.3606471-1.38743884-1.4839585-1.54769376-.5022504-.04363432-1.4704433.40739137-2.2695867 1.07719506-.9602103.8048006-1.3603391 1.5809877-1.5712519 2.2658242-.0901726.2927942-.1088871.5476445-.0862246.748247.0238726.2113237.2608089.4837171.3231587.4775267.457599-.0454344.9477407-3.6401765 5.087863-3.0210992zm9.4623346 17.6904915c-.043206.0714985-.0518462 1.2183285-.0086449 1.4757226.0288071.1773168.0374473.1801733.2304333.1801733 2.3590241-.1859341 3.7712802-1.9131607 4.6201829-3.6149456-4.1535211 2.3084802-4.3352318 1.6143485-4.8419713 1.9590497zm-1.955767 17.3298377c0-.4171746-.4541626-.6793274-.8155312-.4707378-.3613687.2085896-.3613664.7328906 0 .9414802.3613686.2085895.8155312-.0535633.8155312-.4707424zm.5558502 2.590917c0-.4113662-.4514727-.6698689-.8107019-.4641858-.3592291.2056831-.3592291.722684 0 .9283671.3592292.2056831.8107019-.0528151.8107019-.4641813z"/></svg>