<svg width="62" height="76"
  xmlns="http://www.w3.org/2000/svg"
  xmlns:xlink="http://www.w3.org/1999/xlink">
  <defs>
    <path id="a" d="M0 76h62V0H0z"/>
  </defs>
  <g fill="none" fill-rule="evenodd">
    <path d="M24 37v4.667c0 .597.244 1.194.733 1.65A2.584 2.584 0 0 0 26.5 44c.64 0 1.279-.227 1.767-.684a2.246 2.246 0 0 0 .733-1.65V37" stroke="#236A97" stroke-width="2"/>
    <path d="M28 37v5.714c0 .585.244 1.17.733 1.616.488.447 1.127.67 1.767.67.64 0 1.279-.223 1.767-.67A2.18 2.18 0 0 0 33 42.714V37M33 36.53v14.117c0 .602.244 1.205.733 1.664.488.46 1.127.689 1.767.689.64 0 1.279-.23 1.767-.69A2.273 2.273 0 0 0 38 50.648V33" stroke="#236A97" stroke-width="2"/>
    <path d="M23.8 36.958v3.625c0 .619-.234 1.238-.703 1.709A2.382 2.382 0 0 1 21.4 43a2.382 2.382 0 0 1-1.697-.708A2.414 2.414 0 0 1 19 40.583V23.667L21.4 14h16.8v3.625l4.8 8.458v7.25c0 .619-.234 1.238-.703 1.709a2.382 2.382 0 0 1-1.697.708 2.382 2.382 0 0 1-1.697-.708 2.414 2.414 0 0 1-.703-1.709V28.5M40 0v14H19V0M36 10V8M56 47V29M60 41l-4.5 5-4.5-5M56 26v-2M56 21v-2M6 47V29M10 41l-4.5 5L1 41M6 26v-2M6 21v-2M41.8 54h18c.307 0 .614.114.848.342.234.227.352.526.352.825v18.666c0 .299-.118.598-.352.825A1.214 1.214 0 0 1 59.8 75H2.2c-.307 0-.614-.114-.848-.342A1.147 1.147 0 0 1 1 73.833V55.167c0-.299.118-.598.352-.825.234-.228.54-.342.848-.342h27.6M25 64h2M30 64h2M35 64h2" stroke="#236A97" stroke-width="2"/>
    <mask id="b" fill="#fff">
      <use xlink:href="#a"/>
    </mask>
    <path stroke="#236A97" stroke-width="2" mask="url(#b)" d="M6 70h50V58H6z"/>
  </g>
</svg>