<svg xmlns="http://www.w3.org/2000/svg" width="28" height="28"><g fill="none" fill-rule="evenodd" transform="translate(-4 -4)"><path d="M0 0h36v36H0z"/><path fill="#236A97" fill-rule="nonzero" d="M31.3333333 15.2148148H21.28821l4.0595336-4.1777778c-4.0447178-3.99999996-10.5933086-4.14814811-14.6380264-.1481481-4.04471779 4.0148148-4.04471779 10.4888889 0 14.5037037 4.0447178 4.0148148 10.5933086 4.0148148 14.6380264 0 2.014951-1.9851852 3.0224265-4.3111111 3.0224265-7.2444445h2.9631632c0 2.9333334-1.3037918 6.7407408-3.9113754 9.3185186-5.2003515 5.1555555-13.6453667 5.1555555-18.84571821 0-5.18553566-5.1407408-5.2299831-13.4962963-.02963163-18.63703707 5.20035144-5.14074074 13.54165594-5.14074074 18.74200744 0l4.0447178-4.16296296V15.2148148zm-12.5934437-3.1407407v6.2962963l5.1855356 3.0814815-1.0667387 1.7925925-6.3411693-3.7629629v-7.4074074h2.2223724z"/></g></svg>